<svg xmlns="http://www.w3.org/2000/svg" xmlns:xlink="http://www.w3.org/1999/xlink" width="1920.001" height="853.58" viewBox="0 0 1920.001 853.58"><defs><linearGradient id="a" x1="0.273" y1="0.089" x2="1" y2="0.5" gradientUnits="objectBoundingBox"><stop offset="0" stop-color="#2cae70"/><stop offset="1" stop-color="#edb72a"/></linearGradient><linearGradient id="b" x1="0.3" y1="0.128" x2="0.698" y2="0.277" gradientUnits="objectBoundingBox"><stop offset="0" stop-color="#e5512c"/><stop offset="1" stop-color="#8c4f9b"/></linearGradient><linearGradient id="c" x1="0.124" y1="0.281" x2="0.903" y2="0.848" gradientUnits="objectBoundingBox"><stop offset="0" stop-color="#edb72a"/><stop offset="1" stop-color="#e5512c"/></linearGradient><linearGradient id="d" x1="0.5" y1="0.358" x2="0.5" y2="0.77" gradientUnits="objectBoundingBox"><stop offset="0" stop-color="#8c4f9b"/><stop offset="1" stop-color="#4b63ad"/></linearGradient><linearGradient id="e" x1="0.5" x2="0.5" y2="1" gradientUnits="objectBoundingBox"><stop offset="0" stop-color="#fff"/><stop offset="1" stop-color="#e5512c"/></linearGradient><filter id="f" x="359.271" y="288.588" width="237.933" height="213.368" filterUnits="userSpaceOnUse"><feOffset dx="30" dy="30" input="SourceAlpha"/><feGaussianBlur stdDeviation="0.5" result="g"/><feFlood flood-color="rgb(0,0,0)" flood-opacity="0.102"/><feComposite operator="in" in2="g"/><feComposite in="SourceGraphic"/></filter><linearGradient id="h" x1="0.5" x2="0.5" y2="1" gradientUnits="objectBoundingBox"><stop offset="0" stop-color="#fff"/><stop offset="1" stop-color="#edb72a"/></linearGradient><filter id="i" x="1498.521" y="239.838" width="112.5" height="113.5" filterUnits="userSpaceOnUse"><feOffset dx="30" dy="30" input="SourceAlpha"/><feGaussianBlur stdDeviation="0.5" result="j"/><feFlood flood-color="rgb(0,0,0)" flood-opacity="0.161"/><feComposite operator="in" in2="j"/><feComposite in="SourceGraphic"/></filter><linearGradient id="k" x1="0.5" y1="0.098" x2="0.5" y2="0.898" gradientUnits="objectBoundingBox"><stop offset="0" stop-color="#2cae70"/><stop offset="1" stop-color="#8c4f9b"/></linearGradient></defs><g transform="translate(1.185 -1107.05)"><path d="M273.185,1883.383c46.966-80.216,95-124.018,222.556-138.266s179.859,54.357,304.747,36.941,112.079-99.214,228.426-113.99,236.966,54.885,236.966,54.885v508.733H151.5S226.219,1963.6,273.185,1883.383Z" transform="translate(652.934 -558.961)" fill="url(#a)"/><path d="M303.661,1673.6c-115.014,0-255.112,56.84-290.337,159.045s95.534,164.915,149.438,249.775,120.084,10.674,195.337,0,100.337-5.337,140.9-62.978,258.314-76.32,285-128.089-112.879-78.989-214.55-148.371S418.675,1673.6,303.661,1673.6Z" transform="translate(12.71 -451.324)" fill="url(#b)"/><path d="M0,2478.029V1696.99s158.577,86.119,411.314,152.3,394.242-47.56,599.633-51.365,250.736,93.664,478,106.5S1920,1849.293,1920,1849.293v628.736Z" transform="translate(-1.184 -517.411)" fill="url(#c)"/><path d="M340.293,231.184H28.356a165.082,165.082,0,0,1-10.228-15.649A141.086,141.086,0,0,1,4.771,184.252,121.826,121.826,0,0,1,0,150.746c0-22.307,4.39-43.247,13.048-62.24A138.584,138.584,0,0,1,28.358,62.751,143.227,143.227,0,0,1,48.633,40.985,154.147,154.147,0,0,1,73.207,23.519a169.3,169.3,0,0,1,28.2-12.859,186.692,186.692,0,0,1,31.168-7.942A205,205,0,0,1,166.042,0a329.721,329.721,0,0,1,44.684,3.165,354.849,354.849,0,0,1,46.426,9.554,300.072,300.072,0,0,1,44.433,16.032,211.218,211.218,0,0,1,38.708,22.6V231.183Z" transform="translate(1578.523 1729.446)" fill="url(#d)"/><g transform="matrix(1, 0, 0, 1, -1.18, 1107.05)" filter="url(#f)"><path d="M75.306-17.4c46.621,0,112.331,34.769,117.68,97.621S146,164.468,99.377,164.468-10.279,149.091-12.954,80.221,28.685-17.4,75.306-17.4Z" transform="translate(372.34 305.99)" fill="url(#e)"/></g><g transform="matrix(1, 0, 0, 1, -1.18, 1107.05)" filter="url(#i)"><ellipse cx="40.5" cy="41" rx="40.5" ry="41" transform="translate(1498.52 239.84)" fill="url(#h)"/></g><path d="M46.634,399.542A159.483,159.483,0,0,1,0,392.607V4.385A98.172,98.172,0,0,1,29.254,0,113.161,113.161,0,0,1,46.634,1.381C75.1,5.824,101.467,14.2,124.99,26.28A208.911,208.911,0,0,1,185.019,72a196.332,196.332,0,0,1,38.423,63.544c8.982,24.195,13.536,50.56,13.536,78.361a175.993,175.993,0,0,1-17.2,76.688,180.243,180.243,0,0,1-19.513,31.717,192.116,192.116,0,0,1-25.019,26.8,202.925,202.925,0,0,1-29.2,21.5,205.864,205.864,0,0,1-32.052,15.823,196.846,196.846,0,0,1-33.579,9.77A176.817,176.817,0,0,1,46.634,399.542Z" transform="translate(-1.179 1501.078)" fill="rgba(0,0,0,0.1)"/><path d="M16.638,399.539A161.762,161.762,0,0,1,0,398.68V0A113.371,113.371,0,0,1,16.638,1.379c28.47,4.442,54.833,12.82,78.356,24.9A208.915,208.915,0,0,1,155.023,72a196.333,196.333,0,0,1,38.423,63.544c8.982,24.2,13.536,50.56,13.536,78.361a175.994,175.994,0,0,1-17.2,76.688,180.245,180.245,0,0,1-19.513,31.717,192.112,192.112,0,0,1-25.019,26.8,202.934,202.934,0,0,1-29.2,21.5A205.865,205.865,0,0,1,84,386.428a196.848,196.848,0,0,1-33.579,9.77A176.818,176.818,0,0,1,16.638,399.539Z" transform="translate(-1.18 1471.086)" fill="url(#k)"/></g></svg>