<svg xmlns="http://www.w3.org/2000/svg" xmlns:xlink="http://www.w3.org/1999/xlink" width="1920" height="654.867" viewBox="0 0 1920 654.867"><defs><linearGradient id="a" x1="0.273" y1="0.089" x2="1" y2="0.5" gradientUnits="objectBoundingBox"><stop offset="0" stop-color="#2cae70"/><stop offset="1" stop-color="#edb72a"/></linearGradient><linearGradient id="b" x1="0.3" y1="0.128" x2="0.698" y2="0.277" gradientUnits="objectBoundingBox"><stop offset="0" stop-color="#e5512c"/><stop offset="1" stop-color="#8c4f9b"/></linearGradient><linearGradient id="c" x1="0.124" y1="0.281" x2="0.903" y2="0.848" gradientUnits="objectBoundingBox"><stop offset="0" stop-color="#edb72a"/><stop offset="1" stop-color="#e5512c"/></linearGradient><linearGradient id="d" x1="0.5" y1="0.358" x2="0.5" y2="0.77" gradientUnits="objectBoundingBox"><stop offset="0" stop-color="#8c4f9b"/><stop offset="1" stop-color="#4b63ad"/></linearGradient><linearGradient id="e" x1="0.5" x2="0.5" y2="1" gradientUnits="objectBoundingBox"><stop offset="0" stop-color="#fff"/><stop offset="1" stop-color="#e5512c"/></linearGradient><filter id="f" x="359.275" y="227.682" width="237.934" height="213.368" filterUnits="userSpaceOnUse"><feOffset dx="30" dy="30" input="SourceAlpha"/><feGaussianBlur stdDeviation="0.5" result="g"/><feFlood flood-opacity="0.102"/><feComposite operator="in" in2="g"/><feComposite in="SourceGraphic"/></filter><linearGradient id="h" x1="0.5" x2="0.5" y2="1" gradientUnits="objectBoundingBox"><stop offset="0" stop-color="#fff"/><stop offset="1" stop-color="#edb72a"/></linearGradient><filter id="i" x="1498.524" y="178.073" width="112.5" height="113.5" filterUnits="userSpaceOnUse"><feOffset dx="30" dy="30" input="SourceAlpha"/><feGaussianBlur stdDeviation="0.5" result="j"/><feFlood flood-opacity="0.161"/><feComposite operator="in" in2="j"/><feComposite in="SourceGraphic"/></filter><linearGradient id="k" x1="0.5" y1="0.098" x2="0.5" y2="0.898" gradientUnits="objectBoundingBox"><stop offset="0" stop-color="#2cae70"/><stop offset="1" stop-color="#8c4f9b"/></linearGradient></defs><g transform="translate(0 -5331.717)"><path d="M273.185,1883.38c46.966-80.216,95-124.018,222.556-138.266s179.859,54.357,304.747,36.941,112.079-99.214,228.426-113.99,236.966,54.885,236.966,54.885v508.733H151.5S226.219,1963.6,273.185,1883.38Z" transform="translate(654.118 3665.709)" fill="url(#a)"/><path d="M303.661,1673.6c-115.014,0-255.112,56.84-290.337,159.045s95.534,164.915,149.438,249.775,120.084,10.674,195.337,0,100.337-5.337,140.9-62.978,258.314-76.32,285-128.089-112.879-78.989-214.55-148.371S418.675,1673.6,303.661,1673.6Z" transform="translate(13.894 3736.904)" fill="url(#b)"/><path d="M0,2279.313V1696.99s158.577,64.208,411.314,113.551,394.242-35.46,599.633-38.3,250.736,69.833,478,79.4S1920,1810.541,1920,1810.541V2279.31Z" transform="translate(0 3707.259)" fill="url(#c)"/><path d="M340.293,231.184H28.356a165.083,165.083,0,0,1-10.228-15.649A141.086,141.086,0,0,1,4.771,184.252,121.826,121.826,0,0,1,0,150.746c0-22.307,4.39-43.247,13.048-62.24a138.584,138.584,0,0,1,15.31-25.755A143.226,143.226,0,0,1,48.633,40.985,154.148,154.148,0,0,1,73.207,23.519a169.3,169.3,0,0,1,28.2-12.859,186.692,186.692,0,0,1,31.168-7.942A205,205,0,0,1,166.042,0a329.725,329.725,0,0,1,44.684,3.165,354.841,354.841,0,0,1,46.426,9.554,300.076,300.076,0,0,1,44.433,16.032,211.221,211.221,0,0,1,38.708,22.6V231.183Z" transform="translate(1579.707 5755.399)" fill="url(#d)"/><g transform="matrix(1, 0, 0, 1, 0, 5331.72)" filter="url(#f)"><path d="M75.306-17.4c46.621,0,112.331,34.769,117.68,97.621S146,164.468,99.377,164.468-10.279,149.091-12.954,80.221,28.685-17.4,75.306-17.4Z" transform="translate(372.34 245.08)" fill="url(#e)"/></g><g transform="matrix(1, 0, 0, 1, 0, 5331.72)" filter="url(#i)"><ellipse cx="40.5" cy="41" rx="40.5" ry="41" transform="translate(1498.52 178.07)" fill="url(#h)"/></g><path d="M46.634,399.542A159.484,159.484,0,0,1,0,392.607V4.385A98.172,98.172,0,0,1,29.254,0a113.161,113.161,0,0,1,17.38,1.381C75.1,5.824,101.467,14.2,124.99,26.28A208.911,208.911,0,0,1,185.019,72a196.332,196.332,0,0,1,38.423,63.544c8.982,24.195,13.536,50.56,13.536,78.361a175.994,175.994,0,0,1-17.2,76.688,180.242,180.242,0,0,1-19.513,31.717,192.117,192.117,0,0,1-25.019,26.8,202.925,202.925,0,0,1-29.2,21.5,205.869,205.869,0,0,1-32.052,15.823,196.844,196.844,0,0,1-33.579,9.77A176.815,176.815,0,0,1,46.634,399.542Z" transform="translate(0.005 5577.031)" fill="rgba(0,0,0,0.1)"/><path d="M16.638,399.539a161.712,161.712,0,0,1-16.627-.858L0,0A113.371,113.371,0,0,1,16.638,1.379c28.47,4.442,54.833,12.82,78.356,24.9A208.915,208.915,0,0,1,155.023,72a196.333,196.333,0,0,1,38.423,63.544c8.982,24.2,13.536,50.56,13.536,78.361a175.994,175.994,0,0,1-17.2,76.688,180.246,180.246,0,0,1-19.513,31.717,192.116,192.116,0,0,1-25.019,26.8,202.933,202.933,0,0,1-29.2,21.5A205.867,205.867,0,0,1,84,386.428a196.847,196.847,0,0,1-33.579,9.77,176.819,176.819,0,0,1-33.783,3.341Z" transform="translate(0.004 5547.039)" fill="url(#k)"/></g></svg>