<svg xmlns="http://www.w3.org/2000/svg" xmlns:xlink="http://www.w3.org/1999/xlink" width="360.002" height="160.046" viewBox="0 0 360.002 160.046"><defs><linearGradient id="a" x1="0.273" y1="0.089" x2="1" y2="0.5" gradientUnits="objectBoundingBox"><stop offset="0" stop-color="#2cae70"/><stop offset="1" stop-color="#edb72a"/></linearGradient><linearGradient id="b" x1="0.3" y1="0.128" x2="0.698" y2="0.277" gradientUnits="objectBoundingBox"><stop offset="0" stop-color="#e5512c"/><stop offset="1" stop-color="#8c4f9b"/></linearGradient><linearGradient id="c" x1="0.124" y1="0.281" x2="0.903" y2="0.848" gradientUnits="objectBoundingBox"><stop offset="0" stop-color="#edb72a"/><stop offset="1" stop-color="#e5512c"/></linearGradient><linearGradient id="d" x1="0.5" y1="0.358" x2="0.5" y2="0.77" gradientUnits="objectBoundingBox"><stop offset="0" stop-color="#8c4f9b"/><stop offset="1" stop-color="#4b63ad"/></linearGradient><linearGradient id="e" x1="0.5" x2="0.5" y2="1" gradientUnits="objectBoundingBox"><stop offset="0" stop-color="#fff"/><stop offset="1" stop-color="#e5512c"/></linearGradient><filter id="f" x="67.364" y="48.111" width="42.707" height="38.1" filterUnits="userSpaceOnUse"><feOffset dx="4" dy="4" input="SourceAlpha"/><feGaussianBlur result="g"/><feFlood flood-opacity="0.102"/><feComposite operator="in" in2="g"/><feComposite in="SourceGraphic"/></filter><linearGradient id="h" x1="0.5" x2="0.5" y2="1" gradientUnits="objectBoundingBox"><stop offset="0" stop-color="#fff"/><stop offset="1" stop-color="#edb72a"/></linearGradient><filter id="i" x="280.974" y="44.97" width="19.188" height="19.375" filterUnits="userSpaceOnUse"><feOffset dx="4" dy="4" input="SourceAlpha"/><feGaussianBlur result="j"/><feFlood flood-opacity="0.161"/><feComposite operator="in" in2="j"/><feComposite in="SourceGraphic"/></filter><linearGradient id="k" x1="0.5" y1="0.098" x2="0.5" y2="0.898" gradientUnits="objectBoundingBox"><stop offset="0" stop-color="#2cae70"/><stop offset="1" stop-color="#8c4f9b"/></linearGradient></defs><g transform="translate(0.001 -1499.953)"><path d="M174.316,1706.765c8.806-15.041,17.813-23.253,41.729-25.925s33.724,10.192,57.14,6.927,21.015-18.6,42.83-21.373,44.431,10.291,44.431,10.291v95.388H151.5S165.51,1721.806,174.316,1706.765Z" transform="translate(-0.447 -166.055)" fill="url(#a)"/><path d="M62.939,1673.6c-21.565,0-47.834,10.658-54.438,29.821s17.913,30.922,28.02,46.833,22.516,2,36.626,0,18.813-1,26.419-11.808S148,1724.135,153,1714.429s-21.165-14.81-40.228-27.82S84.5,1673.6,62.939,1673.6Z" transform="translate(-3.398 -152.042)" fill="url(#b)"/><path d="M0,1843.435V1696.99s29.733,16.147,77.122,28.556,73.921-8.918,112.431-9.631,47.013,17.562,89.625,19.969S360,1725.546,360,1725.546v117.888Z" transform="translate(-0.001 -183.437)" fill="url(#c)"/><path d="M5747.792-5435H5712a27.725,27.725,0,0,1,2.432-10.752,26.072,26.072,0,0,1,2.872-4.83,26.885,26.885,0,0,1,3.8-4.081,28.934,28.934,0,0,1,4.608-3.273,31.766,31.766,0,0,1,5.288-2.412,35.1,35.1,0,0,1,5.843-1.488,38.7,38.7,0,0,1,6.25-.512h.026c1.548,0,3.121.069,4.673.191V-5435Z" transform="translate(-5387.792 7095)" fill="url(#d)"/><g transform="matrix(1, 0, 0, 1, 0, 1499.95)" filter="url(#f)"><path d="M3.5-17.4c8.741,0,21.062,6.519,22.065,18.3S16.756,16.7,8.014,16.7-12.546,13.817-13.048.9-5.24-17.4,3.5-17.4Z" transform="translate(80.43 65.51)" fill="url(#e)"/></g><g transform="matrix(1, 0, 0, 1, 0, 1499.95)" filter="url(#i)"><ellipse cx="7.594" cy="7.688" rx="7.594" ry="7.688" transform="translate(280.97 44.97)" fill="url(#h)"/></g><path d="M5746-5385.171v-71.94a45.6,45.6,0,0,1,7,2.872,39.049,39.049,0,0,1,11.255,8.573,36.672,36.672,0,0,1,7.2,11.915A42.09,42.09,0,0,1,5774-5419.06a33.189,33.189,0,0,1-3.224,14.379,33.867,33.867,0,0,1-3.659,5.947,36.119,36.119,0,0,1-4.691,5.026,38.282,38.282,0,0,1-5.475,4.031,38.818,38.818,0,0,1-6.011,2.966,36.877,36.877,0,0,1-4.939,1.538Z" transform="translate(-5746 7033)" fill="rgba(0,0,0,0.1)"/><path d="M5752-5394.85v-69.569c1.155.475,2.291,1,3.378,1.557a39.048,39.048,0,0,1,11.255,8.573,36.646,36.646,0,0,1,7.2,11.914,42.089,42.089,0,0,1,2.538,14.693,33.172,33.172,0,0,1-3.226,14.379,33.729,33.729,0,0,1-3.659,5.946,36.157,36.157,0,0,1-4.69,5.026,38.376,38.376,0,0,1-5.476,4.031,38.767,38.767,0,0,1-6.009,2.965c-.439.171-.882.334-1.315.484Z" transform="translate(-5752 7036)" fill="url(#k)"/></g></svg>