<?xml version="1.0" encoding="utf-8"?>
<!-- Generator: Adobe Illustrator 16.0.0, SVG Export Plug-In . SVG Version: 6.00 Build 0)  -->
<!DOCTYPE svg PUBLIC "-//W3C//DTD SVG 1.1//EN" "http://www.w3.org/Graphics/SVG/1.1/DTD/svg11.dtd">
<svg version="1.1" id="圖層_1" xmlns="http://www.w3.org/2000/svg" xmlns:xlink="http://www.w3.org/1999/xlink" x="0px" y="0px"
	 width="825px" height="145px" viewBox="0 0 825 145" enable-background="new 0 0 825 145" xml:space="preserve">
<path fill="#262727" d="M337,31.375c-11.5,2.875-75.373,0.242-75.373,0.242c-2.084,4.219-4.871,8.803-8.359,13.75
	c0,0,57.398-8.033,75.078,0c6.506,2.957,0,85.781,0,85.781c0,3.541-0.951,6.275-2.852,8.203c-1.902,1.926-4.766,3.355-8.62,3.461
	c-3.855,0.104-7.816,0.344-11.563,0.5c-6,0.25-11.204,0.792-14.623-0.992c-3.436-1.793-8.372-11.028-6.172-14.219
	c3.847-5.579,22.232,2.398,26.016,0.469c1.994-1.018,2.279-1.508,3.359-3.672c0,0,2.942-14.316-0.701-14.772
	c-19.643-2.461-49.007-2.212-69.942-0.001c0,0-4.516,30.444-17.5,32.875c-3.834,0.718-17.335-3.101-17.25-7
	c0.125-5.75,9.167-10.333,21.096-36.57c2.66-5.85,6.308-23.896-0.096-24.43c-9-0.75-12.725,17.452-20.841,16.461
	c-3.703-0.452-12.389-7.814-10.234-10.859c11.743-16.602,34.531-29.244,46.25-48.984c0,0-33.503,2.975-44.531,0
	c-3.356-0.906-3.143-12.418,0-13.906c11.357-5.377,52.031,0,52.031,0c3.385-5.988,3.216-13.357,7.344-15.859
	c3.199-1.939,13.158-0.955,14.766,2.422c1.84,3.867-3.23,8.543-5.625,13.438c0,0,60.716-6.086,70.703,0
	C342.331,19.52,340.373,30.531,337,31.375z M313.893,71.617c3.161-0.158,3.149-12.355,0-12.656
	c-25.727-2.461-40.143-2.336-67.393,0.04c-3.152,0.274-3.16,12.536,0,12.687C273.849,72.983,289.5,72.834,313.893,71.617z
	 M313.893,97.086c3.121-0.185,3.113-12.229,0-12.5C290,82.5,274.436,82.404,246.563,84.5c-3.115,0.234-3.31,12.697-0.188,12.813
	C272.079,98.261,289.83,98.508,313.893,97.086z"/>
<path fill="#262727" d="M501.471,124.43c2.895,1.987-3.051,13.534-6.406,12.5c-27.897-8.597-38.49-15.129-47.188-22.109
	c-0.365,10.938-2.566,18.281-6.602,22.031c-4.037,3.75-11.004,5.625-20.898,5.625c-2.709,0-6.336,1.488-9.453-0.313
	c-3.018-1.743-6.795-10.351-4.688-13.125c2.211-2.909,7.004,0.391,10.078,0.391c8.02,0,12.98-0.846,14.883-2.539
	c1.9-1.691,2.852-5.195,2.852-10.508c0-2.031-0.156-3.828-0.469-5.391c-15.418,10.521-40.414,19.008-67.968,26.25
	c-3.159,0.83-8.334-9.681-5.781-11.719c7.336-5.856,57.833-12.854,71.718-26.875c0.649-0.655,0.464-5.846-2.578-5.391
	c-18.311,2.742-38.804,19.075-62.578,22.656c-3.248,0.489-8.915-9.958-6.094-11.641c13.868-8.273,51.25-9.801,62.265-20.625
	c0.842-0.827-1.363-5.079-4.297-4.531c-17.28,3.229-29.453,14.777-52.656,15.234c-3.319,0.065-6.585-8.577-3.778-10.352
	c14.595-9.229,43.626-9.438,50.626-12.992c7.675-3.896-29.425,1.859-35.626-4.342c-5.014-5.013-0.832-24.814-0.832-24.814
	c-1.875,1.146-4.255,4.83-8.281,4.375c-3.553-0.401-11.292-8.66-8.828-11.25c15.928-16.744,33.068-26.418,50.546-33.594
	c3.566-1.464,13.718,1.389,14.531,5.156c0.427,1.979-2.631,3.203-4.453,4.609c0,0,37.688-8.094,45.781,0
	c2.21,2.209,1.576,9.802,0,12.5c-2.457,4.206-8.334,6.85-14.063,10.859c0,0,28.33-1.916,33.931,5.158c6.333,8,5.666,21-2,26
	c-11.575,7.551-50.056,4.545-50.056,4.545l-2.578,1.875c5.416,5.469,9.582,11.928,12.5,19.375
	c16.406-5.26,27.094-14.205,39.531-17.109c3.392-0.792,10.754,7.004,9.453,10.234c-2.851,7.081-25.756,12.215-41.797,17.266
	C459.752,109.77,490.167,116.667,501.471,124.43z M441.25,23.5c-19.75-1.539-26-0.5-36.107,0.148
	c-5.386,0.346-19.309,10.813-16.172,10.859c15.293,0.225,26.695,0.201,39.343-1.496C434.498,32.183,445.063,23.797,441.25,23.5z
	 M424.83,58.805c2.491-2.014,2.265-10.547,0-12.813c-6.118-6.118-28.543-6.17-34.609,0c-2.245,2.284-2.036,10.34,0,12.813
	C395.723,65.482,418.1,64.242,424.83,58.805z M473.268,58.805c2.265-2.266,2.491-10.799,0-12.813
	c-6.715-5.426-29.042-6.664-34.531,0c-2.037,2.473-2.245,10.528,0,12.813C444.788,64.961,467.163,64.909,473.268,58.805z"/>
<path fill="#262727" d="M659.512,81.041c-63.5-1.833-74.657-2.072-139.324-0.072c-2.187,0.068-2.251-10.801-0.104-11.219
	c7.837-1.523,47.095,2.148,63.638,0.648c1.634-0.148,1.56-6.053,0-6.563c-3.71-1.211-40.416,3.65-54.219,0
	c-2.059-0.545-2.089-8.106,0-8.516c14.175-2.778,40.509,0.222,54.219,0c1.602-0.025,1.6-6.334,0-6.406
	c-14.639-0.664-43.594,2.006-49.805,0.42c-2.081-0.531-1.963-8.234,0.039-9.014c5.961-2.32,34.627-0.236,49.766,0
	c1.562,0.024,1.556-6.103,0-6.25c-14.377-1.361-55.293,3.514-63.627,1.68c-2.232-0.491-2.206-11.777,0-12.375
	c8.815-2.389,46.583,3.5,63.627,1.555c1.552-0.178,1.563-6.213,0-6.25c-16.706-0.404-38.052,3.287-49.766,0
	c-2.031-0.57-1.949-8.73,0.055-9.388c15.25-5,49.711,0.95,49.711,0.95s-1.34-6.238,0-7.578c2.375-2.375,11.326-2.613,13.438,0
	c1.19,1.474,0,7.578,0,7.578s33.519-6.367,48.203,0c3.369,1.461,0.173,13.965,0.173,13.965s12.049-2.811,14.59-0.27
	c1.616,1.615,1.652,9.626-0.125,11.063c-2.795,2.259-14.476-0.263-14.476-0.263s3.52,13.709-0.162,14.177
	c-13.682,1.738-37.018,0.628-48.203,0c-1.599-0.09-1.602,6.447,0,6.406c17.222-0.445,40.686-2.529,53.75,0
	c2.091,0.404,2.085,8.082,0,8.516c-14.231,2.955-49.981-1.377-53.75,0c-1.541,0.563-1.633,6.406,0,6.563
	c15.687,1.5,58.138-2.383,62.853-0.693C662.071,70.443,661.697,81.104,659.512,81.041z M659.333,142c-64-2.167-75-2.333-139,0
	c-2.519,0.092-2.474-12.984,0.042-12.875c64.367,2.789,74.791,2.831,139.143-0.125C662.036,128.885,661.852,142.085,659.333,142z
	 M644.674,123.961c-17.841,3.706-94.976,3.677-109.766,0c-9.249-2.299-9.024-35.061,0-38.125c13.259-4.502,96.238-2.98,109.766,0
	C653.981,87.887,654.005,122.022,644.674,123.961z M583.658,100.914c1.578-0.274,1.592-6.231,0-6.406
	c-9.482-1.041-26.158-1.07-35.313,0c-1.591,0.186-1.587,6.193,0,6.406C557.375,102.125,575.5,102.334,583.658,100.914z
	 M583.658,115.602c1.592-0.179,1.585-6.178,0-6.406c-8.283-1.195-26.658-1.195-35.313,0c-1.588,0.22-1.591,6.221,0,6.406
	C557.5,116.667,574.167,116.667,583.658,115.602z M630.924,25.055c1.546-0.222,1.55-6.045,0-6.25
	c-11.299-1.492-22.592-1.565-34.09-0.136c-1.55,0.192-1.468,6.3,0.083,6.5C608.103,26.614,620.25,26.584,630.924,25.055z
	 M630.924,40.445c1.554-0.181,1.551-6.057,0-6.25c-12.049-1.508-21.675-1.618-33.923-0.11c-1.551,0.19-1.72,6.068-0.167,6.25
	C610.333,41.916,618.625,41.875,630.924,40.445z M631.236,100.914c1.575-0.297,1.589-6.204,0-6.406
	c-10.861-1.383-22.799-1.32-34.453,0c-1.592,0.18-1.58,6.15,0,6.406C607.025,102.572,622.5,102.563,631.236,100.914z
	 M631.236,115.602c1.581-0.26,1.595-6.255,0-6.406c-9.069-0.861-24.486-1.008-34.453,0c-1.594,0.161-1.585,6.176,0,6.406
	C607.25,117.125,620.831,117.309,631.236,115.602z"/>
<path fill="#262727" d="M822.167,141c-60.334-2.833-75.334-3.166-138.667,0c-3.121,0.156-3.16-15.555-0.045-15.32
	c37.546,2.82,54.879,1.654,62.266,0c3.622-0.812,3.674-14.322,0-14.844c-7.054-1.002-25.055-1.003-52.721,1.039
	c-3.155,0.233-3.394-14.042-0.248-13.695c29.331,3.237,45.623,0.695,52.969,0c3.229-0.306,3.236-13.152,0-12.969
	c-16.706,0.949-26.221,0.79-47.813,1.172c-3.085,0.055-3.211-11.726-0.581-13.338c11.993-7.352,17.423-12.795,30.437-19.704
	c5.33-2.83-12.931-0.341-21.887-1.567c-3.095-0.424-3.119-12.693,0-12.5c39.873,2.477,56.248,2.352,93.706-0.689
	c3.115-0.254,3.006,12.975-0.112,13.189c-12.97,0.894-41.273-2.463-50.804,1.893c-12.574,5.748-27.506,16.902-18.917,17.709
	c18.625,1.75,32.333,1.375,51.583-1.459c2.005-0.295-4.587-1.625-10.769-8.064c-2.338-2.436,8.089-9.495,11.016-7.813
	c15.587,8.961,26.921,16.969,35,27.969c2.062,2.807-6.755,9.6-10.234,9.453c-4.936-0.208-5.384-8.685-10.846-8.627
	c-10.999,0.114-18.25,0.541-33.125,1.666c-3.828,0.289-3.208,13.349,0.375,13.625c7.372,0.568,22.916,3.542,50.939,0.055
	c3.14-0.391,3.086,14.045-0.07,13.82c-28.084-2-44.285-2.166-50.953-0.987c-3.654,0.646-3.426,13.781,0.167,14.685
	c7.168,1.803,22.668,2.803,59.685-0.018C825.633,125.442,825.289,141.146,822.167,141z M818.533,46.695
	c-2.613,2.352-12.849,3.3-14.063,0c-1.335-3.628,4.253-18.236-0.471-18.445c-36.721-1.621-62.611-1.621-103,0
	c-4.879,0.195,0.5,13.5,0.111,19.07c-0.249,3.564-11.466,2.182-14.297,0C681.141,42.946,679.941,21.944,687,18
	c8.5-4.75,42-1.375,57.783-3.023c4.832-0.505-7.645-7.102-6.563-10.078c1.264-3.477,12.178-5.133,15.445-3.398
	c3.381,1.795,3.69,12.967,9.709,13.5c15.5,1.375,49.125-2.375,56.386,2.168C826.482,21.375,823.879,41.886,818.533,46.695z"/>
<path fill="#CBCCCC" d="M138.793,22.559c0,0-21.029-21.779-52.949-20.09c0,0-36.236-1.127-65.152,27.037
	c0,0-23.125,21.442-19.213,50.945c3.771,28.444,11.294,35.978,24.349,48.383c11.64,8.341,16.583,10.447,35.421,14.643
	c9.289,2.067,22.906,0.938,35.861-12.769c0,0,8.638-5.444,9.951-20.09c0,0,0.376-8.073,8.262-10.515c0,0,5.258-0.563,10.703,3.567
	c0,0,7.761,4.819,13.268,3.818c0,0,21.092-4.006,23.533-37.427C162.826,70.063,164.516,49.221,138.793,22.559z M134.5,84.694
	c-7.221,0-13.073-3.976-13.073-8.882c0-4.904,5.853-8.881,13.073-8.881s13.073,3.977,13.073,8.881
	C147.573,80.719,141.721,84.694,134.5,84.694z"/>
<circle fill="#8B509B" cx="100.998" cy="26.066" r="12.171"/>
<circle fill="#4C64AD" cx="66.998" cy="27.066" r="12.171"/>
<circle fill="#2CAD70" cx="37.998" cy="44.066" r="12.171"/>
<circle fill="#EDB72B" cx="22.998" cy="74.066" r="12.171"/>
<circle fill="#E4522D" cx="35.998" cy="105.066" r="12.171"/>
<circle fill="#DB313C" cx="66.998" cy="121.066" r="12.171"/>
<rect id="_x3C_切片_x3E__1_" fill="none" width="825" height="145"/>
</svg>
