<?xml version="1.0" standalone="no"?>
<!DOCTYPE svg PUBLIC "-//W3C//DTD SVG 20010904//EN"
 "http://www.w3.org/TR/2001/REC-SVG-20010904/DTD/svg10.dtd">
<svg version="1.0" xmlns="http://www.w3.org/2000/svg"
 width="310.000000pt" height="310.000000pt" viewBox="0 0 310.000000 310.000000"
 preserveAspectRatio="xMidYMid meet">
<metadata>
Created by potrace 1.11, written by Peter Selinger 2001-2013
</metadata>
<g transform="translate(0.000000,310.000000) scale(0.100000,-0.100000)"
fill="#000000" stroke="none">
<path d="M1441 2899 c-25 -5 -63 -11 -85 -15 -22 -3 -43 -7 -46 -9 -3 -2 -21
-6 -40 -9 -62 -9 -242 -66 -330 -104 -313 -133 -583 -347 -737 -584 -64 -99
-110 -191 -143 -287 -29 -87 -33 -102 -50 -201 -9 -52 -7 -282 3 -325 3 -11 8
-40 12 -65 4 -25 9 -54 11 -65 2 -11 6 -32 9 -46 23 -125 118 -358 177 -433
235 -301 434 -430 803 -522 141 -35 141 -35 235 -41 211 -14 392 68 602 273
99 98 152 213 173 378 7 59 24 94 67 136 76 77 152 73 297 -14 72 -43 142 -68
209 -72 99 -5 244 89 334 219 104 149 154 326 152 532 -2 131 -29 235 -101
385 -41 86 -154 269 -186 302 -7 7 -19 22 -27 34 -45 64 -175 194 -254 253
-181 134 -356 216 -561 263 -71 16 -131 21 -285 23 -107 1 -215 -2 -239 -6z
m1231 -1249 c67 -26 107 -61 123 -108 25 -71 -10 -133 -100 -177 -156 -77
-385 4 -385 135 0 66 64 133 151 159 59 17 154 13 211 -9z"/>
</g>
</svg>
