<?xml version="1.0" encoding="utf-8"?>
<!-- Generator: Adobe Illustrator 16.0.0, SVG Export Plug-In . SVG Version: 6.00 Build 0)  -->
<!DOCTYPE svg PUBLIC "-//W3C//DTD SVG 1.1//EN" "http://www.w3.org/Graphics/SVG/1.1/DTD/svg11.dtd">
<svg version="1.1" id="圖層_1" xmlns="http://www.w3.org/2000/svg" xmlns:xlink="http://www.w3.org/1999/xlink" x="0px" y="0px"
	 width="1474.4px" height="1177.326px" viewBox="0 0 1474.4 1177.326" enable-background="new 0 0 1474.4 1177.326"
	 xml:space="preserve">
<g transform="translate(-224.642 -1470.51)">
	
		<linearGradient id="SVGID_1_" gradientUnits="userSpaceOnUse" x1="549.0851" y1="2131.9507" x2="549.6241" y2="2131.3916" gradientTransform="matrix(682.9231 0 0 -556.7448 -373827.2813 1188874.125)">
		<stop  offset="0" style="stop-color:#E5512C"/>
		<stop  offset="1" style="stop-color:#8C4F9B"/>
	</linearGradient>
	<path fill="url(#SVGID_1_)" d="M1177.199,1839.149c-52.925,28.421-147.907,99.183-160.086,191.406
		c-12.179,92.223,34.8,205.326,81.782,245.348c46.983,40.021,141.367,73.083,266.23,64.382s168.93-22.621,217.651-64.382
		c48.721-41.761,106-137.465,113.395-184.446c7.396-46.98-4.866-86.834-68.3-139.2c-63.434-52.365-66.554-130.069-179.223-158.346
		C1335.979,1765.635,1230.127,1810.732,1177.199,1839.149z"/>
	
		<linearGradient id="SVGID_2_" gradientUnits="userSpaceOnUse" x1="549.0138" y1="2131.9722" x2="549.6708" y2="2131.4431" gradientTransform="matrix(681.47 0 0 -562.2859 -373638 1200986.5)">
		<stop  offset="0" style="stop-color:#EDB72A"/>
		<stop  offset="1" style="stop-color:#E5512C"/>
	</linearGradient>
	<path fill="url(#SVGID_2_)" d="M408.967,2230.973c-12.18,94.399,15.661,156.17,53.943,211.852s102.047,139.538,201.844,174.006
		s251.787,53.182,347.006-23.016c95.219-76.198,75.395-224.768,71.262-254c-4.134-29.233-16.586-77.955-71.262-95.356
		c-54.675-17.4-125.509-0.87-232.16-36.541c-106.652-35.671-121.355-98.759-194.451-119.629S421.148,2136.575,408.967,2230.973z"/>
	
		<linearGradient id="SVGID_3_" gradientUnits="userSpaceOnUse" x1="549.2638" y1="2131.9253" x2="549.6617" y2="2131.4705" gradientTransform="matrix(781.3225 0 0 -494.777 -428658.75 1056549.125)">
		<stop  offset="0" style="stop-color:#2CAE70"/>
		<stop  offset="1" style="stop-color:#EDB72A"/>
	</linearGradient>
	<path fill="url(#SVGID_3_)" d="M562.804,1567.037c-88.737,21.066-187.772,81.973-233.883,129.613
		c-46.109,47.641-119.848,145.399-78.3,224.724s175.746,88.092,241.867,86.294s131.344,50.605,245.348,41.167
		c114.004-9.438,174.837-45.426,210.158-73.743c35.32-28.316,62.064-57.345,70.835-142.294c8.77-84.948-51.3-139.149-80.886-172.1
		c-29.584-32.95-108.3-84.179-144.129-93.657C757.987,1557.563,651.541,1545.967,562.804,1567.037z"/>
	
		<linearGradient id="SVGID_4_" gradientUnits="userSpaceOnUse" x1="549.0607" y1="2132.7866" x2="549.0607" y2="2131.9983" gradientTransform="matrix(404.9428 0 0 -242.6252 -220945.6719 518981)">
		<stop  offset="0" style="stop-color:#2CAE70"/>
		<stop  offset="1" style="stop-color:#EDB72A"/>
	</linearGradient>
	<path fill="url(#SVGID_4_)" d="M1309.88,1493.751c88.2-8.918,189.667,27.842,233.168,66.122
		c43.501,38.281,65.075,104.628,43.922,126.666c-43.08,44.884-162.246,56.041-239.866,43.929
		c-77.621-12.113-157.286-69.67-156.872-134.922C1190.645,1530.293,1221.675,1502.67,1309.88,1493.751z"/>
	
		<linearGradient id="SVGID_5_" gradientUnits="userSpaceOnUse" x1="548.7975" y1="2132.9468" x2="548.3335" y2="2132.7207" gradientTransform="matrix(234.8861 0 0 -172.0663 -127977.1953 369119.4063)">
		<stop  offset="0" style="stop-color:#4B63AD"/>
		<stop  offset="1" style="stop-color:#8C4F9B"/>
	</linearGradient>
	<path fill="url(#SVGID_5_)" d="M918.912,2044.318c55.9,19.59,64.5,99.861,47.78,137.608c-16.721,37.746-85.526,34.88-141.43,15.289
		c-55.902-19.59-98.904-55.899-82.182-93.649S863.008,2024.725,918.912,2044.318z"/>
	
		<linearGradient id="SVGID_6_" gradientUnits="userSpaceOnUse" x1="548.1437" y1="2133.3081" x2="548.1437" y2="2132.3081" gradientTransform="matrix(186.2294 0 0 -178.0527 -100474.5859 382190.625)">
		<stop  offset="0" style="stop-color:#EDB72A"/>
		<stop  offset="1" style="stop-color:#E5512C"/>
	</linearGradient>
	<path fill="url(#SVGID_6_)" d="M1543.522,2360.301c41.722-22.621,127.578-10.006,149.029,36.542
		c21.452,46.547-11.605,127.023-79.468,130.5c-67.862,3.476-98.388-113.971-98.388-113.971S1501.797,2382.921,1543.522,2360.301z"/>
	
		<linearGradient id="SVGID_7_" gradientUnits="userSpaceOnUse" x1="547.3864" y1="2133.4536" x2="547.3864" y2="2132.6577" gradientTransform="matrix(128.7963 0 0 -168.4165 -68872.8516 361042.6875)">
		<stop  offset="0" style="stop-color:#E5512C"/>
		<stop  offset="1" style="stop-color:#EDB72A"/>
	</linearGradient>
	<path fill="url(#SVGID_7_)" d="M1589.811,1742.911c26.916-3.18,86.465,36.094,99.955,78.108c13.489,42.014-19.08,86.766-46,89.945
		c-26.921,3.181-58.952-35.888-72.441-77.901C1557.836,1791.048,1562.895,1746.091,1589.811,1742.911z"/>
	
		<linearGradient id="SVGID_8_" gradientUnits="userSpaceOnUse" x1="546.9181" y1="2134.3608" x2="547.781" y2="2133.6948" gradientTransform="matrix(133.1962 0 0 -101.8004 -71327.1641 219838.9063)">
		<stop  offset="0" style="stop-color:#2CAE70"/>
		<stop  offset="1" style="stop-color:#EDB72A"/>
	</linearGradient>
	<path fill="url(#SVGID_8_)" d="M1576.236,2542.573c26.267,0,83.829,25.974,83.829,52.242c0,26.268-72.232,54.946-104.9,48.688
		c-32.668-6.257-30.119-53.902-25.758-73.72C1533.768,2549.967,1549.968,2542.573,1576.236,2542.573z"/>
	
		<linearGradient id="SVGID_9_" gradientUnits="userSpaceOnUse" x1="548.5817" y1="2133.4556" x2="548.6117" y2="2132.8635" gradientTransform="matrix(253.0354 0 0 -140.1721 -137854.125 300571.625)">
		<stop  offset="0" style="stop-color:#8C4F9B"/>
		<stop  offset="1" style="stop-color:#4B63AD"/>
	</linearGradient>
	<path fill="url(#SVGID_9_)" d="M910.949,1486.453c65.225-12.194,99.69-10.007,136.549,15.992s52.478,75.058,22.193,100.074
		s-92.31,20.051-143.332,0c-51.023-20.051-90.598-44.127-93.385-67.287C830.188,1512.072,845.723,1498.648,910.949,1486.453z"/>
	
		<linearGradient id="SVGID_10_" gradientUnits="userSpaceOnUse" x1="548.7618" y1="2132.5581" x2="549.3519" y2="2132.1021" gradientTransform="matrix(406.6714 0 0 -255.8054 -221984.25 547951.0625)">
		<stop  offset="0" style="stop-color:#4B63AD"/>
		<stop  offset="1" style="stop-color:#8C4F9B"/>
	</linearGradient>
	<path fill="url(#SVGID_10_)" d="M1385.402,2366.414c83.438-2.472,139.362,114.101,117.922,154.06
		c-21.441,39.959-82.9,125.224-268.72,95.565c-185.82-29.658-134.894-127.901-97.193-190.308S1301.964,2368.885,1385.402,2366.414z"
		/>
	
		<linearGradient id="SVGID_11_" gradientUnits="userSpaceOnUse" x1="546.6095" y1="2135.1421" x2="546.6095" y2="2134.1421" gradientTransform="matrix(97.847 0 0 -83.3341 -51840.0195 179402.625)">
		<stop  offset="0" style="stop-color:#EDB72A"/>
		<stop  offset="1" style="stop-color:#E5512C"/>
	</linearGradient>
	<path fill="url(#SVGID_11_)" d="M1662.941,1477.286c23.941,11.968,33.951,48.233,28.73,65.123
		c-5.22,16.891-29.341,17.021-53.279,5.051c-23.939-11.972-47.714-36.045-42.49-52.935S1638.998,1465.315,1662.941,1477.286z"/>
	
		<linearGradient id="SVGID_12_" gradientUnits="userSpaceOnUse" x1="548.4518" y1="2133.856" x2="548.4518" y2="2132.856" gradientTransform="matrix(227.4109 0 0 -133.375 -123585.2344 286281.2813)">
		<stop  offset="0" style="stop-color:#EDB72A"/>
		<stop  offset="1" style="stop-color:#E5512C"/>
	</linearGradient>
	<path fill="url(#SVGID_12_)" d="M1138.628,1678.198c46.223,0,125.366,46.982,112.289,80.043s-115.6,59.162-164.6,52.2
		s-61.372-51.211-61.372-80.043S1092.406,1678.198,1138.628,1678.198z"/>
	<path fill="#FFFFFF" d="M1234.969,2087.494h-24.947v4.03c0,1.46-0.333,2.613-0.999,3.46c-0.667,0.846-1.513,1.422-2.539,1.729
		c-1.026,0.307-2.958,0.46-5.792,0.46c-1.313,0-2.805-0.043-4.476-0.127l-1.872-5.269c1.48,0.043,4.337,0.063,8.568,0.063
		c0.783,0,1.175-0.359,1.175-1.079v-3.269h-25.739v-4.603h25.739v-2.793c3.216-0.655,6.21-1.502,8.981-2.539h-24.121v-4.157h34.596
		v4.157c-3.534,1.672-8.041,3.322-13.521,4.951v0.381h24.947V2087.494z M1233.985,2077.94h-5.459v-7.396h-43.481v7.332h-5.776
		v-11.902h4.031l-1.175-23.327c4.21-0.19,8.432-1.016,12.663-2.476l2.666,4.507c-3.025,0.952-6.23,1.618-9.616,1.999l0.19,3.46
		h8.475v4.222h-8.252l0.127,3.682h8.125v4.189h-7.871l0.189,3.744h35.801l0.127-3.744h-8.76v-4.189h8.982l0.19-3.682h-9.173v-4.222
		h9.3l0.19-3.46h-9.934v-4.538h15.583l-1.048,23.835h3.904V2077.94z M1214.244,2042.076c-1.016,1.354-2.423,2.697-4.222,4.031
		c1.059,0.931,2.031,1.883,2.92,2.855l-3.459,3.047c-1.079-1.29-2.158-2.369-3.237-3.236c-2.243,1.332-4.433,2.433-6.569,3.301
		l-2.73-3.65c1.883-0.655,3.725-1.523,5.523-2.603c-0.594-0.55-1.789-1.438-3.587-2.666l3.142-3.174l4.349,3.11
		c1.417-1.036,2.539-2.052,3.364-3.047L1214.244,2042.076z M1214.561,2062.546l-3.459,2.984c-1.63-1.799-3.101-3.185-4.412-4.158
		c-2.264,1.439-4.475,2.655-6.633,3.65l-2.666-3.587c1.564-0.677,3.428-1.671,5.586-2.983c-1.102-0.973-2.529-1.946-4.285-2.92
		l3.143-3.205c1.143,0.677,2.824,1.83,5.046,3.459c1.777-1.502,2.993-2.655,3.649-3.459l3.968,2.348
		c-1.249,1.376-2.593,2.656-4.03,3.841C1211.926,2059.786,1213.292,2061.129,1214.561,2062.546z"/>
	<path fill="#FFFFFF" d="M1299.239,2057.533c-0.105,4.993-0.593,7.934-1.46,8.822c-0.868,0.889-1.852,1.418-2.952,1.588
		l-2.602,0.381v21.582h-28.057l2.729,2.793c-6.707,2.666-13.838,4.295-21.391,4.887l-2.477-4.57
		c6.793-0.57,12.621-1.607,17.488-3.109h-9.172v-18.98c-2.138,0.508-4.211,0.9-6.221,1.175l-2.285-5.142
		c7.045-0.655,12.134-2.496,15.266-5.522h-12.537l2.063-10.854h14.06v-3.11h-16.916v-3.841h16.916v-3.142h5.586v3.142h9.173v-3.142
		h5.586v3.142h15.013v10.855h-15.013v3.047H1299.239z M1261.28,2054.486h-8.76l-0.444,3.047h8.442
		C1260.856,2056.453,1261.11,2055.437,1261.28,2054.486z M1286.448,2072.798v-2.666h-29.389v2.666H1286.448z M1286.448,2079.369
		v-2.857h-29.389v2.857H1286.448z M1286.448,2085.875v-2.793h-29.389v2.793H1286.448z M1293.463,2061.436h-11.426v3.174h-5.586
		v-3.174h-11.774c-0.741,1.291-2.148,2.867-4.222,4.729h29.104l-0.953-2.508c2.264,0.106,3.64,0.011,4.127-0.285
		C1293.219,2063.076,1293.463,2062.431,1293.463,2061.436z M1276.451,2057.533v-3.047h-9.362c-0.17,1.27-0.393,2.285-0.667,3.047
		H1276.451z M1276.451,2050.582v-3.047h-9.173v3.047H1276.451z M1300.413,2093.555l-2.443,4.349
		c-6.623-1.63-13.214-2.624-19.773-2.984l2.223-4.379C1288.818,2091.154,1295.483,2092.159,1300.413,2093.555z M1291.399,2050.582
		v-3.047h-9.362v3.047H1291.399z"/>
	<path fill="#FFFFFF" d="M1364.397,2051.882h-31.928v5.27h28.088v4.919h-28.088v5.332h28.088v5.015h-28.088v4.475h-5.84v-25.01
		h-2.223c-3.871,5.438-7.987,10.178-12.346,14.219l-4.412-4.284c8.21-7.193,13.902-14.515,17.076-21.963l5.459,1.618
		c-0.381,1.186-1.133,2.857-2.254,5.016h36.467V2051.882z M1320.757,2081.4c-2.222,5.902-4.792,10.748-7.712,14.535l-5.332-2.729
		c2.793-3.428,5.363-8.063,7.712-13.902L1320.757,2081.4z M1353.194,2087.429c-0.529,6.2-3.576,9.3-9.141,9.3
		c-4.634,0-8.664-0.053-12.092-0.159c-3.428-0.105-5.688-0.719-6.776-1.84c-1.091-1.122-1.635-2.994-1.635-5.618v-9.997h5.999
		v10.061c0,1.101,0.756,1.735,2.269,1.904c1.513,0.17,5.517,0.254,12.013,0.254c1.207,0,2.116-0.449,2.73-1.349
		c0.613-0.899,1.047-2.513,1.301-4.841L1353.194,2087.429z M1345.196,2085.748l-5.236,2.666c-1.799-3.448-3.989-6.527-6.57-9.236
		l5.269-2.855C1341.409,2079.411,1343.588,2082.553,1345.196,2085.748z M1365.635,2092.253l-5.205,2.793
		c-2.603-5.035-5.766-9.785-9.49-14.25l5.047-2.856C1360.198,2082.871,1363.414,2087.641,1365.635,2092.253z"/>
	<path fill="#FFFFFF" d="M1430.032,2049.662h-10.283v3.649h9.046v4.538h-9.046v15.615h-5.236v-15.615h-7.808v-4.538h7.808v-3.649
		h-17.615v3.649h7.776v4.538h-7.776v15.615h-5.078v-15.615h-7.553v-4.538h7.553v-3.649h-9.743v30.31
		c0,6.518-1.323,12.621-3.968,18.313l-4.824-3.777c2.18-5.057,3.27-10.77,3.27-17.139v-32.69h23.582
		c-0.487-1.121-0.984-2.169-1.492-3.142l5.776-1.746c0.867,1.735,1.629,3.364,2.285,4.888h23.327V2049.662z M1390.201,2060.58
		c-0.275,4.443-1.164,8.717-2.666,12.822l-4.03-2.223c1.396-3.871,2.221-7.68,2.475-11.426L1390.201,2060.58z M1430.699,2095.365
		l-4.951,2.729c-0.804-1.27-1.714-2.486-2.729-3.649c-15.679,1.48-28.555,2.391-38.625,2.729l-0.635-4.221
		c5.373-1.122,11.912-3.671,19.613-7.649c-5.734,0.381-11.404,0.508-17.012,0.381l-0.729-4.284
		c6.052-1.186,11.669-4.158,16.853-8.919l5.84,2.158c-3.744,3.026-7.405,5.216-10.98,6.569l9.076-0.539l6.094-0.635
		c0.232-0.021,1.407-0.857,3.523-2.508c1.164-0.931,2.295-1.893,3.396-2.888l5.808,2.063c-6.115,5.987-15.182,11.107-27.2,15.361
		c6.285-0.254,13.479-0.868,21.582-1.842c-1.607-1.84-2.855-3.205-3.744-4.094l4.919-2.793
		C1424.859,2087.461,1428.16,2091.471,1430.699,2095.365z M1405.53,2071.052h-3.522c-2.031,0-3.047-1.216-3.047-3.649v-7.522h4.284
		v5.777c0,0.655,0.328,0.983,0.984,0.983h1.301V2071.052z M1412.925,2060.388c-0.063,4.359-0.974,8.76-2.729,13.203l-3.872-2.158
		c1.375-4.083,2.147-7.934,2.317-11.553L1412.925,2060.388z M1430.223,2072.354h-4.285c-2.561,0-3.84-1.28-3.84-3.841v-8.633h4.348
		v6.824c0,0.656,0.307,0.984,0.92,0.984h2.857V2072.354z"/>
	<path fill="#FFFFFF" d="M1466.119,2048.835h-16.853c-2.92,3.344-5.565,5.788-7.936,7.332l-3.49-4.412
		c4.146-2.877,7.828-6.802,11.045-11.774l5.648,1.302c-0.91,1.438-1.471,2.348-1.682,2.729h13.267V2048.835z M1495.159,2088.223
		h-14.885v9.077h-5.84v-9.077h-14.504c-0.699,2.307-2.037,4.185-4.016,5.634s-5.602,2.777-10.87,3.982l-3.714-4.887
		c6.877-1.186,10.95-2.762,12.22-4.729h-15.013v-4.824h16.123v-3.174h5.809v3.174h13.965v-3.174h5.84v3.174h14.885V2088.223z
		 M1489.003,2078.607h-44.529v-23.297h44.529V2078.607z M1483.257,2061.944v-2.317h-33.071v2.317H1483.257z M1483.257,2068.197
		v-2.477h-33.071v2.477H1483.257z M1483.257,2074.512v-2.666h-33.071v2.666H1483.257z M1459.676,2053.501l-5.713,1.047l-2.539-3.903
		l5.902-0.983C1457.856,2050.317,1458.639,2051.597,1459.676,2053.501z M1494.905,2048.835h-20.217
		c-1.396,1.884-2.824,3.523-4.285,4.92l-5.459-2.476c2.984-2.476,5.798-6.199,8.443-11.172l5.713,1.11l-1.492,2.793h17.297V2048.835
		z M1486.399,2053.311l-5.871,1.11c-0.339-0.762-1.111-2.02-2.316-3.776l5.967-0.983
		C1485.256,2051.1,1485.997,2052.317,1486.399,2053.311z"/>
	<path fill="#FFFFFF" d="M1533.055,2079.971h-6.38v-2.793c0-2.2,0.438-4.126,1.317-5.776c0.877-1.65,2.417-3.321,4.617-5.015
		c2.412-1.925,4.021-3.581,4.824-4.967c0.805-1.386,1.207-2.894,1.207-4.522c0-1.926-0.699-3.513-2.096-4.762
		c-1.396-1.248-3.29-1.872-5.681-1.872c-3.957,0-7.554,1.513-10.791,4.538v-7.458c3.618-2.179,7.532-3.269,11.743-3.269
		c4.38,0,7.828,1.1,10.347,3.301c2.518,2.2,3.776,5.089,3.776,8.664c0,2.412-0.57,4.64-1.713,6.681
		c-1.143,2.042-3.068,4.174-5.777,6.396c-1.946,1.587-3.332,2.899-4.157,3.936c-0.825,1.037-1.237,2.539-1.237,4.507V2079.971z
		 M1529.881,2086.001c1.27,0,2.354,0.424,3.253,1.27c0.899,0.847,1.349,1.894,1.349,3.143c0,1.248-0.439,2.29-1.317,3.126
		c-0.878,0.835-1.974,1.253-3.284,1.253c-1.291,0-2.387-0.423-3.285-1.27c-0.9-0.846-1.35-1.883-1.35-3.109
		c0-1.249,0.461-2.296,1.381-3.143C1527.548,2086.425,1528.632,2086.001,1529.881,2086.001z"/>
	<g enable-background="new    ">
		<path fill="#FFFFFF" d="M385.072,1826.023c-0.716,3.492-1.661,6.195-2.833,8.111c-1.172,1.915-2.681,2.873-4.525,2.873
			c-3.08,0-6.141-2.748-9.185-8.244c-3.08,2.291-6.472,4.35-10.178,6.176l-2.739-4.082c4.243-1.986,7.958-4.18,11.145-6.579
			c-0.896-3.455-1.513-9.032-1.853-16.731H353.41v7.601c2.739-0.555,5.783-1.325,9.131-2.31l0.107,4.78
			c-3.313,0.967-6.392,1.736-9.238,2.31v12.192c0,1.396-0.287,2.435-0.859,3.115c-0.573,0.681-1.298,1.123-2.175,1.329
			c-0.877,0.206-2.453,0.309-4.727,0.309c-1.701,0-3.366-0.044-4.995-0.134l-1.719-5.21c2.471,0.107,4.494,0.161,6.069,0.161
			c1.683,0,2.667-0.076,2.954-0.229c0.286-0.151,0.43-0.479,0.43-0.979v-9.508c-3.939,0.752-7.546,1.299-10.823,1.639l-0.886-4.565
			c3.545-0.394,7.448-1.021,11.709-1.88v-8.621H336.84v-4.672h11.548v-6.23c-2.471,0.375-5.586,0.725-9.346,1.047l-2.202-4.565
			c9.292-0.555,17.053-1.996,23.284-4.323l2.793,4.055c-3.474,1.235-6.643,2.148-9.507,2.739v7.278h11.44
			c-0.072-2.221-0.107-6.894-0.107-14.02h4.888c-0.054,4.763-0.054,9.436,0,14.02h15.012v4.672h-14.851
			c0.125,4.566,0.457,8.854,0.994,12.864c2.542-2.918,4.834-6.49,6.875-10.716l4.297,2.148c-2.99,5.998-6.204,10.563-9.641,13.697
			c1.056,2.148,2.037,3.724,2.94,4.727c0.904,1.002,1.598,1.504,2.082,1.504c1.253,0,2.372-2.829,3.357-8.486L385.072,1826.023z
			 M383.166,1798.201l-3.975,2.955c-1.97-2.937-4.333-5.596-7.09-7.977l3.787-3.169
			C378.698,1792.481,381.125,1795.211,383.166,1798.201z"/>
		<path fill="#FFFFFF" d="M412.519,1836.309h-4.727v-3.626h-9.937v4.163h-4.861v-40.015h4.915c1.378-2.542,2.453-5.335,3.223-8.379
			l5.076,0.832c-0.269,1.737-1.128,4.253-2.578,7.547h8.889V1836.309z M407.792,1811.791v-10.179h-9.937v10.179H407.792z
			 M407.792,1827.957v-11.547h-9.937v11.547H407.792z M439.106,1797.1c-0.036,5.264-0.224,12.09-0.564,20.478
			c-0.34,8.388-0.842,13.334-1.504,14.838c-0.663,1.504-1.669,2.608-3.021,3.316c-1.352,0.707-4.642,1.078-9.869,1.114l-1.826-4.834
			l7.358-0.054c0.698,0,1.441-0.295,2.229-0.887c0.788-0.59,1.378-4.574,1.772-11.95c0.394-7.376,0.582-13.123,0.564-17.241h-11.038
			c-1.719,4.368-3.662,8.093-5.828,11.172l-3.76-3.357c3.938-6.373,6.714-13.49,8.325-21.35l4.834,1.047
			c-0.358,1.862-1.003,4.432-1.934,7.708H439.106z M431.13,1821.673l-4.297,2.766c-2.363-4.727-4.897-8.674-7.6-11.844l4.297-2.686
			C427.182,1814.476,429.715,1818.396,431.13,1821.673z"/>
		<path fill="#FFFFFF" d="M464.618,1794.791l-6.23,10.018v5.773c1.289-0.447,3.017-1.218,5.183-2.31v5.264
			c-1.146,0.662-2.874,1.486-5.183,2.471v16.731c0,1.234-0.43,2.229-1.289,2.98s-1.987,1.128-3.384,1.128
			c-2.399,0-4.064-0.036-4.995-0.107l-1.638-4.727c1.271,0.09,2.542,0.134,3.813,0.134c1.182,0,1.938-0.111,2.27-0.335
			c0.331-0.224,0.497-0.613,0.497-1.169v-12.541c-2.829,1.057-4.933,1.826-6.311,2.31l-1.101-4.565
			c2.847-1.021,5.317-2.023,7.412-3.008v-8.862c2.614-3.921,4.556-6.982,5.828-9.185h-12.3v-4.619h17.429V1794.791z
			 M494.482,1833.838l-3.142,3.679c-3.438-3.294-7.376-6.302-11.816-9.023c-4.798,3.617-10.062,6.401-15.791,8.353l-3.088-4.001
			c7.054-2.256,12.796-5.188,17.228-8.796c4.431-3.607,8.302-8.616,11.615-15.025l3.948,2.202
			c-2.489,4.978-5.899,9.686-10.232,14.126C488.34,1828.682,492.1,1831.511,494.482,1833.838z M494.482,1799.007h-14.475
			c-2.632,4.189-5.103,7.402-7.412,9.641c2.041-0.197,4.932-0.617,8.674-1.262c0.77-1.057,1.907-3.018,3.411-5.882l3.975,2.067
			c-4.315,9.615-11.781,17.188-22.397,22.721l-2.793-3.787c5.926-3.205,10.599-6.688,14.019-10.447
			c-2.829,0.484-6.517,0.977-11.064,1.478l-1.208-3.571c3.366-2.597,6.445-6.249,9.238-10.957h-8.782v-4.619h11.44
			c-0.842-1.611-1.746-3.053-2.712-4.324l5.022-1.558c1.199,1.665,2.265,3.626,3.196,5.882h11.87V1799.007z"/>
		<path fill="#FFFFFF" d="M549.696,1814.906h-21.27v16.945c0,1.146-0.345,2.126-1.034,2.94c-0.689,0.814-1.455,1.334-2.296,1.558
			c-0.842,0.224-2.578,0.336-5.21,0.336c-1.343,0-2.677-0.036-4.001-0.107l-1.45-4.78c2.166,0.161,3.849,0.241,5.049,0.241
			c1.665,0,2.726-0.116,3.183-0.349c0.456-0.232,0.685-0.707,0.685-1.423v-15.361h-21.404v-4.781h21.404v-6.713
			c4.136-2.256,8.298-5.147,12.488-8.675h-27.607v-4.834h35.476v4.834c-4.226,3.921-9.319,7.771-15.281,11.548v3.84h21.27V1814.906z
			"/>
		<path fill="#FFFFFF" d="M573.678,1798.308h-17v-4.512h6.445c-0.376-1.289-1.021-2.686-1.934-4.189l4.941-1.208
			c0.877,1.629,1.593,3.429,2.148,5.397h5.398V1798.308z M573.195,1806.231h-15.308v-4.243h15.308V1806.231z M573.195,1814.099
			h-15.308v-4.242h15.308V1814.099z M573.302,1835.531h-4.673v-2.068h-5.828v3.223h-4.753v-18.906h15.254V1835.531z
			 M568.63,1829.219v-7.036h-5.828v7.036H568.63z M604.482,1798.093h-14.072c-2.328,4.011-4.915,7.287-7.761,9.83
			c2.99-0.144,6.051-0.475,9.185-0.994c1.164-1.772,2.283-3.787,3.357-6.043l4.243,2.041c-4.87,10.26-12.192,17.887-21.968,22.881
			l-2.686-4.082c6.194-3.204,10.706-6.534,13.535-9.99c-4.1,0.627-7.914,0.994-11.44,1.102l-1.155-4.189
			c3.473-2.399,6.481-5.917,9.023-10.555h-9.238v-4.457h11.333c-0.627-1.218-1.459-2.489-2.498-3.814l5.076-1.477
			c1.396,2.005,2.444,3.769,3.142,5.291h11.924V1798.093z M604.965,1833.462l-3.572,3.68c-2.972-3.778-5.998-6.804-9.077-9.078
			c-4.906,3.903-9.82,6.857-14.744,8.863l-2.793-4.082c6.75-2.758,11.986-5.958,15.71-9.602c3.724-3.643,6.776-8.016,9.158-13.119
			l4.109,2.418c-1.844,4.171-4.503,8.19-7.976,12.058C599.307,1827.464,602.369,1830.418,604.965,1833.462z"/>
		<path fill="#FFFFFF" d="M659.535,1835.423h-47.964v-4.941h19.739v-41.761h5.129v16.517h20.732v4.834H636.44v20.41h23.096V1835.423
			z"/>
		<path fill="#FFFFFF" d="M682.416,1789.5c-0.555,1.594-1.423,3.652-2.605,6.178l-1.799,3.625v37.329h-4.995v-28.091
			c-1.558,2.095-2.9,3.831-4.028,5.21l-2.739-5.156c4.261-5.139,7.985-11.96,11.172-20.464L682.416,1789.5z M714.643,1809.185
			h-14.341v27.554h-5.076v-27.554H680.59v-4.995h14.636v-15.522h5.076v15.522h14.341V1809.185z"/>
		<path fill="#FFFFFF" d="M769.642,1796.482h-8.701v3.089h7.654v3.841h-7.654v13.213h-4.431v-13.213h-6.606v-3.841h6.606v-3.089
			h-14.905v3.089h6.58v3.841h-6.58v13.213h-4.297v-13.213h-6.392v-3.841h6.392v-3.089h-8.245v25.647
			c0,5.515-1.119,10.68-3.357,15.495l-4.082-3.195c1.844-4.279,2.766-9.113,2.766-14.502v-27.661h19.954
			c-0.412-0.949-0.833-1.835-1.262-2.659l4.888-1.477c0.734,1.468,1.379,2.847,1.934,4.136h19.738V1796.482z M735.939,1805.72
			c-0.233,3.76-0.985,7.377-2.256,10.85l-3.411-1.879c1.182-3.277,1.88-6.5,2.095-9.668L735.939,1805.72z M770.207,1835.154
			l-4.189,2.311c-0.681-1.074-1.45-2.104-2.31-3.089c-13.267,1.253-24.161,2.023-32.683,2.31l-0.537-3.572
			c4.547-0.948,10.08-3.105,16.596-6.472c-4.852,0.322-9.65,0.43-14.394,0.322l-0.618-3.626c5.12-1.002,9.874-3.518,14.26-7.546
			l4.941,1.826c-3.168,2.561-6.266,4.413-9.292,5.56l7.68-0.457l5.156-0.537c0.197-0.018,1.191-0.725,2.981-2.121
			c0.984-0.788,1.942-1.603,2.874-2.444l4.914,1.745c-5.174,5.067-12.846,9.4-23.015,12.998c5.318-0.215,11.405-0.733,18.261-1.557
			c-1.36-1.559-2.416-2.713-3.168-3.465l4.162-2.363C765.265,1828.467,768.058,1831.86,770.207,1835.154z M748.91,1814.583h-2.98
			c-1.719,0-2.578-1.03-2.578-3.089v-6.364h3.625v4.887c0,0.556,0.278,0.833,0.833,0.833h1.101V1814.583z M755.168,1805.56
			c-0.054,3.688-0.823,7.412-2.31,11.172l-3.276-1.826c1.164-3.456,1.817-6.715,1.961-9.775L755.168,1805.56z M769.804,1815.684
			h-3.626c-2.166,0-3.249-1.083-3.249-3.249v-7.305h3.679v5.773c0,0.555,0.26,0.832,0.778,0.832h2.418V1815.684z"/>
		<path fill="#FFFFFF" d="M793.732,1798.041h-17v-4.404h6.5c-0.395-1.146-1.093-2.453-2.096-3.922l4.834-1.423
			c1.129,1.97,1.997,3.751,2.605,5.345h5.156V1798.041z M792.148,1805.962h-14.1v-4.243h14.1V1805.962z M792.148,1814.046h-14.1
			v-4.297h14.1V1814.046z M792.093,1835.476h-4.727v-2.309h-4.646v3.625h-4.673v-18.853h14.045V1835.476z M787.367,1828.656v-6.312
			h-4.646v6.312H787.367z M825.207,1831.797l-2.873,3.786c-5.104-4.654-8.692-9.202-10.77-13.643v14.852h-4.565v-14.663
			c-2.488,4.87-6.052,9.489-10.688,13.857l-2.686-3.921c5.103-4.978,8.531-9.444,10.285-13.4h-9.346v-4.512h12.435v-4.029h-10.527
			v-20.222h25.593v20.222h-10.5v4.029h13.025v4.512h-10.125C816.72,1823.015,820.301,1827.393,825.207,1831.797z M806.999,1797.933
			v-3.76h-5.882v3.76H806.999z M806.999,1805.882v-3.841h-5.882v3.841H806.999z M817.5,1797.933v-3.76h-5.936v3.76H817.5z
			 M817.5,1805.882v-3.841h-5.936v3.841H817.5z"/>
		<path fill="#FFFFFF" d="M851.042,1816.167l-3.356,3.303c-0.896-1.897-1.925-3.724-3.089-5.479v22.693h-4.727v-19.846
			c-1.343,2.757-3.249,5.746-5.72,8.969l-2.74-4.672c3.08-3.867,5.828-8.711,8.245-14.529h-7.868v-4.565h8.083v-6.875
			c-2.649,0.447-4.664,0.707-6.042,0.778l-1.934-4.242c6.498-0.627,11.869-1.8,16.113-3.519l2.201,4.028
			c-1.7,0.734-3.571,1.352-5.612,1.854v7.976h5.962v4.565h-5.962v1.154C847.353,1810.966,849.502,1813.768,851.042,1816.167z
			 M879.589,1836.148h-30.965v-4.404h13.428v-6.875h-11.44v-4.458h11.44v-5.612c-4.368,0.322-7.743,0.51-10.125,0.563l-1.611-4.297
			c10.546-0.251,19.426-1.227,26.641-2.927l1.854,4.135c-4.1,0.932-8.057,1.611-11.87,2.041v6.097h11.494v4.458H866.94v6.875h12.649
			V1836.148z M876.797,1806.5h-24.385v-16.436h24.385V1806.5z M871.774,1802.042v-7.52h-14.341v7.52H871.774z"/>
		<path fill="#FFFFFF" d="M911.816,1822.129h-5.398v-2.363c0-1.862,0.371-3.491,1.114-4.888s2.046-2.811,3.907-4.243
			c2.041-1.629,3.402-3.03,4.082-4.203c0.681-1.172,1.021-2.448,1.021-3.827c0-1.629-0.592-2.972-1.773-4.027
			c-1.182-1.057-2.783-1.585-4.807-1.585c-3.348,0-6.392,1.28-9.131,3.841v-6.312c3.062-1.844,6.374-2.767,9.937-2.767
			c3.706,0,6.624,0.932,8.755,2.793c2.131,1.862,3.195,4.307,3.195,7.332c0,2.041-0.482,3.926-1.449,5.653s-2.597,3.531-4.889,5.411
			c-1.646,1.343-2.819,2.453-3.518,3.33s-1.047,2.148-1.047,3.813V1822.129z M909.13,1827.232c1.074,0,1.991,0.358,2.752,1.074
			s1.142,1.603,1.142,2.658c0,1.057-0.372,1.938-1.114,2.646c-0.743,0.707-1.67,1.062-2.779,1.062c-1.093,0-2.02-0.358-2.78-1.074
			c-0.761-0.717-1.142-1.594-1.142-2.633c0-1.056,0.39-1.942,1.169-2.658C907.156,1827.59,908.074,1827.232,909.13,1827.232z"/>
	</g>
	<g enable-background="new    ">
		<path fill="#FFFFFF" d="M574.589,2391.992h-47.856v-4.86h47.856V2391.992z"/>
		<path fill="#FFFFFF" d="M627.951,2409.851c0,2.077-0.6,3.451-1.799,4.122c-1.2,0.672-3.375,1.007-6.526,1.007
			c-1.074,0-2.39-0.018-3.948-0.053l-1.477-4.619c4.494,0,6.956-0.014,7.385-0.041c0.43-0.026,0.761-0.205,0.994-0.537
			c0.232-0.331,0.349-0.586,0.349-0.766v-18.799h-32.334c-0.305,12.05-2.158,20.429-5.559,25.137l-3.733-4.512
			c2.936-5.156,4.404-12.559,4.404-22.209v-20.92h42.244V2409.851z M604.292,2376.578v-4.244h-13.696v4.244H604.292z
			 M604.292,2385.494v-4.404h-13.696v4.404H604.292z M618.982,2407.703h-24.385v-14.072h24.385V2407.703z M614.201,2403.433v-5.452
			h-14.797v5.452H614.201z M622.929,2376.578v-4.244h-13.643v4.244H622.929z M622.929,2385.494v-4.404h-13.643v4.404H622.929z"/>
		<path fill="#FFFFFF" d="M684.536,2372.441h-5.049v37.195c0,1.594-0.425,2.811-1.276,3.652c-0.85,0.842-1.857,1.303-3.021,1.383
			c-1.164,0.081-4.763,0.121-10.796,0.121l-1.638-5.156c2.417,0.144,4.708,0.215,6.875,0.215c2.166,0,3.388-0.031,3.666-0.094
			c0.277-0.063,0.532-0.242,0.765-0.537c0.232-0.296,0.349-0.613,0.349-0.953v-35.826h-37.678v-4.887h47.803V2372.441z
			 M666.167,2402.976h-24.25v-23.364h24.25V2402.976z M661.172,2398.196v-13.804h-14.26v13.804H661.172z"/>
		<path fill="#FFFFFF" d="M716.44,2398.625c-7.771,5.264-15.433,9.847-22.988,13.75l-1.934-4.673
			c1.11-0.555,2.506-1.307,4.189-2.256v-38.726h5.103v35.825c5.407-3.008,10.286-6.105,14.636-9.292L716.44,2398.625z
			 M721.945,2384.714l-4.351,2.713c-2.489-4.853-5.935-10.026-10.339-15.523l4.163-2.738
			C715.643,2374.232,719.152,2379.415,721.945,2384.714z M740.315,2411.624l-3.975,3.411c-2.471-3.492-5.864-7.457-10.178-11.897
			c-2.954,3.742-8.03,7.779-15.227,12.112l-3.25-4.244c10.33-5.406,16.691-11.834,19.081-19.281
			c2.391-7.448,3.585-15.72,3.585-24.814h5.049c-0.448,14.125-2.516,24.832-6.204,32.119
			C733.672,2403.558,737.378,2407.756,740.315,2411.624z"/>
		<path fill="#FFFFFF" d="M794.536,2413.423h-47.964v-4.941h19.739v-41.761h5.129v16.517h20.732v4.834H771.44v20.41h23.096V2413.423
			z"/>
		<path fill="#FFFFFF" d="M849.965,2405.178c-0.663,3.652-1.549,6.199-2.659,7.641c-1.11,1.44-2.569,2.161-4.377,2.161
			c-3.33,0-6.777-1.691-10.339-5.075c-4.476,2.363-8.952,4.091-13.428,5.183l-2.578-3.867c5.281-1.253,9.668-2.828,13.159-4.727
			c-1.54-2.094-2.918-5.138-4.136-9.131h-9.91c0,0.573-0.072,1.396-0.215,2.471c3.545,1.039,6.741,2.274,9.587,3.707l-1.987,4.001
			c-3.474-1.629-6.24-2.802-8.298-3.519c-1.647,5.156-5.094,8.881-10.339,11.172l-3.303-3.813c3.025-1.093,5.425-2.914,7.197-5.466
			c1.772-2.551,2.578-5.402,2.417-8.554h-9.077v-4.162h22.881c-0.967-7.698-1.388-16.543-1.262-26.533h4.727
			c-0.125,10.349,0.349,19.175,1.423,26.479h8.11c-0.107-0.305-0.457-0.859-1.047-1.665l4.512-1.262
			c0.626,1.02,1.172,1.996,1.638,2.927h6.929v4.216h-18.853c0.573,2.274,1.647,4.494,3.223,6.66
			c1.826-0.948,3.992-2.729,6.499-5.344l3.357,2.363c-1.128,1.504-3.509,3.581-7.144,6.23c2.363,1.987,4.368,2.98,6.016,2.98
			c0.591,0,1.079-0.385,1.464-1.154c0.385-0.77,0.801-2.686,1.249-5.747L849.965,2405.178z M823.244,2390.328l-3.84,1.53
			c-0.412-1.343-0.725-2.31-0.94-2.9c-3.939,0.806-8.746,1.468-14.421,1.987l-0.94-3.76c3.438-2.578,6.096-4.905,7.976-6.982
			c-1.987,0.43-4.404,0.832-7.251,1.209l-0.833-3.948c3.24-2.649,6.177-6.302,8.809-10.957l4.136,1.504
			c-1.576,2.775-3.948,5.837-7.117,9.185c2.703-0.43,4.708-0.851,6.016-1.262c0.895-1.182,2.014-2.838,3.357-4.969l3.733,2.095
			c-3.384,5.031-7.529,9.561-12.434,13.589c2.399-0.269,4.915-0.725,7.546-1.369c-0.215-0.573-0.6-1.379-1.155-2.418l3.679-1.879
			C821.373,2384.562,822.6,2387.677,823.244,2390.328z M849.375,2390.005l-3.679,1.638c-0.34-0.984-0.689-1.934-1.047-2.847
			c-3.169,0.483-7.699,1.047-13.589,1.691l-0.779-3.894c2.649-2.041,4.852-4.037,6.606-5.989c-2.22,0.27-4.458,0.484-6.714,0.645
			l-0.645-3.464c3.008-2.811,5.657-6.57,7.949-11.279l4.082,1.558c-2.22,3.867-4.369,6.893-6.445,9.077
			c1.862-0.071,3.554-0.277,5.076-0.618c1.36-1.557,2.659-3.393,3.894-5.505l3.921,1.88c-3.044,4.602-6.839,8.979-11.387,13.133
			c0.68-0.019,2.82-0.287,6.418-0.807c-0.144-0.537-0.51-1.307-1.101-2.309l3.572-1.666
			C847.101,2383.882,848.39,2386.8,849.375,2390.005z"/>
		<path fill="#FFFFFF" d="M904.697,2413.638h-47.803v-4.432h21.511v-4.512h-18.638v-4.243h18.638v-4.189h-12.864v-12.864h30.347
			v12.864h-12.649v4.189h18.665v4.243h-18.665v4.512h21.458V2413.638z M903.811,2388.339h-4.834v-8.459h-36.47v8.459h-4.727v-12.81
			h20.518v-8.809h4.834v8.809h20.679V2388.339z M873.679,2372.333l-4.351,2.605c-2.274-2.166-4.602-3.912-6.982-5.236l4.136-2.848
			C869.024,2368.216,871.423,2370.042,873.679,2372.333z M891.054,2392.099v-4.512h-20.679v4.512H891.054z M898.547,2369.326
			c-1.683,1.862-3.778,3.77-6.284,5.721l-4.351-2.713c2.435-1.754,4.565-3.625,6.392-5.612L898.547,2369.326z"/>
		<path fill="#FFFFFF" d="M928.733,2376.041h-17v-4.404h6.499c-0.394-1.146-1.092-2.453-2.095-3.922l4.834-1.423
			c1.128,1.97,1.996,3.751,2.605,5.345h5.156V2376.041z M927.148,2383.962h-14.099v-4.243h14.099V2383.962z M927.148,2392.046
			h-14.099v-4.297h14.099V2392.046z M927.094,2413.476h-4.727v-2.309h-4.646v3.625h-4.673v-18.853h14.045V2413.476z
			 M922.368,2406.656v-6.312h-4.646v6.312H922.368z M960.207,2409.797l-2.873,3.786c-5.104-4.654-8.692-9.202-10.77-13.643v14.852
			h-4.565v-14.663c-2.488,4.87-6.052,9.489-10.688,13.857l-2.686-3.921c5.103-4.978,8.531-9.444,10.285-13.4h-9.345v-4.512h12.434
			v-4.029h-10.527v-20.222h25.593v20.222h-10.5v4.029h13.025v4.512h-10.125C951.721,2401.015,955.302,2405.393,960.207,2409.797z
			 M941.999,2375.933v-3.76h-5.882v3.76H941.999z M941.999,2383.882v-3.841h-5.882v3.841H941.999z M952.5,2375.933v-3.76h-5.936
			v3.76H952.5z M952.5,2383.882v-3.841h-5.936v3.841H952.5z"/>
		<path fill="#FFFFFF" d="M971.997,2400.291c-0.43-1.307-0.645-2.658-0.645-4.055c0-1.433,0.336-2.789,1.008-4.069
			c0.671-1.279,1.902-2.743,3.692-4.391c2.131-1.951,3.464-3.446,4.001-4.485c0.537-1.038,0.807-2.076,0.807-3.115
			c0-1.593-0.561-2.855-1.679-3.786c-1.119-0.931-2.547-1.396-4.284-1.396c-3.312,0-6.248,1.28-8.809,3.841v-6.365
			c3.008-1.844,6.213-2.766,9.615-2.766c3.438,0,6.198,0.846,8.284,2.537c2.086,1.692,3.129,4.06,3.129,7.104
			c0,1.772-0.407,3.424-1.222,4.955c-0.815,1.53-2.306,3.254-4.472,5.17c-2.077,1.844-3.361,3.249-3.854,4.216
			c-0.493,0.967-0.739,1.934-0.739,2.9c0,1.199,0.296,2.435,0.887,3.706H971.997z M971.192,2408.831
			c0-1.038,0.389-1.929,1.168-2.672c0.778-0.743,1.714-1.114,2.807-1.114c1.038,0,1.955,0.357,2.752,1.074
			c0.797,0.716,1.195,1.62,1.195,2.712c0,1.038-0.381,1.92-1.142,2.646c-0.761,0.725-1.651,1.088-2.672,1.088
			c-1.199,0-2.185-0.372-2.954-1.115C971.577,2410.707,971.192,2409.833,971.192,2408.831z"/>
	</g>
	<g enable-background="new    ">
		<path fill="#FFFFFF" d="M1199.499,2503.183c-0.613,2.984-1.42,5.294-2.422,6.932c-1.002,1.637-2.291,2.455-3.867,2.455
			c-2.631,0-5.248-2.349-7.848-7.045c-2.633,1.958-5.531,3.717-8.698,5.277l-2.341-3.488c3.626-1.697,6.801-3.571,9.523-5.622
			c-0.765-2.952-1.293-7.719-1.583-14.298h-9.822v6.495c2.341-0.474,4.941-1.132,7.803-1.974l0.092,4.085
			c-2.831,0.826-5.462,1.484-7.895,1.974v10.419c0,1.193-0.245,2.08-0.734,2.662c-0.489,0.581-1.109,0.96-1.858,1.136
			c-0.75,0.176-2.097,0.264-4.039,0.264c-1.454,0-2.877-0.038-4.27-0.114l-1.469-4.452c2.111,0.092,3.84,0.138,5.188,0.138
			c1.438,0,2.279-0.064,2.523-0.195c0.245-0.13,0.367-0.409,0.367-0.837v-8.125c-3.365,0.643-6.448,1.11-9.248,1.4l-0.758-3.901
			c3.029-0.336,6.365-0.872,10.006-1.606v-7.367h-9.867v-3.992h9.867v-5.324c-2.111,0.32-4.773,0.619-7.986,0.895l-1.881-3.901
			c7.939-0.474,14.572-1.706,19.896-3.694l2.387,3.465c-2.969,1.056-5.676,1.836-8.124,2.341v6.22h9.776
			c-0.062-1.897-0.092-5.891-0.092-11.98h4.177c-0.046,4.07-0.046,8.063,0,11.98h12.829v3.992h-12.691
			c0.107,3.902,0.391,7.566,0.85,10.993c2.172-2.493,4.131-5.546,5.875-9.157l3.672,1.836c-2.556,5.126-5.302,9.027-8.239,11.705
			c0.902,1.836,1.74,3.182,2.513,4.039c0.772,0.856,1.365,1.285,1.779,1.285c1.07,0,2.026-2.418,2.868-7.252L1199.499,2503.183z
			 M1197.869,2479.408l-3.396,2.525c-1.683-2.51-3.702-4.781-6.059-6.816l3.235-2.708
			C1194.051,2474.52,1196.125,2476.853,1197.869,2479.408z"/>
		<path fill="#FFFFFF" d="M1246.085,2505.294h-18.037v2.915c0,1.056-0.241,1.89-0.724,2.501c-0.481,0.612-1.094,1.029-1.836,1.251
			s-2.138,0.333-4.188,0.333c-0.948,0-2.027-0.031-3.235-0.092l-1.354-3.81c1.071,0.031,3.137,0.046,6.197,0.046
			c0.565,0,0.849-0.26,0.849-0.78v-2.364h-18.612v-3.327h18.612v-2.02c2.325-0.474,4.49-1.086,6.495-1.836h-17.441v-3.007h25.014
			v3.007c-2.555,1.209-5.813,2.402-9.775,3.58v0.275h18.037V2505.294z M1245.374,2498.387h-3.947v-5.347h-31.44v5.301h-4.177v-8.605
			h2.914l-0.849-16.868c3.044-0.138,6.097-0.734,9.157-1.79l1.928,3.259c-2.188,0.688-4.506,1.171-6.954,1.446l0.138,2.501h6.127
			v3.052h-5.967l0.092,2.662h5.875v3.029h-5.691l0.139,2.709h25.887l0.092-2.709h-6.334v-3.029h6.494l0.138-2.662h-6.632v-3.052
			h6.724l0.138-2.501h-7.184v-3.282h11.269l-0.757,17.235h2.822V2498.387z M1231.099,2472.455c-0.734,0.979-1.752,1.951-3.052,2.914
			c0.764,0.674,1.469,1.362,2.111,2.066l-2.502,2.203c-0.78-0.934-1.561-1.714-2.341-2.342c-1.622,0.965-3.206,1.76-4.751,2.387
			l-1.973-2.639c1.361-0.474,2.691-1.102,3.992-1.882c-0.428-0.397-1.293-1.04-2.593-1.928l2.272-2.295l3.144,2.249
			c1.024-0.749,1.836-1.483,2.433-2.203L1231.099,2472.455z M1231.329,2487.257l-2.502,2.156c-1.178-1.3-2.241-2.302-3.189-3.006
			c-1.637,1.041-3.236,1.92-4.797,2.639l-1.928-2.593c1.133-0.489,2.479-1.208,4.039-2.157c-0.795-0.703-1.828-1.407-3.098-2.111
			l2.271-2.318c0.826,0.49,2.043,1.324,3.649,2.502c1.285-1.086,2.165-1.92,2.64-2.502l2.868,1.699
			c-0.903,0.994-1.874,1.92-2.915,2.776C1229.424,2485.26,1230.411,2486.232,1231.329,2487.257z"/>
		<path fill="#FFFFFF" d="M1265.225,2473.189c-3.672,4.805-7.451,8.346-11.338,10.625l-2.064-3.717
			c3.074-1.607,6.395-4.628,9.959-9.065L1265.225,2473.189z M1265.592,2482.506c-1.025,2.097-2.188,4.07-3.488,5.921v23.821h-4.178
			v-18.268c-1.637,1.638-2.922,2.808-3.855,3.511l-2.02-3.809c3.336-2.647,6.701-6.923,10.098-12.829L1265.592,2482.506z
			 M1293.268,2499.328h-5.438v8.606c0,2.86-1.897,4.292-5.691,4.292c-1.01,0-2.089-0.039-3.235-0.115l-1.193-3.81
			c1.33,0.077,2.479,0.114,3.441,0.114c1.117,0,1.844-0.129,2.181-0.39c0.337-0.26,0.505-0.665,0.505-1.216v-7.482h-19.805v-3.764
			h19.805v-2.776h-18.772v-3.694h27.034v3.694h-4.269v2.776h5.438V2499.328z M1290.171,2486.729h-23.316v-14.71h23.316V2486.729z
			 M1277.296,2505.433l-2.96,2.914c-2.372-2.479-4.583-4.338-6.632-5.576l2.685-2.869
			C1272.408,2500.989,1274.71,2502.832,1277.296,2505.433z M1286.131,2477.619v-2.02h-15.146v2.02H1286.131z M1286.131,2483.057
			v-2.065h-15.146v2.065H1286.131z"/>
		<path fill="#FFFFFF" d="M1340.499,2507.796l-1.079,4.039c-1.943,0.061-3.933,0.092-5.967,0.092
			c-7.206,0-13.062-0.237-17.567-0.711c-4.506-0.475-8.266-2.823-11.279-7.046c-0.521,3.366-1.225,6.158-2.111,8.376l-3.535-2.271
			c1.607-5.049,2.518-11.253,2.731-18.611l3.855,0.092c0.046,2.156-0.054,4.337-0.298,6.54c0.826,1.79,2.004,3.389,3.533,4.796
			v-14.09h-9.5v-3.764h9.5v-5.026h-8.354v-3.81h8.354v-4.98h3.947v4.98h6.449v3.81h-6.449v5.026h7.299v3.764h-7.252v5.255h6.402
			v3.901h-6.402v8.078c1.973,1.133,8.422,1.698,19.346,1.698C1334.891,2507.934,1337.682,2507.888,1340.499,2507.796z
			 M1340.04,2494.921c-0.077,3.152-0.418,5.375-1.021,6.667c-0.605,1.293-1.354,2.081-2.249,2.364
			c-0.896,0.283-2.766,0.424-5.611,0.424c-1.744,0-3.394-0.03-4.945-0.092c-1.554-0.061-2.655-0.382-3.305-0.963
			c-0.651-0.582-0.976-1.438-0.976-2.57v-27.517h16.316v16.134h-12.346v10.098c0,0.428,0.187,0.727,0.562,0.895
			c0.375,0.169,1.687,0.252,3.937,0.252c2.479,0,3.954-0.129,4.429-0.39c0.474-0.26,0.78-0.956,0.918-2.089
			c0.138-1.132,0.206-2.677,0.206-4.635L1340.04,2494.921z M1334.21,2485.466v-8.422h-8.307v8.422H1334.21z"/>
		<path fill="#FFFFFF" d="M1387.751,2506.947l-2.502,3.374c-6.625-3.442-12.094-8.063-16.408-13.861v16.042h-4.269v-16.088
			c-4.376,5.967-9.8,10.618-16.271,13.953l-2.617-3.373c8.293-4.162,14.588-9.8,18.888-16.914v-10.258h-17.625v-4.086h17.625v-4.429
			h4.269v4.429h17.487v4.086h-17.487v10.671C1373.124,2497.194,1379.427,2502.679,1387.751,2506.947z M1361.245,2492.558
			l-3.007,3.006c-0.995-2.096-2.188-4.084-3.58-5.967c-1.622,2.709-3.374,5.072-5.255,7.092l-3.213-2.616
			c3.197-3.075,5.844-7.436,7.939-13.081l3.947,0.895c-0.459,1.5-1.002,2.831-1.629,3.994
			C1358.452,2488.328,1360.051,2490.554,1361.245,2492.558z M1386.42,2493.408l-2.915,2.914c-1.224-2.02-2.93-4.199-5.117-6.541
			c-1.086,2.005-2.356,3.795-3.81,5.371l-2.776-2.915c2.34-2.479,4.299-6.173,5.875-11.085l3.9,0.643
			c-0.367,1.561-0.849,3.022-1.445,4.384C1382.931,2488.963,1385.027,2491.373,1386.42,2493.408z"/>
		<path fill="#FFFFFF" d="M1405.651,2507.934h-3.855v-2.111h-3.718v3.374h-3.855v-35.113h11.429V2507.934z M1401.796,2501.967
			v-23.937h-3.718v23.937H1401.796z M1412.696,2499.558c-0.871,5.109-2.058,9.218-3.557,12.323l-3.167-2.409
			c1.285-2.709,2.341-6.212,3.167-10.512L1412.696,2499.558z M1433.764,2476.264h-9.961v3.235h8.262v3.627h-8.262v3.235h8.262v3.511
			h-8.262v3.443h9.754c-0.092,6.303-0.245,10.583-0.459,12.84c-0.215,2.257-0.527,3.74-0.941,4.452
			c-0.412,0.711-1.112,1.235-2.1,1.571c-0.986,0.337-3.041,0.506-6.162,0.506l-1.377-3.902c0.658,0.047,1.361,0.069,2.111,0.069
			c2.219,0,3.492-0.156,3.821-0.471c0.329-0.313,0.559-1.69,0.688-4.131c0.13-2.439,0.195-4.846,0.195-7.218h-19.736v-24.578h24.166
			V2476.264z M1417.928,2509.724l-3.672,0.551c0.062-0.78,0.092-1.637,0.092-2.57c0-2.539-0.222-5.109-0.665-7.711l3.19-0.619
			C1417.7,2502.969,1418.051,2506.419,1417.928,2509.724z M1419.788,2479.5v-3.235h-6.059v3.235H1419.788z M1419.788,2486.362
			v-3.235h-6.059v3.235H1419.788z M1419.788,2493.316v-3.443h-6.059v3.443H1419.788z M1423.551,2507.039l-3.42,0.85
			c-0.199-2.387-0.719-4.957-1.561-7.711l3.053-0.941C1422.51,2501.837,1423.153,2504.438,1423.551,2507.039z M1428.348,2504.791
			l-3.053,1.17c-0.658-2.708-1.301-4.812-1.928-6.311l2.914-1.079C1427.139,2500.438,1427.827,2502.51,1428.348,2504.791z"/>
		<path fill="#FFFFFF" d="M1444.688,2499.994c-0.367-1.116-0.551-2.271-0.551-3.465c0-1.225,0.286-2.383,0.86-3.478
			c0.573-1.094,1.625-2.344,3.155-3.752c1.82-1.667,2.961-2.945,3.42-3.833c0.459-0.887,0.688-1.774,0.688-2.662
			c0-1.361-0.479-2.439-1.434-3.235c-0.957-0.795-2.177-1.193-3.66-1.193c-2.831,0-5.34,1.094-7.527,3.282v-5.439
			c2.57-1.575,5.309-2.363,8.215-2.363c2.938,0,5.298,0.723,7.08,2.168c1.782,1.446,2.674,3.47,2.674,6.07
			c0,1.515-0.348,2.926-1.044,4.234c-0.696,1.308-1.97,2.78-3.821,4.418c-1.775,1.575-2.873,2.776-3.293,3.603
			c-0.422,0.826-0.631,1.652-0.631,2.479c0,1.025,0.252,2.081,0.757,3.167H1444.688z M1443.999,2507.292
			c0-0.887,0.333-1.648,0.999-2.283c0.665-0.635,1.464-0.952,2.397-0.952c0.888,0,1.672,0.306,2.353,0.918
			c0.681,0.611,1.021,1.385,1.021,2.317c0,0.888-0.325,1.641-0.976,2.261c-0.65,0.619-1.411,0.93-2.283,0.93
			c-1.025,0-1.867-0.318-2.524-0.953C1444.328,2508.894,1443.999,2508.149,1443.999,2507.292z"/>
	</g>
	<g enable-background="new    ">
		<path fill="#FFFFFF" d="M1283.732,1595.041h-16.999v-4.404h6.498c-0.394-1.146-1.092-2.453-2.094-3.922l4.834-1.423
			c1.127,1.97,1.996,3.751,2.604,5.345h5.156V1595.041z M1282.147,1602.962h-14.099v-4.243h14.099V1602.962z M1282.147,1611.046
			h-14.099v-4.297h14.099V1611.046z M1282.094,1632.476h-4.727v-2.309h-4.646v3.625h-4.673v-18.853h14.046V1632.476z
			 M1277.368,1625.656v-6.312h-4.646v6.312H1277.368z M1315.207,1628.797l-2.874,3.786c-5.102-4.654-8.691-9.202-10.769-13.643
			v14.852h-4.565v-14.663c-2.488,4.87-6.052,9.489-10.688,13.857l-2.686-3.921c5.103-4.978,8.53-9.444,10.286-13.4h-9.346v-4.512
			h12.434v-4.029h-10.527v-20.222h25.594v20.222h-10.501v4.029h13.024v4.512h-10.124
			C1306.72,1620.015,1310.301,1624.393,1315.207,1628.797z M1296.999,1594.933v-3.76h-5.881v3.76H1296.999z M1296.999,1602.882
			v-3.841h-5.881v3.841H1296.999z M1307.499,1594.933v-3.76h-5.935v3.76H1307.499z M1307.499,1602.882v-3.841h-5.935v3.841H1307.499
			z"/>
		<path fill="#FFFFFF" d="M1341.042,1613.167l-3.357,3.303c-0.895-1.897-1.924-3.724-3.088-5.479v22.693h-4.727v-19.846
			c-1.343,2.757-3.25,5.746-5.721,8.969l-2.738-4.672c3.078-3.867,5.827-8.711,8.244-14.529h-7.869v-4.565h8.084v-6.875
			c-2.65,0.447-4.664,0.707-6.043,0.778l-1.934-4.242c6.5-0.627,11.871-1.8,16.113-3.519l2.203,4.028
			c-1.701,0.734-3.572,1.352-5.613,1.854v7.976h5.962v4.565h-5.962v1.154C1337.353,1607.966,1339.502,1610.768,1341.042,1613.167z
			 M1369.589,1633.148h-30.964v-4.404h13.428v-6.875h-11.44v-4.458h11.44v-5.612c-4.368,0.322-7.743,0.51-10.124,0.563l-1.611-4.297
			c10.545-0.251,19.425-1.227,26.641-2.927l1.853,4.135c-4.101,0.932-8.057,1.611-11.87,2.041v6.097h11.494v4.458h-11.494v6.875
			h12.648V1633.148z M1366.796,1603.5h-24.385v-16.436h24.385V1603.5z M1361.774,1599.042v-7.52h-14.341v7.52H1361.774z"/>
		<path fill="#FFFFFF" d="M1422.065,1628.529c0,1.379-0.435,2.623-1.303,3.732c-0.869,1.11-3.031,1.666-6.486,1.666
			c-1.414,0-2.838-0.063-4.27-0.188l-1.799-5.21c2.774,0.071,5.03,0.107,6.768,0.107c0.607,0,1.127-0.188,1.557-0.564
			c0.43-0.375,0.645-0.85,0.645-1.423v-26.614h-12.595c1.325,6.965,5.192,13.473,11.602,19.524l-2.981,3.841
			c-5.676-4.834-9.802-11.029-12.38-18.584c-2.077,6.427-6.239,12.64-12.487,18.637l-2.955-3.786
			c6.875-6.875,11.182-13.419,12.918-19.632h-14.18v33.704h-4.914v-38.431h19.523c-0.18-1.611-0.305-3.15-0.376-4.619h-5.264v-4.887
			h9.722c0,1.539,0.277,4.708,0.832,9.506h18.424V1628.529z"/>
		<path fill="#FFFFFF" d="M1479.965,1615.826l-2.525,4.056c-0.697-0.197-2.148-0.743-4.35-1.638v15.684h-4.996v-2.391h-24.814v2.31
			h-4.994v-15.495c-1.2,0.608-2.578,1.217-4.137,1.826l-2.686-4.082c10.045-3.886,17.931-8.961,23.66-15.228l4.458,1.853
			c-0.036,0.107-0.152,0.27-0.349,0.484c-0.197,0.215-0.322,0.366-0.377,0.456
			C1464.567,1608.888,1471.604,1612.944,1479.965,1615.826z M1452.036,1598.666c-3.545,3.581-8.863,7.188-15.953,10.822
			l-3.088-3.947c6.302-2.775,11.387-6.061,15.254-9.855L1452.036,1598.666z M1478.112,1600.653l-4.78-0.081v-5.988h-35.423v5.881
			h-4.807v-10.339h20.356c-0.52-1.307-1.2-2.604-2.041-3.894l5.183-1.048c1.236,2.381,2.006,4.028,2.311,4.941h19.201V1600.653z
			 M1468.202,1615.88c-5.156-2.793-9.354-5.748-12.595-8.863c-3.867,3.545-7.976,6.5-12.327,8.863H1468.202z M1468.094,1626.971
			v-6.526h-24.814v6.526H1468.094z M1478.434,1606.587l-3.088,3.519c-5.193-4.297-10.447-7.913-15.765-10.85l3.115-3.571
			C1468.426,1598.925,1473.672,1602.56,1478.434,1606.587z"/>
		<path fill="#FFFFFF" d="M1491.997,1619.291c-0.43-1.307-0.645-2.658-0.645-4.055c0-1.433,0.335-2.789,1.007-4.069
			c0.671-1.279,1.901-2.743,3.692-4.391c2.131-1.951,3.465-3.446,4.002-4.485c0.537-1.038,0.805-2.076,0.805-3.115
			c0-1.593-0.559-2.855-1.678-3.786s-2.547-1.396-4.283-1.396c-3.313,0-6.249,1.28-8.809,3.841v-6.365
			c3.008-1.844,6.212-2.766,9.613-2.766c3.438,0,6.199,0.846,8.285,2.537c2.086,1.692,3.129,4.06,3.129,7.104
			c0,1.772-0.407,3.424-1.222,4.955c-0.815,1.53-2.306,3.254-4.472,5.17c-2.077,1.844-3.361,3.249-3.854,4.216
			s-0.738,1.934-0.738,2.9c0,1.199,0.295,2.435,0.886,3.706H1491.997z M1491.19,1627.831c0-1.038,0.39-1.929,1.169-2.672
			c0.778-0.743,1.714-1.114,2.806-1.114c1.039,0,1.957,0.357,2.753,1.074c0.797,0.716,1.195,1.62,1.195,2.712
			c0,1.038-0.38,1.92-1.142,2.646c-0.761,0.725-1.651,1.088-2.672,1.088c-1.199,0-2.185-0.372-2.954-1.115
			C1491.575,1629.707,1491.19,1628.833,1491.19,1627.831z"/>
	</g>
	<g enable-background="new    ">
		<path fill="#FFFFFF" d="M1084.597,1742.012h-11.291c-2.434,1.902-5.306,3.691-8.618,5.365v0.234h14.616v3.054h-14.616v4.823
			c0,0.217,0.063,0.404,0.19,0.561c0.126,0.156,0.265,0.253,0.415,0.289s1.15,0.075,2.999,0.117
			c1.849,0.043,3.478,0.063,4.887,0.063c2.891,0,4.785-0.045,5.683-0.136c0.896-0.09,1.43-0.635,1.599-1.635
			c0.168-1,0.253-2.035,0.253-3.107l3.288,1.445c-0.266,2.613-0.717,4.272-1.355,4.978c-0.639,0.704-1.403,1.132-2.294,1.282
			c-0.892,0.15-3.354,0.227-7.39,0.227c-4.167,0-6.85-0.04-8.048-0.118c-1.199-0.078-2.084-0.422-2.656-1.029
			c-0.572-0.608-0.858-1.376-0.858-2.304v-7.154c-2.324,1.132-4.758,2.168-7.299,3.107l-1.807-2.764
			c6.696-2.422,11.99-4.854,15.881-7.299h-15.628v-2.963h12.213v-4.391h-10.026v-2.927h10.026v-4.101h3.288v4.101h7.968v2.927
			h-7.968v4.391h4.372c3.264-2.602,6.359-6.053,9.286-10.353l2.638,1.807c-2.252,3.288-4.673,6.137-7.263,8.546h7.516V1742.012z"/>
		<path fill="#FFFFFF" d="M1121.959,1757.404l-2.132,2.709c-7.202-5.455-11.941-11.183-14.218-17.181
			c-1.783,6.721-6.504,12.382-14.164,16.982l-2.223-2.692c9.72-6.058,14.58-13.965,14.58-23.721v-5.908h3.505v7.606
			c0,4.022,1.346,7.965,4.038,11.824C1114.037,1750.885,1117.575,1754.345,1121.959,1757.404z"/>
		<path fill="#FFFFFF" d="M1158.67,1731.389h-3.396v25.021c0,1.072-0.286,1.891-0.857,2.457c-0.572,0.566-1.25,0.876-2.033,0.931
			c-0.783,0.054-3.204,0.081-7.263,0.081l-1.102-3.469c1.626,0.097,3.167,0.145,4.625,0.145c1.457,0,2.279-0.021,2.466-0.063
			c0.187-0.042,0.358-0.162,0.515-0.361c0.156-0.198,0.235-0.412,0.235-0.642v-24.1h-25.348v-3.289h32.158V1731.389z
			 M1146.312,1751.93h-16.313v-15.718h16.313V1751.93z M1142.952,1748.714v-9.286h-9.593v9.286H1142.952z"/>
		<path fill="#FFFFFF" d="M1195.706,1754.297h-14.2v2.294c0,0.831-0.189,1.487-0.568,1.97c-0.38,0.481-0.861,0.81-1.445,0.984
			c-0.585,0.174-1.684,0.262-3.298,0.262c-0.747,0-1.596-0.024-2.547-0.072l-1.066-2.999c0.843,0.024,2.469,0.036,4.878,0.036
			c0.445,0,0.669-0.205,0.669-0.614v-1.86h-14.652v-2.62h14.652v-1.59c1.83-0.373,3.534-0.855,5.112-1.445h-13.73v-2.366h19.692
			v2.366c-2.012,0.951-4.577,1.891-7.696,2.818v0.217h14.2V1754.297z M1195.146,1748.858h-3.107v-4.21h-24.751v4.174H1164v-6.775
			h2.294l-0.668-13.278c2.396-0.108,4.799-0.578,7.208-1.409l1.518,2.565c-1.723,0.542-3.547,0.921-5.474,1.138l0.108,1.97h4.823
			v2.403h-4.697l0.072,2.096h4.625v2.385h-4.48l0.108,2.131h20.379l0.072-2.131h-4.986v-2.385h5.113l0.108-2.096h-5.222v-2.403
			h5.294l0.108-1.97h-5.655v-2.583h8.871l-0.597,13.567h2.223V1748.858z M1183.909,1728.443c-0.578,0.771-1.38,1.535-2.403,2.295
			c0.603,0.529,1.156,1.071,1.662,1.625l-1.969,1.734c-0.614-0.734-1.229-1.349-1.843-1.842c-1.277,0.758-2.523,1.385-3.74,1.879
			l-1.554-2.078c1.072-0.373,2.12-0.867,3.144-1.481c-0.337-0.313-1.018-0.819-2.041-1.518l1.788-1.807l2.476,1.771
			c0.807-0.59,1.445-1.168,1.915-1.734L1183.909,1728.443z M1184.089,1740.096l-1.97,1.699c-0.928-1.024-1.765-1.813-2.511-2.367
			c-1.289,0.819-2.548,1.512-3.776,2.078l-1.518-2.042c0.892-0.386,1.951-0.951,3.18-1.698c-0.626-0.554-1.439-1.108-2.438-1.662
			l1.788-1.824c0.65,0.385,1.608,1.041,2.873,1.969c1.012-0.855,1.704-1.512,2.077-1.969l2.259,1.336
			c-0.711,0.783-1.476,1.512-2.295,2.187C1182.589,1738.524,1183.367,1739.289,1184.089,1740.096z"/>
		<path fill="#FFFFFF" d="M1204.052,1750.123c-0.289-0.879-0.434-1.789-0.434-2.729c0-0.963,0.227-1.875,0.678-2.736
			c0.452-0.861,1.279-1.846,2.484-2.954c1.433-1.313,2.33-2.318,2.691-3.017c0.361-0.699,0.542-1.397,0.542-2.096
			c0-1.072-0.376-1.922-1.129-2.548s-1.714-0.939-2.882-0.939c-2.229,0-4.203,0.861-5.926,2.583v-4.281
			c2.023-1.24,4.18-1.861,6.468-1.861c2.313,0,4.171,0.569,5.574,1.708c1.402,1.138,2.104,2.73,2.104,4.778
			c0,1.192-0.274,2.304-0.822,3.333c-0.548,1.03-1.551,2.189-3.008,3.478c-1.397,1.241-2.262,2.187-2.593,2.837
			s-0.497,1.301-0.497,1.951c0,0.807,0.199,1.638,0.597,2.493H1204.052z M1203.51,1755.868c0-0.698,0.263-1.298,0.786-1.798
			c0.524-0.499,1.153-0.75,1.888-0.75c0.698,0,1.316,0.241,1.853,0.723c0.535,0.482,0.804,1.091,0.804,1.825
			c0,0.698-0.256,1.292-0.768,1.779c-0.513,0.488-1.111,0.731-1.798,0.731c-0.808,0-1.47-0.25-1.987-0.749
			C1203.769,1757.13,1203.51,1756.543,1203.51,1755.868z"/>
	</g>
	<g enable-background="new    ">
		<path fill="#FFFFFF" d="M912.705,1552.296h-14.2v2.294c0,0.831-0.19,1.487-0.569,1.97c-0.38,0.481-0.861,0.81-1.445,0.984
			c-0.584,0.174-1.684,0.262-3.297,0.262c-0.747,0-1.596-0.024-2.547-0.072l-1.066-2.999c0.843,0.024,2.469,0.036,4.878,0.036
			c0.445,0,0.668-0.205,0.668-0.614v-1.86h-14.652v-2.62h14.652v-1.59c1.831-0.373,3.535-0.855,5.113-1.445h-13.73v-2.366h19.692
			v2.366c-2.012,0.951-4.577,1.891-7.696,2.818v0.217h14.2V1552.296z M912.145,1546.858h-3.107v-4.21h-24.751v4.174h-3.288v-6.775
			h2.294l-0.668-13.278c2.396-0.108,4.799-0.578,7.208-1.409l1.518,2.565c-1.723,0.542-3.547,0.921-5.474,1.138l0.108,1.97h4.824
			v2.403h-4.697l0.072,2.096h4.625v2.385h-4.48l0.108,2.131h20.379l0.072-2.131h-4.986v-2.385h5.113l0.108-2.096h-5.221v-2.403
			h5.293l0.108-1.97h-5.655v-2.583h8.871l-0.596,13.567h2.222V1546.858z M900.908,1526.443c-0.578,0.771-1.379,1.535-2.403,2.295
			c0.602,0.529,1.156,1.071,1.662,1.625l-1.969,1.734c-0.614-0.734-1.229-1.349-1.843-1.842c-1.277,0.758-2.523,1.385-3.74,1.879
			l-1.554-2.078c1.072-0.373,2.12-0.867,3.144-1.481c-0.337-0.313-1.018-0.819-2.042-1.518l1.789-1.807l2.475,1.771
			c0.807-0.59,1.445-1.168,1.915-1.734L900.908,1526.443z M901.089,1538.095l-1.969,1.699c-0.928-1.024-1.765-1.813-2.511-2.367
			c-1.289,0.819-2.547,1.512-3.776,2.078l-1.518-2.042c0.891-0.386,1.951-0.951,3.18-1.698c-0.626-0.554-1.439-1.108-2.439-1.662
			l1.789-1.824c0.65,0.385,1.608,1.041,2.873,1.969c1.012-0.855,1.704-1.512,2.078-1.969l2.258,1.336
			c-0.711,0.783-1.476,1.512-2.294,2.187C899.589,1536.524,900.366,1537.289,901.089,1538.095z"/>
		<path fill="#FFFFFF" d="M949.561,1556.921h-32.086v-3.252h14.923v-8.076h-11.219v-3.252h11.219v-7.064h-8.292
			c-1.361,2.361-2.867,4.385-4.517,6.07l-2.511-2.402c3.36-3.444,5.612-7.678,6.757-12.701l3.306,0.777
			c-0.422,1.578-0.928,3.246-1.518,5.004h6.775v-6.485h3.396v6.485h13.279v3.252h-13.279v7.064h11.761v3.252h-11.761v8.076h13.767
			V1556.921z"/>
		<path fill="#FFFFFF" d="M982.297,1531.032c-5.998,6.312-14.73,10.575-26.197,12.791l-1.554-2.927
			c5.504-0.879,9.87-2.012,13.098-3.396c-1.084-1.289-2.782-2.746-5.095-4.372c-2.276,1.217-4.18,2.107-5.709,2.674l-1.951-2.476
			c5.263-2.083,9.551-4.775,12.863-8.075l3.107,1.192c-0.386,0.481-0.928,1.048-1.626,1.698h13.063V1531.032z M986.452,1544.238
			c0,0.386-0.737,1.449-2.213,3.189c-1.475,1.74-3.083,3.207-4.823,4.398c-1.741,1.193-3.731,2.25-5.972,3.171
			c-2.24,0.922-4.739,1.642-7.497,2.159c-2.759,0.518-5.655,0.789-8.69,0.813l-1.337-3.07c6.106,0.145,11.484-0.783,16.133-2.783
			c-1.108-1.373-2.824-2.926-5.148-4.66c-2.662,1.313-5.24,2.313-7.733,2.998l-2.06-2.637c6.937-1.819,12.767-5.071,17.488-9.756
			l3.145,1.138c-0.555,0.675-1.205,1.367-1.951,2.077h10.658V1544.238z M977.78,1531.032h-11.941
			c-0.121,0.108-0.332,0.253-0.633,0.434c2.096,1.481,3.921,2.999,5.475,4.553C973.499,1534.5,975.866,1532.838,977.78,1531.032z
			 M982.893,1544.238h-10.659c-0.265,0.217-1.103,0.783-2.511,1.699c1.83,1.336,3.619,2.95,5.365,4.842
			C978.557,1548.887,981.159,1546.708,982.893,1544.238z"/>
		<path fill="#FFFFFF" d="M1001.321,1554.374h-3.035v-1.662h-2.927v2.655h-3.035v-27.641h8.997V1554.374z M998.286,1549.676v-18.843
			h-2.927v18.843H998.286z M1006.868,1547.779c-0.688,4.023-1.621,7.257-2.801,9.702l-2.493-1.897
			c1.012-2.131,1.843-4.89,2.493-8.273L1006.868,1547.779z M1023.452,1529.442h-7.84v2.548h6.504v2.854h-6.504v2.548h6.504v2.765
			h-6.504v2.709h7.678c-0.072,4.963-0.193,8.332-0.361,10.108c-0.169,1.777-0.416,2.945-0.74,3.505
			c-0.326,0.561-0.877,0.973-1.653,1.238c-0.777,0.265-2.394,0.396-4.851,0.396l-1.084-3.07c0.518,0.035,1.071,0.054,1.662,0.054
			c1.746,0,2.748-0.123,3.008-0.37c0.259-0.247,0.439-1.331,0.542-3.252s0.153-3.815,0.153-5.682h-15.537v-19.35h19.023V1529.442z
			 M1010.987,1555.783l-2.891,0.434c0.047-0.614,0.072-1.289,0.072-2.023c0-1.999-0.176-4.022-0.524-6.07l2.511-0.488
			C1010.805,1550.465,1011.083,1553.181,1010.987,1555.783z M1012.45,1531.99v-2.548h-4.77v2.548H1012.45z M1012.45,1537.391v-2.548
			h-4.77v2.548H1012.45z M1012.45,1542.865v-2.709h-4.77v2.709H1012.45z M1015.413,1553.669l-2.691,0.668
			c-0.157-1.879-0.566-3.902-1.229-6.07l2.402-0.74C1014.593,1549.574,1015.099,1551.622,1015.413,1553.669z M1019.188,1551.898
			l-2.402,0.922c-0.518-2.132-1.023-3.788-1.518-4.969l2.295-0.849C1018.237,1548.472,1018.779,1550.104,1019.188,1551.898z"/>
		<path fill="#FFFFFF" d="M1032.051,1548.123c-0.289-0.879-0.434-1.789-0.434-2.729c0-0.963,0.227-1.875,0.678-2.736
			c0.452-0.861,1.279-1.846,2.484-2.954c1.434-1.313,2.33-2.318,2.691-3.017c0.361-0.699,0.543-1.397,0.543-2.096
			c0-1.072-0.377-1.922-1.13-2.548s-1.714-0.939-2.882-0.939c-2.229,0-4.203,0.861-5.926,2.583v-4.281
			c2.023-1.24,4.18-1.861,6.469-1.861c2.313,0,4.17,0.569,5.573,1.708c1.403,1.138,2.104,2.73,2.104,4.778
			c0,1.192-0.273,2.304-0.822,3.333c-0.548,1.03-1.551,2.189-3.008,3.478c-1.397,1.241-2.262,2.187-2.593,2.837
			s-0.497,1.301-0.497,1.951c0,0.807,0.199,1.638,0.597,2.493H1032.051z M1031.51,1553.868c0-0.698,0.262-1.298,0.785-1.798
			c0.524-0.499,1.153-0.75,1.889-0.75c0.697,0,1.315,0.241,1.852,0.723c0.535,0.482,0.804,1.091,0.804,1.825
			c0,0.698-0.256,1.292-0.768,1.779c-0.513,0.488-1.111,0.731-1.798,0.731c-0.807,0-1.47-0.25-1.987-0.749
			C1031.768,1555.129,1031.51,1554.542,1031.51,1553.868z"/>
	</g>
	<g enable-background="new    ">
		<path fill="#FFFFFF" d="M1589.418,2611.414h-2.5v-4.434c-2.93,0-5.442-0.618-7.539-1.855v-4.434
			c0.833,0.703,2.024,1.318,3.574,1.846s2.871,0.791,3.965,0.791v-9.707c-3.008-1.289-5.059-2.601-6.152-3.936
			s-1.641-2.959-1.641-4.873c0-2.044,0.726-3.841,2.178-5.391s3.323-2.448,5.615-2.695v-3.848h2.5v3.77
			c2.8,0.091,4.817,0.508,6.055,1.25v4.336c-1.628-1.159-3.646-1.804-6.055-1.934v10.02c2.864,1.276,4.909,2.556,6.133,3.838
			s1.836,2.888,1.836,4.814c0,2.122-0.706,3.877-2.119,5.264s-3.362,2.249-5.85,2.588V2611.414z M1586.918,2580.398
			c-2.356,0.495-3.535,1.829-3.535,4.004c0,1.003,0.237,1.846,0.713,2.529s1.416,1.416,2.822,2.197V2580.398z M1589.418,2603.191
			c2.474-0.508,3.711-1.81,3.711-3.906c0-1.745-1.237-3.255-3.711-4.531V2603.191z"/>
	</g>
	<g enable-background="new    ">
		<path fill="#FFFFFF" d="M811.959,2132.411c-0.446,2.457-1.042,4.171-1.789,5.14c-0.747,0.97-1.729,1.455-2.945,1.455
			c-2.24,0-4.559-1.139-6.956-3.415c-3.011,1.59-6.022,2.752-9.033,3.487l-1.734-2.602c3.553-0.844,6.504-1.903,8.853-3.18
			c-1.036-1.41-1.963-3.457-2.782-6.143h-6.667c0,0.385-0.048,0.939-0.145,1.662c2.385,0.698,4.535,1.529,6.45,2.492l-1.337,2.692
			c-2.337-1.096-4.198-1.885-5.583-2.366c-1.108,3.469-3.427,5.974-6.956,7.516l-2.222-2.566c2.035-0.734,3.649-1.96,4.842-3.676
			c1.192-1.717,1.734-3.635,1.626-5.754h-6.106v-2.801h15.393c-0.65-5.179-0.934-11.129-0.849-17.85h3.18
			c-0.084,6.962,0.235,12.899,0.958,17.813h5.456c-0.072-0.205-0.307-0.578-0.705-1.12l3.035-0.85
			c0.421,0.688,0.789,1.344,1.102,1.97h4.661v2.837h-12.683c0.385,1.529,1.108,3.022,2.168,4.48
			c1.229-0.639,2.686-1.837,4.372-3.596l2.258,1.59c-0.759,1.012-2.361,2.409-4.806,4.191c1.59,1.337,2.938,2.006,4.047,2.006
			c0.397,0,0.726-0.26,0.984-0.777c0.259-0.518,0.539-1.807,0.84-3.866L811.959,2132.411z M793.983,2122.419l-2.583,1.03
			c-0.277-0.903-0.488-1.554-0.632-1.951c-2.65,0.542-5.884,0.987-9.702,1.337l-0.632-2.529c2.313-1.734,4.101-3.3,5.366-4.697
			c-1.337,0.289-2.963,0.561-4.878,0.813l-0.56-2.655c2.18-1.782,4.155-4.239,5.926-7.371l2.782,1.012
			c-1.06,1.867-2.656,3.927-4.788,6.179c1.818-0.289,3.167-0.572,4.047-0.85c0.602-0.795,1.355-1.908,2.258-3.342l2.511,1.409
			c-2.276,3.385-5.065,6.432-8.365,9.142c1.614-0.181,3.306-0.488,5.077-0.922c-0.145-0.385-0.404-0.927-0.777-1.625l2.475-1.266
			C792.724,2118.542,793.549,2120.637,793.983,2122.419z M811.561,2122.203l-2.475,1.103c-0.229-0.662-0.464-1.301-0.705-1.915
			c-2.132,0.325-5.179,0.705-9.142,1.139l-0.524-2.62c1.782-1.373,3.264-2.716,4.444-4.028c-1.494,0.18-2.999,0.324-4.517,0.434
			l-0.434-2.331c2.023-1.891,3.806-4.42,5.348-7.588l2.746,1.048c-1.494,2.602-2.939,4.637-4.336,6.106
			c1.252-0.048,2.391-0.187,3.415-0.415c0.915-1.049,1.789-2.283,2.62-3.704l2.638,1.265c-2.048,3.096-4.601,6.04-7.66,8.834
			c0.458-0.012,1.897-0.192,4.318-0.541c-0.097-0.361-0.343-0.88-0.741-1.555l2.403-1.119
			C810.031,2118.083,810.899,2120.047,811.561,2122.203z"/>
		<path fill="#FFFFFF" d="M849.23,2131.851c-0.65,4.817-2.048,7.227-4.191,7.227c-0.903,0-1.786-0.425-2.646-1.274
			c-0.861-0.849-1.557-1.942-2.087-3.278c-1.891,1.927-3.74,3.432-5.546,4.516l-2.114-2.366c2.433-1.397,4.595-3.126,6.486-5.185
			c-0.976-3.229-1.56-6.745-1.752-10.551h-15.23v7.334c0,4.396-1.066,8.021-3.198,10.877l-2.439-2.006
			c1.758-2.409,2.638-5.589,2.638-9.539v-9.467h17.976l-0.145-2.529h-19.981v-2.873h5.962v-4.896h3.144v4.896h5.293v-6.232h3.18
			v1.717h11.689v2.728h-11.689v1.788h13.712v2.873h-8.13c-0.024,0.386,0,1.229,0.072,2.529h2.746
			c-0.145-0.386-0.392-0.855-0.741-1.409l3.18-0.56c0.421,0.662,0.765,1.318,1.03,1.969h1.933v2.801h-7.931
			c0.12,2.842,0.458,5.383,1.012,7.623c1.421-2.131,2.517-4.251,3.288-6.359l2.692,1.445c-1.434,3.301-3.071,6.101-4.914,8.401
			c0.903,2.385,1.662,3.577,2.276,3.577c0.156,0,0.295-0.066,0.416-0.199c0.12-0.132,0.316-0.746,0.587-1.842
			c0.271-1.097,0.461-2.181,0.569-3.252L849.23,2131.851z M827.947,2127.93c-0.771,2.373-1.843,4.469-3.216,6.287l-2.331-1.427
			c1.325-1.879,2.288-3.782,2.891-5.709L827.947,2127.93z M836.908,2128.942c-2.758,4.806-6.877,8.208-12.357,10.208l-1.897-2.639
			c2.288-0.723,4.348-1.691,6.179-2.908v-7.769h-5.221v-2.782h12.737v2.782h-4.589v5.275c1.144-1.24,2.06-2.469,2.746-3.686
			L836.908,2128.942z"/>
		<path fill="#FFFFFF" d="M885.67,2110.388h-3.396v25.021c0,1.072-0.286,1.891-0.858,2.457c-0.572,0.566-1.25,0.876-2.033,0.931
			c-0.783,0.054-3.204,0.081-7.263,0.081l-1.102-3.469c1.626,0.097,3.167,0.145,4.625,0.145c1.457,0,2.279-0.021,2.466-0.063
			c0.187-0.042,0.358-0.162,0.515-0.361c0.156-0.198,0.235-0.412,0.235-0.642v-24.1h-25.347v-3.289h32.158V2110.388z
			 M873.312,2130.929h-16.314v-15.718h16.314V2130.929z M869.952,2127.713v-9.286h-9.593v9.286H869.952z"/>
		<path fill="#FFFFFF" d="M922.706,2133.296h-14.2v2.294c0,0.831-0.19,1.487-0.569,1.97c-0.38,0.481-0.861,0.81-1.445,0.984
			c-0.584,0.174-1.684,0.262-3.297,0.262c-0.747,0-1.596-0.024-2.547-0.072l-1.066-2.999c0.843,0.024,2.469,0.036,4.878,0.036
			c0.445,0,0.668-0.205,0.668-0.614v-1.86h-14.652v-2.62h14.652v-1.59c1.831-0.373,3.535-0.855,5.113-1.445h-13.73v-2.366h19.692
			v2.366c-2.012,0.951-4.577,1.891-7.696,2.818v0.217h14.2V2133.296z M922.146,2127.858h-3.107v-4.21h-24.751v4.174h-3.288v-6.775
			h2.294l-0.668-13.278c2.396-0.108,4.799-0.578,7.208-1.409l1.518,2.565c-1.723,0.542-3.547,0.921-5.474,1.138l0.108,1.97h4.824
			v2.403h-4.697l0.072,2.096h4.625v2.385h-4.48l0.108,2.131h20.379l0.072-2.131h-4.986v-2.385h5.113l0.108-2.096h-5.221v-2.403
			h5.293l0.108-1.97h-5.655v-2.583h8.871l-0.596,13.567h2.222V2127.858z M910.908,2107.443c-0.578,0.771-1.379,1.535-2.403,2.295
			c0.602,0.529,1.156,1.071,1.662,1.625l-1.969,1.734c-0.614-0.734-1.229-1.349-1.843-1.842c-1.277,0.758-2.523,1.385-3.74,1.879
			l-1.554-2.078c1.072-0.373,2.12-0.867,3.144-1.481c-0.337-0.313-1.018-0.819-2.042-1.518l1.789-1.807l2.475,1.771
			c0.807-0.59,1.445-1.168,1.915-1.734L910.908,2107.443z M911.089,2119.095l-1.969,1.699c-0.928-1.024-1.765-1.813-2.511-2.367
			c-1.289,0.819-2.547,1.512-3.776,2.078l-1.518-2.042c0.891-0.386,1.951-0.951,3.18-1.698c-0.626-0.554-1.439-1.108-2.439-1.662
			l1.789-1.824c0.65,0.385,1.608,1.041,2.873,1.969c1.012-0.855,1.704-1.512,2.078-1.969l2.258,1.336
			c-0.711,0.783-1.476,1.512-2.294,2.187C909.589,2117.524,910.366,2118.289,911.089,2119.095z"/>
		<path fill="#FFFFFF" d="M931.052,2129.123c-0.289-0.879-0.434-1.789-0.434-2.729c0-0.963,0.226-1.875,0.677-2.736
			c0.452-0.861,1.28-1.846,2.484-2.954c1.433-1.313,2.331-2.318,2.692-3.017c0.361-0.699,0.542-1.397,0.542-2.096
			c0-1.072-0.376-1.922-1.129-2.548c-0.752-0.626-1.713-0.939-2.881-0.939c-2.229,0-4.204,0.861-5.926,2.583v-4.281
			c2.023-1.24,4.179-1.861,6.468-1.861c2.313,0,4.17,0.569,5.574,1.708c1.403,1.138,2.104,2.73,2.104,4.778
			c0,1.192-0.274,2.304-0.822,3.333c-0.548,1.03-1.551,2.189-3.008,3.478c-1.397,1.241-2.261,2.187-2.593,2.837
			c-0.331,0.65-0.497,1.301-0.497,1.951c0,0.807,0.199,1.638,0.596,2.493H931.052z M930.51,2134.868
			c0-0.698,0.262-1.298,0.786-1.798c0.524-0.499,1.153-0.75,1.888-0.75c0.698,0,1.316,0.241,1.852,0.723
			c0.536,0.482,0.804,1.091,0.804,1.825c0,0.698-0.256,1.292-0.768,1.779c-0.512,0.488-1.111,0.731-1.798,0.731
			c-0.807,0-1.47-0.25-1.987-0.749C930.769,2136.129,930.51,2135.542,930.51,2134.868z"/>
	</g>
	<g enable-background="new    ">
		<path fill="#FFFFFF" d="M1557.986,2434.015c-3.35,1.836-6.172,3.252-8.467,4.248l-0.63-2.549c1.689-0.742,2.778-1.24,3.267-1.494
			v-8.584h-2.725v-2.52h2.725v-6.563h-3.12v-2.52h8.73v2.52h-3.062v6.563h2.402v2.52h-2.402v7.266
			c0.967-0.449,1.938-0.972,2.915-1.567L1557.986,2434.015z M1563.626,2426.662c0,3.057-0.513,5.601-1.538,7.632
			s-2.583,3.848-4.673,5.449l-2.021-1.802c3.77-2.646,5.654-6.025,5.654-10.137c0-0.293-0.005-0.483-0.015-0.571
			s-0.472-0.788-1.385-2.103c-0.913-1.313-1.887-2.521-2.922-3.625l1.729-1.86c0.83,0.869,1.704,1.958,2.622,3.267v-9.639h2.549
			V2426.662z M1575.11,2438.776h-11.792v-2.52h5.039v-9.331h-3.574v-2.607h3.574v-7.705h-3.779v-2.549h10.269v2.549h-3.882v7.705
			h3.516v2.607h-3.516v9.331h4.146V2438.776z"/>
		<path fill="#FFFFFF" d="M1590.374,2417.726c-2.598,4.629-5.166,8.179-7.705,10.649c1.611-0.234,3.062-0.566,4.351-0.996
			c-0.078-0.4-0.259-0.918-0.542-1.553l1.978-0.82c0.664,1.309,1.245,3.052,1.743,5.229l-2.153,0.806
			c-0.107-0.693-0.22-1.172-0.337-1.436c-3.301,0.879-5.981,1.436-8.042,1.67l-0.747-2.3c1.709-1.299,3.53-3.389,5.464-6.27
			c-1.328,0.283-2.9,0.562-4.717,0.835l-0.439-2.227c2.031-2.686,3.55-5.454,4.556-8.306l2.578,0.776
			c-1.152,2.656-2.441,4.946-3.867,6.87c1.094-0.146,2.28-0.376,3.56-0.688c0.547-0.879,1.138-1.978,1.772-3.296L1590.374,2417.726z
			 M1582.61,2432.536c-0.195,2.275-0.645,4.575-1.348,6.899l-2.344-0.981c0.752-2.451,1.191-4.653,1.318-6.606L1582.61,2432.536z
			 M1585.818,2437.97l-2.285,0.425c0.029-0.439,0.044-0.889,0.044-1.348c0-1.309-0.112-2.871-0.337-4.688l2.095-0.337
			C1585.628,2433.664,1585.789,2435.646,1585.818,2437.97z M1589.114,2435.626l-1.978,0.659c-0.225-1.563-0.532-3.003-0.923-4.321
			l2.007-0.352C1588.611,2432.892,1588.909,2434.23,1589.114,2435.626z M1605.403,2437.428l-1.699,2.168
			c-1.875-1.279-3.389-2.583-4.541-3.911c-1.602,1.543-3.34,2.856-5.215,3.94l-1.948-2.051c2.197-1.123,4.048-2.422,5.552-3.896
			c-1.396-2.344-2.368-5.073-2.915-8.188c-0.723,6.23-2.134,10.952-4.233,14.165l-2.124-1.626
			c2.861-4.639,4.199-11.797,4.014-21.475h-1.978v-2.52h13.301c-0.449,3.018-0.972,5.737-1.567,8.159h2.666
			c-0.43,4.717-1.699,8.545-3.809,11.484C1602.166,2435.143,1603.665,2436.393,1605.403,2437.428z M1600.554,2416.554h-5.552
			c0,1.719-0.049,3.599-0.146,5.64h4.497C1599.812,2420.387,1600.213,2418.507,1600.554,2416.554z M1601.785,2424.772h-4.658
			c0.303,2.432,1.025,4.702,2.168,6.812C1600.515,2429.65,1601.345,2427.379,1601.785,2424.772z"/>
		<path fill="#FFFFFF" d="M1635.344,2437.516l-1.729,2.197c-5.84-4.424-9.683-9.067-11.528-13.931
			c-1.445,5.449-5.273,10.039-11.484,13.77l-1.802-2.183c7.881-4.912,11.821-11.323,11.821-19.233v-4.79h2.842v6.167
			c0,3.262,1.091,6.458,3.273,9.588S1631.79,2435.036,1635.344,2437.516z"/>
		<path fill="#FFFFFF" d="M1654.973,2433.019h-3.633c-0.713,1.064-1.343,1.885-1.89,2.461c1.602,0.645,2.983,1.255,4.146,1.831
			l-1.479,1.919c-2.002-0.928-3.55-1.597-4.644-2.007c-2.676,1.338-5.176,2.188-7.5,2.549l-1.055-2.256
			c2.1-0.264,3.931-0.723,5.493-1.377c-1.533-0.557-2.822-0.947-3.867-1.172c0.947-1.016,1.523-1.665,1.729-1.948h-3.12v-2.036
			h4.746l1.113-1.714h-4.556v-4.951h5.244v-1.406h-5.317v-3.267h-1.348v-1.919h1.348v-3.223h5.317v-1.157h2.49v1.157h5.244v3.223
			h1.479v1.919h-1.479v3.267h-5.244v1.406h5.303v4.951h-5.479l-1.084,1.714h2.725c0.146-0.244,0.308-0.586,0.483-1.025l2.314,0.542
			c0,0.146-0.054,0.308-0.161,0.483h2.681V2433.019z M1645.701,2417.726v-1.333h-2.915v1.333H1645.701z M1645.701,2421.081v-1.436
			h-2.915v1.436H1645.701z M1645.701,2427.35v-1.172h-2.827v1.172H1645.701z M1648.425,2433.019h-2.959
			c-0.039,0.068-0.273,0.366-0.703,0.894l2.314,0.703C1647.634,2434.059,1648.084,2433.527,1648.425,2433.019z M1651.004,2417.726
			v-1.333h-2.813v1.333H1651.004z M1651.004,2421.051v-1.406h-2.813v1.406H1651.004z M1651.106,2427.35v-1.172h-2.915v1.172
			H1651.106z M1665.564,2437.516l-1.318,2.227c-2.07-1.563-3.54-3.032-4.409-4.409c-1.211,1.68-2.583,3.13-4.116,4.351l-1.743-1.978
			c1.885-1.523,3.335-3.105,4.351-4.746c-0.986-1.748-1.733-3.75-2.241-6.006l2.3-1.26c0.42,1.836,0.84,3.228,1.26,4.175
			c0.742-2.441,1.172-5.713,1.289-9.814h-2.212c-0.938,2.773-1.87,4.893-2.798,6.357l-1.729-2.153
			c1.611-3.018,2.769-6.729,3.472-11.133l2.549,0.366c-0.127,0.859-0.396,2.217-0.806,4.072h5.728v2.49h-1.655
			c-0.215,5.479-0.972,9.771-2.271,12.876C1662.395,2434.748,1663.845,2436.276,1665.564,2437.516z"/>
		<path fill="#FFFFFF" d="M1671.907,2431.613c-0.234-0.713-0.352-1.45-0.352-2.212c0-0.781,0.183-1.521,0.549-2.22
			c0.366-0.697,1.038-1.496,2.015-2.395c1.162-1.064,1.89-1.88,2.183-2.446s0.439-1.133,0.439-1.699
			c0-0.869-0.306-1.558-0.916-2.065s-1.389-0.762-2.336-0.762c-1.807,0-3.408,0.698-4.805,2.095v-3.472
			c1.641-1.006,3.389-1.509,5.244-1.509c1.875,0,3.381,0.462,4.519,1.384c1.138,0.924,1.707,2.215,1.707,3.875
			c0,0.967-0.223,1.867-0.667,2.703c-0.444,0.834-1.257,1.774-2.438,2.819c-1.133,1.006-1.834,1.772-2.103,2.3
			s-0.402,1.055-0.402,1.582c0,0.654,0.161,1.328,0.483,2.021H1671.907z M1671.467,2436.271c0-0.566,0.212-1.052,0.637-1.457
			s0.936-0.608,1.531-0.608c0.566,0,1.066,0.195,1.501,0.586s0.652,0.884,0.652,1.479c0,0.566-0.208,1.047-0.623,1.443
			c-0.415,0.395-0.9,0.593-1.457,0.593c-0.654,0-1.191-0.203-1.611-0.608C1671.677,2437.294,1671.467,2436.818,1671.467,2436.271z"
			/>
	</g>
	<g enable-background="new    ">
		<path fill="#FFFFFF" d="M1601.59,1819.374h-2.578v4.717c0.488-0.166,1.167-0.444,2.036-0.835l0.176,2.666
			c-0.752,0.352-1.489,0.679-2.212,0.981v8.071c0,0.713-0.259,1.33-0.776,1.854c-0.518,0.521-1.958,0.725-4.321,0.607l-0.82-2.637
			c0.957,0.039,1.841,0.059,2.651,0.059c0.459,0,0.688-0.229,0.688-0.688v-6.24c-1.24,0.498-2.241,0.859-3.003,1.084l-0.454-2.607
			c0.908-0.283,2.061-0.684,3.457-1.201v-5.83h-3.34v-2.549h3.34v-5.449h2.578v5.449h2.578V1819.374z M1619.256,1835.575
			l-1.436,2.227c-2.227-1.24-4.438-2.319-6.636-3.237c-2.48,1.582-5.317,2.612-8.511,3.091l-1.289-2.314
			c2.695-0.41,4.951-1.069,6.768-1.978c-1.211-0.518-2.749-1.079-4.614-1.685c0.879-1.436,1.519-2.515,1.919-3.237h-3.413v-2.49
			h4.731c0.459-0.801,0.879-1.66,1.26-2.578l2.549,0.718c-0.264,0.693-0.552,1.313-0.864,1.86h4.014
			c0.234-0.596,0.396-1.118,0.483-1.567l2.461,0.454c-0.098,0.439-0.186,0.811-0.264,1.113h2.813v2.49h-3.662
			c-0.781,1.816-1.592,3.228-2.432,4.233C1614.559,1833.309,1616.6,1834.276,1619.256,1835.575z M1619.227,1822.889h-17.212v-2.432
			h4.468c-0.156-0.547-0.688-1.846-1.597-3.896h-2.212v-2.461h6.416c-0.342-0.752-0.723-1.431-1.143-2.036l2.637-0.82
			c0.488,0.762,1.001,1.714,1.538,2.856h6.475v2.461h-2.124c-0.439,1.26-0.898,2.559-1.377,3.896h4.131V1822.889z
			 M1612.782,1828.441h-4.321c-0.488,0.889-0.869,1.519-1.143,1.89c1.455,0.537,2.598,0.977,3.428,1.318
			C1611.459,1830.819,1612.137,1829.75,1612.782,1828.441z M1613.734,1816.561h-6.021c0.664,1.621,1.172,2.92,1.523,3.896h3.091
			C1612.963,1818.993,1613.431,1817.694,1613.734,1816.561z"/>
		<path fill="#FFFFFF" d="M1649.447,1834.505l-0.674,2.461c-3.018,0.146-5.791,0.22-8.32,0.22c-2.93,0-4.99-0.081-6.182-0.241
			c-1.191-0.162-2.339-0.469-3.442-0.924c-1.104-0.453-2.07-1.062-2.9-1.823c-1.055,1.484-2.017,2.695-2.886,3.633l-2.095-1.685
			c2.471-2.373,4.189-5.21,5.156-8.511h-4.644v-2.227c1.797-2.061,3.154-3.853,4.072-5.376h-4.409v-2.52h7.603v2.49
			c-0.967,1.572-2.178,3.296-3.633,5.171h3.779v2.461c-0.469,1.611-1.06,3.12-1.772,4.526c0.596,0.596,1.499,1.121,2.71,1.574
			c1.211,0.455,2.907,0.714,5.091,0.777c2.182,0.063,4.357,0.095,6.525,0.095
			C1645.546,1834.608,1647.552,1834.574,1649.447,1834.505z M1630.843,1814.876l-1.772,1.948c-1.484-1.357-3.296-2.627-5.435-3.809
			l1.831-1.978C1627.733,1812.337,1629.525,1813.617,1630.843,1814.876z M1648.905,1824.486h-7.749
			c-0.332,1.875-1.253,3.647-2.761,5.317c-1.51,1.67-3.299,2.983-5.369,3.94l-1.67-2.095c1.846-0.732,3.413-1.745,4.702-3.04
			c1.289-1.293,2.08-2.668,2.373-4.123h-6.636v-2.402h7.061c0.059-0.635,0.088-1.299,0.088-1.992c0-0.439-0.01-0.918-0.029-1.436
			h-6.182v-2.373h15.146v2.373h-6.27c0,1.025-0.049,2.168-0.146,3.428h7.441V1824.486z M1639.237,1814.554l-2.271,1.23
			c-0.947-1.494-1.821-2.686-2.622-3.574l2.285-1.201C1637.46,1811.771,1638.329,1812.953,1639.237,1814.554z M1649.447,1831.59
			l-1.597,2.065c-1.953-1.846-4.355-3.696-7.207-5.552l1.567-2.036C1644.759,1827.601,1647.172,1829.442,1649.447,1831.59z
			 M1646.737,1812.357c-0.898,1.357-1.816,2.539-2.754,3.545l-2.314-1.318c0.879-0.957,1.812-2.148,2.798-3.574L1646.737,1812.357z"
			/>
		<path fill="#FFFFFF" d="M1655.907,1829.613c-0.234-0.713-0.352-1.45-0.352-2.212c0-0.781,0.184-1.521,0.549-2.22
			c0.367-0.697,1.038-1.496,2.015-2.395c1.162-1.064,1.89-1.88,2.183-2.446s0.439-1.133,0.439-1.699
			c0-0.869-0.305-1.558-0.916-2.065c-0.609-0.508-1.389-0.762-2.336-0.762c-1.807,0-3.408,0.698-4.805,2.095v-3.472
			c1.641-1.006,3.389-1.509,5.244-1.509c1.875,0,3.381,0.462,4.52,1.384c1.137,0.924,1.706,2.215,1.706,3.875
			c0,0.967-0.222,1.867-0.667,2.703c-0.443,0.834-1.257,1.774-2.438,2.819c-1.133,1.006-1.833,1.772-2.103,2.3
			c-0.268,0.527-0.402,1.055-0.402,1.582c0,0.654,0.161,1.328,0.483,2.021H1655.907z M1655.467,1834.271
			c0-0.566,0.213-1.052,0.637-1.457c0.426-0.405,0.936-0.608,1.531-0.608c0.566,0,1.066,0.195,1.502,0.586
			c0.434,0.391,0.651,0.884,0.651,1.479c0,0.566-0.208,1.047-0.622,1.443c-0.416,0.395-0.901,0.593-1.458,0.593
			c-0.654,0-1.191-0.203-1.611-0.608C1655.677,1835.294,1655.467,1834.818,1655.467,1834.271z"/>
	</g>
	<g enable-background="new    ">
		<path fill="#FFFFFF" d="M1647.418,1529.414h-2.5v-4.434c-2.93,0-5.442-0.618-7.539-1.855v-4.434
			c0.833,0.703,2.024,1.318,3.574,1.846s2.871,0.791,3.965,0.791v-9.707c-3.008-1.289-5.059-2.601-6.152-3.936
			s-1.641-2.959-1.641-4.873c0-2.044,0.726-3.841,2.178-5.391s3.323-2.448,5.615-2.695v-3.848h2.5v3.77
			c2.8,0.091,4.817,0.508,6.055,1.25v4.336c-1.628-1.159-3.646-1.804-6.055-1.934v10.02c2.864,1.276,4.909,2.556,6.133,3.838
			s1.836,2.888,1.836,4.814c0,2.122-0.706,3.877-2.119,5.264s-3.362,2.249-5.85,2.588V1529.414z M1644.918,1498.398
			c-2.356,0.495-3.535,1.829-3.535,4.004c0,1.003,0.237,1.846,0.713,2.529s1.416,1.416,2.822,2.197V1498.398z M1647.418,1521.191
			c2.474-0.508,3.711-1.81,3.711-3.906c0-1.745-1.237-3.255-3.711-4.531V1521.191z"/>
	</g>
	
		<linearGradient id="SVGID_13_" gradientUnits="userSpaceOnUse" x1="548.6183" y1="2132.7144" x2="548.7593" y2="2131.9924" gradientTransform="matrix(281.455 0 0 -249.1019 -154073.0781 533693.125)">
		<stop  offset="0" style="stop-color:#2CAE70"/>
		<stop  offset="1" style="stop-color:#EDB72A"/>
	</linearGradient>
	<path fill="url(#SVGID_13_)" d="M341.637,2400.188c83.743,18.106,165.46,111.5,165.46,177.621s-100.923,67.861-100.923,67.861
		s-96.648,9.988-132.433-20.283c-35.783-30.272-48.1-60.954-48.1-98.454S257.894,2382.081,341.637,2400.188z"/>
	
		<linearGradient id="SVGID_14_" gradientUnits="userSpaceOnUse" x1="546.7086" y1="2134.4507" x2="546.7086" y2="2133.5356" gradientTransform="matrix(100.9331 0 0 -96.9987 -54834.6484 209345.1563)">
		<stop  offset="0" style="stop-color:#E5512C"/>
		<stop  offset="1" style="stop-color:#EDB72A"/>
	</linearGradient>
	<path fill="url(#SVGID_14_)" d="M339.91,2284.681c26.507,0,43.724-3.51,54.575,41.933s-18.889,51.073-40.541,54.513
		c-21.652,3.44-54.186-11.531-57.694-35.643C292.742,2321.373,313.403,2284.681,339.91,2284.681z"/>
	
		<linearGradient id="SVGID_15_" gradientUnits="userSpaceOnUse" x1="548.2799" y1="2132.8687" x2="548.0751" y2="2132.4192" gradientTransform="matrix(195.4262 0 0 -197.3236 -106793.4297 422938.0625)">
		<stop  offset="0" style="stop-color:#8C4F9B"/>
		<stop  offset="1" style="stop-color:#4B63AD"/>
	</linearGradient>
	<path fill="url(#SVGID_15_)" d="M323.008,2017.51c37.62,0,125.15,19.831,118.146,68.117s-76.563,151.129-146.165,125.029
		c-69.602-26.1-46.344-96.646-40.099-125.029C261.135,2057.246,285.387,2017.51,323.008,2017.51z"/>
	
		<linearGradient id="SVGID_16_" gradientUnits="userSpaceOnUse" x1="548.7682" y1="2133.2583" x2="548.7662" y2="2132.4341" gradientTransform="matrix(292.1445 0 0 -165.2825 -159946.5156 354092.8438)">
		<stop  offset="0" style="stop-color:#EDB72A"/>
		<stop  offset="1" style="stop-color:#E5512C"/>
	</linearGradient>
	<path fill="url(#SVGID_16_)" d="M318.584,1475.128c61.301-8.247,161.241,16.451,183.733,33.414
		c22.492,16.964,33.062,38.281-43.5,76.563c-76.563,38.282-118.63,61.245-176.112,51.378c-57.481-9.867-59.8-62.373-53.819-90.847
		C234.865,1517.163,257.289,1483.375,318.584,1475.128z"/>
	<g enable-background="new    ">
		<path fill="#FFFFFF" d="M288.915,2525.03l-2.207,0.254c-0.599,6.185-1.888,10.944-3.867,14.277
			c1.836,1.458,3.594,2.988,5.273,4.59l-2.754,2.695c-1.433-1.523-2.956-2.923-4.57-4.199c-1.784,2.396-4.434,4.87-7.949,7.422
			l-2.441-3.027c3.411-2.239,5.879-4.44,7.402-6.602c-1.537-1.172-3.633-2.546-6.289-4.121c1.016-3.021,1.966-6.367,2.852-10.039
			l-3.574,0.117l-0.117-3.438c1.549,0,3.047-0.078,4.492-0.234c0.651-2.813,1.1-5.43,1.348-7.852l3.652,0.566
			c-0.391,2.487-0.808,4.844-1.25,7.07c1.588-0.078,3.099-0.195,4.531-0.352c0.13-1.094,0.195-2.136,0.195-3.125h3.594
			c0,0.43-0.065,1.341-0.195,2.734l1.875-0.215V2525.03z M283.036,2525.713c-2.214,0.169-3.828,0.28-4.844,0.332
			c-0.586,2.656-1.341,5.586-2.266,8.789c1.758,1.159,3.06,2.024,3.906,2.598C281.434,2534.32,282.502,2530.414,283.036,2525.713z
			 M304.071,2549.073h-3.398v-3.555h-7.227v3.555h-3.496v-30.801h14.121V2549.073z M300.672,2541.924v-20.117h-7.227v20.117H300.672
			z"/>
		<path fill="#FFFFFF" d="M320.79,2515.401c-0.3,1.198-0.794,2.747-1.484,4.648l-1.035,2.754v27.109h-3.516v-19.883
			c-0.886,1.458-1.699,2.598-2.441,3.418l-1.992-3.652c2.969-4.036,5.325-9.102,7.07-15.195L320.79,2515.401z M345.555,2519.795
			h-2.559v26.074c0,0.964-0.241,1.784-0.723,2.461c-0.482,0.677-1.133,1.14-1.953,1.387s-2.409,0.371-4.766,0.371
			c-0.833,0-1.687-0.02-2.559-0.059l-1.152-3.477c4.01,0.104,6.279,0.052,6.807-0.156s0.791-0.632,0.791-1.27v-25.332H321.2v-3.438
			h24.355V2519.795z M335.243,2540.831H322.43v-16.836h12.813V2540.831z M331.805,2537.354v-9.922h-5.938v9.922H331.805z"/>
		<path fill="#FFFFFF" d="M363.153,2521.768H350.79v-3.242h4.609c-0.43-1.016-0.912-1.953-1.445-2.813l3.691-1.074
			c0.781,1.433,1.393,2.728,1.836,3.887h3.672V2521.768z M362.04,2527.686h-10.371v-3.32h10.371V2527.686z M362.04,2533.604h-10.371
			v-3.359h10.371V2533.604z M362.04,2549.19h-3.398v-1.797h-3.438v2.637h-3.535v-13.867h10.371V2549.19z M358.641,2544.073v-4.629
			h-3.438v4.629H358.641z M383.758,2546.709c0,2.266-1.367,3.398-4.102,3.398c-0.573,0-1.302-0.026-2.188-0.078l-1.191-3.262h3.164
			c0.534,0,0.801-0.28,0.801-0.84v-2.012h-11.172c-0.482,2.695-1.452,4.856-2.91,6.484l-2.891-2.09
			c1.797-2.058,2.695-4.974,2.695-8.75v-7.93h17.793V2546.709z M385.594,2529.795H363.68v-2.988h9.16v-1.895h-7.559v-2.754h7.559
			v-1.758h-8.477v-2.891h8.477v-2.48h3.477v2.48h8.477v2.891h-8.477v1.758h7.52v2.754h-7.52v1.895h9.277V2529.795z
			 M380.243,2541.163v-2.012h-10.84c0,1.042-0.026,1.712-0.078,2.012H380.243z M380.243,2536.397v-1.875h-10.801v1.875H380.243z"/>
		<path fill="#FFFFFF" d="M399.403,2515.401c-0.208,1.302-0.625,3.04-1.25,5.215l-0.957,3.145v26.27h-3.398v-18.438
			c-0.352,0.703-0.912,1.667-1.68,2.891l-1.797-4.004c2.344-3.763,4.29-9.056,5.84-15.879L399.403,2515.401z M410.965,2527.999
			h-7.207v4.199h6.914v3.281h-6.914v4.395h7.109v3.32h-7.109v6.836h-3.398v-34.102h10.605V2527.999z M407.606,2524.678v-5.352
			h-3.848v5.352H407.606z M426.122,2547.608l-2.129,2.637c-2.136-1.367-4.004-2.891-5.605-4.57
			c-2.097,2.019-4.212,3.555-6.348,4.609l-2.129-2.676c2.461-1.172,4.609-2.656,6.445-4.453c-1.706-2.539-2.878-5.495-3.516-8.867
			h-1.074v-3.418h12.383v3.418c-0.833,3.567-2.031,6.523-3.594,8.867C422.13,2544.769,423.986,2546.253,426.122,2547.608z
			 M423.68,2527.999h-11.074v-3.32h7.559v-5.352h-7.559v-3.398h11.074V2527.999z M420.829,2534.288h-4.746
			c0.664,2.487,1.465,4.512,2.402,6.074C419.54,2538.409,420.321,2536.384,420.829,2534.288z"/>
		<path fill="#FFFFFF" d="M434.54,2539.483c-0.313-0.95-0.469-1.934-0.469-2.949c0-1.042,0.244-2.028,0.732-2.959
			s1.383-1.995,2.686-3.193c1.549-1.419,2.52-2.507,2.91-3.262s0.586-1.511,0.586-2.266c0-1.159-0.407-2.077-1.221-2.754
			c-0.814-0.677-1.853-1.016-3.115-1.016c-2.409,0-4.544,0.931-6.406,2.793v-4.629c2.188-1.341,4.518-2.012,6.992-2.012
			c2.5,0,4.508,0.615,6.025,1.846c1.517,1.23,2.275,2.952,2.275,5.166c0,1.289-0.296,2.49-0.889,3.604
			c-0.593,1.113-1.677,2.366-3.252,3.76c-1.511,1.341-2.445,2.363-2.803,3.066c-0.358,0.703-0.537,1.406-0.537,2.109
			c0,0.872,0.215,1.771,0.645,2.695H434.54z M433.954,2545.694c0-0.755,0.283-1.403,0.85-1.943s1.247-0.811,2.041-0.811
			c0.755,0,1.422,0.261,2.002,0.781c0.579,0.521,0.869,1.179,0.869,1.973c0,0.755-0.277,1.396-0.83,1.924
			c-0.554,0.527-1.201,0.791-1.943,0.791c-0.873,0-1.589-0.271-2.148-0.811C434.234,2547.058,433.954,2546.423,433.954,2545.694z"/>
	</g>
	<g enable-background="new    ">
		<path fill="#FFFFFF" d="M312.398,2093.433c-1.406,2.644-2.995,5.085-4.766,7.324h2.969v3.125h-5.645
			c-0.625,0.716-1.693,1.745-3.203,3.086h6.973v2.988c-1.341,1.237-3.021,2.637-5.039,4.199v0.566
			c2.565-0.391,4.935-0.833,7.109-1.328l0.039,3.281c-1.224,0.247-3.607,0.638-7.148,1.172v4.434c0,1.237-0.29,2.168-0.869,2.793
			c-0.58,0.625-1.82,0.938-3.721,0.938c-0.677,0-1.472-0.02-2.383-0.059l-1.035-3.477c1.159,0.078,2.083,0.117,2.773,0.117
			c1.224,0,1.836-0.267,1.836-0.801v-3.359c-3.737,0.508-6.419,0.813-8.047,0.918l-0.645-3.281c3.086-0.169,5.983-0.449,8.691-0.84
			v-2.422c1.38-0.95,2.617-1.862,3.711-2.734h-6.367c-0.898,0.664-2.402,1.543-4.512,2.637l-1.836-2.715
			c3.32-1.523,6.399-3.562,9.238-6.113h-8.809v-3.125H299v-3.477h-5.762v-3.008H299v-3.242h3.438v3.242h4.004v2.773
			c1.354-2.005,2.337-3.672,2.949-5L312.398,2093.433z M306.285,2097.281h-3.848v3.477h1.172
			C304.286,2099.989,305.178,2098.831,306.285,2097.281z M326.871,2123.433l-2.109,2.773c-2.813-1.745-5.091-3.75-6.836-6.016
			c-2.162,2.317-4.792,4.277-7.891,5.879l-2.441-2.637c3.672-1.784,6.471-3.835,8.398-6.152c-1.003-1.692-1.908-4.375-2.715-8.047
			l3.086-1.426c0.403,2.422,0.989,4.473,1.758,6.152c1.575-3.477,2.454-8.118,2.637-13.926h-4.277
			c-1.055,3.398-2.507,6.667-4.355,9.805l-2.246-2.676c2.708-4.661,4.401-10.117,5.078-16.367l3.242,0.645
			c-0.248,1.784-0.541,3.555-0.879,5.313h9.16v3.281h-2.402c-0.352,7.864-1.712,13.679-4.082,17.441
			C321.636,2119.768,323.928,2121.753,326.871,2123.433z"/>
		<path fill="#FFFFFF" d="M340.797,2105.992l-2.188,2.813c-1.862-1.797-4.226-3.587-7.09-5.371l2.324-2.754
			C336.369,2102.164,338.687,2103.934,340.797,2105.992z M341.168,2113.238c-1.706,4.792-3.815,9.089-6.328,12.891l-3.125-2.168
			c2.174-2.93,4.271-7.09,6.289-12.48L341.168,2113.238z M341.597,2096.753l-2.52,2.734c-1.862-2.2-4.154-4.16-6.875-5.879
			l2.52-2.734C337.457,2092.737,339.748,2094.696,341.597,2096.753z M366.929,2124.39l-3.281,1.738
			c-0.599-1.419-1.172-2.649-1.719-3.691c-6.758,1.614-13.08,2.683-18.965,3.203l-1.328-3.398c3.268-2.669,6.217-6.855,8.848-12.559
			h-8.809v-3.477h10.801v-6.328h-9.121v-3.438h9.121v-5.313h3.652v5.313h8.594v3.438h-8.594v6.328h10.391v3.477h-11.797
			c-2.513,5.195-5.156,9.219-7.93,12.07c4.258-0.481,8.711-1.282,13.359-2.402c-0.755-1.394-1.953-3.255-3.594-5.586l3.398-1.563
			C363.108,2116.89,365.432,2120.953,366.929,2124.39z"/>
		<path fill="#FFFFFF" d="M375.543,2115.484c-0.313-0.95-0.469-1.934-0.469-2.949c0-1.042,0.244-2.028,0.732-2.959
			s1.383-1.995,2.686-3.193c1.549-1.419,2.52-2.507,2.91-3.262s0.586-1.511,0.586-2.266c0-1.159-0.407-2.077-1.221-2.754
			c-0.814-0.677-1.853-1.016-3.115-1.016c-2.409,0-4.544,0.931-6.406,2.793v-4.629c2.188-1.341,4.518-2.012,6.992-2.012
			c2.5,0,4.508,0.615,6.025,1.846c1.517,1.23,2.275,2.952,2.275,5.166c0,1.289-0.296,2.49-0.889,3.604
			c-0.593,1.113-1.677,2.366-3.252,3.76c-1.511,1.341-2.445,2.363-2.803,3.066c-0.358,0.703-0.537,1.406-0.537,2.109
			c0,0.872,0.215,1.771,0.645,2.695H375.543z M374.957,2121.695c0-0.755,0.283-1.403,0.85-1.943s1.247-0.811,2.041-0.811
			c0.755,0,1.422,0.261,2.002,0.781c0.579,0.521,0.869,1.179,0.869,1.973c0,0.755-0.277,1.396-0.83,1.924
			c-0.554,0.527-1.201,0.791-1.943,0.791c-0.873,0-1.589-0.271-2.148-0.811C375.236,2123.059,374.957,2122.424,374.957,2121.695z"/>
	</g>
	<g enable-background="new    ">
		<path fill="#FFFFFF" d="M290.301,1535.025l-1.301,2.928c-3.023-0.747-6.083-1.759-9.178-3.035v1.373h-12.086v-1.445
			c-2.854,1.264-5.878,2.324-9.069,3.18l-1.626-2.674c7.287-1.879,12.665-4.282,16.133-7.209l3.613,0.885
			c-0.253,0.313-0.476,0.549-0.668,0.705C279.552,1531.9,284.279,1533.665,290.301,1535.025z M286.923,1547.347H260.51v-9.558
			h26.413V1547.347z M285.333,1560.806h-3.252v-1.318h-16.567v1.318h-3.378v-11.834h23.197V1560.806z M272.054,1544.763v-4.336
			h-8.329v4.336H272.054z M270.428,1542.939l-2.331,1.48c-0.892-0.746-1.915-1.475-3.071-2.186l2.294-1.554
			C268.08,1541.102,269.115,1541.855,270.428,1542.939z M282.081,1553.001v-1.518h-16.567v1.518H282.081z M282.081,1556.921v-1.625
			h-16.567v1.625H282.081z M277.239,1533.724c-1.987-1.107-3.198-1.794-3.631-2.059c-1.012,0.758-2.168,1.445-3.469,2.059H277.239z
			 M283.671,1544.763v-4.336h-8.365v4.336H283.671z M282.262,1542.162c-0.819,0.687-1.855,1.403-3.107,2.15l-2.294-1.555
			c1.445-0.915,2.457-1.583,3.035-2.005L282.262,1542.162z"/>
		<path fill="#FFFFFF" d="M326.994,1549.677l-1.915,2.691c-3.866-3.228-8.16-6.196-12.881-8.906v17.344h-3.469v-18.536
			c-3.902,4.047-8.136,7.39-12.701,10.026l-1.915-2.8c8.358-4.817,14.116-10.442,17.271-16.874h-16.639v-3.252h31.472v3.252h-11.021
			c-0.735,1.565-1.734,3.318-2.999,5.258v1.807C319.219,1543.734,324.151,1547.064,326.994,1549.677z"/>
		<path fill="#FFFFFF" d="M364.301,1535.025l-1.301,2.928c-3.023-0.747-6.083-1.759-9.178-3.035v1.373h-12.086v-1.445
			c-2.854,1.264-5.878,2.324-9.069,3.18l-1.626-2.674c7.287-1.879,12.665-4.282,16.133-7.209l3.613,0.885
			c-0.253,0.313-0.476,0.549-0.668,0.705C353.552,1531.9,358.279,1533.665,364.301,1535.025z M360.923,1547.347H334.51v-9.558
			h26.413V1547.347z M359.333,1560.806h-3.252v-1.318h-16.567v1.318h-3.378v-11.834h23.197V1560.806z M346.054,1544.763v-4.336
			h-8.329v4.336H346.054z M344.428,1542.939l-2.331,1.48c-0.892-0.746-1.915-1.475-3.071-2.186l2.294-1.554
			C342.08,1541.102,343.115,1541.855,344.428,1542.939z M356.081,1553.001v-1.518h-16.567v1.518H356.081z M356.081,1556.921v-1.625
			h-16.567v1.625H356.081z M351.239,1533.724c-1.987-1.107-3.198-1.794-3.631-2.059c-1.012,0.758-2.168,1.445-3.469,2.059H351.239z
			 M357.671,1544.763v-4.336h-8.365v4.336H357.671z M356.262,1542.162c-0.819,0.687-1.855,1.403-3.107,2.15l-2.294-1.555
			c1.445-0.915,2.457-1.583,3.035-2.005L356.262,1542.162z"/>
		<path fill="#FFFFFF" d="M378.646,1529.66c-3.216,4.216-6.209,7.112-8.979,8.689l-1.59-2.998c2.842-1.699,5.341-4.09,7.498-7.173
			L378.646,1529.66z M379.983,1536.759c-0.964,1.723-2.21,3.596-3.74,5.619v18.464h-3.324v-14.688
			c-1.145,0.988-2.24,1.855-3.288,2.602l-1.518-3.107c3.155-2.144,6.148-5.588,8.979-10.334L379.983,1536.759z M398.013,1544.799
			H384.5v11.688c2.192-0.662,4.113-1.343,5.763-2.041l0.199,3.288c-3.035,1.192-6.143,2.192-9.322,2.999l-0.849-2.873
			c0.59-0.265,0.885-0.771,0.885-1.518v-26.9h16.838V1544.799z M394.599,1535.622v-3.233H384.5v3.233H394.599z M394.599,1541.764
			v-3.233H384.5v3.233H394.599z M400.886,1558.548l-2.023,2.674c-5.817-3.145-9.521-7.907-11.111-14.291l3.071-0.74
			c0.385,1.36,0.891,2.77,1.518,4.227c1.686-1.096,3.462-2.637,5.33-4.625l2.511,2.042c-2.084,2.24-4.131,4.022-6.143,5.348
			C395.604,1555.362,397.887,1557.151,400.886,1558.548z"/>
		<path fill="#FFFFFF" d="M422.638,1554.302h-7.841c-1.192,2.987-3.77,5.245-7.732,6.775l-1.951-2.818
			c2.818-0.904,4.878-2.223,6.179-3.957h-5.781v-2.584h6.63c0.12-0.481,0.181-1.041,0.181-1.68h-5.962v-2.402h6.07
			c0.024-0.361,0.036-0.904,0.036-1.627h-5.799v-6.847h5.799l0.036-1.662h-3.577v-3.849h-2.963v-2.764h2.963v-2.529h3.071v2.529
			h4.029v-2.529h3.107v2.529h3.252v2.764h-3.252v3.849h-3.559v1.662h5.817v6.847h-5.817c0.048,0.591,0.048,1.133,0,1.627h6.143
			v2.402h-6.287c0.036,0.554-0.012,1.114-0.145,1.68h7.353V1554.302z M412.466,1543.643v-2.149h-2.764v2.149H412.466z
			 M416.026,1535.169v-1.518h-4.029v1.518H416.026z M422.638,1558.439l-1.879,2.566c-1.915-1.325-3.951-2.428-6.106-3.307
			l2.005-2.475C418.886,1556.126,420.879,1557.199,422.638,1558.439z M418.284,1543.643v-2.149h-2.638v2.149H418.284z
			 M437.85,1559.252h-10.533v1.518h-3.234v-17.94c-0.289,0.519-0.524,0.916-0.705,1.193l-1.391-3.885
			c1.903-3.48,3.209-7.419,3.92-11.815l2.963,0.524c-0.422,2.24-0.879,4.112-1.373,5.618h3.577
			c-0.217-1.638-0.632-3.402-1.247-5.294l3.035-0.74c0.566,1.759,1.036,3.77,1.409,6.034h3.107v3.107h-3.704v4.065h3.252v2.926
			h-3.252v4.264h3.252v2.765h-3.252v4.661h4.173V1559.252z M430.605,1541.638v-4.065h-3.288v4.065H430.605z M430.605,1548.828
			v-4.264h-3.288v4.264H430.605z M430.605,1556.253v-4.661h-3.288v4.661H430.605z"/>
		<path fill="#FFFFFF" d="M446.052,1551.123c-0.289-0.879-0.434-1.789-0.434-2.729c0-0.963,0.226-1.875,0.677-2.736
			c0.452-0.861,1.28-1.846,2.484-2.954c1.433-1.313,2.331-2.318,2.692-3.017c0.361-0.699,0.542-1.397,0.542-2.096
			c0-1.072-0.376-1.922-1.129-2.548c-0.752-0.626-1.713-0.939-2.881-0.939c-2.229,0-4.204,0.861-5.926,2.583v-4.281
			c2.023-1.24,4.179-1.861,6.468-1.861c2.313,0,4.17,0.569,5.574,1.708c1.403,1.138,2.104,2.73,2.104,4.778
			c0,1.192-0.274,2.304-0.822,3.333c-0.548,1.03-1.551,2.189-3.008,3.478c-1.397,1.241-2.261,2.187-2.593,2.837
			c-0.331,0.65-0.497,1.301-0.497,1.951c0,0.807,0.199,1.638,0.596,2.493H446.052z M445.51,1556.868
			c0-0.698,0.262-1.298,0.786-1.798c0.524-0.499,1.153-0.75,1.888-0.75c0.698,0,1.316,0.241,1.852,0.723
			c0.536,0.482,0.804,1.091,0.804,1.825c0,0.698-0.256,1.292-0.768,1.779c-0.512,0.488-1.111,0.731-1.798,0.731
			c-0.807,0-1.47-0.25-1.987-0.749C445.769,1558.129,445.51,1557.542,445.51,1556.868z"/>
	</g>
	<g enable-background="new    ">
		<path fill="#FFFFFF" d="M348.418,2351.414h-2.5v-4.434c-2.93,0-5.443-0.618-7.539-1.855v-4.434
			c0.833,0.703,2.024,1.318,3.574,1.846c1.549,0.527,2.871,0.791,3.965,0.791v-9.707c-3.008-1.289-5.059-2.601-6.152-3.936
			s-1.641-2.959-1.641-4.873c0-2.044,0.726-3.841,2.178-5.391c1.452-1.55,3.323-2.448,5.615-2.695v-3.848h2.5v3.77
			c2.799,0.091,4.817,0.508,6.055,1.25v4.336c-1.628-1.159-3.646-1.804-6.055-1.934v10.02c2.864,1.276,4.909,2.556,6.133,3.838
			c1.224,1.282,1.836,2.888,1.836,4.814c0,2.122-0.707,3.877-2.119,5.264c-1.413,1.387-3.363,2.249-5.85,2.588V2351.414z
			 M345.918,2320.398c-2.357,0.495-3.535,1.829-3.535,4.004c0,1.003,0.237,1.846,0.713,2.529c0.475,0.684,1.416,1.416,2.822,2.197
			V2320.398z M348.418,2343.191c2.474-0.508,3.711-1.81,3.711-3.906c0-1.745-1.237-3.255-3.711-4.531V2343.191z"/>
	</g>
</g>
</svg>
