<svg xmlns="http://www.w3.org/2000/svg" xmlns:xlink="http://www.w3.org/1999/xlink" width="1920" height="1432.891" viewBox="0 0 1920 1432.891"><defs><linearGradient id="a" x1="0.139" y1="0.169" x2="0.912" y2="1" gradientUnits="objectBoundingBox"><stop offset="0" stop-color="#edb72a"/><stop offset="1" stop-color="#e5512c"/></linearGradient><linearGradient id="b" x1="0.5" x2="0.5" y2="1" gradientUnits="objectBoundingBox"><stop offset="0" stop-color="#8c4f9b"/><stop offset="1" stop-color="#e5512c"/></linearGradient><linearGradient id="c" x1="0.5" x2="0.5" y2="1" gradientUnits="objectBoundingBox"><stop offset="0" stop-color="#2cae70"/><stop offset="1" stop-color="#edb72a"/></linearGradient></defs><g transform="translate(0 -1146.108)"><path d="M-7009.287,4053.97c10.233-38.006,68.466-164.132,273.354-267.506s349.366-163.72,600.793-141.793,372.755,165.181,412.224,251.427,32.722,136.108,23.295,193.437-45.91,115.106-67.2,142.386-52.563,56.222-108.453,67.534-102.97,5.725-164.848-4.256-131.287-34.015-284.212-38.513-300.791,35.139-435.725,38.513-193.68-19.036-234.609-96.511S-7019.52,4091.977-7009.287,4053.97Z" transform="translate(7533.963 -2388.55)" fill="url(#a)"/><path d="M471.369,943a478.785,478.785,0,0,1-48.195-2.434,472.442,472.442,0,0,1-46.8-7.145c-15.185-3.108-30.384-7.017-45.173-11.618-14.624-4.55-29.194-9.884-43.307-15.855-13.982-5.916-27.845-12.6-41.2-19.855-13.263-7.207-26.339-15.153-38.864-23.617A474.034,474.034,0,0,1,80.5,735.12c-8.462-12.529-16.405-25.608-23.611-38.875-7.257-13.362-13.935-27.229-19.849-41.216-5.969-14.117-11.3-28.692-15.851-43.319-4.6-14.794-8.508-30-11.615-45.186a472.828,472.828,0,0,1-7.143-46.816,478.717,478.717,0,0,1,0-96.416,472.83,472.83,0,0,1,7.143-46.816c3.107-15.189,7.015-30.392,11.615-45.186,4.548-14.627,9.881-29.2,15.851-43.319,5.914-13.986,12.592-27.853,19.849-41.216C64.1,233.488,72.041,220.408,80.5,207.88A474.032,474.032,0,0,1,207.822,80.525c12.524-8.464,25.6-16.41,38.864-23.617,13.359-7.259,27.222-13.939,41.2-19.855C302,31.082,316.575,25.747,331.2,21.2c14.788-4.6,29.987-8.51,45.173-11.618a472.362,472.362,0,0,1,46.8-7.145A478.785,478.785,0,0,1,471.369,0c15.243,0,30.619.736,45.7,2.187,14.876,1.431,29.836,3.594,44.463,6.428,14.446,2.8,28.92,6.32,43.022,10.467,13.949,4.1,27.871,8.915,41.379,14.3,13.385,5.341,26.686,11.377,39.536,17.941,12.755,6.516,25.368,13.708,37.49,21.376A474.441,474.441,0,0,1,791,124.955V818.045a474.429,474.429,0,0,1-68.039,52.25c-12.121,7.668-24.735,14.86-37.49,21.376-12.85,6.564-26.151,12.6-39.536,17.941-13.509,5.39-27.431,10.2-41.379,14.3-14.1,4.147-28.575,7.668-43.022,10.467-14.627,2.834-29.586,5-44.463,6.428C501.988,942.263,486.611,943,471.369,943Z" transform="translate(1129 1636)" fill="url(#b)"/><path d="M622.557,1416.2c-32.615,0-65.734-1.432-98.438-4.257-53.265-4.6-107.747-18.4-161.931-41.005a663.068,663.068,0,0,1-76.909-38.25,722.927,722.927,0,0,1-72.247-47.988,749.919,749.919,0,0,1-66.119-56.155A734.714,734.714,0,0,1,88.39,1165.8a678.4,678.4,0,0,1-49.46-67.782A592.419,592.419,0,0,1,0,1026.773v-783a460.483,460.483,0,0,1,31.847-47.366A512.629,512.629,0,0,1,70.6,151.479,535.413,535.413,0,0,1,165.46,73.7,483.534,483.534,0,0,1,277.906,20.021C319.028,6.736,360.527,0,401.25,0a366.671,366.671,0,0,1,37.224,1.893,358.66,358.66,0,0,1,74.853,15.87,372.257,372.257,0,0,1,37.3,14.46A431.925,431.925,0,0,1,593.547,54.38a321.651,321.651,0,0,1,34.577,23.584,261.513,261.513,0,0,1,27.454,24.878,240.665,240.665,0,0,1,21.546,26.039,254.1,254.1,0,0,1,16.854,27.067c4.687,8.656,9.062,17.8,13.376,27.964,8.028,18.913,14.416,37.94,21.178,58.085,11.359,33.838,23.1,68.827,43.358,103.816,5.233,9.041,10.925,17.87,16.918,26.243a326.017,326.017,0,0,0,20.889,26.19A355.468,355.468,0,0,0,835.325,424.3c9.595,8.815,20.071,17.507,31.137,25.833,9.787,7.365,20.042,14.681,30.479,21.745,9.908,6.706,20.292,13.4,30.863,19.883,19.41,11.912,39.753,23.373,62.192,35.037,41.44,21.543,82.113,39.646,121.447,57.154,28.334,12.611,55.1,24.524,80.255,36.89,13.479,6.625,25.345,12.815,36.279,18.922,12.188,6.808,22.99,13.384,33.023,20.1,22.185,14.855,39.918,30.008,54.213,46.326a191.56,191.56,0,0,1,20.155,27.516,177.781,177.781,0,0,1,14.831,31.279c3.367,9.368,6.355,18.907,8.88,28.352s4.657,19.057,6.335,28.565,2.953,19.184,3.784,28.749,1.245,19.294,1.226,28.9-.469,19.386-1.339,29.031-2.187,19.458-3.911,29.129c-1.727,9.687-3.91,19.511-6.489,29.2-2.584,9.706-5.637,19.545-9.075,29.242-28.038,79.091-84.06,157.155-166.51,232.026a603.318,603.318,0,0,1-56.978,45.669,659.364,659.364,0,0,1-62.278,38.943,729.825,729.825,0,0,1-66.8,32.413c-22.594,9.594-46.327,18.369-70.538,26.08-23.71,7.552-48.439,14.261-73.5,19.943-24.581,5.573-50.043,10.284-75.678,14A1082.1,1082.1,0,0,1,622.557,1416.2Z" transform="translate(0 1146.108)" fill="url(#c)"/></g></svg>