<svg xmlns="http://www.w3.org/2000/svg" width="687.118" height="645.246" viewBox="0 0 687.118 645.246"><g transform="translate(-91.741 -129.491)"><g transform="translate(91.741 129.491)"><path d="M263.477,317.464c3.819-10.789,22.736-10.3,26.962,0,42.128,121.709,108.01,194.768,240.047,240.1,10.94,3.832,11.755,22.26,0,26.744C382.794,640.408,326.261,718.4,291.8,825.54c-3.262,9.99-26.133,10.681-29.313,0C234.653,732.478,161.011,629.89,23.429,585.7c-11.1-4.4-10.613-22.993,0-28.13C123.34,519.08,207.487,481.9,263.477,317.464Z" transform="translate(-15.285 -309.554)" fill="#feb200"/><path d="M165.494,318.058c6.088-8.7,16.96-12.176,25.657,0,46.531,57.837,64.361,92.193,140.463,135.9,16.96,5.654,13.916,25.658,0,31.311C273.776,518.968,224.2,568.543,193.325,622.9c-7.828,14.133-22.178,11.089-29.136,0-31.745-45.661-71.318-98.28-138.723-137.635-13.046-6.741-13.916-25.441,0-31.311C88.087,411.556,102,407.642,165.494,318.058Z" transform="translate(83.242 -207.954)" fill="#ffe357"/><path d="M120.328,339.333c5.653-4.538,23.265-5.517,30.006,0,.109-.3,72.188,74.39,72.623,74.8,6.74,7.42,5.11,22.1,0,27.4.544-.083-73.914,74.852-73.37,75.258-6.414,6.443-22.953,5.219-29.258-.9-.217.245-74.58-74.769-74.363-74.361-6.088-6.931-7.066-18.347,0-27.4C45.748,414.05,120.763,339.687,120.328,339.333Z" transform="translate(126.885 -165.956)" fill="#fff"/></g><g transform="translate(439.122 476.872)"><path d="M156.438,314.053c2.172-6.136,12.93-5.859,15.334,0,23.959,69.219,61.429,110.77,136.522,136.553,6.222,2.18,6.685,12.66,0,15.21-84,31.905-116.148,76.261-135.749,137.195-1.855,5.681-14.862,6.075-16.671,0C140.046,550.083,98.163,491.739,19.917,466.6c-6.314-2.5-6.036-13.077,0-16C76.739,428.717,124.6,407.572,156.438,314.053Z" transform="translate(-15.285 -309.554)" fill="#feb200"/><path d="M100.742,314.66c3.463-4.946,9.646-6.925,14.592,0,26.463,32.894,36.6,52.432,79.885,77.288,9.646,3.215,7.914,14.592,0,17.807-32.894,19.167-61.089,47.362-78.648,78.277-4.452,8.038-12.613,6.306-16.571,0-18.054-25.969-40.561-55.9-78.9-78.277-7.42-3.834-7.914-14.469,0-17.807C56.719,367.834,64.633,365.608,100.742,314.66Z" transform="translate(40.721 -252.04)" fill="#ffe357"/><path d="M86.127,337.7c3.215-2.581,13.232-3.138,17.065,0,.062-.17,41.055,42.307,41.3,42.539,3.834,4.22,2.906,12.567,0,15.581.309-.047-42.037,42.57-41.728,42.8-3.648,3.664-13.054,2.968-16.64-.51-.124.139-42.416-42.524-42.292-42.292a12.192,12.192,0,0,1,0-15.581C43.712,380.2,86.375,337.9,86.127,337.7Z" transform="translate(54.47 -239.099)" fill="#fff"/></g><g transform="translate(585.387 202.624)"><path d="M106.972,312.476c1.411-3.986,8.4-3.805,9.96,0,15.563,44.962,39.9,71.951,88.679,88.7,4.041,1.416,4.343,8.223,0,9.88-54.561,20.723-75.445,49.536-88.177,89.115-1.2,3.69-9.654,3.946-10.829,0-10.282-34.379-37.487-72.277-88.312-88.6-4.1-1.627-3.921-8.495,0-10.393C55.2,386.957,86.289,373.222,106.972,312.476Z" transform="translate(-15.285 -309.554)" fill="#feb200"/><path d="M70.818,313.089c2.249-3.213,6.265-4.5,9.478,0,17.19,21.366,23.776,34.058,51.89,50.2,6.265,2.088,5.141,9.478,0,11.567C110.82,387.309,92.506,405.624,81.1,425.7c-2.892,5.221-8.193,4.1-10.764,0C58.609,408.837,43.99,389.4,19.089,374.859c-4.82-2.49-5.141-9.4,0-11.567C42.223,347.629,47.363,346.184,70.818,313.089Z" transform="translate(21.07 -272.414)" fill="#ffe357"/><path d="M70.322,336.951c2.088-1.677,8.595-2.039,11.085,0,.04-.111,26.668,27.48,26.829,27.631,2.49,2.741,1.888,8.163,0,10.122.2-.03-27.305,27.652-27.1,27.8-2.37,2.38-8.479,1.929-10.809-.331-.08.09-27.551-27.621-27.471-27.47a7.92,7.92,0,0,1,0-10.122C42.771,364.552,70.483,337.081,70.322,336.951Z" transform="translate(21.004 -272.9)" fill="#fff"/></g></g></svg>