<?xml version="1.0" encoding="utf-8"?>
<!-- Generator: Adobe Illustrator 16.0.0, SVG Export Plug-In . SVG Version: 6.00 Build 0)  -->
<!DOCTYPE svg PUBLIC "-//W3C//DTD SVG 1.1//EN" "http://www.w3.org/Graphics/SVG/1.1/DTD/svg11.dtd">
<svg version="1.1" xmlns="http://www.w3.org/2000/svg" xmlns:xlink="http://www.w3.org/1999/xlink" x="0px" y="0px" width="800px"
	 height="571.471px" viewBox="0 0 800 571.471" enable-background="new 0 0 800 571.471" xml:space="preserve">
<g id="BACKGROUND" display="none">
	<rect x="-0.005" y="-131.409" display="inline" fill="#85C7E7" width="800.01" height="800"/>
</g>
<g id="OBJECTS">
	<g>
		<g>
			<path fill="#231F20" d="M325.009,131.731c-6.158,0-12.282-2.569-16.631-7.589C181.719-22.007,45.224,88.823,39.476,93.61
				c-9.316,7.753-23.175,6.535-30.961-2.759c-7.78-9.294-6.6-23.114,2.673-30.924c1.733-1.459,175.077-143.847,330.432,35.407
				c7.955,9.18,6.961,23.067-2.218,31.023C335.244,129.963,330.113,131.731,325.009,131.731z"/>
		</g>
		<g>
			<path fill="#231F20" d="M475.271,131.731c-5.104,0-10.232-1.768-14.392-5.374c-9.181-7.956-10.174-21.843-2.219-31.023
				C614.01-83.916,787.353,58.47,789.092,59.927c9.289,7.824,10.478,21.697,2.654,30.989c-7.809,9.281-21.656,10.475-30.946,2.688
				c-5.816-4.843-142.272-115.57-268.898,30.539C487.552,129.16,481.428,131.731,475.271,131.731z"/>
		</g>
	</g>
	<g>
		<ellipse fill="#52B7E5" cx="615.481" cy="369.98" rx="159.443" ry="197.016"/>
		<g>
			<path fill="#FFFFFF" d="M456.038,376.447c0,94.165,71.386,170.495,159.443,170.495s159.443-76.33,159.443-170.495
				c0-94.162-71.386-170.491-159.443-170.491S456.038,282.285,456.038,376.447z"/>
			<path opacity="0.7" fill="#96B7C8" d="M615.481,240.352c-82.631,0-150.572,67.212-158.637,153.293
				c-0.53-5.653-0.807-11.394-0.807-17.198c0-94.162,71.384-170.491,159.443-170.491c88.058,0,159.443,76.329,159.443,170.491
				c0,5.805-0.275,11.545-0.806,17.198C766.052,307.564,698.111,240.352,615.481,240.352z"/>
		</g>
		<g>
			<ellipse fill="#231F20" cx="612.986" cy="365.398" rx="51.315" ry="75.69"/>
			<ellipse fill="#FFFFFF" cx="591.017" cy="343.109" rx="15.875" ry="23.572"/>
		</g>
	</g>
	<g>
		<ellipse fill="#52B7E5" cx="184.957" cy="369.98" rx="159.443" ry="197.016"/>
		<g>
			<path fill="#FFFFFF" d="M25.514,376.447c0,94.165,71.386,170.495,159.443,170.495S344.4,470.612,344.4,376.447
				c0-94.162-71.385-170.491-159.443-170.491S25.514,282.285,25.514,376.447z"/>
			<path opacity="0.7" fill="#96B7C8" d="M184.957,240.352c-82.631,0-150.574,67.212-158.638,153.293
				c-0.53-5.653-0.806-11.394-0.806-17.198c0-94.162,71.383-170.491,159.443-170.491c88.058,0,159.443,76.329,159.443,170.491
				c0,5.805-0.276,11.545-0.806,17.198C335.528,307.564,267.585,240.352,184.957,240.352z"/>
		</g>
		<g>
			<ellipse fill="#231F20" cx="182.462" cy="365.398" rx="51.315" ry="75.69"/>
			<ellipse fill="#FFFFFF" cx="160.493" cy="343.109" rx="15.875" ry="23.572"/>
		</g>
	</g>
</g>
</svg>
