<svg xmlns="http://www.w3.org/2000/svg" width="383.557" height="534.785" viewBox="0 0 383.557 534.785"><g transform="translate(-131.711 -88.295)"><g transform="matrix(0.966, -0.259, 0.259, 0.966, 122.689, 144.02)"><ellipse cx="129.922" cy="149.04" rx="129.922" ry="149.04" transform="translate(29.437 139.117)" fill="#ffe357"/><path d="M28.446,30.945C20.665,18.787,5.264,10.345,13.439,1.973S43.384,13.75,55.195,27.181,92.712,76.1,93.118,132.034s-22.986,88.595-36.65,105.282S10.483,271.8,1.818,272.439s16.062-23.77,23.241-32.8,37.778-55.842,37.315-107.6S36.227,43.1,28.446,30.945Z" transform="translate(196.222 156.457)" fill="#feb200"/><path d="M29.276,11.895C37.2,2.651,48.423-2.631,53.705,1.331s5.943,13.865,0,22.449S40,39.626,33.9,57.453s-2.642,26.411-4.621,34.334a14.974,14.974,0,0,1-16.509,11.225C5.835,102.021,2.038,95.419.718,84.194S-.767,67.357,6.165,47.55,21.351,21.138,29.276,11.895Z" transform="translate(59.757 177.739)" fill="#fff"/><path d="M3.241,8.6c3.81-6.768,7.8-9.657,15.243-8.254S32.02,6.454,33.01,14.212,29.888,28.077,22.446,31.379s-14.4,1.733-19.2-3.962S-.572,15.367,3.241,8.6Z" transform="translate(56.519 289.979)" fill="#fff"/><path d="M9.427,0h106.21s9.422,1.734,9.422,10.534-9.422,10.309-9.422,10.309H9.427S-.093,18.519,0,10.534,9.427,0,9.427,0Z" transform="translate(95.555 426.776)" fill="#ccc" stroke="#fff" stroke-width="10"/><path d="M9.427,0h106.21s9.422,1.734,9.422,10.534-9.422,10.309-9.422,10.309H9.427S-.093,18.519,0,10.534,9.427,0,9.427,0Z" transform="translate(95.555 447.619)" fill="#999" stroke="#fff" stroke-width="10"/><path d="M9.427,0h106.21s9.422,1.734,9.422,10.534-9.422,10.309-9.422,10.309H9.427S-.093,18.519,0,10.534,9.427,0,9.427,0Z" transform="translate(95.555 468.462)" fill="#666" stroke="#fff" stroke-width="10"/><path d="M0,0H86.847S81.388,31.265,43.424,31.265,0,0,0,0Z" transform="translate(116.457 489.305)" fill="#ccc" stroke="#fff" stroke-width="10"/><path d="M23.017,122.164S3.951,79.129.987,50.579,1.834,11.9,11.153,7.967,31.491,20.936,38.267,34.831s3.815,20.611,0,22.233-16.945,0-15.25-15.748S33.822,4.261,45.048.556,63.476,12.367,67.926,26.494s2.723,23.529-4.5,24.085S46.742,40.621,50.979,26.494s19.85-24.688,30.229-22.6S93.994,16.119,92.5,34.831,74.7,122.164,74.7,122.164" transform="translate(112.534 297.274)" fill="none" stroke="#feb200" stroke-width="10"/><path d="M42.658,120.661c-6.429,3.556-30.114-51.982-38.216-77.7S.605,4.523,7.033.967s15.021,2.052,23.123,27.77S49.087,117.1,42.658,120.661Z" transform="translate(0 34.86) rotate(-13)" fill="#ffe357"/><path d="M47.322,120.661c-7.132,3.556-33.406-51.982-42.394-77.7S.672,4.523,7.8.967s16.663,2.052,25.651,27.77S54.454,117.1,47.322,120.661Z" transform="translate(150.902 0) rotate(18)" fill="#ffe357"/><path d="M42.658,137.2C36.23,141.242,12.544,78.092,4.442,48.85S.605,5.143,7.033,1.1,22.054,3.432,30.156,32.674,49.087,133.154,42.658,137.2Z" transform="matrix(0.629, 0.777, -0.777, 0.629, 313.852, 26.405)" fill="#ffe357"/></g></g></svg>