<?xml version="1.0" encoding="utf-8"?>
<!-- Generator: Adobe Illustrator 16.0.0, SVG Export Plug-In . SVG Version: 6.00 Build 0)  -->
<!DOCTYPE svg PUBLIC "-//W3C//DTD SVG 1.1//EN" "http://www.w3.org/Graphics/SVG/1.1/DTD/svg11.dtd">
<svg version="1.1" id="objects" xmlns="http://www.w3.org/2000/svg" xmlns:xlink="http://www.w3.org/1999/xlink" x="0px" y="0px"
	 width="500px" height="381px" viewBox="0 0 500 381" enable-background="new 0 0 500 381" xml:space="preserve">
<rect x="29.164" y="25.824" fill="#4D4D4D" width="60.858" height="20.629"/>
<rect x="29.164" y="39.346" fill="#333333" width="60.858" height="7.107"/>
<path fill="#808080" d="M27.809,70.277H9.83c-3.866,0-6.999-3.133-6.999-6.999V8.999C2.831,5.133,5.964,2,9.83,2h17.979
	c3.865,0,6.999,3.133,6.999,6.999v54.279C34.808,67.144,31.674,70.277,27.809,70.277z"/>
<path fill="#808080" d="M109.356,70.277H91.376c-3.865,0-6.998-3.133-6.998-6.999V8.999C84.378,5.133,87.512,2,91.376,2h17.979
	c3.865,0,6.998,3.133,6.998,6.999v54.279C116.354,67.144,113.221,70.277,109.356,70.277z"/>
<path fill="#999999" d="M28.774,61.509H8.864c-3.332,0-6.033-2.7-6.033-6.033V16.801c0-3.332,2.701-6.033,6.033-6.033h19.91
	c3.333,0,6.034,2.702,6.034,6.033v38.675C34.808,58.809,32.106,61.509,28.774,61.509z"/>
<path fill="#999999" d="M110.321,61.509h-19.91c-3.333,0-6.033-2.7-6.033-6.033V16.801c0-3.332,2.701-6.033,6.033-6.033h19.91
	c3.332,0,6.033,2.702,6.033,6.033v38.675C116.354,58.809,113.653,61.509,110.321,61.509z"/>
<path opacity="0.3" fill="#B3B3B3" d="M28.774,10.768h-0.457v38.218c0,3.331-2.701,6.033-6.033,6.033H2.831v0.457
	c0,3.333,2.701,6.033,6.033,6.033h19.91c3.333,0,6.034-2.7,6.034-6.033V16.801C34.808,13.469,32.106,10.768,28.774,10.768z"/>
<path opacity="0.3" fill="#B3B3B3" d="M110.321,10.768h-0.457v38.218c0,3.331-2.701,6.033-6.033,6.033H84.378v0.457
	c0,3.333,2.701,6.033,6.033,6.033h19.91c3.333,0,6.033-2.7,6.033-6.033V16.801C116.354,13.469,113.654,10.768,110.321,10.768z"/>
<rect x="410.808" y="25.824" fill="#4D4D4D" width="60.861" height="20.629"/>
<rect x="410.808" y="39.346" fill="#333333" width="60.861" height="7.107"/>
<path fill="#808080" d="M409.454,70.277h-17.979c-3.865,0-6.998-3.133-6.998-6.999V8.999c0-3.866,3.133-6.999,6.998-6.999h17.979
	c3.865,0,6.998,3.133,6.998,6.999v54.279C416.452,67.144,413.319,70.277,409.454,70.277z"/>
<path fill="#808080" d="M491,70.277h-17.979c-3.863,0-6.999-3.133-6.999-6.999V8.999c0-3.866,3.136-6.999,6.999-6.999H491
	c3.867,0,7,3.133,7,6.999v54.279C498,67.144,494.867,70.277,491,70.277z"/>
<path fill="#999999" d="M410.419,61.509h-19.91c-3.332,0-6.032-2.7-6.032-6.033V16.801c0-3.332,2.7-6.033,6.032-6.033h19.91
	c3.331,0,6.033,2.702,6.033,6.033v38.675C416.452,58.809,413.75,61.509,410.419,61.509z"/>
<path fill="#999999" d="M491.967,61.509h-19.91c-3.332,0-6.035-2.7-6.035-6.033V16.801c0-3.332,2.703-6.033,6.035-6.033h19.91
	c3.329,0,6.033,2.702,6.033,6.033v38.675C498,58.809,495.296,61.509,491.967,61.509z"/>
<path opacity="0.3" fill="#B3B3B3" d="M410.419,10.768h-0.457v38.218c0,3.331-2.703,6.033-6.034,6.033h-19.451v0.457
	c0,3.333,2.7,6.033,6.032,6.033h19.91c3.331,0,6.033-2.7,6.033-6.033V16.801C416.452,13.469,413.75,10.768,410.419,10.768z"/>
<path opacity="0.3" fill="#B3B3B3" d="M491.967,10.768h-0.457v38.218c0,3.331-2.705,6.033-6.034,6.033h-19.454v0.457
	c0,3.333,2.703,6.033,6.035,6.033h19.91c3.329,0,6.033-2.7,6.033-6.033V16.801C498,13.469,495.296,10.768,491.967,10.768z"/>
<ellipse transform="matrix(0.9568 0.2907 -0.2907 0.9568 5.8324 -1.8143)" fill="#FFFFFF" cx="9.023" cy="18.726" rx="3.372" ry="4.373"/>
<ellipse transform="matrix(0.0298 0.9996 -0.9996 0.0298 73.4314 -16.0395)" opacity="0.7" fill="#F2F2F2" cx="44.978" cy="29.808" rx="2.628" ry="6.555"/>
<ellipse transform="matrix(0.9568 0.2906 -0.2906 0.9568 9.3265 -25.3518)" fill="#FFFFFF" cx="90.022" cy="18.726" rx="3.372" ry="4.373"/>
<ellipse transform="matrix(0.0297 0.9996 -0.9996 0.0297 443.1754 -396.9361)" opacity="0.7" fill="#F2F2F2" cx="426.046" cy="29.808" rx="2.628" ry="6.557"/>
<ellipse transform="matrix(0.9568 0.2907 -0.2907 0.9568 25.7806 -136.1158)" fill="#FFFFFF" cx="471.089" cy="18.726" rx="3.372" ry="4.373"/>
<ellipse transform="matrix(0.9568 0.2907 -0.2907 0.9568 22.2838 -112.5731)" fill="#FFFFFF" cx="390.09" cy="18.726" rx="3.372" ry="4.373"/>
<g>
	<g>
		<path fill="none" stroke="#333333" stroke-width="20" stroke-linecap="round" stroke-linejoin="round" d="M60.195,54.879
			C49.206,91.26,39.864,164.335,142.159,164.335"/>
		<g>
			<circle fill="#333333" cx="59.895" cy="55.975" r="22.559"/>
		</g>
	</g>
</g>
<g>
	<g>
		<path fill="none" stroke="#333333" stroke-width="20" stroke-linecap="round" stroke-linejoin="round" d="M441.236,54.879
			c10.989,36.381,20.331,109.456-81.963,109.456"/>
		<g>
			<circle fill="#333333" cx="441.536" cy="55.975" r="22.558"/>
		</g>
	</g>
</g>
<path fill="none" stroke="#333333" stroke-width="20" stroke-linecap="round" stroke-linejoin="round" stroke-miterlimit="10" d="
	M210.125,267.352c0,0-27.042,61.443,5.19,103.276h-33.478"/>
<path fill="none" stroke="#333333" stroke-width="20" stroke-linecap="round" stroke-linejoin="round" stroke-miterlimit="10" d="
	M286.507,267.352c0,0,27.042,61.443-5.188,103.276h33.475"/>
<path fill="#FF8788" d="M220.195,32.538c-11.629,0-21.607,7.058-25.889,17.124c-3.973-2.045-8.475-3.208-13.25-3.208
	c-14.247,0-26.085,10.28-28.523,23.824c-1.244-0.405-2.569-0.631-3.948-0.631c-7.045,0-12.755,5.713-12.755,12.757
	c0,1.75,0.353,3.417,0.99,4.935c-11.123,3.967-15.827,17.134-11.122,27.877c-8.68,3.542-14.803,12.056-14.803,22.009
	c0,4.196,1.097,8.131,3.005,11.553c-6.852,6.593-11.123,15.85-11.123,26.11c0,11.842,5.684,22.355,14.468,28.969
	c-2.583,3.547-4.125,7.902-4.125,12.625c0,9.402,6.042,17.372,14.447,20.294c-0.284,1.749-0.437,3.543-0.437,5.374
	c0,18.413,14.927,33.339,33.341,33.339c3.752,0,7.354-0.631,10.72-1.77c7.225,12.166,20.49,20.326,35.667,20.326
	c22.896,0,41.458-18.563,41.458-41.461V60.66C248.316,45.127,235.727,32.538,220.195,32.538z"/>
<path fill="#CC5E69" d="M226.021,33.146c6.345,6.242,10.329,14.884,10.329,24.317v83.044c-5.922,8.495-15.75,14.142-26.706,14.142
	c-11.032,0-20.926-5.725-26.837-14.319c1.785,3.841,2.831,8.068,2.967,12.493c1.667,2.854,5.558,5.864,7.74,7.852
	c3.114,2.835,6.308,4.853,10.305,5.811c2.533,0.477,5.098,0.813,7.557,1.206c3.916,0.626,8.102,1.24,12.051,0.693
	c1.318-0.542,2.627-1.153,3.999-1.393c0.391-0.066,0.781-0.123,1.173-0.182c0.526-0.266,1.045-0.555,1.551-0.893
	c2.16-1.455,4.002-3.403,6.201-4.815v75.269c0,18.665-15.575,34.238-34.239,34.238c-16.65,0-30.833-12.4-33.7-28.327
	c-3.001,8.757-11.375,15.199-21.044,15.199c-8.833,0-16.58-5.382-20.146-12.984c1.207,17.316,15.627,30.991,33.25,30.991
	c3.752,0,7.354-0.631,10.72-1.77c7.225,12.166,20.49,20.324,35.667,20.324c22.896,0,41.458-18.561,41.458-41.459v-96.66V121.66v-61
	C248.316,47.126,238.757,35.828,226.021,33.146z"/>
<path fill="none" stroke="#FF6A6B" stroke-width="4.0217" stroke-miterlimit="10" d="M127.568,236.775
	c-0.284,1.749-0.437,3.543-0.437,5.374c0,18.413,14.927,33.339,33.341,33.339c3.752,0,7.354-0.631,10.72-1.77"/>
<g>
	<path fill="#FF6A6B" d="M248.316,60.66c0,0,0.038,1.221,0.109,3.509c0.062,2.288,0.196,5.645,0.281,9.917
		c0.099,4.272,0.219,9.459,0.356,15.41c0.142,5.95,0.301,12.663,0.406,19.986c0.106,7.323,0.223,15.257,0.346,23.648
		c0.086,8.392,0.176,17.24,0.27,26.395c0.053,9.154,0.168,18.613,0.173,28.225c0.023,9.612,0.047,19.376,0.07,29.141
		c-0.023,9.764-0.048,19.528-0.07,29.14c-0.015,2.425,0.008,4.748-0.036,7.226c-0.026,0.604-0.025,1.172-0.073,1.801l-0.155,1.895
		c-0.155,1.231-0.314,2.454-0.563,3.662c-0.939,4.832-2.691,9.44-5.122,13.548c-4.794,8.289-12.274,14.42-20.267,17.792
		c-4.005,1.691-8.146,2.734-12.202,3.129c-4.049,0.413-8.007,0.221-11.718-0.429c-7.439-1.287-13.744-4.516-18.483-8.255
		c-4.78-3.74-8.06-7.963-10.255-11.658c-1.096-1.89-1.857-3.606-2.624-5.09c-0.741-1.485-1.371-2.749-1.882-3.773
		c-1.021-2.049-1.566-3.142-1.566-3.142s0.607,1.06,1.746,3.046c1.149,1.967,2.787,4.941,4.957,8.563
		c2.322,3.527,5.719,7.492,10.5,10.884c4.746,3.396,10.906,6.155,17.967,7.168c7.02,1.001,14.992,0.158,22.365-3.179
		c7.364-3.317,14.09-9.174,18.403-16.823c2.178-3.803,3.716-8.044,4.51-12.47c0.211-1.104,0.338-2.228,0.464-3.348l0.114-1.654
		c0.037-0.555,0.029-1.178,0.045-1.764c-0.002-2.366-0.003-4.743-0.005-7.129c-0.023-9.612-0.047-19.376-0.07-29.14
		c0.023-9.765,0.047-19.529,0.07-29.141c0.005-9.612,0.12-19.071,0.172-28.225c0.094-9.154,0.184-18.003,0.27-26.395
		c0.123-8.391,0.239-16.325,0.346-23.648c0.105-7.323,0.264-14.036,0.406-19.986c0.137-5.95,0.257-11.138,0.356-15.41
		c0.085-4.272,0.219-7.628,0.281-9.917C248.278,61.88,248.316,60.66,248.316,60.66z"/>
</g>
<path fill="none" stroke="#FF6A6B" stroke-width="4.0217" stroke-miterlimit="10" d="M113.9,148.778
	c-6.852,6.593-11.123,15.85-11.123,26.11c0,11.842,5.684,22.355,14.468,28.969"/>
<path fill="none" stroke="#FF6A6B" stroke-width="3.2174" stroke-miterlimit="10" d="M136.82,87.338
	c-8.301,2.463-16.768,16.383-11.122,27.877"/>
<g>
	<path fill="#FF6A6B" d="M193.491,51.499c0,0-0.76-0.371-2.089-1.021c-0.328-0.15-0.709-0.37-1.092-0.511
		c-0.379-0.132-0.791-0.274-1.229-0.427c-0.44-0.157-0.909-0.324-1.403-0.5c-0.514-0.146-1.082-0.248-1.661-0.385
		c-0.583-0.12-1.187-0.293-1.824-0.388c-0.643-0.064-1.308-0.13-1.991-0.198c-0.343-0.035-0.691-0.07-1.043-0.106l-0.066-0.007
		l-0.033-0.003c0.129-0.003,0.026,0,0.05-0.001h-0.018l-0.141,0.001l-0.282,0.002l-0.569,0.004
		c-0.751,0.019-1.578-0.025-2.279,0.079c-1.453,0.101-3.009,0.359-4.561,0.733c-0.761,0.232-1.556,0.4-2.313,0.688
		c-0.75,0.303-1.536,0.541-2.269,0.898c-1.486,0.675-2.923,1.472-4.264,2.377c-1.339,0.91-2.578,1.924-3.704,2.99
		c-0.536,0.558-1.101,1.079-1.591,1.644c-0.479,0.577-0.948,1.141-1.404,1.691c-0.41,0.587-0.808,1.158-1.193,1.71
		c-0.384,0.556-0.675,1.141-1,1.679c-0.331,0.535-0.593,1.076-0.826,1.6c-0.238,0.521-0.481,1.01-0.68,1.481
		c-0.34,0.963-0.675,1.797-0.887,2.503c-0.38,1.428-0.597,2.245-0.597,2.245s0.156-0.833,0.429-2.289
		c0.16-0.725,0.433-1.584,0.706-2.587c0.166-0.491,0.374-1.002,0.576-1.549c0.197-0.55,0.423-1.121,0.718-1.69
		c0.289-0.571,0.544-1.194,0.894-1.792c0.354-0.597,0.72-1.214,1.096-1.849c0.429-0.602,0.869-1.221,1.319-1.854
		c0.464-0.623,1.007-1.206,1.525-1.83c1.09-1.198,2.309-2.358,3.65-3.423c1.343-1.061,2.804-2.021,4.34-2.861
		c0.758-0.439,1.575-0.761,2.362-1.146c0.793-0.369,1.632-0.618,2.442-0.928c1.648-0.53,3.306-0.941,5.005-1.184
		c0.863-0.174,1.603-0.181,2.373-0.259l0.567-0.046l0.281-0.023l0.14-0.011l0.103-0.004l0.037,0.001l0.073,0.001
		c0.392,0.009,0.779,0.018,1.161,0.027c0.766,0.02,1.512,0.04,2.233,0.059c0.719,0.053,1.406,0.189,2.071,0.276
		c0.665,0.105,1.303,0.177,1.911,0.302c0.609,0.166,1.188,0.323,1.73,0.471c0.545,0.152,1.055,0.295,1.526,0.427
		c0.462,0.139,0.808,0.311,1.162,0.442c1.374,0.549,2.159,0.864,2.159,0.864L193.491,51.499z"/>
</g>
<g>
	<path fill="#FF6A6B" d="M192.074,60.66c0,0-0.033-0.276-0.097-0.81c-0.06-0.536-0.166-1.321-0.207-2.362
		c0.005-2.109,0.216-5.283,1.647-9.054c0.396-0.922,0.771-1.921,1.341-2.881c0.27-0.487,0.53-0.999,0.83-1.501
		c0.338-0.477,0.683-0.965,1.035-1.462c0.347-0.503,0.712-1.009,1.144-1.477c0.413-0.483,0.84-0.972,1.282-1.463
		c0.47-0.463,0.971-0.913,1.47-1.381c0.253-0.229,0.499-0.474,0.766-0.697c0.276-0.212,0.555-0.426,0.835-0.642
		c2.207-1.774,4.864-3.293,7.852-4.405c2.982-1.105,6.31-1.874,9.824-1.919c3.374-0.074,7.23,0.45,10.775,1.731
		c3.575,1.285,7.03,3.313,10.027,6.03c2.998,2.712,5.536,6.115,7.294,9.999c0.467,0.957,0.776,1.989,1.168,2.992
		c0.334,1.023,0.565,2.085,0.842,3.136c0.17,1.073,0.35,2.153,0.48,3.242c0.049,1.083,0.128,2.222,0.143,3.273
		c-0.018,8.21-0.035,16.694-0.053,25.315c-0.047,8.621-0.096,17.378-0.143,26.136c-0.164,17.516-0.327,35.031-0.48,51.452
		c-0.143,16.421-0.451,31.747-0.627,44.883c-0.184,13.137-0.474,24.084-0.613,31.747c-0.187,7.663-0.293,12.042-0.293,12.042
		s-0.106-4.379-0.293-12.042c-0.139-7.663-0.429-18.61-0.613-31.747c-0.176-13.136-0.485-28.462-0.628-44.883
		c-0.153-16.421-0.316-33.937-0.479-51.452c-0.048-8.758-0.096-17.515-0.143-26.136c-0.018-8.621-0.036-17.105-0.053-25.315
		c0.108-7.665-3.256-14.794-8.386-19.5c-2.55-2.366-5.504-4.146-8.573-5.287c-3.104-1.16-6.111-1.686-9.3-1.713
		c-3.068-0.039-5.982,0.57-8.619,1.474c-2.641,0.91-5.016,2.186-7,3.71c-0.253,0.184-0.505,0.367-0.754,0.547
		c-0.241,0.192-0.461,0.405-0.69,0.603c-0.451,0.405-0.906,0.791-1.334,1.191c-0.77,0.881-1.644,1.622-2.273,2.514
		c-0.339,0.427-0.671,0.845-0.997,1.255c-0.279,0.441-0.578,0.857-0.858,1.274c-0.605,0.808-1.026,1.67-1.473,2.468
		c-1.758,3.22-2.567,6.065-3.099,8.007C192.309,59.578,192.074,60.66,192.074,60.66z"/>
</g>
<g>
	<path fill="#FF6A6B" d="M142.942,94.292c0,0-0.17-0.058-0.488-0.167c-0.31-0.129-0.791-0.249-1.352-0.532
		c-0.283-0.16-0.596-0.338-0.938-0.532c-0.172-0.1-0.359-0.202-0.536-0.325c-0.165-0.132-0.335-0.27-0.511-0.412
		c-0.341-0.296-0.762-0.573-1.109-0.954c-0.354-0.375-0.721-0.784-1.097-1.223c-0.319-0.482-0.652-0.985-0.996-1.505
		c-0.291-0.553-0.545-1.154-0.829-1.769c-0.223-0.633-0.39-1.309-0.587-1.998c-0.061-0.35-0.105-0.708-0.15-1.07l-0.066-0.547
		l-0.032-0.276l-0.016-0.139l-0.008-0.069l0.001-0.152c-0.072-1.179,0.121-3.051,0.566-4.494c0.436-1.53,1.206-2.979,2.149-4.286
		c0.968-1.289,2.127-2.449,3.462-3.311c1.316-0.884,2.761-1.513,4.203-1.904c1.457-0.354,2.898-0.478,4.241-0.396l0.125,0.005
		l0.138,0.005l0.056,0.008l0.222,0.032l0.439,0.063c0.299,0.049,0.554,0.062,0.896,0.156c0.643,0.156,1.261,0.293,1.785,0.518
		c1.087,0.378,1.993,0.926,2.741,1.442c0.75,0.518,1.336,1.049,1.766,1.527c0.458,0.446,0.734,0.873,0.934,1.144
		c0.192,0.276,0.294,0.423,0.294,0.423s-0.157-0.088-0.451-0.254c-0.283-0.173-0.705-0.413-1.253-0.67
		c-0.269-0.136-0.563-0.285-0.908-0.401c-0.344-0.114-0.676-0.297-1.077-0.396c-0.393-0.112-0.792-0.259-1.241-0.326
		c-0.438-0.096-0.891-0.193-1.375-0.229c-0.484-0.082-0.954-0.075-1.431-0.092c-0.216-0.019-0.54,0.009-0.824,0.017l-0.443,0.019
		l-0.224,0.01l-0.056,0.002c-0.021,0,0.134,0.005,0.063,0.003l-0.012,0.002l-0.025,0.004l-0.1,0.016
		c-1.066,0.119-2.148,0.39-3.215,0.772c-1.056,0.422-2.072,0.993-3.017,1.687c-0.944,0.696-1.783,1.558-2.479,2.514
		c-0.706,0.949-1.286,1.998-1.678,3.102c-0.383,1.187-0.608,2.019-0.719,3.467c-0.002,0.544-0.004,1.08-0.005,1.604
		c0.07,0.552,0.139,1.092,0.206,1.618c0.132,0.522,0.26,1.03,0.384,1.521c0.183,0.482,0.359,0.948,0.528,1.396
		c0.437,0.852,0.836,1.674,1.328,2.322c0.115,0.17,0.227,0.334,0.334,0.494c0.121,0.143,0.237,0.281,0.349,0.413
		c0.229,0.275,0.44,0.528,0.631,0.756c0.425,0.439,0.803,0.771,1.04,1.004C142.814,94.167,142.942,94.292,142.942,94.292z"/>
</g>
<g>
	<path fill="#FF6A6B" d="M118.744,155.521c0,0-0.188-0.137-0.54-0.394c-0.343-0.267-0.87-0.631-1.493-1.147
		c-0.568-0.578-1.369-1.242-2.098-2.143c-0.364-0.454-0.752-0.937-1.161-1.445c-0.391-0.525-0.718-1.131-1.107-1.741
		c-0.408-0.604-0.702-1.296-1.049-2c-0.17-0.354-0.345-0.715-0.5-1.09c-0.132-0.384-0.265-0.774-0.4-1.169
		c-0.132-0.399-0.266-0.803-0.402-1.212c-0.111-0.416-0.19-0.845-0.288-1.275c-0.09-0.434-0.182-0.872-0.274-1.314
		c-0.083-0.444-0.099-0.901-0.151-1.358c-0.042-0.459-0.084-0.923-0.127-1.39l-0.014-0.176l-0.003-0.044l-0.002-0.022l0.003-0.114
		l0.001-0.082l0.006-0.329l0.012-0.661c0.008-0.442,0.016-0.887,0.024-1.334c0.038-0.476,0.118-0.987,0.179-1.484
		c0.072-0.497,0.122-1.012,0.22-1.499l0.349-1.436c0.203-0.969,0.583-1.889,0.911-2.825c0.326-0.938,0.836-1.797,1.25-2.692
		c0.479-0.862,1.021-1.686,1.558-2.495c1.156-1.567,2.43-3.007,3.835-4.203c0.711-0.587,1.38-1.196,2.142-1.657
		c0.733-0.494,1.442-0.982,2.204-1.343c0.743-0.388,1.454-0.778,2.201-1.034c0.738-0.27,1.424-0.58,2.134-0.742
		c0.702-0.179,1.354-0.399,2-0.513c0.646-0.093,1.259-0.181,1.835-0.264c1.147-0.147,2.166-0.093,2.978-0.126
		c1.649,0.14,2.558,0.271,2.558,0.271s-0.923,0.222-2.477,0.526c-0.765,0.247-1.697,0.472-2.724,0.832
		c-0.505,0.195-1.043,0.403-1.61,0.622c-0.557,0.234-1.123,0.527-1.718,0.802c-0.605,0.252-1.173,0.65-1.779,1.002
		c-0.616,0.334-1.204,0.761-1.803,1.197c-0.619,0.406-1.197,0.9-1.781,1.406c-0.607,0.477-1.15,1.051-1.713,1.615
		c-0.588,0.539-1.062,1.207-1.605,1.814c-0.279,0.299-0.498,0.65-0.734,0.988l-0.723,1.009c-0.431,0.709-0.85,1.435-1.258,2.165
		c-0.333,0.769-0.767,1.498-1.03,2.298c-0.283,0.791-0.628,1.563-0.803,2.386l-0.332,1.211c-0.098,0.399-0.142,0.788-0.219,1.18
		c-0.067,0.396-0.148,0.771-0.209,1.182c-0.037,0.446-0.074,0.889-0.11,1.33l-0.055,0.659l-0.027,0.328l-0.006,0.082
		c0-0.035-0.004,0.106,0-0.073l0,0.019l0,0.038l0.003,0.152c0.003,0.404,0.006,0.806,0.01,1.205c0.01,0.398-0.018,0.799,0.021,1.189
		c0.04,0.391,0.08,0.778,0.12,1.161c0.042,0.384,0.063,0.769,0.118,1.143c0.074,0.371,0.147,0.738,0.219,1.1
		c0.069,0.365,0.137,0.726,0.204,1.081c0.1,0.347,0.197,0.689,0.294,1.025c0.196,0.674,0.344,1.35,0.614,1.947
		c0.245,0.608,0.463,1.206,0.704,1.761c0.266,0.547,0.518,1.066,0.754,1.553c0.494,0.967,1.017,1.749,1.407,2.455
		C118.227,154.744,118.744,155.521,118.744,155.521z"/>
</g>
<g>
	<path fill="#FF6A6B" d="M135.36,238.252c0,0-0.235,0.028-0.675,0.081c-0.441,0.028-1.08,0.157-1.909,0.156
		c-0.828-0.034-1.895,0.026-3.046-0.199c-1.177-0.135-2.489-0.453-3.88-0.94c-1.387-0.497-2.872-1.153-4.307-2.089
		c-0.358-0.237-0.721-0.478-1.088-0.721c-0.362-0.252-0.693-0.551-1.048-0.832c-0.727-0.546-1.369-1.213-2.028-1.89
		c-0.688-0.653-1.224-1.458-1.848-2.209c-0.521-0.82-1.121-1.619-1.554-2.52l-0.676-1.344c-0.223-0.451-0.376-0.935-0.56-1.406
		c-0.392-0.937-0.615-1.931-0.876-2.914c-0.22-0.991-0.342-2.005-0.461-3.007l-0.061-1.512l-0.02-0.822l0.039-0.688
		c0.021-0.861,0.168-1.958,0.334-2.93c0.103-0.477,0.205-0.95,0.306-1.421c0.12-0.465,0.272-0.919,0.407-1.372
		c0.589-1.797,1.391-3.443,2.296-4.898c0.932-1.443,1.979-2.676,3.021-3.718c1.061-1.027,2.111-1.87,3.113-2.501
		c0.492-0.327,0.953-0.625,1.414-0.848c0.448-0.24,0.858-0.455,1.249-0.614c0.755-0.359,1.383-0.557,1.806-0.692
		c0.423-0.133,0.648-0.204,0.648-0.204s-0.189,0.143-0.543,0.41c-0.362,0.249-0.867,0.648-1.488,1.166
		c-0.319,0.245-0.646,0.551-0.997,0.884c-0.356,0.325-0.733,0.679-1.109,1.085c-0.776,0.783-1.542,1.759-2.34,2.818
		c-0.757,1.096-1.477,2.333-2.124,3.679c-0.619,1.362-1.14,2.842-1.514,4.403c-0.082,0.392-0.165,0.788-0.249,1.187
		c-0.06,0.402-0.12,0.807-0.18,1.214c-0.069,0.808-0.153,1.521-0.152,2.495l-0.012,0.689c0-0.025-0.002,0.086,0.001-0.051
		l0.001,0.02l0.003,0.04l0.006,0.079l0.012,0.157l0.023,0.315l0.079,1.263c0.114,0.834,0.225,1.678,0.416,2.501
		c0.213,0.818,0.377,1.652,0.7,2.435c0.153,0.393,0.262,0.803,0.433,1.187l0.522,1.144c0.156,0.39,0.374,0.745,0.582,1.104
		c0.204,0.362,0.407,0.723,0.609,1.081c0.235,0.338,0.47,0.674,0.702,1.007c0.227,0.339,0.454,0.675,0.723,0.974
		c0.505,0.626,1.011,1.239,1.574,1.778c0.276,0.273,0.531,0.569,0.818,0.82c0.291,0.249,0.578,0.495,0.861,0.737
		c1.14,0.968,2.327,1.77,3.479,2.434c0.559,0.374,1.167,0.57,1.707,0.868c0.541,0.302,1.093,0.481,1.607,0.684
		c1.028,0.432,1.949,0.641,2.726,0.89c0.787,0.203,1.437,0.309,1.864,0.408C135.129,238.201,135.36,238.252,135.36,238.252z"/>
</g>
<g>
	<path fill="#FF6A6B" d="M250.324,252.319c0,0-0.018,0.673-0.053,1.935c-0.018,0.631-0.039,1.408-0.064,2.323
		c-0.125,0.976-0.268,2.098-0.427,3.354c-0.106,1.288-0.524,2.578-0.853,4.044c-0.289,1.475-0.924,2.971-1.474,4.612
		c-0.254,0.831-0.672,1.623-1.052,2.462c-0.401,0.827-0.759,1.709-1.232,2.558c-0.994,1.67-1.965,3.48-3.29,5.163
		c-0.628,0.864-1.25,1.764-2.019,2.571c-0.748,0.823-1.464,1.708-2.282,2.521c-0.849,0.783-1.711,1.579-2.588,2.387
		c-0.908,0.771-1.901,1.469-2.873,2.22c-3.996,2.846-8.695,5.217-13.877,6.646c-2.582,0.749-5.291,1.18-8.037,1.444
		c-0.69,0.036-1.382,0.073-2.076,0.109l-1.042,0.053l-0.522,0.025l-0.065,0.004l-0.199-0.006l-0.123-0.006l-0.246-0.013
		c-1.314-0.067-2.635-0.135-3.961-0.203c-1.438-0.214-2.882-0.429-4.331-0.644c-1.39-0.325-2.76-0.706-4.144-1.063
		c-1.355-0.445-2.688-0.974-4.032-1.464c-1.313-0.566-2.585-1.231-3.877-1.849c-5.048-2.71-9.554-6.405-13.145-10.741
		c-3.585-4.343-6.256-9.298-7.905-14.382c-1.666-5.098-2.288-10.254-2.18-15.173c0.03-0.577,0.06-1.151,0.089-1.72
		c0.068-0.613,0.135-1.221,0.202-1.825c0.107-1.225,0.366-2.341,0.555-3.477c0.462-2.245,1.124-4.364,1.896-6.334
		c1.512-3.96,3.567-7.277,5.625-9.973c2.102-2.677,4.234-4.723,6.093-6.25c1.884-1.505,3.467-2.522,4.576-3.155
		c1.116-0.614,1.711-0.941,1.711-0.941s-0.497,0.459-1.428,1.32c-0.923,0.861-2.219,2.179-3.756,3.913
		c-1.483,1.785-3.21,3.995-4.805,6.743c-1.639,2.717-3.106,5.98-4.252,9.649c-0.319,0.907-0.499,1.877-0.756,2.839
		c-0.203,0.977-0.395,1.974-0.579,2.987c-0.123,1.018-0.325,2.072-0.366,3.093c-0.039,0.515-0.078,1.034-0.117,1.557
		c-0.006,0.57-0.013,1.145-0.019,1.723c0.031,4.322,0.636,8.964,2.205,13.439c1.543,4.484,3.986,8.826,7.221,12.602
		c3.212,3.792,7.198,7.028,11.657,9.376c1.144,0.527,2.262,1.109,3.418,1.6c1.187,0.414,2.357,0.875,3.548,1.26
		c1.214,0.305,2.425,0.609,3.633,0.913c1.189,0.187,2.375,0.373,3.556,0.559c1.319,0.072,2.633,0.145,3.941,0.216l0.246,0.013
		l0.123,0.007c-0.041-0.001,0.178,0.006-0.076-0.001l0.057-0.003l0.459-0.024l0.917-0.046c0.61-0.029,1.219-0.059,1.827-0.088
		c2.415-0.229,4.797-0.593,7.065-1.247c4.554-1.234,8.727-3.232,12.29-5.704c3.591-2.446,6.505-5.421,8.829-8.414
		c1.228-1.46,2.125-3.051,3.061-4.513c0.445-0.744,0.779-1.524,1.16-2.253c0.359-0.738,0.762-1.435,1.003-2.173
		c0.525-1.455,1.149-2.778,1.435-4.095c0.329-1.293,0.745-2.49,0.877-3.555c0.194-1.071,0.367-2.028,0.517-2.86
		c0.067-0.913,0.124-1.689,0.17-2.318c0.092-1.259,0.142-1.93,0.142-1.93L250.324,252.319z"/>
</g>
<g>
	<path fill="#CC5E69" d="M154.69,141.687c0,0,0.084,0.796,0.232,2.19c0.132,0.687,0.295,1.514,0.521,2.445
		c0.301,0.919,0.578,1.968,1.09,3.035c0.116,0.27,0.234,0.545,0.355,0.826c0.146,0.268,0.296,0.542,0.448,0.819
		c0.309,0.551,0.6,1.133,1.004,1.671c0.732,1.116,1.615,2.217,2.634,3.235c0.516,0.505,1.021,1.032,1.617,1.475l0.863,0.699
		c0.297,0.223,0.62,0.416,0.929,0.626c0.314,0.203,0.62,0.42,0.941,0.614l0.998,0.528c0.649,0.381,1.359,0.646,2.052,0.932
		c1.392,0.56,2.848,0.919,4.283,1.168c0.718,0.125,1.446,0.146,2.149,0.228c0.709,0.035,1.414-0.005,2.099,0.001l0.128-0.001
		l0.064,0h0.016c0.024,0-0.157,0.004-0.072,0.001l0.035-0.003l0.278-0.028l0.553-0.056c0.367-0.037,0.73-0.074,1.09-0.11
		c0.615-0.124,1.216-0.245,1.802-0.362c0.594-0.175,1.172-0.346,1.731-0.511c0.539-0.214,1.061-0.42,1.561-0.618
		c0.969-0.464,1.845-0.899,2.564-1.385c0.753-0.425,1.318-0.936,1.821-1.287c0.484-0.382,0.825-0.73,1.076-0.941
		c0.245-0.218,0.376-0.334,0.376-0.334l3.679,4.262c0,0-0.183,0.132-0.526,0.378c-0.349,0.238-0.833,0.623-1.499,1.038
		c-0.685,0.386-1.469,0.927-2.469,1.365c-0.966,0.499-2.117,0.929-3.372,1.358c-0.64,0.174-1.307,0.355-1.996,0.543
		c-0.702,0.125-1.426,0.254-2.172,0.387c-0.779,0.07-1.602,0.153-2.39,0.196c-0.361-0.003-0.727-0.007-1.095-0.01l-0.556-0.005
		l-0.28-0.002l-0.035,0l-0.106,0.001l-0.019-0.002l-0.076-0.007l-0.152-0.015c-0.811-0.09-1.635-0.142-2.458-0.274
		c-0.817-0.179-1.65-0.305-2.464-0.54c-1.629-0.469-3.24-1.068-4.742-1.872c-0.748-0.409-1.502-0.796-2.184-1.299l-1.04-0.71
		c-0.332-0.254-0.646-0.53-0.966-0.792c-0.315-0.269-0.642-0.52-0.94-0.8l-0.859-0.867c-0.589-0.552-1.079-1.184-1.572-1.788
		c-0.974-1.217-1.781-2.492-2.424-3.753c-0.359-0.61-0.601-1.258-0.859-1.869c-0.126-0.306-0.25-0.607-0.371-0.902
		c-0.094-0.306-0.186-0.605-0.276-0.898c-0.404-1.158-0.573-2.271-0.773-3.234c-0.127-0.982-0.199-1.843-0.254-2.54
		C154.687,142.488,154.69,141.687,154.69,141.687z"/>
</g>
<g>
	<path fill="#CC5E69" d="M191.375,70.8c0,0,0.066,0.197,0.19,0.566c0.107,0.37,0.299,0.911,0.477,1.602
		c0.245,0.669,0.555,1.437,0.89,2.296c0.419,0.857,0.801,1.824,1.395,2.792c0.133,0.245,0.27,0.495,0.409,0.75
		c0.161,0.242,0.326,0.488,0.493,0.738c0.338,0.495,0.635,1.026,1.054,1.503c0.747,1.004,1.613,1.989,2.575,2.917
		c0.495,0.452,0.958,0.942,1.511,1.35c0.525,0.438,1.063,0.863,1.646,1.241c0.287,0.194,0.564,0.402,0.857,0.589
		c0.307,0.167,0.609,0.338,0.908,0.518c0.585,0.384,1.231,0.656,1.863,0.954c1.259,0.612,2.595,1.031,3.924,1.411
		c0.667,0.178,1.35,0.269,2.014,0.435c0.672,0.115,1.348,0.149,2.012,0.257l0.125,0.018l0.063,0.008l0.016,0.002
		c0.106-0.001-0.128,0.004-0.097,0.004l0.035,0.001l0.28,0.007l0.556,0.015c0.369,0.008,0.735,0.021,1.097,0.041
		c0.641-0.005,1.215-0.048,1.822-0.042c0.627-0.063,1.236-0.123,1.826-0.182c0.593-0.101,1.167-0.199,1.716-0.292
		c1.092-0.249,2.123-0.486,3.012-0.795c0.919-0.253,1.677-0.596,2.346-0.83c0.649-0.283,1.16-0.505,1.507-0.657
		c0.361-0.15,0.554-0.231,0.554-0.231s-0.121,0.167-0.348,0.481c-0.245,0.295-0.561,0.796-1.067,1.322
		c-0.52,0.504-1.112,1.211-1.945,1.822c-0.796,0.675-1.792,1.303-2.924,1.947c-0.58,0.285-1.195,0.574-1.841,0.868
		c-0.661,0.241-1.353,0.476-2.076,0.716c-0.756,0.185-1.578,0.363-2.37,0.516c-0.359,0.053-0.722,0.1-1.088,0.141l-0.553,0.066
		l-0.278,0.033l-0.419,0.013c-0.832,0.013-1.685,0.035-2.544-0.018c-0.855-0.095-1.735-0.151-2.599-0.333
		c-1.735-0.338-3.466-0.878-5.102-1.63c-0.809-0.397-1.625-0.777-2.372-1.277c-0.382-0.233-0.759-0.475-1.13-0.72
		c-0.36-0.262-0.702-0.545-1.05-0.817c-0.342-0.279-0.699-0.537-1.02-0.832c-0.31-0.308-0.618-0.614-0.925-0.919
		c-0.632-0.587-1.163-1.255-1.677-1.913c-0.54-0.634-0.966-1.34-1.389-2.016c-0.443-0.662-0.766-1.378-1.094-2.058
		c-0.344-0.67-0.581-1.369-0.809-2.036c-0.11-0.333-0.219-0.661-0.326-0.983c-0.075-0.331-0.149-0.656-0.222-0.974
		c-0.323-1.256-0.386-2.451-0.468-3.476c-0.018-1.055,0.057-1.975,0.114-2.689c0.107-0.706,0.244-1.264,0.313-1.643
		C191.33,71.003,191.375,70.8,191.375,70.8z"/>
</g>
<g>
	<path fill="#CC5E69" d="M187.059,205.389c0,0-0.623,0.503-1.712,1.385c-0.645,0.454-1.503,1.052-2.452,1.632
		c-0.966,0.505-2.025,1.119-3.279,1.575c-0.308,0.124-0.622,0.25-0.941,0.378c-0.33,0.1-0.667,0.202-1.008,0.306
		c-0.686,0.199-1.383,0.43-2.132,0.546c-1.474,0.315-3.056,0.5-4.684,0.511c-0.815-0.001-1.64,0.015-2.471-0.097
		c-0.414-0.042-0.831-0.083-1.25-0.125c-0.417-0.057-0.83-0.154-1.246-0.231c-0.415-0.085-0.833-0.157-1.246-0.256l-1.225-0.365
		c-0.825-0.214-1.611-0.559-2.398-0.881c-1.569-0.659-3.036-1.525-4.394-2.472c-0.679-0.472-1.289-1.029-1.919-1.53
		c-0.602-0.537-1.143-1.126-1.697-1.671c-0.576-0.621-0.97-1.164-1.45-1.733c-0.439-0.608-0.851-1.237-1.253-1.826
		c-0.343-0.618-0.676-1.22-0.998-1.801c-0.268-0.605-0.526-1.19-0.774-1.752c-0.42-1.151-0.779-2.209-0.979-3.179
		c-0.266-0.951-0.327-1.815-0.449-2.507c-0.087-0.698-0.09-1.254-0.123-1.627c-0.023-0.374-0.035-0.574-0.035-0.574
		s0.034,0.197,0.098,0.568c0.074,0.368,0.136,0.915,0.298,1.592c0.197,0.67,0.347,1.503,0.709,2.402
		c0.296,0.918,0.759,1.904,1.279,2.958c0.295,0.508,0.602,1.037,0.92,1.585c0.364,0.514,0.74,1.046,1.126,1.593
		c0.428,0.498,0.867,1.009,1.316,1.532c0.508,0.483,1.062,1.075,1.56,1.497c0.57,0.444,1.119,0.928,1.72,1.356
		c0.628,0.39,1.227,0.833,1.885,1.189c1.315,0.713,2.697,1.336,4.138,1.76c0.723,0.205,1.434,0.434,2.174,0.536l1.091,0.201
		c0.366,0.045,0.734,0.064,1.097,0.098c0.364,0.025,0.724,0.074,1.084,0.082c0.361-0.004,0.719-0.009,1.076-0.014
		c0.711,0.022,1.409-0.076,2.091-0.149c1.362-0.16,2.656-0.46,3.834-0.854c0.602-0.156,1.151-0.418,1.688-0.639
		c0.267-0.113,0.53-0.224,0.788-0.333c0.246-0.134,0.487-0.266,0.724-0.395c0.966-0.469,1.751-1.068,2.471-1.541
		c0.655-0.522,1.155-0.951,1.622-1.344c0.986-0.996,1.55-1.564,1.55-1.564L187.059,205.389z"/>
</g>
<path fill="#FF8788" d="M276.44,32.538c11.627,0,21.606,7.058,25.887,17.124c3.974-2.045,8.476-3.208,13.252-3.208
	c14.244,0,26.083,10.28,28.521,23.824c1.245-0.405,2.568-0.631,3.947-0.631c7.044,0,12.755,5.713,12.755,12.757
	c0,1.75-0.353,3.417-0.989,4.935c11.124,3.967,15.826,17.134,11.121,27.877c8.68,3.542,14.804,12.056,14.804,22.009
	c0,4.196-1.099,8.131-3.004,11.553c6.849,6.593,11.12,15.85,11.12,26.11c0,11.842-5.683,22.355-14.467,28.969
	c2.581,3.547,4.125,7.902,4.125,12.625c0,9.402-6.045,17.372-14.447,20.294c0.282,1.749,0.436,3.543,0.436,5.374
	c0,18.413-14.927,33.339-33.341,33.339c-3.753,0-7.353-0.631-10.72-1.77c-7.223,12.166-20.489,20.326-35.666,20.326
	c-22.896,0-41.458-18.563-41.458-41.461V60.66C248.316,45.127,260.908,32.538,276.44,32.538z"/>
<path fill="#CC5E69" d="M342.124,142.205c-3.174,6.407-9.789,10.91-17.316,10.91c-5.392,0-10.317-2.313-13.849-5.973
	c-0.149,0.372-0.294,0.746-0.458,1.112c-1.759,3.938-5.34,6.74-7.004,10.679c-0.797,1.891,5.275,3.819,6.842,4.258
	c3.861,1.082,7.562,1.325,11.438,1.03c2.926-2.24,6.477-3.677,10.313-3.951c0.405-0.436,0.876-0.843,1.447-1.207
	c5.355-3.412,8.186-10.198,8.594-16.386C342.124,142.521,342.119,142.362,342.124,142.205z"/>
<path fill="#CC5E69" d="M333.411,198.854c-6.383,0-12.114-3.243-15.647-8.133c-0.341,3.553-0.671,7.221-1.815,10.541
	c-0.456,1.322-1.131,2.445-1.935,3.451c0.042,0.023,0.086,0.042,0.13,0.065c5.948,3.355,13.903,6.388,20.786,3.913
	c3.1-1.114,6.897-3.207,9.151-5.674c1.814-1.987,3.013-4.645,4.279-7.128c-0.054-0.742,0.033-1.496,0.308-2.227
	c0.382-1.002,0.398-2.072,0.739-3.07c0.103-0.302,0.223-0.594,0.34-0.889C346.301,195.158,340.231,198.854,333.411,198.854z"/>
<path fill="#CC5E69" d="M393.854,174.888c0-5.871-1.401-11.408-3.883-16.31c0.152,1.363,0.235,2.743,0.235,4.141
	c0,14.148-7.9,26.721-19.459,33.506c3.083,3.258,5.007,7.621,5.007,12.375c0,9.872-8.235,18.108-18.105,18.108
	c-0.071,0-0.14-0.012-0.208-0.012c-1.247,7.808-8.127,13.937-16.24,13.937c-8.258,0-15.243-6.346-16.306-14.352
	c-1.535-1.096-2.879-2.446-3.969-3.981c-1.088-0.672-2.089-1.47-2.997-2.366c-0.869-0.289-1.706-0.65-2.508-1.074
	c2.404,5.291,3.76,11.127,3.76,17.238c0,23.163-19.327,42.488-42.487,42.488c-8.9,0-17.228-2.861-24.116-7.689
	c6.764,13.712,20.874,23.146,37.196,23.146c15.177,0,28.443-8.158,35.666-20.324c3.367,1.139,6.967,1.77,10.72,1.77
	c18.414,0,33.341-14.926,33.341-33.339c0-1.831-0.153-3.625-0.436-5.374c8.402-2.922,14.447-10.892,14.447-20.294
	c0-4.723-1.544-9.078-4.125-12.625C388.172,197.243,393.854,186.73,393.854,174.888z"/>
<g opacity="0.3">
	<path fill="#C94B59" d="M331.333,51.14c-1.17-0.761-2.386-1.447-3.664-2.036c0.237,0.857,0.445,1.73,0.604,2.617
		C329.244,51.406,330.272,51.215,331.333,51.14z"/>
</g>
<path fill="none" stroke="#FF6A6B" stroke-width="4.0217" stroke-miterlimit="10" d="M369.065,236.775
	c0.282,1.749,0.436,3.543,0.436,5.374c0,18.413-14.927,33.339-33.341,33.339c-3.753,0-7.353-0.631-10.72-1.77"/>
<g>
	<path fill="#FF6A6B" d="M248.316,60.66c0,0,0.038,1.221,0.109,3.509c0.062,2.288,0.196,5.645,0.281,9.917
		c0.099,4.272,0.219,9.459,0.356,15.409c0.142,5.95,0.301,12.663,0.406,19.986c0.107,7.323,0.223,15.257,0.346,23.648
		c0.086,8.392,0.176,17.24,0.27,26.395c0.052,9.154,0.167,18.613,0.172,28.225c0.023,9.612,0.047,19.376,0.07,29.141
		c-0.023,9.764-0.047,19.528-0.07,29.14c-0.002,2.387-0.003,4.764-0.005,7.129c0.017,0.586,0.008,1.209,0.045,1.764l0.114,1.654
		c0.126,1.12,0.253,2.243,0.464,3.348c0.794,4.426,2.332,8.667,4.51,12.47c4.313,7.649,11.039,13.505,18.403,16.822
		c7.372,3.338,15.345,4.181,22.364,3.18c7.062-1.013,13.222-3.772,17.968-7.168c4.78-3.392,8.177-7.356,10.499-10.884
		c2.17-3.623,3.809-6.597,4.957-8.564c1.139-1.985,1.746-3.045,1.746-3.045s-0.545,1.093-1.566,3.142
		c-0.511,1.024-1.142,2.288-1.882,3.773c-0.767,1.483-1.529,3.2-2.624,5.089c-2.195,3.696-5.475,7.92-10.255,11.659
		c-4.74,3.739-11.044,6.968-18.483,8.255c-3.711,0.649-7.669,0.842-11.718,0.429c-4.057-0.395-8.197-1.438-12.202-3.129
		c-7.992-3.372-15.473-9.504-20.267-17.792c-2.431-4.107-4.183-8.716-5.123-13.548c-0.248-1.208-0.407-2.431-0.562-3.662
		l-0.156-1.895c-0.048-0.629-0.047-1.197-0.073-1.801c-0.044-2.478-0.022-4.802-0.037-7.226c-0.023-9.612-0.047-19.376-0.07-29.14
		c0.023-9.765,0.047-19.529,0.07-29.141c0.005-9.612,0.12-19.071,0.172-28.225c0.094-9.154,0.184-18.003,0.27-26.395
		c0.123-8.391,0.239-16.325,0.346-23.648c0.105-7.323,0.264-14.036,0.406-19.986c0.137-5.95,0.257-11.137,0.356-15.409
		c0.085-4.272,0.219-7.628,0.281-9.917C248.278,61.88,248.316,60.66,248.316,60.66z"/>
</g>
<path fill="none" stroke="#FF6A6B" stroke-width="4.0217" stroke-miterlimit="10" d="M382.734,148.778
	c6.849,6.593,11.12,15.85,11.12,26.11c0,11.842-5.683,22.355-14.467,28.969"/>
<path fill="none" stroke="#FF6A6B" stroke-width="3.2174" stroke-miterlimit="10" d="M359.813,87.338
	c8.301,2.463,16.768,16.383,11.121,27.877"/>
<g>
	<path fill="#FF6A6B" d="M301.512,47.823c0,0,0.785-0.314,2.159-0.863c0.354-0.131,0.7-0.302,1.162-0.442
		c0.472-0.132,0.981-0.274,1.526-0.427c0.543-0.148,1.121-0.305,1.73-0.471c0.608-0.125,1.246-0.197,1.91-0.302
		c0.666-0.087,1.353-0.223,2.071-0.276c0.722-0.019,1.467-0.039,2.233-0.059c0.382-0.009,0.769-0.018,1.16-0.027l0.074-0.001
		l0.036-0.001l0.103,0.004l0.141,0.011l0.281,0.023l0.567,0.046c0.77,0.078,1.51,0.084,2.372,0.259
		c1.699,0.243,3.356,0.654,5.005,1.184c0.811,0.311,1.648,0.56,2.442,0.928c0.786,0.384,1.604,0.706,2.361,1.145
		c1.537,0.84,2.997,1.801,4.34,2.862c1.342,1.065,2.561,2.225,3.65,3.423c0.518,0.624,1.061,1.207,1.524,1.83
		c0.45,0.632,0.891,1.251,1.319,1.854c0.376,0.635,0.742,1.252,1.096,1.849c0.35,0.598,0.605,1.221,0.894,1.792
		c0.296,0.569,0.521,1.14,0.719,1.689c0.202,0.547,0.41,1.059,0.576,1.549c0.272,1.002,0.546,1.862,0.705,2.587
		c0.273,1.456,0.43,2.289,0.43,2.289s-0.217-0.816-0.597-2.245c-0.211-0.706-0.547-1.54-0.887-2.503
		c-0.199-0.472-0.442-0.96-0.681-1.481c-0.232-0.523-0.494-1.065-0.825-1.6c-0.324-0.538-0.615-1.123-0.999-1.678
		c-0.386-0.553-0.784-1.124-1.193-1.711c-0.457-0.55-0.925-1.114-1.404-1.691c-0.49-0.565-1.055-1.085-1.591-1.644
		c-1.127-1.066-2.365-2.08-3.704-2.99c-1.341-0.906-2.777-1.703-4.264-2.377c-0.733-0.357-1.52-0.596-2.269-0.899
		c-0.757-0.287-1.551-0.455-2.313-0.687c-1.552-0.375-3.107-0.632-4.562-0.734c-0.701-0.104-1.527-0.06-2.278-0.079l-0.569-0.004
		l-0.282-0.002l-0.141-0.001h-0.018c0.024,0.001-0.079-0.002,0.051,0.001l-0.033,0.003l-0.066,0.007
		c-0.353,0.036-0.7,0.072-1.043,0.106c-0.684,0.068-1.349,0.134-1.991,0.198c-0.638,0.095-1.241,0.268-1.825,0.388
		c-0.578,0.137-1.146,0.24-1.66,0.386c-0.494,0.176-0.963,0.343-1.403,0.5c-0.439,0.152-0.85,0.295-1.229,0.427
		c-0.384,0.141-0.764,0.36-1.093,0.511c-1.329,0.65-2.089,1.021-2.089,1.021L301.512,47.823z"/>
</g>
<g>
	<path fill="#FF6A6B" d="M304.561,60.66c0,0-0.234-1.082-0.675-3.109c-0.532-1.942-1.341-4.787-3.099-8.007
		c-0.447-0.798-0.868-1.66-1.473-2.468c-0.28-0.417-0.58-0.833-0.858-1.274c-0.325-0.41-0.657-0.828-0.997-1.255
		c-0.63-0.892-1.503-1.633-2.273-2.514c-0.428-0.4-0.884-0.786-1.335-1.191c-0.229-0.199-0.449-0.411-0.689-0.603
		c-0.25-0.181-0.501-0.363-0.755-0.547c-1.984-1.525-4.359-2.801-7-3.711c-2.638-0.903-5.552-1.512-8.62-1.473
		c-3.188,0.027-6.196,0.554-9.3,1.713c-3.068,1.142-6.022,2.921-8.573,5.287c-5.13,4.705-8.495,11.834-8.387,19.499
		c-0.018,8.21-0.035,16.694-0.053,25.315c-0.047,8.621-0.095,17.378-0.143,26.136c-0.163,17.516-0.327,35.031-0.479,51.452
		c-0.143,16.421-0.452,31.747-0.628,44.884c-0.184,13.137-0.474,24.084-0.613,31.747c-0.187,7.663-0.293,12.042-0.293,12.042
		s-0.106-4.379-0.293-12.042c-0.139-7.663-0.429-18.61-0.613-31.747c-0.176-13.137-0.485-28.463-0.628-44.884
		c-0.153-16.421-0.316-33.937-0.479-51.452c-0.048-8.758-0.096-17.516-0.143-26.136c-0.018-8.621-0.036-17.105-0.053-25.315
		c0.015-1.052,0.094-2.19,0.144-3.274c0.13-1.088,0.31-2.168,0.48-3.242c0.277-1.051,0.508-2.113,0.842-3.136
		c0.393-1.002,0.702-2.035,1.169-2.992c1.758-3.883,4.296-7.286,7.294-9.998c2.997-2.718,6.451-4.746,10.026-6.03
		c3.545-1.281,7.401-1.805,10.775-1.731c3.514,0.045,6.843,0.814,9.824,1.919c2.987,1.112,5.645,2.63,7.852,4.405
		c0.281,0.216,0.56,0.43,0.836,0.642c0.267,0.223,0.512,0.467,0.766,0.697c0.499,0.469,1,0.918,1.47,1.381
		c0.442,0.491,0.869,0.98,1.282,1.463c0.432,0.468,0.797,0.973,1.144,1.477c0.353,0.498,0.697,0.985,1.035,1.462
		c0.3,0.502,0.56,1.013,0.83,1.501c0.569,0.96,0.944,1.959,1.341,2.881c1.431,3.771,1.642,6.945,1.647,9.054
		c-0.041,1.041-0.146,1.826-0.206,2.362C304.594,60.384,304.561,60.66,304.561,60.66z"/>
</g>
<g>
	<path fill="#FF6A6B" d="M353.692,94.292c0,0,0.128-0.126,0.367-0.363c0.236-0.233,0.614-0.564,1.04-1.004
		c0.19-0.228,0.401-0.481,0.631-0.756c0.112-0.132,0.229-0.27,0.349-0.413c0.108-0.159,0.22-0.324,0.334-0.494
		c0.493-0.647,0.892-1.47,1.328-2.322c0.169-0.447,0.346-0.913,0.528-1.395c0.124-0.491,0.252-0.999,0.384-1.521
		c0.066-0.526,0.136-1.066,0.205-1.618c-0.001-0.524-0.003-1.059-0.005-1.604c-0.111-1.449-0.336-2.28-0.72-3.467
		c-0.392-1.104-0.972-2.153-1.678-3.102c-0.696-0.957-1.535-1.818-2.479-2.514c-0.945-0.693-1.961-1.264-3.018-1.686
		c-1.065-0.381-2.147-0.652-3.215-0.771l-0.1-0.016l-0.024-0.004l-0.013-0.002c-0.071,0.001,0.084-0.003,0.063-0.003l-0.057-0.002
		l-0.225-0.01l-0.443-0.019c-0.284-0.008-0.607-0.036-0.823-0.017c-0.478,0.017-0.947,0.01-1.432,0.092
		c-0.484,0.036-0.938,0.134-1.375,0.229c-0.449,0.067-0.849,0.214-1.241,0.326c-0.401,0.098-0.733,0.281-1.077,0.396
		c-0.344,0.116-0.639,0.265-0.907,0.401c-0.55,0.258-0.971,0.497-1.254,0.67c-0.294,0.166-0.451,0.254-0.451,0.254
		s0.103-0.147,0.294-0.423c0.2-0.271,0.477-0.697,0.934-1.143c0.431-0.478,1.017-1.01,1.767-1.527
		c0.749-0.517,1.654-1.064,2.741-1.443c0.523-0.225,1.143-0.362,1.785-0.518c0.342-0.093,0.597-0.106,0.896-0.156l0.439-0.063
		l0.222-0.032l0.056-0.008l0.138-0.005l0.126-0.005c1.343-0.083,2.784,0.041,4.24,0.395c1.443,0.391,2.888,1.02,4.204,1.903
		c1.335,0.861,2.494,2.022,3.462,3.311c0.943,1.307,1.714,2.755,2.149,4.286c0.445,1.443,0.639,3.315,0.566,4.495l0.002,0.151
		l-0.008,0.07l-0.017,0.139l-0.032,0.276l-0.065,0.547c-0.045,0.362-0.09,0.72-0.149,1.07c-0.198,0.688-0.365,1.365-0.588,1.998
		c-0.284,0.615-0.539,1.215-0.829,1.769c-0.344,0.52-0.677,1.023-0.996,1.505c-0.376,0.438-0.743,0.847-1.097,1.223
		c-0.347,0.381-0.768,0.657-1.109,0.954c-0.176,0.142-0.346,0.279-0.511,0.412c-0.176,0.123-0.363,0.225-0.535,0.325
		c-0.341,0.194-0.654,0.372-0.938,0.532c-0.561,0.284-1.042,0.403-1.352,0.532C353.862,94.234,353.692,94.292,353.692,94.292z"/>
</g>
<g>
	<path fill="#FF6A6B" d="M377.889,155.521c0,0,0.518-0.777,1.459-2.092c0.39-0.707,0.913-1.488,1.407-2.455
		c0.236-0.487,0.488-1.006,0.754-1.553c0.241-0.555,0.459-1.153,0.704-1.761c0.271-0.598,0.419-1.273,0.614-1.947
		c0.097-0.336,0.194-0.678,0.294-1.025c0.066-0.355,0.135-0.715,0.203-1.081c0.072-0.362,0.145-0.729,0.219-1.1
		c0.055-0.375,0.076-0.759,0.117-1.143c0.04-0.383,0.08-0.77,0.12-1.161c0.038-0.39,0.012-0.791,0.021-1.189
		c0.003-0.398,0.006-0.8,0.009-1.205l0.004-0.152l0.001-0.038V137.6c0.004,0.179,0,0.038,0.001,0.073l-0.007-0.082l-0.027-0.328
		l-0.055-0.659c-0.037-0.441-0.073-0.884-0.11-1.33c-0.062-0.412-0.143-0.786-0.209-1.182c-0.077-0.393-0.122-0.781-0.22-1.18
		l-0.332-1.211c-0.175-0.822-0.52-1.595-0.803-2.386c-0.264-0.8-0.697-1.529-1.03-2.298c-0.408-0.73-0.827-1.456-1.259-2.165
		l-0.723-1.009c-0.237-0.337-0.456-0.688-0.734-0.987c-0.544-0.608-1.017-1.275-1.605-1.814c-0.563-0.564-1.106-1.138-1.713-1.615
		c-0.584-0.506-1.162-1-1.781-1.406c-0.6-0.437-1.187-0.863-1.804-1.197c-0.605-0.352-1.174-0.75-1.778-1.002
		c-0.595-0.275-1.161-0.568-1.718-0.802c-0.567-0.219-1.105-0.427-1.61-0.622c-1.026-0.359-1.959-0.584-2.724-0.832
		c-1.554-0.304-2.477-0.526-2.477-0.526s0.908-0.131,2.558-0.271c0.813,0.033,1.83-0.021,2.978,0.126
		c0.576,0.083,1.189,0.171,1.836,0.264c0.646,0.114,1.298,0.334,2,0.513c0.71,0.162,1.396,0.472,2.134,0.742
		c0.747,0.256,1.458,0.646,2.201,1.034c0.762,0.361,1.471,0.849,2.204,1.343c0.761,0.46,1.43,1.07,2.142,1.657
		c1.405,1.195,2.68,2.635,3.835,4.203c0.537,0.81,1.08,1.633,1.559,2.495c0.413,0.895,0.924,1.754,1.249,2.692
		c0.328,0.937,0.709,1.855,0.911,2.825l0.349,1.435c0.098,0.487,0.147,1.002,0.22,1.499c0.061,0.497,0.141,1.008,0.18,1.484
		c0.008,0.447,0.016,0.892,0.023,1.334l0.013,0.661l0.006,0.329l0.001,0.082l0.003,0.114l-0.002,0.022l-0.003,0.044l-0.015,0.176
		c-0.042,0.467-0.085,0.93-0.127,1.39c-0.052,0.458-0.068,0.914-0.151,1.358c-0.092,0.442-0.184,0.881-0.274,1.314
		c-0.097,0.431-0.176,0.86-0.287,1.275c-0.136,0.409-0.27,0.813-0.401,1.212c-0.136,0.395-0.269,0.785-0.4,1.169
		c-0.155,0.375-0.33,0.736-0.499,1.09c-0.348,0.704-0.642,1.396-1.049,2c-0.39,0.61-0.717,1.216-1.107,1.741
		c-0.409,0.509-0.797,0.992-1.161,1.446c-0.729,0.901-1.529,1.564-2.098,2.143c-0.623,0.517-1.15,0.88-1.493,1.147
		C378.076,155.384,377.889,155.521,377.889,155.521z"/>
</g>
<g>
	<path fill="#FF6A6B" d="M361.273,238.252c0,0,0.23-0.052,0.663-0.148c0.428-0.099,1.078-0.205,1.864-0.408
		c0.777-0.249,1.698-0.458,2.727-0.89c0.514-0.203,1.066-0.382,1.606-0.684c0.54-0.298,1.148-0.495,1.707-0.869
		c1.152-0.664,2.34-1.466,3.479-2.434c0.283-0.242,0.571-0.488,0.861-0.737c0.287-0.251,0.542-0.547,0.818-0.821
		c0.563-0.539,1.068-1.152,1.573-1.778c0.27-0.299,0.496-0.635,0.723-0.974c0.232-0.333,0.467-0.669,0.702-1.007
		c0.202-0.358,0.405-0.719,0.609-1.082c0.207-0.359,0.425-0.714,0.581-1.104l0.522-1.144c0.171-0.384,0.28-0.793,0.434-1.186
		c0.322-0.782,0.487-1.616,0.7-2.435c0.189-0.823,0.301-1.667,0.415-2.501l0.078-1.263l0.023-0.315l0.013-0.157l0.006-0.079
		l0.003-0.04l0.001-0.02c0.003,0.137,0.001,0.025,0.002,0.051l-0.013-0.689c0.001-0.974-0.083-1.687-0.151-2.495
		c-0.061-0.407-0.121-0.812-0.181-1.214c-0.084-0.398-0.167-0.794-0.249-1.187c-0.374-1.562-0.895-3.041-1.514-4.403
		c-0.647-1.346-1.367-2.583-2.124-3.679c-0.798-1.059-1.563-2.035-2.34-2.818c-0.377-0.406-0.754-0.761-1.11-1.085
		c-0.35-0.333-0.677-0.64-0.996-0.884c-0.621-0.518-1.127-0.917-1.488-1.166c-0.354-0.267-0.543-0.41-0.543-0.41
		s0.226,0.071,0.647,0.204c0.424,0.136,1.051,0.333,1.807,0.692c0.391,0.159,0.801,0.374,1.249,0.614
		c0.461,0.222,0.922,0.521,1.413,0.848c1.003,0.631,2.053,1.475,3.113,2.501c1.043,1.042,2.091,2.275,3.022,3.717
		c0.904,1.455,1.706,3.101,2.296,4.898c0.135,0.453,0.287,0.906,0.406,1.372c0.102,0.471,0.204,0.944,0.307,1.421
		c0.167,0.972,0.313,2.069,0.335,2.93l0.038,0.688l-0.02,0.822l-0.062,1.511c-0.118,1.001-0.24,2.016-0.461,3.007
		c-0.262,0.983-0.484,1.977-0.876,2.915c-0.184,0.471-0.337,0.955-0.56,1.406l-0.676,1.344c-0.434,0.9-1.032,1.699-1.554,2.52
		c-0.624,0.751-1.16,1.556-1.849,2.209c-0.658,0.677-1.301,1.344-2.027,1.89c-0.355,0.281-0.687,0.58-1.048,0.832
		c-0.368,0.243-0.73,0.483-1.089,0.72c-1.435,0.936-2.92,1.592-4.307,2.089c-1.392,0.487-2.703,0.805-3.88,0.939
		c-1.152,0.226-2.22,0.165-3.047,0.199c-0.829,0.001-1.468-0.128-1.909-0.156C361.508,238.281,361.273,238.252,361.273,238.252z"/>
</g>
<g>
	<path fill="#FF6A6B" d="M250.325,252.116c0,0,0.049,0.671,0.142,1.93c0.046,0.629,0.103,1.405,0.17,2.317
		c0.15,0.833,0.323,1.79,0.517,2.861c0.133,1.064,0.549,2.262,0.877,3.555c0.286,1.316,0.91,2.64,1.435,4.095
		c0.242,0.737,0.645,1.434,1.004,2.173c0.382,0.729,0.716,1.508,1.16,2.253c0.937,1.461,1.834,3.053,3.062,4.513
		c2.323,2.993,5.237,5.968,8.828,8.414c3.563,2.472,7.736,4.47,12.29,5.704c2.269,0.654,4.65,1.018,7.065,1.247
		c0.606,0.029,1.216,0.059,1.826,0.088l0.917,0.046l0.459,0.024l0.058,0.003c-0.254,0.007-0.035,0-0.075,0.001l0.122-0.007
		l0.246-0.013c1.308-0.071,2.622-0.144,3.941-0.216c1.181-0.186,2.366-0.372,3.555-0.559c1.208-0.304,2.42-0.608,3.633-0.913
		c1.191-0.385,2.361-0.846,3.548-1.26c1.156-0.49,2.275-1.072,3.419-1.6c4.458-2.348,8.445-5.584,11.657-9.375
		c3.233-3.776,5.677-8.118,7.22-12.602c1.568-4.477,2.175-9.118,2.205-13.44c-0.006-0.578-0.013-1.152-0.02-1.723
		c-0.039-0.523-0.077-1.042-0.116-1.557c-0.04-1.021-0.242-2.075-0.365-3.093c-0.184-1.013-0.376-2.01-0.578-2.987
		c-0.258-0.961-0.438-1.932-0.756-2.839c-1.146-3.668-2.613-6.932-4.252-9.649c-1.595-2.749-3.321-4.958-4.805-6.744
		c-1.537-1.734-2.833-3.052-3.755-3.913c-0.932-0.861-1.429-1.32-1.429-1.32s0.595,0.327,1.711,0.941
		c1.108,0.633,2.692,1.65,4.576,3.156c1.859,1.527,3.991,3.574,6.093,6.25c2.058,2.695,4.112,6.013,5.624,9.973
		c0.771,1.97,1.434,4.089,1.896,6.334c0.188,1.136,0.447,2.252,0.554,3.477c0.067,0.604,0.135,1.212,0.202,1.825
		c0.029,0.569,0.06,1.143,0.089,1.721c0.108,4.918-0.514,10.074-2.18,15.172c-1.649,5.084-4.319,10.039-7.905,14.382
		c-3.591,4.336-8.097,8.031-13.145,10.741c-1.292,0.617-2.563,1.283-3.877,1.849c-1.345,0.49-2.677,1.019-4.031,1.464
		c-1.384,0.357-2.754,0.738-4.144,1.063c-1.448,0.215-2.893,0.43-4.331,0.644c-1.326,0.068-2.646,0.136-3.961,0.203l-0.245,0.013
		l-0.123,0.006l-0.199,0.006l-0.065-0.004l-0.521-0.025l-1.042-0.053c-0.694-0.036-1.386-0.073-2.076-0.109
		c-2.746-0.265-5.455-0.695-8.037-1.444c-5.182-1.43-9.88-3.801-13.876-6.646c-0.972-0.751-1.965-1.449-2.873-2.22
		c-0.876-0.809-1.739-1.604-2.588-2.387c-0.818-0.813-1.534-1.698-2.282-2.521c-0.768-0.808-1.39-1.708-2.019-2.572
		c-1.324-1.683-2.296-3.492-3.289-5.162c-0.473-0.849-0.831-1.73-1.232-2.558c-0.379-0.839-0.798-1.631-1.052-2.462
		c-0.55-1.642-1.186-3.138-1.474-4.612c-0.329-1.466-0.747-2.756-0.853-4.044c-0.16-1.257-0.302-2.379-0.426-3.354
		c-0.025-0.915-0.047-1.692-0.064-2.323c-0.035-1.262-0.054-1.935-0.054-1.935L250.325,252.116z"/>
</g>
<g>
	<path fill="#FF6A6B" d="M341.943,141.687c0,0,0.004,0.801,0.01,2.202c-0.056,0.698-0.127,1.558-0.255,2.541
		c-0.2,0.964-0.368,2.077-0.773,3.234c-0.09,0.293-0.182,0.593-0.275,0.898c-0.121,0.295-0.245,0.596-0.37,0.902
		c-0.258,0.61-0.5,1.258-0.859,1.869c-0.643,1.261-1.45,2.536-2.424,3.753c-0.493,0.604-0.982,1.236-1.572,1.788l-0.859,0.866
		c-0.298,0.28-0.625,0.531-0.939,0.8c-0.32,0.262-0.635,0.538-0.967,0.792l-1.039,0.709c-0.682,0.503-1.436,0.89-2.184,1.299
		c-1.502,0.804-3.113,1.404-4.742,1.873c-0.814,0.234-1.647,0.36-2.465,0.54c-0.822,0.133-1.646,0.185-2.458,0.274l-0.151,0.015
		l-0.076,0.007l-0.02,0.002l-0.106-0.001l-0.035,0l-0.279,0.002l-0.556,0.005c-0.369,0.003-0.734,0.007-1.096,0.01
		c-0.787-0.042-1.61-0.126-2.39-0.196c-0.746-0.133-1.471-0.262-2.172-0.387c-0.689-0.188-1.356-0.369-1.996-0.543
		c-1.255-0.43-2.405-0.859-3.371-1.358c-1-0.438-1.784-0.979-2.47-1.365c-0.665-0.416-1.149-0.8-1.498-1.038
		c-0.343-0.247-0.525-0.378-0.525-0.378l3.678-4.263c0,0,0.131,0.116,0.376,0.334c0.251,0.211,0.593,0.56,1.076,0.941
		c0.503,0.352,1.068,0.862,1.821,1.287c0.72,0.486,1.596,0.92,2.564,1.385c0.501,0.198,1.021,0.405,1.562,0.619
		c0.559,0.165,1.137,0.336,1.73,0.511c0.585,0.118,1.187,0.239,1.802,0.362c0.359,0.036,0.723,0.073,1.09,0.11l0.553,0.056
		l0.278,0.028l0.035,0.003c0.085,0.003-0.097-0.001-0.072-0.001h0.016l0.064,0l0.128,0c0.685-0.006,1.39,0.034,2.099-0.001
		c0.703-0.081,1.432-0.102,2.149-0.227c1.435-0.249,2.891-0.608,4.283-1.168c0.692-0.287,1.402-0.551,2.051-0.932l0.998-0.528
		c0.321-0.194,0.627-0.411,0.94-0.614c0.31-0.21,0.632-0.403,0.929-0.626l0.863-0.699c0.596-0.442,1.102-0.969,1.616-1.475
		c1.02-1.019,1.901-2.12,2.635-3.236c0.403-0.538,0.694-1.12,1.003-1.671c0.152-0.278,0.302-0.551,0.448-0.819
		c0.121-0.281,0.239-0.556,0.355-0.826c0.512-1.067,0.789-2.116,1.09-3.035c0.226-0.931,0.39-1.758,0.521-2.445
		C341.859,142.483,341.943,141.687,341.943,141.687z"/>
</g>
<g>
	<path fill="#CC5E69" d="M305.257,70.8c0,0,0.046,0.203,0.132,0.582c0.07,0.379,0.206,0.937,0.313,1.643
		c0.058,0.715,0.132,1.635,0.114,2.689c-0.082,1.025-0.146,2.22-0.468,3.476c-0.073,0.318-0.147,0.643-0.223,0.974
		c-0.106,0.321-0.215,0.649-0.325,0.982c-0.229,0.667-0.465,1.367-0.809,2.037c-0.328,0.679-0.651,1.396-1.095,2.058
		c-0.423,0.676-0.849,1.381-1.389,2.016c-0.514,0.657-1.045,1.326-1.677,1.913c-0.306,0.305-0.614,0.611-0.924,0.919
		c-0.322,0.295-0.679,0.553-1.021,0.832c-0.349,0.271-0.69,0.556-1.05,0.817c-0.371,0.245-0.748,0.486-1.13,0.719
		c-0.746,0.5-1.563,0.88-2.372,1.277c-1.636,0.751-3.366,1.292-5.102,1.629c-0.864,0.182-1.744,0.238-2.599,0.333
		c-0.86,0.053-1.714,0.031-2.545,0.018l-0.419-0.013l-0.278-0.033l-0.553-0.065c-0.366-0.041-0.729-0.088-1.088-0.141
		c-0.793-0.153-1.614-0.331-2.37-0.516c-0.723-0.241-1.415-0.475-2.076-0.716c-0.645-0.294-1.26-0.583-1.841-0.869
		c-1.133-0.645-2.127-1.272-2.924-1.947c-0.833-0.61-1.425-1.318-1.945-1.822c-0.506-0.526-0.822-1.026-1.066-1.322
		c-0.228-0.314-0.349-0.481-0.349-0.481s0.192,0.081,0.554,0.231c0.348,0.152,0.858,0.374,1.507,0.657
		c0.669,0.234,1.427,0.577,2.346,0.83c0.89,0.31,1.921,0.546,3.013,0.795c0.55,0.094,1.123,0.191,1.716,0.292
		c0.59,0.059,1.2,0.119,1.827,0.182c0.606-0.006,1.181,0.036,1.821,0.042c0.362-0.02,0.729-0.033,1.097-0.041l0.557-0.015
		l0.28-0.007l0.035-0.001c0.03,0-0.204-0.005-0.098-0.004l0.016-0.002l0.063-0.008l0.125-0.018c0.664-0.108,1.34-0.143,2.012-0.257
		c0.665-0.166,1.347-0.257,2.015-0.435c1.328-0.379,2.665-0.799,3.924-1.411c0.632-0.298,1.278-0.57,1.863-0.954
		c0.298-0.18,0.602-0.352,0.907-0.518c0.293-0.187,0.571-0.395,0.857-0.589c0.582-0.377,1.121-0.804,1.646-1.241
		c0.554-0.408,1.018-0.898,1.512-1.35c0.962-0.927,1.828-1.912,2.575-2.917c0.418-0.478,0.715-1.009,1.054-1.503
		c0.167-0.25,0.331-0.497,0.493-0.738c0.139-0.255,0.275-0.505,0.408-0.75c0.594-0.968,0.977-1.936,1.395-2.792
		c0.336-0.859,0.646-1.626,0.891-2.296c0.178-0.691,0.369-1.232,0.478-1.602C305.19,70.997,305.257,70.8,305.257,70.8z"/>
</g>
<g>
	<path fill="#FF6A6B" d="M313.35,201.211c0,0,0.563,0.569,1.55,1.564c0.467,0.393,0.968,0.821,1.622,1.344
		c0.72,0.472,1.505,1.071,2.471,1.541c0.236,0.129,0.478,0.26,0.724,0.395c0.258,0.109,0.521,0.22,0.788,0.333
		c0.537,0.222,1.086,0.484,1.688,0.64c1.179,0.394,2.472,0.694,3.834,0.854c0.683,0.073,1.38,0.172,2.091,0.149
		c0.356,0.005,0.716,0.01,1.076,0.014c0.36-0.008,0.72-0.056,1.083-0.082c0.363-0.034,0.732-0.053,1.098-0.098l1.091-0.201
		c0.741-0.102,1.451-0.331,2.175-0.536c1.441-0.424,2.822-1.048,4.138-1.761c0.657-0.356,1.257-0.799,1.885-1.189
		c0.601-0.428,1.149-0.911,1.72-1.356c0.498-0.422,1.053-1.014,1.56-1.497c0.449-0.523,0.889-1.035,1.315-1.532
		c0.387-0.547,0.764-1.079,1.127-1.593c0.318-0.548,0.625-1.077,0.92-1.585c0.521-1.053,0.983-2.039,1.279-2.958
		c0.362-0.899,0.514-1.731,0.71-2.402c0.161-0.678,0.225-1.224,0.298-1.592c0.064-0.371,0.099-0.568,0.099-0.568
		s-0.013,0.2-0.035,0.574c-0.033,0.374-0.036,0.929-0.123,1.627c-0.122,0.691-0.184,1.556-0.449,2.506
		c-0.2,0.97-0.559,2.028-0.979,3.179c-0.248,0.562-0.507,1.146-0.774,1.752c-0.322,0.582-0.655,1.183-0.998,1.801
		c-0.402,0.589-0.813,1.217-1.253,1.826c-0.479,0.569-0.873,1.112-1.45,1.733c-0.555,0.545-1.095,1.134-1.696,1.671
		c-0.631,0.5-1.24,1.058-1.919,1.53c-1.358,0.946-2.824,1.813-4.395,2.471c-0.787,0.322-1.572,0.667-2.397,0.881l-1.225,0.365
		c-0.413,0.099-0.831,0.17-1.246,0.256c-0.415,0.077-0.829,0.174-1.245,0.231c-0.419,0.042-0.835,0.083-1.25,0.125
		c-0.83,0.112-1.655,0.096-2.471,0.097c-1.628-0.011-3.209-0.197-4.684-0.511c-0.749-0.116-1.447-0.347-2.132-0.547
		c-0.343-0.104-0.679-0.205-1.009-0.305c-0.32-0.128-0.634-0.255-0.941-0.378c-1.254-0.456-2.313-1.07-3.279-1.575
		c-0.948-0.581-1.807-1.179-2.451-1.632c-1.09-0.881-1.713-1.385-1.713-1.385L313.35,201.211z"/>
</g>
<ellipse transform="matrix(0.9568 0.2909 -0.2909 0.9568 30.215 -39.2458)" fill="#FFFDFD" cx="147.124" cy="82.015" rx="3.372" ry="4.372"/>
<ellipse transform="matrix(0.9568 0.2906 -0.2906 0.9568 65.8388 -27.0139)" fill="#FFFDFD" cx="123.868" cy="208.155" rx="3.372" ry="4.373"/>
<ellipse transform="matrix(0.9569 0.2905 -0.2905 0.9569 54.6827 -81.8878)" fill="#FFFDFD" cx="303.141" cy="143.229" rx="3.372" ry="4.373"/>
<ellipse transform="matrix(0.9568 0.2909 -0.2909 0.9568 43.6437 -30.1591)" fill="#FFFDFD" cx="123.256" cy="131.707" rx="3.372" ry="10.38"/>
<ellipse transform="matrix(0.8523 0.5231 -0.5231 0.8523 57.5524 -100.3662)" fill="#FFFDFD" cx="206.49" cy="51.722" rx="4.29" ry="9.458"/>
<ellipse transform="matrix(0.8522 0.5232 -0.5232 0.8522 65.6249 -131.5009)" fill="#FFFDFD" cx="265.585" cy="50.414" rx="4.29" ry="9.458"/>
<g>
	<path fill="#CC5E69" d="M314.009,135.609c0,0,0.145,1.186,0.302,3.256c-0.012,1.038-0.021,2.345-0.16,3.833
		c-0.229,1.455-0.406,3.146-0.986,4.897c-0.126,0.445-0.254,0.9-0.385,1.363c-0.16,0.453-0.347,0.905-0.525,1.372
		c-0.366,0.93-0.736,1.903-1.266,2.83c-0.507,0.937-0.986,1.936-1.648,2.846c-0.633,0.929-1.249,1.911-2.036,2.782
		c-0.751,0.902-1.511,1.829-2.416,2.636c-0.438,0.42-0.878,0.842-1.321,1.266c-0.458,0.407-0.963,0.763-1.446,1.149
		c-0.493,0.375-0.977,0.769-1.484,1.13l-1.593,0.995c-1.047,0.699-2.195,1.225-3.329,1.777c-2.288,1.063-4.711,1.819-7.136,2.33
		c-1.209,0.266-2.441,0.36-3.641,0.522c-1.206,0.097-2.405,0.083-3.576,0.102l-0.219,0.002l-0.109,0.001l-0.149-0.003l-0.051-0.004
		l-0.41-0.036l-0.814-0.071c-0.54-0.05-1.075-0.1-1.604-0.149c-1.118-0.178-2.25-0.397-3.314-0.609
		c-1.031-0.297-2.023-0.589-2.976-0.887c-0.922-0.382-1.813-0.751-2.667-1.105c-1.661-0.805-3.131-1.619-4.332-2.497
		c-1.26-0.774-2.183-1.703-2.995-2.359c-0.788-0.693-1.315-1.345-1.71-1.734c-0.377-0.411-0.578-0.629-0.578-0.629
		s0.261,0.146,0.75,0.42c0.487,0.271,1.176,0.699,2.078,1.179c0.937,0.43,2.001,1.048,3.321,1.544
		c1.28,0.572,2.793,1.03,4.406,1.542c0.823,0.193,1.682,0.395,2.569,0.604c0.895,0.141,1.818,0.286,2.769,0.435
		c0.929,0.069,1.882,0.14,2.856,0.212c0.531,0,1.069-0.001,1.611-0.002l0.817,0.003l0.412,0.002h0.052
		c0.093,0.002-0.099-0.002-0.07-0.003l0.024-0.002l0.097-0.009l0.193-0.019c1.03-0.121,2.082-0.154,3.131-0.303
		c0.521-0.097,1.045-0.195,1.572-0.293c0.523-0.107,1.064-0.141,1.578-0.314c2.086-0.545,4.178-1.201,6.151-2.146
		c0.985-0.47,1.992-0.904,2.903-1.507l1.407-0.827c0.452-0.299,0.882-0.629,1.323-0.94c0.434-0.32,0.885-0.616,1.303-0.95
		c0.407-0.348,0.813-0.695,1.215-1.039c0.839-0.657,1.544-1.435,2.277-2.166c0.77-0.704,1.357-1.539,2.018-2.294
		c0.686-0.74,1.175-1.592,1.744-2.367c0.594-0.764,1.008-1.601,1.476-2.381c0.229-0.393,0.468-0.776,0.681-1.162
		c0.185-0.399,0.366-0.792,0.544-1.175c0.769-1.523,1.248-3.014,1.756-4.331c0.382-1.33,0.719-2.506,0.982-3.506
		C313.746,136.774,314.009,135.609,314.009,135.609z"/>
</g>
<g>
	<path fill="#CC5E69" d="M317.866,188.268c0,0,0.163,0.809,0.354,2.22c0.032,0.711,0.078,1.62,0.023,2.656
		c-0.112,1.011-0.186,2.191-0.536,3.422c-0.077,0.312-0.156,0.63-0.237,0.956c-0.111,0.315-0.224,0.636-0.339,0.962
		c-0.237,0.654-0.479,1.339-0.829,1.993c-0.334,0.663-0.658,1.365-1.104,2.01c-0.426,0.659-0.849,1.35-1.387,1.968
		c-0.513,0.641-1.038,1.294-1.663,1.867c-0.304,0.297-0.608,0.596-0.914,0.896c-0.318,0.288-0.67,0.54-1.007,0.813
		c-0.343,0.265-0.68,0.543-1.034,0.798l-1.111,0.703c-0.733,0.49-1.536,0.861-2.33,1.25c-1.605,0.74-3.304,1.27-5.006,1.612
		c-0.848,0.181-1.711,0.24-2.551,0.341c-0.845,0.058-1.684,0.04-2.501,0.038l-0.153-0.001l-0.076-0.001l-0.133-0.003l-0.034-0.004
		l-0.278-0.03l-0.553-0.059c-0.367-0.042-0.73-0.084-1.089-0.126c-0.78-0.141-1.582-0.308-2.325-0.477
		c-0.706-0.23-1.392-0.455-2.056-0.672c-0.633-0.284-1.244-0.558-1.831-0.821c-1.132-0.607-2.123-1.217-2.927-1.861
		c-0.846-0.571-1.45-1.252-1.982-1.733c-0.517-0.505-0.849-0.983-1.103-1.268c-0.238-0.301-0.365-0.461-0.365-0.461
		s0.73,0.35,2.008,0.963c0.656,0.256,1.401,0.626,2.309,0.918c0.882,0.341,1.917,0.596,3.01,0.882
		c0.553,0.109,1.13,0.222,1.727,0.34c0.596,0.073,1.213,0.148,1.847,0.225c0.606,0.026,1.229,0.053,1.867,0.081
		c0.361-0.008,0.727-0.017,1.096-0.026l0.556-0.008l0.28-0.004l0.035,0c0.026,0-0.168-0.004-0.078-0.003l0.016-0.002l0.063-0.008
		l0.127-0.016c0.678-0.098,1.368-0.128,2.056-0.238c0.681-0.16,1.379-0.248,2.063-0.426c1.362-0.375,2.73-0.805,4.021-1.428
		c0.646-0.306,1.307-0.587,1.904-0.98c0.306-0.185,0.615-0.362,0.927-0.535c0.298-0.193,0.581-0.407,0.872-0.608
		c0.287-0.207,0.585-0.398,0.862-0.614l0.809-0.669c0.56-0.422,1.029-0.927,1.525-1.396c0.967-0.958,1.83-1.976,2.567-3.011
		c0.412-0.494,0.704-1.039,1.033-1.547c0.163-0.257,0.323-0.51,0.479-0.758c0.134-0.261,0.266-0.518,0.394-0.769
		c0.566-0.993,0.938-1.974,1.327-2.847c0.309-0.899,0.578-1.684,0.8-2.33C317.622,189.057,317.866,188.268,317.866,188.268z"/>
</g>
<g>
	<path fill="#FF6A6B" d="M182.625,135.609c0,0,0.263,1.166,0.628,3.209c0.264,1,0.601,2.176,0.983,3.506
		c0.508,1.317,0.987,2.807,1.755,4.331c0.178,0.384,0.36,0.776,0.545,1.175c0.213,0.386,0.451,0.769,0.68,1.162
		c0.468,0.78,0.882,1.617,1.476,2.381c0.57,0.774,1.059,1.626,1.745,2.367c0.66,0.755,1.248,1.59,2.017,2.293
		c0.734,0.731,1.438,1.509,2.278,2.167c0.402,0.344,0.808,0.69,1.215,1.039c0.417,0.334,0.869,0.631,1.303,0.951
		c0.441,0.311,0.871,0.641,1.323,0.94l1.407,0.827c0.912,0.603,1.918,1.037,2.904,1.507c1.973,0.945,4.065,1.601,6.15,2.146
		c0.514,0.173,1.055,0.207,1.579,0.314c0.526,0.098,1.051,0.196,1.572,0.293c1.049,0.149,2.1,0.182,3.131,0.303l0.194,0.019
		l0.097,0.01l0.024,0.002c0.093-0.001-0.099,0.004-0.07,0.003l0.051,0l0.412-0.001l0.817-0.004c0.543,0.001,1.08,0.002,1.612,0.003
		c0.975-0.073,1.928-0.144,2.856-0.213c0.95-0.149,1.875-0.294,2.769-0.435c0.888-0.209,1.746-0.411,2.57-0.604
		c1.613-0.511,3.125-0.969,4.406-1.542c1.32-0.497,2.384-1.114,3.321-1.544c0.903-0.48,1.592-0.908,2.079-1.179
		c0.489-0.274,0.75-0.42,0.75-0.42s-0.201,0.219-0.578,0.629c-0.395,0.39-0.922,1.041-1.71,1.734
		c-0.812,0.656-1.735,1.584-2.994,2.359c-1.201,0.877-2.671,1.692-4.333,2.497c-0.854,0.354-1.745,0.723-2.667,1.105
		c-0.952,0.298-1.945,0.59-2.976,0.887c-1.065,0.211-2.196,0.431-3.314,0.608c-0.529,0.049-1.064,0.099-1.604,0.149l-0.814,0.071
		l-0.41,0.036l-0.051,0.004l-0.148,0.003l-0.11-0.001l-0.219-0.002c-1.17-0.02-2.37-0.005-3.576-0.103
		c-1.198-0.162-2.431-0.255-3.64-0.522c-2.425-0.511-4.847-1.267-7.135-2.33c-1.134-0.553-2.282-1.078-3.329-1.777l-1.593-0.995
		c-0.508-0.361-0.992-0.755-1.484-1.13c-0.484-0.386-0.989-0.742-1.447-1.149c-0.443-0.424-0.883-0.847-1.321-1.266
		c-0.905-0.807-1.666-1.734-2.416-2.637c-0.788-0.871-1.404-1.853-2.037-2.782c-0.662-0.91-1.141-1.909-1.648-2.846
		c-0.529-0.926-0.9-1.899-1.266-2.83c-0.178-0.467-0.365-0.919-0.525-1.372c-0.13-0.463-0.259-0.917-0.384-1.363
		c-0.58-1.751-0.757-3.442-0.987-4.897c-0.139-1.487-0.148-2.794-0.16-3.832C182.481,136.795,182.625,135.609,182.625,135.609z"/>
</g>
<g>
	<path fill="#FF6A6B" d="M178.768,188.268c0,0,0.244,0.788,0.576,2.173c0.222,0.646,0.491,1.43,0.799,2.33
		c0.389,0.872,0.762,1.854,1.328,2.847c0.128,0.251,0.259,0.507,0.393,0.769c0.157,0.248,0.317,0.501,0.479,0.758
		c0.33,0.508,0.622,1.054,1.034,1.547c0.737,1.035,1.6,2.052,2.567,3.011c0.496,0.469,0.966,0.974,1.525,1.396l0.809,0.669
		c0.277,0.215,0.575,0.407,0.862,0.614c0.291,0.201,0.574,0.415,0.873,0.608c0.312,0.173,0.621,0.35,0.926,0.535
		c0.598,0.394,1.258,0.675,1.905,0.98c1.29,0.624,2.658,1.053,4.021,1.429c0.683,0.178,1.382,0.267,2.062,0.426
		c0.688,0.11,1.378,0.14,2.056,0.238l0.127,0.016l0.063,0.008l0.016,0.002c0.09-0.001-0.105,0.004-0.078,0.003l0.035,0l0.28,0.004
		l0.556,0.008c0.369,0.009,0.734,0.018,1.096,0.026c0.637-0.027,1.26-0.054,1.867-0.081c0.634-0.077,1.25-0.152,1.847-0.225
		c0.597-0.118,1.173-0.231,1.727-0.34c1.093-0.286,2.127-0.541,3.009-0.882c0.907-0.292,1.652-0.663,2.309-0.918
		c1.278-0.613,2.008-0.963,2.008-0.963s-0.127,0.16-0.365,0.461c-0.253,0.284-0.585,0.762-1.103,1.268
		c-0.532,0.481-1.137,1.162-1.982,1.733c-0.804,0.644-1.795,1.253-2.927,1.861c-0.587,0.263-1.198,0.538-1.831,0.821
		c-0.664,0.217-1.35,0.442-2.056,0.672c-0.744,0.169-1.545,0.336-2.325,0.477c-0.359,0.042-0.723,0.083-1.089,0.126l-0.553,0.059
		l-0.278,0.03l-0.035,0.004l-0.132,0.003l-0.076,0.001l-0.153,0.001c-0.817,0.002-1.656,0.021-2.5-0.038
		c-0.84-0.101-1.704-0.16-2.552-0.341c-1.702-0.342-3.4-0.872-5.005-1.612c-0.794-0.389-1.597-0.761-2.33-1.251l-1.111-0.703
		c-0.354-0.255-0.691-0.533-1.034-0.798c-0.337-0.273-0.688-0.524-1.006-0.813c-0.306-0.3-0.611-0.6-0.914-0.896
		c-0.625-0.572-1.151-1.226-1.663-1.867c-0.538-0.618-0.961-1.309-1.387-1.968c-0.446-0.646-0.77-1.348-1.104-2.011
		c-0.35-0.654-0.591-1.339-0.829-1.993c-0.115-0.327-0.228-0.648-0.339-0.963c-0.081-0.325-0.16-0.644-0.238-0.956
		c-0.351-1.231-0.423-2.412-0.536-3.422c-0.055-1.036-0.009-1.945,0.023-2.656C178.604,189.077,178.768,188.268,178.768,188.268z"/>
</g>
</svg>
