<svg xmlns="http://www.w3.org/2000/svg" width="429.71" height="442.599" viewBox="0 0 429.71 442.599"><g transform="translate(-503.566 -186.07)"><rect width="369.851" height="425.889" rx="10" transform="translate(503.566 202.741)" fill="#8a5430"/><path d="M379.583,481.267c.013-.031-357.868,424.178-357.9,424.178a10.159,10.159,0,0,0,3.709.859c-.022,0,350.119.031,350.119.031a10.015,10.015,0,0,0,10.009-10s.048-406.754-.009-406.719A9.809,9.809,0,0,0,379.583,481.267Z" transform="translate(487.892 -277.667)" fill="#643d24"/><path d="M0,0H302.605V358.643H0Z" transform="translate(537.189 236.364)" fill="#fff"/><path d="M329.261,488.336,26.7,846.989l302.565,0Z" transform="translate(510.529 -251.976)" fill="#fcfcfc"/><line x2="224.152" transform="translate(576.416 312.213)" fill="none" stroke="#e5512c" stroke-width="5"/><line x2="224.152" transform="translate(576.416 357.044)" fill="none" stroke="#e5512c" stroke-width="5"/><line x2="224.152" transform="translate(576.416 401.874)" fill="none" stroke="#e5512c" stroke-width="5"/><line x2="224.152" transform="translate(576.416 446.705)" fill="none" stroke="#e5512c" stroke-width="5"/><line x2="100.868" transform="translate(576.416 491.535)" fill="none" stroke="#e5512c" stroke-width="5"/><g transform="translate(721.54 205.094) rotate(22)"><g transform="translate(0 37.352) rotate(-9)"><path d="M0,0V265.87H47.774V0Z" transform="translate(196.41 6.789) rotate(40)" fill="#d2d2d2"/><path d="M0,0V270.438H6.184V0Z" transform="translate(198.613 12.453) rotate(40)" fill="#fff"/><path d="M0,0V265.87H11V0Z" transform="translate(220.987 30.834) rotate(40)" fill="#a0a0a0"/><path d="M0,0,23.928,39.692,47.772,0Z" transform="translate(25.513 210.457) rotate(40)" fill="#e5512c"/><path d="M23.928,0C37.143,0,47.857,3.571,47.857,7.976s-10.713,7.976-23.928,7.976S0,12.381,0,7.976,10.713,0,23.928,0Z" transform="translate(202.108 0) rotate(40)" fill="#7e2d19"/><path d="M33.3,0S-.987,24.046.022,23.614,41.668,7.084,41.668,7.084Z" transform="translate(18.509 232.476)" fill="#7e2d19"/><path d="M10.994,0S-.819,43.764.045,42.4,15.851,4,15.851,4Z" transform="translate(18.484 213.799)" fill="#ffbdad"/></g></g><path d="M34.571,499.223v49.954H176.748V499.223H129.356s-5.224-15.71-23.716-15.71-22.976,15.71-22.976,15.71Z" transform="translate(576.473 -297.442)" fill="#d2d2d2"/><path d="M177.164,484.925,34.547,534.659H177.164Z" transform="translate(576.223 -283.024)" fill="#b4b4b4"/></g></svg>