<svg xmlns="http://www.w3.org/2000/svg" xmlns:xlink="http://www.w3.org/1999/xlink" width="236.749" height="327.567" viewBox="0 0 236.749 327.567"><defs><linearGradient id="a" y1="0.75" x2="0.5" y2="0.919" gradientUnits="objectBoundingBox"><stop offset="0" stop-color="#2cae70"/><stop offset="1" stop-color="#edb72a"/></linearGradient><linearGradient id="b" x1="0.486" y1="0.561" x2="0.706" y2="0.98" gradientUnits="objectBoundingBox"><stop offset="0" stop-color="#e5512c"/><stop offset="1" stop-color="#8c4f9b"/></linearGradient><linearGradient id="c" x1="0.313" y1="0.078" x2="0.945" y2="0.708" gradientUnits="objectBoundingBox"><stop offset="0" stop-color="#edb72a"/><stop offset="1" stop-color="#e5512c"/></linearGradient><linearGradient id="d" x1="0.137" y1="0.17" x2="0.866" y2="0.878" gradientUnits="objectBoundingBox"><stop offset="0" stop-color="#edb72a"/><stop offset="1" stop-color="#2cae70"/></linearGradient><linearGradient id="e" x1="0.635" y1="1" x2="0.635" gradientUnits="objectBoundingBox"><stop offset="0" stop-color="#eeeeef"/><stop offset="1" stop-color="#e5512c"/></linearGradient><linearGradient id="f" x1="0.5" x2="0.5" y2="1" gradientUnits="objectBoundingBox"><stop offset="0" stop-color="#2cae70"/><stop offset="1" stop-color="#8c4f9b"/></linearGradient><filter id="g" x="108.991" y="39.7" width="46.5" height="40.765" filterUnits="userSpaceOnUse"><feOffset dx="5" dy="5" input="SourceAlpha"/><feGaussianBlur stdDeviation="0.5" result="h"/><feFlood flood-opacity="0.161"/><feComposite operator="in" in2="h"/><feComposite in="SourceGraphic"/></filter></defs><g transform="translate(-123.251 -0.014)"><path d="M1623.424,378.581h0a61.863,61.863,0,0,1-17.233-3.971c-5.791-2.35-10.145-5.506-12.941-9.379-3.5-4.847-4.477-10.742-2.909-17.522,3.766-16.289-4.519-22.307-11.829-27.617-3.794-2.756-7.376-5.358-9.226-9.132a13.056,13.056,0,0,1-1.255-6.684,27.3,27.3,0,0,1,2.581-9.366c6.225-14.006,18.961-20.036,31.278-25.867,8.154-3.861,15.856-7.507,21.536-13.275Zm0-162.649h0v0c-2.365-2.895-5.006-5.7-7.8-8.677-5.964-6.342-12.131-12.9-16.331-21.091a44.469,44.469,0,0,1-4.477-13.609,50.969,50.969,0,0,1,.355-16.853c4.8-26.77,18.014-58.015,28.257-79.512Z" transform="translate(-1263.424 -51)" fill="url(#a)"/><path d="M1723.775,254.176h0a38.645,38.645,0,0,1-12.613-1.971,27.779,27.779,0,0,1-12.1-8.062,14.531,14.531,0,0,1-3.758-9.813A34.318,34.318,0,0,1,1697,225c1.177-4.179,2.192-7.787.269-10.439-1.941-2.677-6.744-4.087-15.114-4.437a15.025,15.025,0,0,1-10.306-3.657c-3.237-2.761-6.144-7.3-8.886-13.862-1.844-4.418-16.159-21.64-26.611-34.215-3.156-3.8-5.881-7.075-7.771-9.412a39.745,39.745,0,0,1-16.379,10.355,52.932,52.932,0,0,1-17.064,2.695,57.385,57.385,0,0,1-6.412-.356c-4.777-.539-11.713-2.018-17.626-6.007a25.154,25.154,0,0,1-11.122-18.4,27.906,27.906,0,0,1,1.221-12.52,35.049,35.049,0,0,1,5.956-10.713,55,55,0,0,1,19.019-14.756c6.982-3.345,8.421-9.4,9.945-15.808,1.4-5.887,2.847-11.974,8.819-16.179,17.163-.109,46.871-.164,88.3-.164,14.417,0,30.271.007,47.121.02V251.832l-4.54.842A48.232,48.232,0,0,1,1723.775,254.176Z" transform="translate(-1380.361 -67)" fill="url(#b)"/><path d="M1786.909,292.452h0a27.632,27.632,0,0,1-8.04-3.912,28.789,28.789,0,0,1-6.2-6.012,37.268,37.268,0,0,1-6.85-16.3,46.3,46.3,0,0,1-.51-11.565,46.84,46.84,0,0,1,2.379-11.495,38.839,38.839,0,0,1,13.472-18.893,39.8,39.8,0,0,0,5.752-5.307Zm-111.555-126.4h0a31.619,31.619,0,0,1-16.857-4.741,27.611,27.611,0,0,1-10.732-12.286c-3.157-7.215-.912-14.366,1.26-21.28,1.632-5.2,3.174-10.106,2.287-14.679-1-5.139-4.92-9.089-12.349-12.432a77.069,77.069,0,0,1-13.937-6.339,27.338,27.338,0,0,1-7.43-6.228c-3.267-4.134-3.638-8.182-4.031-12.467-.551-6.013-1.121-12.23-10.122-18.981-11.168-8.376-25.06-13.805-34.748-16.884a154.1,154.1,0,0,0-18.532-4.723h236.749v112.77a73.692,73.692,0,0,0-17.224,6.191,22.854,22.854,0,0,1-10.722,2.789,25.577,25.577,0,0,1-9.894-2.171,73.444,73.444,0,0,1-9.08-4.777l-.587-.346c-5.749-3.4-11.178-6.6-17.078-6.6-5.207,0-10.215,2.591-15.31,7.92a52.678,52.678,0,0,1-15.953,11.7A37.511,37.511,0,0,1,1675.354,166.054Z" transform="translate(-1426.909 -35)" fill="url(#c)"/><circle cx="12.792" cy="12.792" r="12.792" transform="translate(271.38 167.493)" fill="url(#d)"/><path d="M1588.888,124.284a20.888,20.888,0,1,1,0-41.776,21.2,21.2,0,0,1,2.322.128v41.521A21.2,21.2,0,0,1,1588.888,124.284Z" transform="translate(-1231.21 77)" fill="url(#e)"/><g transform="matrix(1, 0, 0, 1, 123.25, 0.01)" filter="url(#g)"><path d="M-805.483,530.028c2.7-3.264,7.181-7.965,15.93-6.267s15.8,5.484,19.063,13.057.783,12.6-6.006,17.236-16.684,4.3-22.429,1.86-8.375-6.747-9.691-11.523S-808.181,533.293-805.483,530.028Z" transform="translate(918.05 -483.7)" fill="url(#f)"/></g></g></svg>