<svg xmlns="http://www.w3.org/2000/svg" xmlns:xlink="http://www.w3.org/1999/xlink" width="1590.801" height="1773.178" viewBox="0 0 1590.801 1773.178"><defs><linearGradient id="a" y1="0.75" x2="0.5" y2="0.919" gradientUnits="objectBoundingBox"><stop offset="0" stop-color="#2cae70"/><stop offset="1" stop-color="#edb72a"/></linearGradient><linearGradient id="b" x1="0.486" y1="0.561" x2="0.706" y2="0.98" gradientUnits="objectBoundingBox"><stop offset="0" stop-color="#e5512c"/><stop offset="1" stop-color="#8c4f9b"/></linearGradient><linearGradient id="c" x1="0.313" y1="0.078" x2="0.945" y2="0.708" gradientUnits="objectBoundingBox"><stop offset="0" stop-color="#edb72a"/><stop offset="1" stop-color="#e5512c"/></linearGradient><linearGradient id="d" x1="0.137" y1="0.17" x2="0.866" y2="0.878" gradientUnits="objectBoundingBox"><stop offset="0" stop-color="#edb72a"/><stop offset="1" stop-color="#2cae70"/></linearGradient><linearGradient id="e" y1="0.5" x2="0.848" y2="0.5" gradientUnits="objectBoundingBox"><stop offset="0" stop-color="#8c4f9b"/><stop offset="1" stop-color="#e5512c"/></linearGradient><linearGradient id="f" x1="0.5" x2="0.5" y2="1" gradientUnits="objectBoundingBox"><stop offset="0" stop-color="#eeeeef"/><stop offset="1" stop-color="#e5512c"/></linearGradient><filter id="g" x="1091.407" y="786.246" width="237.275" height="237.275" filterUnits="userSpaceOnUse"><feOffset dx="30" dy="30" input="SourceAlpha"/><feGaussianBlur stdDeviation="0.5" result="h"/><feFlood flood-color="rgb(0,0,0)" flood-opacity="0.161"/><feComposite operator="in" in2="h"/><feComposite in="SourceGraphic"/></filter><linearGradient id="i" x1="0.5" x2="0.5" y2="1" gradientUnits="objectBoundingBox"><stop offset="0" stop-color="#2cae70"/><stop offset="1" stop-color="#8c4f9b"/></linearGradient><filter id="j" x="476.686" y="185.979" width="268.19" height="234.254" filterUnits="userSpaceOnUse"><feOffset dx="30" dy="30" input="SourceAlpha"/><feGaussianBlur stdDeviation="0.5" result="k"/><feFlood flood-color="rgb(0,0,0)" flood-opacity="0.161"/><feComposite operator="in" in2="k"/><feComposite in="SourceGraphic"/></filter></defs><g transform="translate(-82.2 -311.999)"><path d="M564.841,0S403.565,289.281,363.246,514.277,571.8,783.023,541.562,933.021,306.412,1055.7,242.29,1199.98,376.706,1299,339.467,1460.052c-34.521,149.3,190.379,169.45,268.019,144.816s101.646-88.3,140.957-183.122,138.949-93.2,138.949-93.2V0Z" transform="translate(785.499 313.995)" fill="url(#a)"/><path d="M74.285,314.335c-2.552,81.672,63.806,133.355,117.4,151.221s159.516-1.276,225.874-62.53C463.5,452.369,598.792,589.536,612.424,617.914c32.2,67.025,65.83,86.294,108.763,86.294,184.611,6.7,20.316,92.059,95.821,167.564s208.31,42.023,208.31,42.023l468.657-75.536V.44S588.329-1.019,283.569.656c-70.245,43-29.989,125.769-106.344,157.566S76.837,232.663,74.285,314.335Z" transform="translate(178.916 313.339)" fill="url(#b)"/><path d="M66.4.644s137.442,26.73,217.542,110,12.771,187.079,137.221,229.448c144.015,61.867,26.48,147.712,68.592,239.593S680.8,712.6,804.958,588.619s195.5,84.668,333.388,16.2c341.148-157.457,192.622,264.526,61.029,357.05s-109.916,334.366,60.2,351.909,63.806,94.433,130.165,196.523,170.363,23.608,267.348,263.52c0-.981,0-1773.177,0-1773.177Z" transform="translate(15.8 311.356)" fill="url(#c)"/><circle cx="63.009" cy="63.009" r="63.009" transform="translate(738.128 1324.758)" fill="url(#d)"/><path d="M7083.739,380.01A179.136,179.136,0,0,1,7047.9,376.4a176.856,176.856,0,0,1-63.6-26.763,178.334,178.334,0,0,1-64.439-78.254A176.992,176.992,0,0,1,6909.492,238a178.2,178.2,0,0,1,5.436-92H7136V372.208A177.957,177.957,0,0,1,7083.739,380.01Z" transform="translate(-5463 166)" fill="rgba(0,0,0,0.16)"/><path d="M7171.74,437.013A179.16,179.16,0,0,1,7135.9,433.4a176.9,176.9,0,0,1-63.6-26.762,178.383,178.383,0,0,1-64.44-78.253A176.931,176.931,0,0,1,6997.494,295a179.71,179.71,0,0,1-1.7-62H7254V416.888a177.076,177.076,0,0,1-82.26,20.126Z" transform="translate(-5581 79)" fill="url(#e)"/><g transform="matrix(1, 0, 0, 1, 82.2, 312)" filter="url(#g)"><circle cx="102.888" cy="102.888" r="102.888" transform="translate(1091.41 786.25)" fill="url(#f)"/></g><g transform="matrix(1, 0, 0, 1, 82.2, 312)" filter="url(#j)"><path d="M-787.874,562.611c15.967-19.315,42.494-47.13,94.261-37.086s93.488,32.45,112.8,77.263,4.636,74.558-35.541,101.986-98.725,25.43-132.72,11.008-49.558-39.922-57.346-68.182S-803.842,581.926-787.874,562.611Z" transform="translate(1285.75 -337.42)" fill="url(#i)"/></g></g></svg>