<svg xmlns="http://www.w3.org/2000/svg" xmlns:xlink="http://www.w3.org/1999/xlink" width="562.9" height="1411.39" viewBox="0 0 562.9 1411.39"><defs><linearGradient id="a" x1="0.347" y1="0.113" x2="0.347" y2="0.863" gradientUnits="objectBoundingBox"><stop offset="0" stop-color="#2cae70"/><stop offset="1" stop-color="#edb72a"/></linearGradient><linearGradient id="b" x1="0.5" x2="0.5" y2="1" gradientUnits="objectBoundingBox"><stop offset="0" stop-color="#eeeeef"/><stop offset="1" stop-color="#e5512c"/></linearGradient><linearGradient id="c" x1="0.285" y1="0.293" x2="0.665" y2="0.785" gradientUnits="objectBoundingBox"><stop offset="0" stop-color="#8c4f9b"/><stop offset="1" stop-color="#4b63ad"/></linearGradient><filter id="d" x="131.052" y="1118.497" width="271.669" height="292.894" filterUnits="userSpaceOnUse"><feOffset dx="15" dy="15" input="SourceAlpha"/><feGaussianBlur stdDeviation="0.5" result="e"/><feFlood flood-color="rgb(0,0,0)" flood-opacity="0.161"/><feComposite operator="in" in2="e"/><feComposite in="SourceGraphic"/></filter></defs><g transform="translate(-754.508 -170.443)"><path d="M-38,101.8S386.643,368.784,491.365,598.943,430.373,1022.435,338.31,1109.9-38,1381.483-38,1381.483Z" transform="translate(792.508 183.225)" fill="url(#a)"/><path d="M7252.491,520H7252V52h.49a235.72,235.72,0,0,1,47.159,4.754,232.714,232.714,0,0,1,83.672,35.21A234.685,234.685,0,0,1,7468.1,194.916a232.807,232.807,0,0,1,13.635,43.924,236.288,236.288,0,0,1,0,94.318,232.714,232.714,0,0,1-35.209,83.672,234.684,234.684,0,0,1-102.953,84.779,232.827,232.827,0,0,1-43.924,13.635A235.723,235.723,0,0,1,7252.491,520Z" transform="translate(-6497.49 133)" fill="rgba(0,0,0,0.16)"/><path d="M7252,568.558h0V101.443a233.992,233.992,0,0,1,0,467.115Z" transform="translate(-6497.49 69)" fill="url(#b)"/><g transform="matrix(1, 0, 0, 1, 754.51, 170.44)" filter="url(#d)"><path d="M-803.15,612.423c4.6-19.2,24.65-61.558,77.882-80.045s119.527,33.532,149.274,69.228,23.8,71.392,0,108.169-70.851,83.291-121.15,93.026-90.862-14.6-106.006-64.9S-807.747,631.624-803.15,612.423Z" transform="translate(942.07 589.98)" fill="url(#c)"/></g></g></svg>