<svg xmlns="http://www.w3.org/2000/svg" xmlns:xlink="http://www.w3.org/1999/xlink" width="1920" height="2489.107" viewBox="0 0 1920 2489.107"><defs><linearGradient id="a" y1="0.75" x2="0.914" y2="0.935" gradientUnits="objectBoundingBox"><stop offset="0" stop-color="#2cae70"/><stop offset="1" stop-color="#edb72a"/></linearGradient><linearGradient id="b" x1="0.486" y1="0.561" x2="0.706" y2="0.98" gradientUnits="objectBoundingBox"><stop offset="0" stop-color="#e5512c"/><stop offset="1" stop-color="#8c4f9b"/></linearGradient><linearGradient id="c" x1="0.313" y1="0.078" x2="0.945" y2="0.708" gradientUnits="objectBoundingBox"><stop offset="0" stop-color="#edb72a"/><stop offset="1" stop-color="#e5512c"/></linearGradient><linearGradient id="d" x1="0.137" y1="0.17" x2="0.866" y2="0.878" gradientUnits="objectBoundingBox"><stop offset="0" stop-color="#edb72a"/><stop offset="1" stop-color="#2cae70"/></linearGradient><linearGradient id="e" x1="0.5" x2="0.5" y2="1" gradientUnits="objectBoundingBox"><stop offset="0" stop-color="#eeeeef"/><stop offset="1" stop-color="#e5512c"/></linearGradient><linearGradient id="f" x1="0.5" x2="0.5" y2="1" gradientUnits="objectBoundingBox"><stop offset="0" stop-color="#2cae70"/><stop offset="1" stop-color="#8c4f9b"/></linearGradient></defs><g transform="translate(-544.999 -172.064)"><path d="M460.938,2380.08h0A564.95,564.95,0,0,1,386,2373.394a464.943,464.943,0,0,1-74.24-17.761c-24.868-8.29-47.124-18.507-66.15-30.369a216.887,216.887,0,0,1-27.731-20.392,173,173,0,0,1-22.937-24.118c-29.211-37.607-37.743-83.832-25.36-137.39a280.426,280.426,0,0,0,6.681-42.821,192.526,192.526,0,0,0-.662-36.306,149.377,149.377,0,0,0-6.891-30.676,138.491,138.491,0,0,0-12.007-25.929c-18.925-31.8-48.41-53.218-76.924-73.93-14.556-10.573-28.3-20.559-40.482-31.712a157.74,157.74,0,0,1-16.712-17.617,106.881,106.881,0,0,1-12.844-20A94.16,94.16,0,0,1,1.9,1841.1a109.4,109.4,0,0,1-1.693-27.465A161.52,161.52,0,0,1,5.8,1781.078a270.589,270.589,0,0,1,14.009-38.547,278.82,278.82,0,0,1,43.914-69.326A309.065,309.065,0,0,1,91.1,1645.323a369.022,369.022,0,0,1,30.159-24.281c10.035-7.271,20.607-14.261,32.319-21.369,10.417-6.321,21.491-12.583,33.855-19.145,22.941-12.173,46.773-23.457,69.82-34.369l.008,0,.01,0c20.393-9.655,41.481-19.64,61.366-29.988,10.694-5.565,20.24-10.81,29.182-16.034,10.021-5.854,19.045-11.539,27.587-17.38,19.084-13.049,34.986-26.38,48.616-40.758a229.793,229.793,0,0,0,20.143-24.358,214.567,214.567,0,0,0,16.773-27.666v990.112Zm0-1178.37h0v-.005c-23.146-43.517-60.2-82.92-99.435-124.636l-.01-.011c-22.316-23.73-45.391-48.267-66.8-74.567-11.563-14.2-21.582-27.6-30.631-40.968a423.405,423.405,0,0,1-26.529-44.56,355.956,355.956,0,0,1-20.737-49.007c-2.915-8.693-5.495-17.588-7.668-26.438-2.245-9.145-4.125-18.522-5.587-27.871-1.506-9.634-2.615-19.529-3.294-29.41-.7-10.158-.964-20.607-.79-31.056.179-10.726.827-21.765,1.926-32.809,1.125-11.315,2.757-22.98,4.852-34.669C225.309,579.247,263.9,452.692,320.94,309.55c22.033-55.3,46.855-113.094,73.774-171.79C415.777,91.832,438.058,45.483,460.938,0Z" transform="translate(2004.061 281.09)" fill="url(#a)"/><path d="M1378.531,1420.006c-40.532,0-78.083-5.034-111.608-14.958a296.53,296.53,0,0,1-28.484-10.009,264.506,264.506,0,0,1-27.682-13.283,241.254,241.254,0,0,1-26.361-16.94,228.74,228.74,0,0,1-24.523-20.98,129.042,129.042,0,0,1-15.682-18.544,102.4,102.4,0,0,1-10.228-18.677,94.86,94.86,0,0,1-5.587-18.691,103.484,103.484,0,0,1-1.758-18.583c-.068-11.021,1.476-22.915,4.721-36.361,2.862-11.861,6.637-23.362,10.287-34.484,4.928-15.014,9.58-29.191,11.233-42.074a60.758,60.758,0,0,0-.105-18.321,38.813,38.813,0,0,0-6.628-16.108c-7.579-10.689-21.271-18.748-41.86-24.638a269.594,269.594,0,0,0-39.429-7.653c-15.715-2-34.081-3.388-54.588-4.123-36.337,0-65.317-8.822-91.2-27.762a171.23,171.23,0,0,1-20.476-17.76,228.276,228.276,0,0,1-19.835-23.117A325.049,325.049,0,0,1,859.4,987.955c-6.381-10.7-12.768-22.6-18.984-35.374-1.975-4.057-5.7-9.754-11.066-16.93-5.054-6.757-11.715-15.024-19.8-24.572-14.673-17.334-33.914-38.813-58.822-65.663C705.3,796.439,649.645,739,604.93,692.855l-.017-.018-.007-.008c-27.923-28.819-52.039-53.708-68.767-71.442a369.26,369.26,0,0,1-65,46.966,445.13,445.13,0,0,1-72.5,33.143,468.906,468.906,0,0,1-74.047,19.648,398.086,398.086,0,0,1-69.625,6.479,284.47,284.47,0,0,1-38.5-2.477,188.234,188.234,0,0,1-33.028-7.384A291.441,291.441,0,0,1,151.366,705a311.33,311.33,0,0,1-32.443-17.575A301.536,301.536,0,0,1,87.6,665.108a274.259,274.259,0,0,1-28.707-27c-19.019-20.728-33.685-43.527-43.59-67.763A205.475,205.475,0,0,1,3.41,529.72a212.978,212.978,0,0,1-3.3-45.025c1.035-32.708,4.316-60.122,10.031-83.807,6.06-25.119,14.932-46.486,27.124-65.322,12.457-19.245,28.4-35.9,48.732-50.909,20.158-14.88,44.643-28.15,74.855-40.568a154.235,154.235,0,0,0,20.974-10.474,125.854,125.854,0,0,0,16.968-12.224A117.7,117.7,0,0,0,223.025,192.6a175.6,175.6,0,0,0,15.148-33.047c4.051-11.526,7.427-23.706,10.691-35.485,12.387-44.69,25.2-90.9,78.043-122.831C478.677.417,741.41,0,1107.808,0c164.984,0,349.609.085,548.748.254V1381.337l-171.408,27.268c-.114.028-11.648,2.879-30.508,5.7-11.065,1.655-22.437,2.974-33.8,3.919-14.205,1.182-28.44,1.781-42.308,1.781h0Z" transform="translate(808.443 172.926)" fill="url(#b)"/><path d="M1920,2033.022h0a545.259,545.259,0,0,0-60.207-9.17,271.253,271.253,0,0,1-42.025-7.6,243.524,243.524,0,0,1-37.737-13.4,229.324,229.324,0,0,1-62.583-41.85,246.9,246.9,0,0,1-45.343-57.964,288.88,288.88,0,0,1-28.04-69.348,325.9,325.9,0,0,1-8.718-47.076,345.623,345.623,0,0,1-1.9-48.522,353.683,353.683,0,0,1,4.925-48.81,349.537,349.537,0,0,1,11.769-47.938,324.778,324.778,0,0,1,44.13-88.626,293.148,293.148,0,0,1,71.688-71.234,310.314,310.314,0,0,0,40.917-34.655,496.408,496.408,0,0,0,40.236-45.6c13.029-16.6,25.872-34.8,38.171-54.094,12.2-19.134,23.882-39.366,34.721-60.133v746.028ZM888.662,1025.725h-.026c-50.493,0-98.825-12.837-139.772-37.112a234.642,234.642,0,0,1-52.5-42.122,208.387,208.387,0,0,1-36.488-54.05,159.837,159.837,0,0,1-12.636-40.682,187.714,187.714,0,0,1-2.285-40.014c1.143-26.42,6.843-52.351,12.356-77.429,8.838-40.2,17.185-78.17,6.134-113.628a105.862,105.862,0,0,0-5.092-13.169,108.551,108.551,0,0,0-7.137-12.908,130.988,130.988,0,0,0-21.3-25,202.673,202.673,0,0,0-32.157-23.838,349.726,349.726,0,0,0-44.8-22.606,279.2,279.2,0,0,1-37.294-15.452,196.846,196.846,0,0,1-29.25-18.09,157.422,157.422,0,0,1-22.373-20.451,150.15,150.15,0,0,1-16.665-22.532c-18.933-31.307-25.73-67.276-32.926-105.356-5.34-28.26-10.862-57.483-21.714-86.517a248.136,248.136,0,0,0-20.913-43.238,235.3,235.3,0,0,0-14.655-21.211,246.99,246.99,0,0,0-18.1-20.786A438.249,438.249,0,0,0,288.664,125.4a562.726,562.726,0,0,0-55.237-36.5c-33.3-19.384-70.548-36.968-110.706-52.262C106.942,30.631,90.674,24.966,74.367,19.8c-13.048-4.132-26.15-7.954-38.943-11.36C13.514,2.608.129.024,0,0H1920V885.988a139.587,139.587,0,0,0-25.14-6.327,187.287,187.287,0,0,0-29.191-2.177c-51.22,0-116.774,18.065-194.839,53.693a235.43,235.43,0,0,1-23.353,9.975,205.961,205.961,0,0,1-22.567,6.776,189.4,189.4,0,0,1-21.832,3.859,184.144,184.144,0,0,1-21.153,1.224,189.968,189.968,0,0,1-21.364-1.221,207.941,207.941,0,0,1-20.751-3.452,260.607,260.607,0,0,1-39.92-12.323c-11.772-4.619-24.279-10.318-38.233-17.424-12.765-6.5-25.3-13.432-37.053-19.975l-4.6-2.562-.271-.151-.01-.006c-11.528-6.428-23.449-13.074-35.108-19.148-13.051-6.8-24.5-12.208-35.006-16.535a231.648,231.648,0,0,0-35.346-11.61,170.66,170.66,0,0,0-17.943-3.239,148.526,148.526,0,0,0-18.2-1.143,138.328,138.328,0,0,0-29.931,3.276,151.406,151.406,0,0,0-30.974,10.625,198.382,198.382,0,0,0-32.257,19.172,292.767,292.767,0,0,0-33.78,28.915c-41.011,40.5-85.515,71.3-132.277,91.559a345.971,345.971,0,0,1-66.213,21.208A312.164,312.164,0,0,1,888.662,1025.725Z" transform="translate(544.999 172.064)" fill="url(#c)"/><circle cx="97.111" cy="97.111" r="97.111" transform="translate(1568.692 1731.992)" fill="url(#d)"/><path d="M135.485,313.808h0c-2.964-.431-5.947-.952-8.866-1.55a157.7,157.7,0,0,1-56.7-23.861,159.04,159.04,0,0,1-57.453-69.768,157.857,157.857,0,0,1-9.24-29.766,160.123,160.123,0,0,1,0-63.916,157.7,157.7,0,0,1,23.86-56.7A159.041,159.041,0,0,1,96.85,10.791a157.9,157.9,0,0,1,29.767-9.24c2.919-.6,5.9-1.119,8.868-1.551Z" transform="translate(2329.514 1465.463)" fill="rgba(0,0,0,0.16)"/><path d="M158.574,317.149a159.742,159.742,0,0,1-31.958-3.222,157.707,157.707,0,0,1-56.7-23.86A159.038,159.038,0,0,1,12.462,220.3a157.776,157.776,0,0,1-9.24-29.766,160.118,160.118,0,0,1,0-63.916,157.706,157.706,0,0,1,23.86-56.7A159.036,159.036,0,0,1,96.85,12.462a157.775,157.775,0,0,1,29.766-9.24A159.744,159.744,0,0,1,158.574,0a157.864,157.864,0,0,1,57.813,10.869V306.28A157.862,157.862,0,0,1,158.574,317.149Z" transform="translate(2248.612 1382.883)" fill="url(#e)"/><path d="M-776.406,583.832c24.609-29.77,65.494-72.639,145.278-57.158s144.087,50.014,173.856,119.08,7.145,114.912-54.777,157.185S-664.206,842.133-716.6,819.9s-76.381-61.529-88.384-105.084S-801.016,613.6-776.406,583.832Z" transform="translate(2129.042 -35.678)" fill="rgba(0,0,0,0.16)"/><path d="M-776.406,583.832c24.609-29.77,65.494-72.639,145.278-57.158s144.087,50.014,173.856,119.08,7.145,114.912-54.777,157.185S-664.206,842.133-716.6,819.9s-76.381-61.529-88.384-105.084S-801.016,613.6-776.406,583.832Z" transform="translate(2099.046 -65.674)" fill="url(#f)"/></g></svg>