<?xml version="1.0" encoding="utf-8"?>
<!-- Generator: Adobe Illustrator 16.0.0, SVG Export Plug-In . SVG Version: 6.00 Build 0)  -->
<!DOCTYPE svg PUBLIC "-//W3C//DTD SVG 1.1//EN" "http://www.w3.org/Graphics/SVG/1.1/DTD/svg11.dtd">
<svg version="1.1" id="圖層_1" xmlns="http://www.w3.org/2000/svg" xmlns:xlink="http://www.w3.org/1999/xlink" x="0px" y="0px"
	 width="582px" height="770.625px" viewBox="0 0 582 770.625" enable-background="new 0 0 582 770.625" xml:space="preserve">
<g>
	<path fill-rule="evenodd" clip-rule="evenodd" fill="#FE8B77" d="M579.835,422.917c-0.421,3.605-1.438,6.693-2.216,10.004
		c-5.664,24.135-21.652,39.049-43.4,48.833c-6.229,2.803-12.676,5.038-19.379,6.429c-2.61,0.542-4.26,1.885-5.588,4.307
		c-27.272,49.754-69.057,80.817-123.375,95.854c-6.984,1.934-14.266,2.783-20.984,5.683c-5.016,1.683-8.832,2.195-13.27,3.201
		c-2.069,0.469-4.302,0.328-5.916,2.048c-1.953,5.381-1.785,11.143-3.112,16.644c-2.847,11.797-7.086,22.876-15,32.301
		c-7.45,8.872-17.083,13.911-28.437,14.952c-24.054,2.207-41.968-8.898-51.39-31.247c-4.105-9.736-6.489-19.923-7.829-30.371
		c-0.254-1.982-0.427-4,0.871-5.772c1.322-0.993,2.813-0.852,4.314-0.63c20.853,3.084,41.852,2.486,62.827,2.486
		c2.521,0,4.955-0.237,7.27-1.431c32.322-16.669,63.816-34.707,92.967-56.573c14.131-10.599,27.811-21.714,40.24-34.358
		c18.069-18.385,30.926-39.962,40.146-63.842c9.856-25.53,15.084-52.066,17.242-79.304c0.881-11.118,1.839-22.27,1.722-33.374
		c-0.372-35.088-7.808-68.75-22.535-100.655c-4.974-10.775-11.263-20.748-20.16-28.931c-9.196-8.457-19.714-10.953-30.831-5.102
		c-25.773,13.567-53.416,17.079-81.887,16.173c-13.117-0.418-26.25-1.476-39.236-3.635c-1.777-0.296-4.188,0.184-4.859-2.475
		c37.248-2.168,72.8-10.778,106-28.141c28.356-14.829,51.521-35.108,66.423-63.939c0.829-1.605,1.596-3.242,2.392-4.865
		c7.203,6.481,12.869,14.272,18.535,22.033c26.213,35.905,41.203,76.1,46.139,120.224c2.246,20.07,2.411,40.195,1.682,60.283
		c-0.482,13.252-0.739,26.589-2.66,39.765c-0.727,4.983,1.15,7.952,5.458,10.511c12.772,7.586,21.706,18.362,26.001,32.824
		c2.296,8.518,1.837,7.111,2.17,12.269c0,0.667,0.107,2.396,0.125,3.063c0.084,3.26,0.168,4.103,0.084,7.437
		C580.335,417.26,580.252,419.343,579.835,422.917z"/>
	<path fill-rule="evenodd" clip-rule="evenodd" fill="#E1502C" d="M240.918,596.128c1.36,17.283,5.071,33.81,15.636,48.091
		c19.719,26.657,60.712,23.55,76.302-5.727c5.863-11.01,9.205-22.712,10.293-35.107c0.159-1.81,0.316-4.715,0.645-6.51
		c3,0.232,3.721,4.062,4.631,6.008c10.305,22.016,19.086,44.646,26.357,67.829c7.772,24.784,13.831,49.995,17.055,75.814
		c0.699,5.597,1.686,11.18,1.611,16.859c-0.15,2.273,0.34,4.683-1.404,6.614c-65,0-130,0-195,0c-1.708-0.972-3.573-0.485-5.357-0.49
		c-16.239-0.043-32.479-0.114-48.716,0.048c-3.407,0.033-4.809-0.837-4.461-4.398c0.4-4.105,0.222-7.972,0.372-12.38
		c1.538-29.543,10.15-57.102,23.747-83.166c14.842-28.452,34.358-53.301,58.546-74.44c0.736-0.644,1.348-1.43,2.018-2.149
		C229.5,591.78,235.359,593.098,240.918,596.128z"/>
	<path fill-rule="evenodd" clip-rule="evenodd" fill="#C74A2A" d="M392.055,762.997c-1-16.701-3.847-33.138-7.336-49.461
		c-6.672-31.22-16.699-61.401-28.997-90.815c-3.504-8.382-6.734-18.231-11.929-25.846c7-1.188,14.129-1.756,21.1-2.85
		c17.686,15.358,32.452,33.318,45.295,52.744c13.516,20.441,24.492,42.198,31.048,66.05c4.13,15.026,7.679,30.039,7.972,45.729
		c0.071,3.835,0.148,6.639-0.164,11.451c-18.666,0-37.334,0-56,0C391.748,767.802,393.383,765.19,392.055,762.997z"/>
	<path fill-rule="evenodd" clip-rule="evenodd" fill="#FE8B77" d="M3.043,402c0.833-4.916,2.629-9.087,4.266-13.512
		c6.543-17.691,18.713-29.65,36.712-35.552c2.795,0.463,2.375,2.924,2.616,4.672c1.456,10.542,2.223,21.168,3.796,31.699
		c4.996,33.429,13.064,65.943,28.433,96.311c2.145,4.238,2.068,4.276,0.097,6.548c-19.271-4.571-37.349-11.711-52.613-24.758
		c-10.628-9.084-18.064-20.223-21.445-33.939c-0.455-1.843-1.73-5.969-2.112-9.594C1.793,414.375,1.595,410.545,3.043,402z"/>
	<path fill-rule="evenodd" clip-rule="evenodd" fill="#E1502C" d="M138.881,752.779c0.063,3.31,0.451,6.652,0.111,9.919
		c-0.503,4.852,0.856,6.579,6.151,6.442c15.572-0.4,31.161-0.164,46.744-0.112c1.74,0.006,3.689-0.658,5.156,0.972
		c-19.667,0-39.021-0.063-58.688-0.063C138.418,760.125,138.481,757.25,138.881,752.779z"/>
	<path fill-rule="evenodd" clip-rule="evenodd" fill="#C74A2A" d="M392.055,762.997c1.893,2.113,0.602,4.677,0.988,7.003
		c-0.334,0-0.666,0-1,0C392.047,767.666,392.051,765.331,392.055,762.997z"/>
	<path fill-rule="evenodd" clip-rule="evenodd" fill="#B39079" d="M298.043,2c-0.666,1.204-1.334,1.036-2,0
		C296.709,2,297.377,2,298.043,2z"/>
	<path fill-rule="evenodd" clip-rule="evenodd" fill="#FEC5A0" d="M78.963,492.166c1.811-1.475,0.232-2.771-0.367-3.921
		c-15.858-30.386-24.023-63.128-29.338-96.683c-1.887-11.914-2.83-23.978-4.179-35.976c-0.113-1.005-0.11-2.002-1.059-2.65
		c2.011-3.036,0.315-6.115,0.153-9.193c-1.488-28.257-2.641-56.615-0.798-84.801c3.408-52.137,21.951-98.856,54.797-139.654
		c22.609-28.082,49.843-50.584,82.092-66.878c1.174-0.593,2.442-1.001,3.667-1.495c-7.95,11.393-14.779,23.354-17.695,37.11
		c-5.37,25.332,1.114,47.902,17.077,67.734c20.717,25.738,48.701,38.944,80.482,45.272c14.629,2.913,29.425,3.006,44.235,3.099
		c8.451,2.547,17.287,2.962,25.934,3.608c10.738,0.802,21.535,1.883,32.37,1.287c22.688-1.248,44.831-4.361,65.236-15.548
		c12.815-7.025,24.488-4.607,35.114,5.534c12.915,12.326,20.047,28.044,26.205,44.253c7.689,20.243,12.858,41.236,14.924,62.771
		c1.76,18.343,0.963,36.764-0.562,55.182c-1.563,18.903-4.374,37.533-9.265,55.821c-7.373,27.571-18.797,53.332-36.618,75.79
		c-10.77,13.572-23.593,25.225-37.108,36.115c-22.181,17.87-45.753,33.67-70.449,47.79c-12.98,7.421-26.229,14.377-39.399,21.462
		c-1.108,0.596-2.549,0.8-3.836,0.802c-13.832,0.031-27.677,0.323-41.493-0.159c-9.408-0.328-18.777-1.769-28.164-2.711
		c-5.909-1.035-11.818-2.069-17.727-3.104c-19.751-4.085-38.97-9.866-57.176-18.629c-35.844-17.254-63.417-43.418-83.136-77.903
		C81.857,494.705,80.725,493.197,78.963,492.166z"/>
	<path fill-rule="evenodd" clip-rule="evenodd" fill="#262727" d="M453.128,403.072c0.085,9.526-2.853,17.768-8.663,24.736
		c-11.574,13.885-31.549,12.549-41.676-2.552c-8.82-13.149-9.167-30.778-0.718-43.272c5.792-8.565,13.702-13.771,24.303-12.89
		c10.663,0.886,17.995,7.084,22.71,16.493C451.891,391.188,453.14,397.166,453.128,403.072z"/>
	<path fill-rule="evenodd" clip-rule="evenodd" fill="#262727" d="M182.385,402.049c0.032,10.549-2.74,18.843-8.669,25.767
		c-11.911,13.908-31.373,12.589-41.662-2.604c-8.846-13.062-9.117-30.677-0.666-43.281c12.449-18.565,36.912-16.859,46.837,3.224
		C181.087,390.944,182.314,397.061,182.385,402.049z"/>
	<path fill-rule="evenodd" clip-rule="evenodd" fill="#EF6757" d="M295.095,552.883c-4.218,0.222-8.079,0.165-12.114,0.003
		c-1.313-0.053-4.194-0.295-7.25-0.636c-15.569-1.909-28.005-7.861-35.704-22.11c1.755-3.654,5.162-5.563,8.364-7.538
		c27.418-16.909,60.271-15.639,86.271,3.206c1.639,1.188,3.122,2.477,4.107,4.27c-8.719,13.872-21.852,20.506-37.644,22.256
		C298.751,552.625,296.043,552.833,295.095,552.883z"/>
	<path fill-rule="evenodd" clip-rule="evenodd" fill="#292540" d="M338.77,530.077c-6.632-4.049-12.559-9.257-19.99-11.989
		c-27.473-10.104-53.169-7.667-76.633,10.761c-0.646,0.508-1.411,0.864-2.121,1.291c-5.146-8.137-5.95-17.086-4.844-26.359
		c0.541-4.534,3.466-6.224,7.78-6.876c17.672-2.669,35.461-2.57,53.233-2.307c13.115,0.195,26.258,0.476,39.284,2.441
		c7.561,1.142,9.059,2.522,9.308,10.188C345.051,515.395,342.604,522.941,338.77,530.077z"/>
	<path fill-rule="evenodd" clip-rule="evenodd" fill="#FE8C77" d="M278.034,439.695c-1.133-6.445,11.129-17.747,17.912-18.646
		c2.818-0.373,3.839,1.17,2.662,3.591c-1.074,2.213-2.713,4.15-4.087,6.219c-4.67,7.03-4.557,11.094,0.451,17.653
		c0.704,0.922,1.298,1.93,2.004,2.851c1.266,1.652,3.742,3.338,2.242,5.449c-1.678,2.36-4.514,1.229-6.893,0.414
		C284.931,454.692,277.951,446.123,278.034,439.695z"/>
	<path fill-rule="evenodd" clip-rule="evenodd" fill="#895430" d="M298.043,2c1.334,0,2.666,0,4,0
		c21.813,1.457,41.68,9.465,61.033,18.74c14.85,7.116,28.961,15.662,42.833,24.563c10.922,7.009,21.631,14.354,32.266,21.764
		c9.192,6.403,18.98,7.354,29.471,6.306c0.991-0.099,1.962-0.437,2.956-0.46c13.976-0.342,20.725,5.649,18.208,19.597
		c-0.924,5.118-2.522,9.99-4.757,14.67c-11.903,26.786-31.352,46.859-55.949,62.146c-33.17,20.614-69.541,31.559-108.289,35.143
		c-3.974,0.368-7.92,0.96-11.926,0.895c-20.564,0.593-40.913-0.906-60.688-6.959c-28.62-8.76-53.394-23.39-70.06-49.01
		c-19.135-29.414-18.634-59.399-0.738-89.31c1.963-3.281,4.251-6.36,6.379-9.538c20.902-25.836,48.119-40.902,80.503-47.133
		c4.213-0.811,8.569-0.362,12.757-1.413c6.667,0,13.333,0,20,0C296.709,2.629,297.377,2.629,298.043,2z"/>
</g>
</svg>
