<?xml version="1.0" encoding="utf-8"?>
<!-- Generator: Adobe Illustrator 16.0.0, SVG Export Plug-In . SVG Version: 6.00 Build 0)  -->
<!DOCTYPE svg PUBLIC "-//W3C//DTD SVG 1.1//EN" "http://www.w3.org/Graphics/SVG/1.1/DTD/svg11.dtd">
<svg version="1.1" id="圖層_1" xmlns="http://www.w3.org/2000/svg" xmlns:xlink="http://www.w3.org/1999/xlink" x="0px" y="0px"
	 width="409px" height="768px" viewBox="0 0 409 768" enable-background="new 0 0 409 768" xml:space="preserve">
<g>
	<path fill-rule="evenodd" clip-rule="evenodd" fill="#FE8B77" d="M406.323,343c-0.5,2.625-2.572,10.268-5.434,14.99
		c-8.404,13.87-20.826,23.093-34.746,30.635c-2.854,1.547-4.783,2.95-5.254,6.896c-2.771,23.22-8.935,45.598-18.9,66.774
		c-15.432,32.789-41.775,53.066-75.479,64.6c-3.76,1.286-7.627,2.308-11.506,3.181c-6.979,1.57-6.998,1.484-6.588,8.727
		c1.846,4.229,1.332,8.497-0.262,12.57c-4.291,10.96-9.153,21.666-14.958,31.923c-4.093,6.653-8.247,13.242-13.837,18.821
		c-10.939,10.921-20.206,10.165-31.299-1.098c-6.319-6.416-11.04-14.139-15.279-22.069c-5.014-9.38-9.776-18.894-13.407-28.919
		c-1.308-3.612-2.582-7.276-0.21-10.982l0.048-0.262c0.984-6.979-0.782-7.896,6.422-6.678c14.229,2.404,30.281,2.066,44.585,2.042
		c14.262-0.024,25.724-6.2,36.97-13.36c29.963-19.077,54.158-43.633,69.434-76.061c8.771-18.618,14.176-38.411,17.902-58.629
		c4.204-22.801,6.643-45.762,6.282-69.002c-0.22-14.131,0.589-28.281-0.972-42.383c-0.146-1.321-0.067-2.664,0.203-3.976
		c4.787-5.203,3.563-10.006-0.939-14.644c-0.932-0.96-1.568-2.147-1.549-3.575c-2.111-17.189-3.977-34.418-8.621-51.172
		c-1.252-4.521-3.225-8.755-5.732-12.719c-5.51-8.713-13.762-11.92-23.584-10.719c-10.599,1.297-20.847,4.335-31.039,7.526
		c-19.221,6.018-37.853,13.928-57.676,18.017c-2.58,0.532-6.738,1.45-9.264-0.289c-0.444-2.563,3.373-2.377,4.711-2.88
		c20.668-7.771,39.238-19.704,58.804-29.654c11.585-5.892,23.136-11.714,35.528-15.819c12.582-4.169,23.105-1.28,32.49,7.749
		c14.037,13.503,21.68,30.554,27.133,48.731c6.521,21.734,5.743,44.023,4.514,66.363c-0.859,15.621-0.51,31.287-0.043,46.925
		c0.092,3.08-0.035,7.72,3.802,8.413c3.546,0.642,4.644-3.687,6.142-6.328c3.294-5.811,5.62-12.057,7.748-18.38
		c0.673-1.999,0.938-4.297,3.076-5.506c11.695,6.193,20.783,13.906,21.08,28.829c0.282,3.459,0.203,2.89,0.141,7.077
		C406.76,339.021,406.76,340.625,406.323,343z"/>
	<path fill-rule="evenodd" clip-rule="evenodd" fill="#FE8B77" d="M2.552,329.998c2.167-7.169,4.58-14.669,9.653-20.832
		c3.292-3.998,6.674-7.846,10.749-11.051c2.864,8.599,5.365,17.34,9.488,25.457c2.155,4.241,4.233,8.625,8.711,11.076
		c1.338-0.641,2.538-0.544,3.534,0.656c1.056,1.801,1.013,3.809,1.018,5.787c0.033,12.733,0.069,25.466-0.023,38.198
		c-0.02,2.768,0.219,5.733-2.586,7.603c-20.849-6.2-34.375-19.542-39.794-40.796c-0.273-1.071-0.418-2.932-0.751-4.099
		C1.552,335.831,2.135,331.831,2.552,329.998z"/>
	<path fill-rule="evenodd" clip-rule="evenodd" fill="#7587BE" d="M56.135,767c0.059-0.352,0.119-0.702,0.178-1.054
		c1.739-1.69,3.976-1.547,6.114-1.549c73.869-0.054,147.738-0.037,221.607-0.017c0.663,0,1.326,0.092,1.99,0.127
		c19.164-0.284,38.328-0.092,57.491-0.098c2.012,0,4.021,0.139,5.63,1.607c-0.004,0.327-0.006,0.654-0.01,0.982
		C251.469,767,153.802,767,56.135,767z"/>
	<path fill-rule="evenodd" clip-rule="evenodd" fill="#333232" d="M203.146,2.01c-0.667,1.296-1.333,1.071-2,0
		C201.813,2.01,202.479,2.01,203.146,2.01z"/>
	<path fill-rule="evenodd" clip-rule="evenodd" fill="#435691" d="M349.145,766.018c-21-0.019-41.999-0.037-62.998-0.055
		c-1.393-1.494-1.344-3.319-1.189-5.169c2.878-34.346,0.016-68.067-10.857-100.94c-8.711-26.342-21.762-50.284-39.403-71.715
		c-1.229-1.495-3.002-2.773-2.571-5.125c3.662-7.604,7.373-15.186,10.973-22.819c3.189-6.765,6.035-13.642,5.316-21.391
		c9.665,5.593,15.865,14.044,19.613,24.339c1.012,2.775,2.527,4.135,5.227,5.246c30.617,12.612,55.656,31.71,71.28,61.715
		c3.371,6.474,4.934,13.001,4.865,20.463c-0.336,36.65-0.13,73.307-0.124,109.961C349.276,762.357,349.191,764.188,349.145,766.018z
		"/>
	<path fill-rule="evenodd" clip-rule="evenodd" fill="#FEC5A0" d="M44.128,335.073c4.742-5.743,5.136-12.938,5.787-19.734
		c2.059-21.49,3.281-43.061,5.31-64.555c1.556-16.485,2.973-33.052,7.911-49.002c1.875-6.056,4.067-12.046,9.969-15.541
		c4.34-2.57,6.354-1.573,5.986,3.335c-0.407,5.436-1.488,10.82-2.235,16.233c-0.294,2.132-0.647,4.276-0.683,6.42
		c-0.202,12.068,4.81,15.625,16.266,11.392c4.332-1.602,8.481-3.696,12.714-5.565c13.388-6.878,26.994-13.328,40.145-20.674
		c13.029-7.277,26.076-14.52,38.896-22.162c1.515-0.903,3.066-2.118,5.066-1.228c0.111,4.849-1.695,9.367-2.5,14.06
		c-2.119,12.353,2.473,17.151,14.793,14.972c0.483-0.086,0.988-0.053,1.483-0.074c11.263-0.469,21.792-4.193,32.304-7.68
		c21.262-7.051,42.116-15.57,64.427-18.83c9.167-1.339,17.509,1.557,23.278,9.446c6.781,9.272,9.033,20.243,10.986,31.211
		c1.885,10.585,3.305,21.253,4.905,31.889c0.22,1.46,0.599,3-0.813,4.163c-0.85,0.249-1.715,0.134-2.4-0.327
		c-11.369-7.65-23.998-6.762-36.609-5.158c-9.724,1.237-19.377,3.038-28.888,5.495c-0.805,0.208-1.637,0.35-2.401,0.663
		c-2.361,0.971-5.947,1.323-5.047,4.909c0.881,3.51,4.136,2.619,6.719,1.972c13.083-3.278,26.324-5.725,39.768-6.723
		c10.879-0.808,21.026,0.816,27.31,11.384c1.124,1.891,3.386,2.691,4.54,4.575c1.982,12.856,1.397,25.885,1.367,38.756
		c-0.027,11.197,0.158,22.502-1.002,33.779c-1.271,12.347-2.26,24.717-4.357,36.956c-4.361,25.444-10.811,50.285-22.942,73.267
		c-6.446,12.211-14.517,23.353-23.798,33.647c-16.063,17.819-34.822,32.107-55.904,43.406c-6.034,3.233-12.389,5.049-19.434,5.452
		c-9.295,0.531-18.574,0.681-27.869,0.822c-6.829,0.104-13.456-0.482-20.122-1.566c-5.864-0.98-5.084-0.917-7.417-1.375
		c-2.292-0.458-1.567-0.28-6.156-1.394c-37.673-9.143-66.781-30.057-86.083-64.033c-12.394-21.818-18.967-45.464-22.422-70.157
		c-0.493-3.525-1.089-6.78-1.402-10.437c-0.215-2.514-0.055-5.787-0.063-8.313C43.466,363.93,44.119,349.895,44.128,335.073z"/>
	<path fill-rule="evenodd" clip-rule="evenodd" fill="#4B63AC" d="M232.125,583.014c12.191,13.695,22.236,28.908,30.488,45.193
		c9.703,19.152,16.09,39.522,20.516,60.543c4.691,22.278,4.178,44.821,3.926,67.358c-0.037,3.271-1.27,6.503-0.909,9.854
		c-76.61-0.006-153.222-0.011-229.833-0.017c-0.25-40.467-1.614-80.934-0.242-121.402c0.193-5.695,3.415-10.371,6.124-15.088
		c15.65-27.243,38.564-46.349,67.041-59c4.568-2.029,7.845-4.339,9.922-9.325c3.979-9.552,10.589-17.213,20.007-22.082
		c-0.494,6.188,1.588,11.765,4.062,17.261c6.564,14.582,13.368,29.003,23.711,41.445c11.694,14.067,21.627,14.446,33.877,1.023
		C225.203,593.973,228.462,588.346,232.125,583.014z"/>
	<path fill-rule="evenodd" clip-rule="evenodd" fill="#56351F" d="M341.114,269.938c-2.266-0.175-4.404-0.833-5.385-3.021
		c-4.294-9.571-12.728-11.688-21.873-11.671c-15.229,0.027-30.008,3.436-44.716,7.037c-1.628,0.398-3.249,1.08-4.88,0.538
		c-2.242-0.745-3.693-2.395-3.59-4.846c0.122-2.901,1.984-4.332,4.696-5.025c9.99-2.555,20.03-4.846,30.271-6.165
		c8.239-1.062,16.426-2.266,24.812-1.058c6.618,0.953,12.471,3.301,17.672,7.419c1.779,2.323,3.732,4.532,5.293,6.991
		C345.903,264.061,345.583,267.542,341.114,269.938z"/>
	<path fill-rule="evenodd" clip-rule="evenodd" fill="#FE8B77" d="M189.261,173.992c-17.229,9.683-34.362,19.541-51.722,28.983
		c-10.461,5.689-20.984,11.357-32.386,15.08c23.21-14.006,43.284-32.369,65.8-47.334c3.022-2.009,6.246-3.811,9.581-5.223
		c2.52-1.068,5.595-2.206,7.948,0.202C190.79,168.063,190.729,171.062,189.261,173.992z"/>
	<path fill-rule="evenodd" clip-rule="evenodd" fill="#292540" d="M164.423,485.156c-6.931-4.345-13.65-8.957-18.454-15.768
		c-1.6-2.27-3.737-4.693-1.992-7.671c1.65-2.814,4.753-2.816,7.583-2.651c7.989,0.466,15.754,2.399,23.58,3.898
		c21.431,4.105,42.701,2.35,63.957-1.444c6.369-1.136,12.768-2.511,19.282-2.187c2.509,0.125,5.71-0.144,6.909,2.93
		c1.137,2.915-0.902,5.081-2.669,7.036c-6.101,6.747-13.492,11.775-21.563,15.865c-6.245,0.319-12.064-1.95-18.064-3.063
		c-17.134-3.18-33.987-1.506-50.766,2.354C169.659,485.047,167.121,485.999,164.423,485.156z"/>
	<path fill-rule="evenodd" clip-rule="evenodd" fill="#262727" d="M132.499,336.224c-0.018,6.052-1.811,11.525-5.49,16.276
		c-8.906,11.502-24.887,10.854-32.88-1.348c-4.849-7.401-5.777-15.484-3.311-23.911c3.205-10.953,11.813-17.312,22.023-16.453
		c9.678,0.813,17.872,9.282,19.256,19.96C132.332,332.561,132.37,334.397,132.499,336.224z"/>
	<path fill-rule="evenodd" clip-rule="evenodd" fill="#262727" d="M268.682,335.759c0.322-10.055,3.682-18.605,13.321-23.271
		c9.728-4.707,20.719-0.515,26.241,9.568c5.176,9.449,4.309,22.736-2.304,30.603c-5.403,6.43-12.173,9.935-20.743,7.356
		c-9.441-2.841-14.184-9.896-16.043-19.188C268.831,339.205,268.837,337.517,268.682,335.759z"/>
	<path fill-rule="evenodd" clip-rule="evenodd" fill="#FE8C77" d="M197.19,432.027c-13.754-0.172-22.814-7.718-19.19-22.378
		c3.966-16.047,10.404-30.825,20.253-44.05c1.475-1.979,3.167-5.785,6.514-3.953c2.972,1.627,1.083,4.93,0.296,7.276
		c-2.532,7.555-5.407,14.993-8.104,22.493c-2.586,7.195-5.127,14.391-4.862,22.234c0.222,6.56,4.679,10.28,11.205,9.122
		c0.649-0.115,1.261-0.473,1.911-0.559c2.629-0.346,5.294-0.153,6.275,2.717c1.014,2.96-1.682,4.136-3.64,5.079
		C204.375,431.685,200.58,432.29,197.19,432.027z"/>
	<path fill-rule="evenodd" clip-rule="evenodd" fill="#EF6757" d="M164.423,485.156c25.545-7.718,51.091-8.669,76.634,0.009
		c-10.172,5.932-21.117,9.527-32.808,10.878c-4.097,0.722-8.492,0.759-12.625,0.27C183.937,494.928,174.097,491.216,164.423,485.156
		z"/>
	<path fill-rule="evenodd" clip-rule="evenodd" fill="#56351F" d="M90.52,245.015c17.856,0.802,33.634,3.916,49.258,7.972
		c3.484,0.904,5.273,3.099,4.245,6.6c-0.981,3.341-3.762,3.926-6.86,3.104c-13.025-3.452-26.194-6.075-39.639-7.267
		c-6.537-0.579-12.945-0.375-19.068,2.243c-3.967,1.696-6.9,4.491-8.76,8.452c-1.341,2.856-3.453,4.642-6.749,3.009
		c-3.122-1.547-3.477-4.146-2.162-7.171c3.932-9.043,11.353-13.635,20.53-15.671C84.845,245.502,88.493,244.794,90.52,245.015z"/>
	<path fill-rule="evenodd" clip-rule="evenodd" fill="#333232" d="M179.135,2c7.333,0,14.667,0,22,0c0.667,0.629,1.334,0.629,2,0
		c1,0,2,0,3,0c18.785,0.813,36.343,7.241,54.284,11.896c12.003,3.115,24.062,3.746,36.513,3.356
		c28.259-0.885,52.826,8.539,72.403,29.55c0,0,1.508,1.375,1.878,4.182c-11.601,9.102-18.717,21.431-27.258,33.021
		c-13.077,17.745-28.704,32.736-46.066,46.165c-17.931,13.869-35.598,28.085-56.188,37.979c-9.082,4.363-18.465,7.639-28.79,7.166
		c-7.246-0.331-9.861-3.348-8.735-10.598c0.742-4.778,1.932-9.46,3.477-14.055c1.115-3.316,2.086-6.678,2.151-10.231
		c0.122-6.664-2.457-8.899-8.921-7.471c-8.299,1.835-15.469,6.104-22.306,10.905c-14.196,9.97-27.177,21.468-40.478,32.559
		c-7.686,6.409-15.526,12.627-24.093,17.811c-6.784,4.105-13.904,7.323-22.224,5.131c-5.422-1.429-7.447-4.41-6.554-9.92
		c0.32-1.974,1.004-3.875,1.282-5.856c0.722-5.165-1.109-7.539-6.231-8.153c-9.865-1.183-16.58,3.504-21.487,11.544
		c-5.45,8.929-8.606,18.797-11.078,28.82c-4.752,19.276-7.207,38.889-8.487,58.725c-0.667,10.332-0.722,20.627-0.717,30.937
		c0.004,9.159,0.633,18.303,3.789,27.057c0.398,1.105,1.273,1.991,0.617,3.262c-3.199,0.865-4.913-1.662-6.328-3.484
		c-4.116-5.303-6.466-11.54-8.747-17.765c-1.88-5.131-3.593-10.326-5.147-15.572c-6.883-24.104-11.126-48.671-13.035-73.657
		c-1.167-15.267-2.135-30.582-1.714-45.854c0.416-15.097,0.693-30.269,3.41-45.243c4.968-27.384,19.4-49.762,37.351-70.104
		c25.208-28.566,58.029-44.516,93.796-55.403C154.48,5.051,166.68,2.894,179.135,2z"/>
	<path fill-rule="evenodd" clip-rule="evenodd" fill="#262727" d="M42.917,335.781c-0.991-0.142-0.938-1.219-1.336-2.313
		c-4.09-8.606-4.697-17.92-4.924-27.16c-0.335-13.617-0.453-27.266,0.924-40.852c2.422-23.896,5.282-47.731,14.093-70.327
		c2.53-6.489,5.623-12.718,10.762-17.789c5.733-5.657,12.537-6.218,19.84-5.094c3.703,0.57,5.447,3.006,5.246,6.683
		c-0.099,1.8-0.348,3.658-0.931,5.353c-3.784,11.002,3.207,13.186,12.51,12.039c10.802-1.332,19.031-8.413,27.203-14.881
		c14.936-11.82,29.385-24.257,44.334-36.06c8.994-7.102,18.537-13.5,30.033-16.112c6.611-1.501,9.684,1.002,9.949,7.679
		c0.273,6.888-3.174,12.835-4.362,19.336c-0.476,2.601-1.313,5.147-1.628,7.762c-0.659,5.485,1.378,7.505,6.906,7.813
		c10.115,0.563,19.35-2.483,28.279-6.696c19.824-9.354,37.031-22.669,54.052-36.211c9.466-7.531,19.072-14.886,27.661-23.5
		c12.723-12.759,22.982-27.44,33.547-41.892c3.051-4.175,6.226-8.181,9.969-11.748c1.609-1.534,3.328-2.75,5.592-3.018
		c11.863,12.268,18.331,27.453,22.756,43.519c9.718,35.279,13.813,71.348,12.908,107.866c-0.753,30.353-8.461,59.582-16.335,88.705
		c-1.209,4.471-2.557,8.905-3.845,13.363c-2.756,7.622-5.139,15.388-8.887,22.604c-1.146,2.204-2.479,4.331-3.916,6.358
		c-1.139,1.608-2.506,3.402-4.749,3.072c-2.564-0.378-3.251-2.814-3.712-4.842c-0.696-3.057-1.109-6.22-1.251-9.355
		c-1.065-23.477,1.082-46.908,1.085-70.371c0.004-28.657-7.326-55.09-24.033-78.646c-3.006-4.239-6.65-7.895-10.635-11.188
		c-7.847-6.483-16.506-8.345-26.518-5.493c-19.704,5.612-36.979,16.306-54.877,25.659c-14.824,7.747-29.358,16.04-45.165,21.725
		c-4.577,2.356-8.295,2.848-12.603,0.639c-4.45-2.281-5.748-6.321-5.581-10.892c0.22-6.021,1.904-11.817,3.139-17.671
		c0.17-0.805,0.486-1.586,0.605-2.407c0.819-5.646-1.782-7.933-7.265-6.024c-6.187,2.152-11.426,6.085-16.672,9.867
		c-14.424,10.401-28.184,21.689-42.684,31.995c-5.563,3.954-11.365,7.503-17.196,11.036c-4.57,2.836-9.465,5.01-14.636,6.335
		c-9.721,2.491-15.228-1.811-15.399-11.813c-0.112-6.541,1.388-12.895,2.403-19.308c0.392-2.476,1.854-5.948-1.193-7.106
		c-2.66-1.011-4.674,1.926-6.338,3.992c-3.211,3.985-4.759,8.747-6.046,13.602c-4.161,15.698-5.465,31.818-7,47.9
		c-2.198,23.021-2.548,46.217-6.25,69.091C49.979,325.743,48.229,333.061,42.917,335.781z"/>
</g>
</svg>
