<?xml version="1.0" encoding="utf-8"?>
<!-- Generator: Adobe Illustrator 16.0.0, SVG Export Plug-In . SVG Version: 6.00 Build 0)  -->
<!DOCTYPE svg PUBLIC "-//W3C//DTD SVG 1.1//EN" "http://www.w3.org/Graphics/SVG/1.1/DTD/svg11.dtd">
<svg version="1.1" id="圖層_1" xmlns="http://www.w3.org/2000/svg" xmlns:xlink="http://www.w3.org/1999/xlink" x="0px" y="0px"
	 width="298.271px" height="193.919px" viewBox="0 0 298.271 193.919" enable-background="new 0 0 298.271 193.919"
	 xml:space="preserve">
<g>
	<path fill="#314260" d="M149.2,74.199L61.11,55.398l10.443,67.54c0,0,39.711,31.332,77.646,31.332
		c37.936,0,77.646-31.332,77.646-31.332l10.444-67.54L149.2,74.199z"/>
	<path opacity="0.45" fill="#11182E" d="M149.2,141.217c-37.935,0-79.625-32.13-79.626-32.131l1.979,12.808
		c0,0,39.711,31.332,77.646,31.332c37.936,0,77.646-31.332,77.646-31.332l1.979-12.808
		C228.826,109.087,187.135,141.217,149.2,141.217z"/>
	<path fill="#FFB33C" d="M149.2,142.262c-37.935,0-79.625-32.132-79.626-32.132l1.979,12.808c0,0,39.711,31.332,77.646,31.332
		c37.936,0,77.646-31.332,77.646-31.332l1.979-12.808C228.826,110.13,187.135,142.262,149.2,142.262z"/>
	<path fill="#FF953E" d="M152.664,154.281c0,0,31.861,0.296,74.183-31.343c0.523-2.596,1.979-12.808,1.979-12.808
		c-26.095,19.414-51.722,27.131-51.722,27.131"/>
	<g>
		<defs>
			<path id="SVGID_1_" d="M149.2,74.199L61.11,55.398l10.443,67.54c0,0,39.711,31.332,77.646,31.332
				c37.936,0,77.646-31.332,77.646-31.332l10.444-67.54L149.2,74.199z"/>
		</defs>
		<clipPath id="SVGID_2_">
			<use xlink:href="#SVGID_1_"  overflow="visible"/>
		</clipPath>
		<path opacity="0.45" clip-path="url(#SVGID_2_)" fill="#11182E" d="M60.692,51.918l3.03,20.367l85.198,36.032l74.613-34.117
			c0,0-12.49,39.265-47.369,63.458c0,0,25.232-7.421,52.69-27.533c4.305-28.646,8.015-52.319,8.015-52.319L60.692,51.918z"/>
	</g>
	<polygon fill="#222D48" points="149.2,17.031 0.534,35.904 0.534,44.956 149.2,83.4 297.866,44.956 297.866,35.904 	"/>
	<polygon fill="#314260" points="0.534,35.904 0.534,44.956 149.2,83.4 149.2,66.69 	"/>
	<polygon fill="#0A1327" points="297.866,35.904 297.866,44.956 149.2,83.4 149.2,66.69 	"/>
	<path opacity="0.76" fill="#11182E" d="M162.303,41.643c-5.274-1.02-9.811-1.858-12.822-2.406l-0.562,3.082
		c3.318,0.604,6.67,1.23,10.004,1.87C160.647,43.506,161.849,42.625,162.303,41.643z"/>
	<path fill="#D17837" d="M152.664,154.281c0,0,31.861,0.296,74.183-31.343c0.523-2.596,1.979-12.808,1.979-12.808
		c-26.095,19.414-51.722,27.131-51.722,27.131"/>
	<g>
		<g>
			<g>
				<defs>
					<path id="SVGID_3_" d="M297.866,35.904L149.2,17.031L0.534,35.904v9.052l61.417,15.882l9.603,62.101
						c0,0,39.711,31.332,77.646,31.332c37.936,0,77.646-31.332,77.646-31.332l9.603-62.101l61.417-15.882V35.904z"/>
				</defs>
				<clipPath id="SVGID_4_">
					<use xlink:href="#SVGID_3_"  overflow="visible"/>
				</clipPath>
				<path opacity="0.4" clip-path="url(#SVGID_4_)" fill="#11182E" d="M213.095,53.355c-2.836-3.417-31.851-9.458-50.38-13.018
					c-0.573-2.485-5.934-4.434-12.47-4.434c-6.918,0-12.527,2.182-12.527,4.874c0,2.692,5.609,4.874,12.527,4.874
					c4.63,0,8.663-0.979,10.832-2.433c24.17,4.648,47.295,9.969,49.571,12.103c2.205,4.612,0.975,62.371-0.324,97.848l3.131,0.116
					c0.008-0.238,0.873-23.965,1.301-47.899C215.634,56.413,213.918,54.347,213.095,53.355z"/>
			</g>
			<path fill="#FFB33C" d="M211.691,154.328l-3.132-0.114c1.3-35.478,2.531-93.237,0.325-97.848
				c-2.603-2.44-32.453-9.045-59.965-14.047l0.562-3.082c13.611,2.474,58.294,10.878,61.85,15.163
				c0.825,0.993,2.54,3.058,1.662,52.03C212.563,130.364,211.699,154.091,211.691,154.328z"/>
		</g>
		<g>
			<circle fill="#FFB33C" cx="210.126" cy="149.745" r="4.874"/>
			<path fill="#FFB33C" d="M210.126,152.965c0,0-9.997,0-9.997,37.859c0,0,2.343,2.612,9.997,2.612c7.653,0,9.996-2.612,9.996-2.612
				C220.123,152.965,210.126,152.965,210.126,152.965z"/>
			<g>
				<defs>
					<path id="SVGID_5_" d="M212.359,154.053c1.563-0.812,2.641-2.427,2.641-4.308c0-2.692-2.182-4.874-4.874-4.874
						c-2.692,0-4.875,2.182-4.875,4.874c0,1.881,1.079,3.496,2.641,4.308c-2.946,2.457-7.762,10.488-7.762,36.771
						c0,0,2.343,2.612,9.997,2.612c7.653,0,9.996-2.612,9.996-2.612C220.123,164.541,215.305,156.51,212.359,154.053z"/>
				</defs>
				<clipPath id="SVGID_6_">
					<use xlink:href="#SVGID_5_"  overflow="visible"/>
				</clipPath>
				<path clip-path="url(#SVGID_6_)" fill="#D17837" d="M207.85,137.56c0,0,0.066,7.311,2.276,7.311c2.209,0,6.34,8.095-2.234,9.182
					c0,0,3.395,0.411,5.462,6.484c3.446,10.125,4.557,31.748-13.224,30.288l3.194,10.133l28.374-1.715l-1.74-51.935L207.85,137.56z"
					/>
			</g>
			<g>
				<path fill="#FFD38F" d="M202.586,192.316c0,0-0.769-5.975,0.605-16.96"/>
				<path fill="#FFD38F" d="M208.101,193.416c0,0-0.531-9.005,0.445-18.06"/>
				<path fill="#FFD38F" d="M213.186,193.249c0,0,0.756-9.751,0-17.893"/>
				<path fill="#FFD38F" d="M217.911,192.285c0,0,1.078-8.398-0.409-16.929"/>
			</g>
		</g>
	</g>
	<ellipse fill="#FFB33C" cx="149.2" cy="40.777" rx="12.528" ry="4.874"/>
	<ellipse fill="#D17837" cx="149.2" cy="40.777" rx="12.528" ry="4.874"/>
	<ellipse fill="#FFB33C" cx="147.391" cy="40.169" rx="9.935" ry="3.866"/>
	
		<ellipse transform="matrix(0.9819 -0.1895 0.1895 0.9819 -4.8375 27.8713)" opacity="0.25" fill="#FFFFFF" cx="143.355" cy="39.237" rx="4.52" ry="1.662"/>
	
		<ellipse transform="matrix(0.5604 -0.8282 0.8282 0.5604 -31.0755 237.2334)" opacity="0.25" fill="#FFFFFF" cx="207.948" cy="147.891" rx="2.043" ry="0.954"/>
	
		<ellipse transform="matrix(0.1824 -0.9832 0.9832 0.1824 9.1922 338.4884)" opacity="0.25" fill="#FFFFFF" cx="208.135" cy="163.717" rx="6.01" ry="3.139"/>
</g>
</svg>
