<svg xmlns="http://www.w3.org/2000/svg" xmlns:xlink="http://www.w3.org/1999/xlink" width="360.256" height="1310.385" viewBox="0 0 360.256 1310.385"><defs><linearGradient id="a" x1="0.5" y1="0.036" x2="0.5" y2="0.741" gradientUnits="objectBoundingBox"><stop offset="0" stop-color="#8c4f9b"/><stop offset="1" stop-color="#e5512c"/></linearGradient></defs><path d="M137.072,1310.385c-13.283,0-26.7-.291-39.873-.865-13.549-.59-27.227-1.5-40.652-2.691-16.163-1.44-32.811-3.571-49.483-6.334-2.331-.386-4.707-.793-7.065-1.208V0C1.328.173,2.568.336,3.688.484c22.494,2.985,44.58,6.447,65.644,10.29,22.311,4.071,44.092,8.683,64.736,13.707,10.752,2.617,21.408,5.4,31.673,8.264,10.551,2.946,20.988,6.066,31.022,9.272,10.283,3.286,20.454,6.762,30.229,10.333,9.993,3.65,19.849,7.5,29.295,11.445,18.411,7.687,36.66,16.029,54.24,24.794,16.888,8.42,33.619,17.461,49.728,26.871V1284.072c-16.973,4-34.271,7.6-51.414,10.7-18.084,3.271-36.446,6.068-54.574,8.313-19.07,2.361-38.373,4.172-57.376,5.383C176.966,1309.741,156.84,1310.385,137.072,1310.385Z" transform="translate(0 0)" fill="url(#a)"/></svg>