<svg xmlns="http://www.w3.org/2000/svg" xmlns:xlink="http://www.w3.org/1999/xlink" width="1920" height="3718.382" viewBox="0 0 1920 3718.382"><defs><linearGradient id="a" x1="0.5" x2="0.5" y2="1" gradientUnits="objectBoundingBox"><stop offset="0" stop-color="#edb72a"/><stop offset="1" stop-color="#e5512c"/></linearGradient><linearGradient id="b" x1="0.5" y1="1" x2="0.5" gradientUnits="objectBoundingBox"><stop offset="0" stop-color="#edb72a"/><stop offset="1" stop-color="#2cae70"/></linearGradient><linearGradient id="c" x1="0.5" x2="0.5" y2="1" gradientUnits="objectBoundingBox"><stop offset="0" stop-color="#e5512c"/><stop offset="1" stop-color="#8c4f9b"/></linearGradient><linearGradient id="d" x1="0.5" x2="0.5" y2="1" gradientUnits="objectBoundingBox"><stop offset="0" stop-color="#8c4f9b"/><stop offset="1" stop-color="#e5512c"/></linearGradient><linearGradient id="e" y1="0" y2="1" xlink:href="#b"/><linearGradient id="g" x1="0.5" x2="0.5" y2="1" gradientUnits="objectBoundingBox"><stop offset="0" stop-color="#2cae70"/><stop offset="1" stop-color="#4b63ad"/></linearGradient><linearGradient id="h" x1="0.5" x2="0.5" y2="1" gradientUnits="objectBoundingBox"><stop offset="0" stop-color="#4b63ad"/><stop offset="1" stop-color="#8c4f9b"/></linearGradient></defs><g transform="translate(0 -732)"><path d="M3157.172,1363.6s-234.01,151.184-391.658,186.381-421.812,45.907-537.439,60.366c-252.46,31.569-526.319,273.435-628,401.477s-206.17,420.572-214.745,604.5,12.867,498.939,295.591,716.009,659.4,217.151,917.089,164.331,559.159-264.1,559.159-264.1Z" transform="translate(-1237.172 -631.6)" fill="url(#a)"/><path d="M2136.592,2278.9s337.965,48,513.947,0S2974.5,2063.919,3002.5,1910.935s-23.519-301.208-239.975-455.952S2136.592,1287,2136.592,1287Z" transform="translate(-2136.592 -516.604)" fill="url(#b)"/><path d="M-1607.233,2364s-166.769,167.783-212.4,273.372-76.171,256.574-18.456,414.557,230.86,215.978,230.86,215.978Z" transform="translate(3527.033 -1192.645)" fill="url(#c)"/><path d="M-3426,3795.842s652.432-72.474,1074.688,103.844,584.739,491.2,635.934,595.039,115.988,296.286,103.189,599.163-118.388,428.355-211.178,497.584-428.856,220.646-829.513,184.951S-3426,5448.687-3426,5448.687Z" transform="translate(3426 -1663.745)" fill="url(#d)"/><path d="M-1506.151,4388s-421.456,17.49-714.725,122.816-419.156,187.352-511.946,270.543S-2935.2,5036.873-2948,5199.86s-3.2,398.243,169.583,544.315,517.546,180.107,790.317,162.987,481.95-162.987,481.95-162.987Z" transform="translate(3425.95 -1460.829)" fill="url(#e)"/><circle cx="239.975" cy="239.975" r="239.975" transform="translate(233.976 3821.078)" fill="url(#a)"/><path d="M105,257.634h0A130.394,130.394,0,0,1,63.312,241.27a131.537,131.537,0,0,1,0-224.91A130.394,130.394,0,0,1,105,0V257.632Z" transform="translate(1814.811 2743.861)" fill="url(#g)"/><path d="M-3426,4261s169.682,67.244,241.174,190.979,57.595,243.176,44.8,303.969-54.395,118.389-121.588,172.781S-3426,5011.921-3426,5011.921Z" transform="translate(3426 -1387.823)" fill="url(#h)"/></g></svg>