<svg xmlns="http://www.w3.org/2000/svg" xmlns:xlink="http://www.w3.org/1999/xlink" width="360.256" height="1270.319" viewBox="0 0 360.256 1270.319"><defs><linearGradient id="a" x1="0.5" x2="0.5" y2="0.718" gradientUnits="objectBoundingBox"><stop offset="0" stop-color="#edb72a"/><stop offset="1" stop-color="#e5512c"/></linearGradient></defs><path d="M256.085,1296.32h-.024c-17.657,0-35.38-.524-52.676-1.556-18.023-1.075-36.035-2.731-53.536-4.922-18.208-2.278-36.342-5.2-53.9-8.671-9.053-1.792-18.114-3.764-26.932-5.861-9-2.139-18.031-4.474-26.835-6.941-8.956-2.509-17.932-5.224-26.678-8.07-5.159-1.679-10.375-3.45-15.5-5.263V71.733c3.48-1.518,6.99-3.006,10.435-4.422,8.807-3.624,17.812-7.049,26.766-10.182,9.2-3.219,18.612-6.219,27.968-8.916,9.61-2.77,19.444-5.3,29.229-7.527,10.034-2.281,20.313-4.305,30.552-6.016,10.494-1.753,21.238-3.228,31.935-4.382,10.952-1.183,22.182-2.066,33.379-2.626,11.361-.569,22.857-1,34.169-1.272,10.606-.258,21.4-.389,32.08-.389,17.946,0,35.826.355,54.664,1.085,15.236.59,30.831,1.41,49.078,2.581V1290.492c-16.976,1.886-34.163,3.332-51.083,4.3C291.454,1295.806,273.593,1296.32,256.085,1296.32Z" transform="translate(0 -26)" fill="url(#a)"/></svg>