<svg xmlns="http://www.w3.org/2000/svg" xmlns:xlink="http://www.w3.org/1999/xlink" width="768.501" height="4725.71" viewBox="0 0 768.501 4725.71"><defs><linearGradient id="a" x1="0.5" x2="0.5" y2="0.553" gradientUnits="objectBoundingBox"><stop offset="0" stop-color="#edb72a"/><stop offset="1" stop-color="#e5512c"/></linearGradient><linearGradient id="b" x1="0.5" y1="0.036" x2="0.5" y2="0.586" gradientUnits="objectBoundingBox"><stop offset="0" stop-color="#8c4f9b"/><stop offset="1" stop-color="#e5512c"/></linearGradient><linearGradient id="c" x1="0.5" y1="-0.078" x2="0.5" y2="1" gradientUnits="objectBoundingBox"><stop offset="0" stop-color="#2cae70"/><stop offset="1" stop-color="#edb72a"/></linearGradient></defs><g transform="translate(0.5 -113.857)"><path d="M545.927,2737.844h-.051c-37.641,0-75.422-1.117-112.3-3.318-38.428-2.294-76.827-5.825-114.13-10.493-38.835-4.86-77.494-11.079-114.905-18.484-19.243-3.808-38.559-8.012-57.412-12.494-19.192-4.562-38.44-9.541-57.209-14.8-19.115-5.354-38.249-11.142-56.872-17.2-10.972-3.571-22.093-7.345-33.053-11.219V127.241c7.4-3.228,14.885-6.4,22.244-9.428,18.794-7.733,37.992-15.036,57.062-21.706,19.621-6.863,39.681-13.258,59.622-19.007,20.494-5.908,41.459-11.306,62.311-16.046,21.383-4.861,43.3-9.176,65.132-12.825,22.353-3.736,45.258-6.879,68.08-9.343,23.34-2.52,47.281-4.4,71.158-5.6,24.261-1.214,48.77-2.125,72.845-2.71,22.644-.55,45.652-.829,68.386-.829,38.218,0,76.337.757,116.535,2.314,32.427,1.255,65.672,3,104.625,5.5V2725.42c-36.149,4.017-72.788,7.1-108.9,9.167C621.325,2736.749,583.249,2737.844,545.927,2737.844Z" transform="translate(0 84.11)" fill="url(#a)"/><path d="M292.213,2793.509c-28.318,0-56.916-.62-85-1.843-28.885-1.258-58.042-3.188-86.662-5.738-34.457-3.07-69.948-7.613-105.488-13.5-4.968-.823-10.035-1.69-15.061-2.576V0C2.83.368,5.475.716,7.863,1.033,55.815,7.4,102.9,14.776,147.8,22.97c47.564,8.679,94,18.511,138.006,29.221,22.92,5.579,45.638,11.506,67.522,17.617,22.492,6.281,44.742,12.931,66.134,19.767,21.922,7,43.6,14.416,64.444,22.028,21.3,7.781,42.314,15.99,62.451,24.4,39.249,16.388,78.153,34.172,115.629,52.856,36,17.95,71.669,37.223,106.012,57.284V2737.414c-36.184,8.53-73.06,16.207-109.606,22.82-38.552,6.974-77.7,12.936-116.341,17.721-40.653,5.033-81.805,8.894-122.314,11.475C377.26,2792.136,334.354,2793.509,292.213,2793.509Z" transform="translate(0 1522.616)" fill="url(#b)"/><path d="M715.887,1763.514h-.031c-72.737,0-144.935-3.069-214.59-9.118-76.128-6.612-148.09-16.716-213.886-30.032-35.12-7.107-68.857-15.221-100.272-24.116-16.235-4.6-32.165-9.495-47.347-14.554-15.512-5.17-30.673-10.654-45.061-16.3-14.7-5.768-28.98-11.861-42.455-18.11-13.769-6.386-27.068-13.11-39.528-19.985-4.275-2.359-8.554-4.793-12.717-7.235V291.388c2.7-2.4,5.421-4.779,8.1-7.079,33.635-28.861,74.453-57.08,121.32-83.871,49.867-28.5,106.273-55.195,167.65-79.329,32.215-12.667,66.188-24.77,100.975-35.972,36.06-11.613,73.84-22.53,112.289-32.45C550.21,42.4,591.766,32.935,633.851,24.556c43.594-8.682,88.9-16.427,134.649-23.019V1762.97C751.075,1763.332,733.374,1763.514,715.887,1763.514Z" transform="translate(-0.5 3076.053)" fill="url(#c)"/></g></svg>