<svg xmlns="http://www.w3.org/2000/svg" xmlns:xlink="http://www.w3.org/1999/xlink" width="1920" height="3718.381" viewBox="0 0 1920 3718.381"><defs><linearGradient id="a" x1="0.5" x2="0.5" y2="1" gradientUnits="objectBoundingBox"><stop offset="0" stop-color="#edb72a"/><stop offset="1" stop-color="#e5512c"/></linearGradient><linearGradient id="b" x1="0.5" y1="1" x2="0.5" gradientUnits="objectBoundingBox"><stop offset="0" stop-color="#edb72a"/><stop offset="1" stop-color="#2cae70"/></linearGradient><linearGradient id="c" x1="0.5" x2="0.5" y2="1" gradientUnits="objectBoundingBox"><stop offset="0" stop-color="#e5512c"/><stop offset="1" stop-color="#8c4f9b"/></linearGradient><linearGradient id="d" x1="0.5" x2="0.5" y2="1" gradientUnits="objectBoundingBox"><stop offset="0" stop-color="#8c4f9b"/><stop offset="1" stop-color="#e5512c"/></linearGradient><linearGradient id="e" y1="0" y2="1" xlink:href="#b"/><linearGradient id="g" x1="0.5" x2="0.5" y2="1" gradientUnits="objectBoundingBox"><stop offset="0" stop-color="#2cae70"/><stop offset="1" stop-color="#4b63ad"/></linearGradient><linearGradient id="h" x1="0.5" x2="0.5" y2="1" gradientUnits="objectBoundingBox"><stop offset="0" stop-color="#4b63ad"/><stop offset="1" stop-color="#8c4f9b"/></linearGradient></defs><g transform="translate(0 -1255)"><path d="M3157.157,1363.6S2923.149,1514.8,2765.5,1550s-421.808,45.912-537.435,60.372c-252.458,31.572-526.314,273.464-627.99,401.518s-206.168,420.616-214.744,604.563,12.867,498.991,295.588,716.084S2340.311,3549.71,2598,3496.884s559.154-264.129,559.154-264.129Z" transform="translate(-1237.157 -108.6)" fill="url(#a)"/><path d="M2136.592,2279s338,48,514,0,324-215,352-368-23.521-301.24-240-456-626-168-626-168Z" transform="translate(-2136.592 6.4)" fill="url(#b)"/><path d="M-1607.206,2364s-166.787,167.8-212.427,273.4-76.179,256.6-18.457,414.6,230.884,216,230.884,216Z" transform="translate(3527.005 -669.6)" fill="url(#c)"/><path d="M-3426,3795.844s652.428-72.481,1074.682,103.854,584.735,491.247,635.93,595.1,115.987,296.316,103.189,599.225-118.387,428.4-211.177,497.636-428.853,220.669-829.509,184.97S-3426,5448.861-3426,5448.861Z" transform="translate(3426 -1140.988)" fill="url(#d)"/><path d="M-1506,4388s-421.5,17.492-714.8,122.83-419.2,187.371-512,270.57-202.4,255.541-215.2,418.545-3.2,398.284,169.6,544.373,517.6,180.125,790.4,163,482-163,482-163Z" transform="translate(3425.8 -937.988)" fill="url(#e)"/><circle cx="240" cy="240" r="240" transform="translate(234 4344.012)" fill="url(#a)"/><path d="M105,257.658h0a130.413,130.413,0,0,1-41.686-16.366,131.551,131.551,0,0,1,0-224.926A130.414,130.414,0,0,1,105,0V257.657Z" transform="translate(1814.8 3266.846)" fill="url(#g)"/><path d="M-3426,4261s169.7,67.25,241.2,191,57.6,243.2,44.8,304-54.4,118.4-121.6,172.8S-3426,5012-3426,5012Z" transform="translate(3426 -864.88)" fill="url(#h)"/></g></svg>