<svg xmlns="http://www.w3.org/2000/svg" xmlns:xlink="http://www.w3.org/1999/xlink" width="360.49" height="1052.512" viewBox="0 0 360.49 1052.512"><defs><linearGradient id="a" x1="0.5" y1="-0.097" x2="0.5" y2="1" gradientUnits="objectBoundingBox"><stop offset="0" stop-color="#2cae70"/><stop offset="1" stop-color="#edb72a"/></linearGradient></defs><path d="M335.81,1052.511H335.8a919.4,919.4,0,0,1-100.66-5.446,722.481,722.481,0,0,1-100.33-17.94c-16.48-4.247-32.305-9.094-47.036-14.406-7.617-2.748-15.089-5.673-22.209-8.694-7.286-3.092-14.4-6.369-21.137-9.738-6.9-3.446-13.6-7.086-19.915-10.818-6.456-3.813-12.694-7.829-18.542-11.938-2.009-1.412-4.016-2.866-5.965-4.322V173.141c1.271-1.439,2.549-2.862,3.8-4.228,15.779-17.242,34.926-34.1,56.909-50.1a560,560,0,0,1,78.642-47.387c15.109-7.566,31.045-14.8,47.365-21.487,16.9-6.933,34.626-13.454,52.673-19.384,18.692-6.142,38.186-11.8,57.939-16.8C317.784,8.562,339.035,3.936,360.49,0V1052.187C352.313,1052.4,344.01,1052.511,335.81,1052.511Z" transform="translate(0)" fill="url(#a)"/></svg>