<?xml version="1.0" encoding="utf-8"?>
<!-- Generator: Adobe Illustrator 16.0.0, SVG Export Plug-In . SVG Version: 6.00 Build 0)  -->
<!DOCTYPE svg PUBLIC "-//W3C//DTD SVG 1.1//EN" "http://www.w3.org/Graphics/SVG/1.1/DTD/svg11.dtd">
<svg version="1.1" id="圖層_1" xmlns="http://www.w3.org/2000/svg" xmlns:xlink="http://www.w3.org/1999/xlink" x="0px" y="0px"
	 width="330px" height="194.118px" viewBox="0 0 330 194.118" enable-background="new 0 0 330 194.118" xml:space="preserve">
<g transform="translate(-15 -248.941)">
	<rect x="15" y="249" fill="none" width="330" height="194"/>
	
		<linearGradient id="SVGID_1_" gradientUnits="userSpaceOnUse" x1="-226.127" y1="414.1202" x2="-224.9879" y2="413.2482" gradientTransform="matrix(41.25 0 0 -48.529 9349.7188 20357.7949)">
		<stop  offset="0" style="stop-color:#EDB72A"/>
		<stop  offset="1" style="stop-color:#E5512C"/>
	</linearGradient>
	<path fill="url(#SVGID_1_)" d="M25,248.941h31.25l0,0v48.529l0,0H15l0,0v-38.529C15,253.418,19.477,248.941,25,248.941z"/>
	
		<linearGradient id="SVGID_2_" gradientUnits="userSpaceOnUse" x1="-226.0933" y1="414.1592" x2="-225.2913" y2="413.3732" gradientTransform="matrix(41.25 0 0 -48.529 9349.7188 20406.3262)">
		<stop  offset="0" style="stop-color:#E5512C"/>
		<stop  offset="1" style="stop-color:#8C4F9B"/>
	</linearGradient>
	<rect x="15" y="297.471" fill="url(#SVGID_2_)" width="41.25" height="48.529"/>
	
		<linearGradient id="SVGID_3_" gradientUnits="userSpaceOnUse" x1="-226.0933" y1="414.1592" x2="-225.2913" y2="413.3732" gradientTransform="matrix(41.25 0 0 -48.529 9349.7188 20454.8574)">
		<stop  offset="0" style="stop-color:#E5512C"/>
		<stop  offset="1" style="stop-color:#8C4F9B"/>
	</linearGradient>
	<rect x="15" y="346" fill="url(#SVGID_3_)" width="41.25" height="48.529"/>
	
		<linearGradient id="SVGID_4_" gradientUnits="userSpaceOnUse" x1="-226.0605" y1="414.1915" x2="-225.2585" y2="413.4055" gradientTransform="matrix(41.25 0 0 -48.529 9349.7188 20503.3887)">
		<stop  offset="0" style="stop-color:#E5512C"/>
		<stop  offset="1" style="stop-color:#8C4F9B"/>
	</linearGradient>
	<path fill="url(#SVGID_4_)" d="M15,394.529h41.25l0,0v48.529l0,0H25c-5.523,0-10-4.479-10-10V394.529L15,394.529z"/>
	
		<linearGradient id="SVGID_5_" gradientUnits="userSpaceOnUse" x1="-226.127" y1="414.1202" x2="-224.9881" y2="413.2483" gradientTransform="matrix(41.25 0 0 -48.529 9390.9688 20357.7949)">
		<stop  offset="0" style="stop-color:#EDB72A"/>
		<stop  offset="1" style="stop-color:#E5512C"/>
	</linearGradient>
	<rect x="56.25" y="248.941" fill="url(#SVGID_5_)" width="41.25" height="48.529"/>
	
		<linearGradient id="SVGID_6_" gradientUnits="userSpaceOnUse" x1="-226.3857" y1="414.4483" x2="-225.1337" y2="413.2143" gradientTransform="matrix(41.25 0 0 -48.529 9390.9688 20406.3262)">
		<stop  offset="0" style="stop-color:#FFFFFF"/>
		<stop  offset="1" style="stop-color:#EDB72A"/>
	</linearGradient>
	<rect x="56.25" y="297.471" fill="url(#SVGID_6_)" width="41.25" height="48.529"/>
	
		<linearGradient id="SVGID_7_" gradientUnits="userSpaceOnUse" x1="-226.3857" y1="414.4483" x2="-225.1337" y2="413.2143" gradientTransform="matrix(41.25 0 0 -48.529 9390.9688 20454.8574)">
		<stop  offset="0" style="stop-color:#FFFFFF"/>
		<stop  offset="1" style="stop-color:#EDB72A"/>
	</linearGradient>
	<rect x="56.25" y="346" fill="url(#SVGID_7_)" width="41.25" height="48.529"/>
	
		<linearGradient id="SVGID_8_" gradientUnits="userSpaceOnUse" x1="-226.3848" y1="414.4493" x2="-225.1328" y2="413.2153" gradientTransform="matrix(41.25 0 0 -48.529 9390.9688 20503.3887)">
		<stop  offset="0" style="stop-color:#FFFFFF"/>
		<stop  offset="1" style="stop-color:#EDB72A"/>
	</linearGradient>
	<rect x="56.25" y="394.529" fill="url(#SVGID_8_)" width="41.25" height="48.529"/>
	
		<linearGradient id="SVGID_9_" gradientUnits="userSpaceOnUse" x1="-226.1265" y1="414.1212" x2="-224.9875" y2="413.2491" gradientTransform="matrix(41.25 0 0 -48.529 9432.2188 20357.7949)">
		<stop  offset="0" style="stop-color:#EDB72A"/>
		<stop  offset="1" style="stop-color:#E5512C"/>
	</linearGradient>
	<rect x="97.5" y="248.941" fill="url(#SVGID_9_)" width="41.25" height="48.529"/>
	
		<linearGradient id="SVGID_10_" gradientUnits="userSpaceOnUse" x1="-226.3857" y1="414.4483" x2="-225.1337" y2="413.2143" gradientTransform="matrix(41.25 0 0 -48.529 9432.2188 20406.3262)">
		<stop  offset="0" style="stop-color:#FFFFFF"/>
		<stop  offset="1" style="stop-color:#EDB72A"/>
	</linearGradient>
	<rect x="97.5" y="297.471" fill="url(#SVGID_10_)" width="41.25" height="48.529"/>
	
		<linearGradient id="SVGID_11_" gradientUnits="userSpaceOnUse" x1="-226.3848" y1="414.4493" x2="-225.1328" y2="413.2153" gradientTransform="matrix(41.25 0 0 -48.529 9432.2188 20454.8574)">
		<stop  offset="0" style="stop-color:#FFFFFF"/>
		<stop  offset="1" style="stop-color:#EDB72A"/>
	</linearGradient>
	<rect x="97.5" y="346" fill="url(#SVGID_11_)" width="41.25" height="48.529"/>
	
		<linearGradient id="SVGID_12_" gradientUnits="userSpaceOnUse" x1="-226.3848" y1="414.4493" x2="-225.1328" y2="413.2153" gradientTransform="matrix(41.25 0 0 -48.529 9432.2188 20503.3887)">
		<stop  offset="0" style="stop-color:#FFFFFF"/>
		<stop  offset="1" style="stop-color:#EDB72A"/>
	</linearGradient>
	<rect x="97.5" y="394.529" fill="url(#SVGID_12_)" width="41.25" height="48.529"/>
	
		<linearGradient id="SVGID_13_" gradientUnits="userSpaceOnUse" x1="-226.127" y1="414.1202" x2="-224.9881" y2="413.2483" gradientTransform="matrix(41.25 0 0 -48.529 9473.4688 20357.7949)">
		<stop  offset="0" style="stop-color:#EDB72A"/>
		<stop  offset="1" style="stop-color:#E5512C"/>
	</linearGradient>
	<rect x="138.75" y="248.941" fill="url(#SVGID_13_)" width="41.25" height="48.529"/>
	
		<linearGradient id="SVGID_14_" gradientUnits="userSpaceOnUse" x1="-226.3848" y1="414.4493" x2="-225.1328" y2="413.2153" gradientTransform="matrix(41.25 0 0 -48.529 9473.4688 20406.3262)">
		<stop  offset="0" style="stop-color:#FFFFFF"/>
		<stop  offset="1" style="stop-color:#EDB72A"/>
	</linearGradient>
	<rect x="138.75" y="297.471" fill="url(#SVGID_14_)" width="41.25" height="48.529"/>
	
		<linearGradient id="SVGID_15_" gradientUnits="userSpaceOnUse" x1="-226.3848" y1="414.4493" x2="-225.1328" y2="413.2153" gradientTransform="matrix(41.25 0 0 -48.529 9473.4688 20454.8574)">
		<stop  offset="0" style="stop-color:#FFFFFF"/>
		<stop  offset="1" style="stop-color:#EDB72A"/>
	</linearGradient>
	<rect x="138.75" y="346" fill="url(#SVGID_15_)" width="41.25" height="48.529"/>
	
		<linearGradient id="SVGID_16_" gradientUnits="userSpaceOnUse" x1="-226.3857" y1="414.4483" x2="-225.1337" y2="413.2143" gradientTransform="matrix(41.25 0 0 -48.529 9473.4688 20503.3887)">
		<stop  offset="0" style="stop-color:#FFFFFF"/>
		<stop  offset="1" style="stop-color:#EDB72A"/>
	</linearGradient>
	<rect x="138.75" y="394.529" fill="url(#SVGID_16_)" width="41.25" height="48.529"/>
	
		<linearGradient id="SVGID_17_" gradientUnits="userSpaceOnUse" x1="-226.127" y1="414.1202" x2="-224.9881" y2="413.2483" gradientTransform="matrix(41.25 0 0 -48.529 9514.7188 20357.7949)">
		<stop  offset="0" style="stop-color:#EDB72A"/>
		<stop  offset="1" style="stop-color:#E5512C"/>
	</linearGradient>
	<rect x="180" y="248.941" fill="url(#SVGID_17_)" width="41.25" height="48.529"/>
	
		<linearGradient id="SVGID_18_" gradientUnits="userSpaceOnUse" x1="-226.3857" y1="414.4483" x2="-225.1338" y2="413.2143" gradientTransform="matrix(41.25 0 0 -48.529 9514.7188 20406.3262)">
		<stop  offset="0" style="stop-color:#FFFFFF"/>
		<stop  offset="1" style="stop-color:#EDB72A"/>
	</linearGradient>
	<rect x="180" y="297.471" fill="url(#SVGID_18_)" width="41.25" height="48.529"/>
	
		<linearGradient id="SVGID_19_" gradientUnits="userSpaceOnUse" x1="-226.3848" y1="414.4493" x2="-225.1328" y2="413.2153" gradientTransform="matrix(41.25 0 0 -48.529 9514.7188 20454.8574)">
		<stop  offset="0" style="stop-color:#FFFFFF"/>
		<stop  offset="1" style="stop-color:#EDB72A"/>
	</linearGradient>
	<rect x="180" y="346" fill="url(#SVGID_19_)" width="41.25" height="48.529"/>
	
		<linearGradient id="SVGID_20_" gradientUnits="userSpaceOnUse" x1="-226.3848" y1="414.4493" x2="-225.1328" y2="413.2153" gradientTransform="matrix(41.25 0 0 -48.529 9514.7188 20503.3887)">
		<stop  offset="0" style="stop-color:#FFFFFF"/>
		<stop  offset="1" style="stop-color:#EDB72A"/>
	</linearGradient>
	<rect x="180" y="394.529" fill="url(#SVGID_20_)" width="41.25" height="48.529"/>
	
		<linearGradient id="SVGID_21_" gradientUnits="userSpaceOnUse" x1="-226.127" y1="414.1202" x2="-224.9879" y2="413.2482" gradientTransform="matrix(41.25 0 0 -48.529 9555.9688 20357.7949)">
		<stop  offset="0" style="stop-color:#EDB72A"/>
		<stop  offset="1" style="stop-color:#E5512C"/>
	</linearGradient>
	<rect x="221.25" y="248.941" fill="url(#SVGID_21_)" width="41.25" height="48.529"/>
	
		<linearGradient id="SVGID_22_" gradientUnits="userSpaceOnUse" x1="-226.3848" y1="414.4493" x2="-225.1328" y2="413.2153" gradientTransform="matrix(41.25 0 0 -48.529 9555.9688 20406.3262)">
		<stop  offset="0" style="stop-color:#FFFFFF"/>
		<stop  offset="1" style="stop-color:#EDB72A"/>
	</linearGradient>
	<rect x="221.25" y="297.471" fill="url(#SVGID_22_)" width="41.25" height="48.529"/>
	
		<linearGradient id="SVGID_23_" gradientUnits="userSpaceOnUse" x1="-226.3857" y1="414.4483" x2="-225.1337" y2="413.2143" gradientTransform="matrix(41.25 0 0 -48.529 9555.9688 20454.8574)">
		<stop  offset="0" style="stop-color:#FFFFFF"/>
		<stop  offset="1" style="stop-color:#EDB72A"/>
	</linearGradient>
	<rect x="221.25" y="346" fill="url(#SVGID_23_)" width="41.25" height="48.529"/>
	
		<linearGradient id="SVGID_24_" gradientUnits="userSpaceOnUse" x1="-226.3857" y1="414.4483" x2="-225.1337" y2="413.2143" gradientTransform="matrix(41.25 0 0 -48.529 9555.9688 20503.3887)">
		<stop  offset="0" style="stop-color:#FFFFFF"/>
		<stop  offset="1" style="stop-color:#EDB72A"/>
	</linearGradient>
	<rect x="221.25" y="394.529" fill="url(#SVGID_24_)" width="41.25" height="48.529"/>
	
		<linearGradient id="SVGID_25_" gradientUnits="userSpaceOnUse" x1="-226.127" y1="414.1202" x2="-224.9879" y2="413.2482" gradientTransform="matrix(41.25 0 0 -48.529 9597.2188 20357.7949)">
		<stop  offset="0" style="stop-color:#EDB72A"/>
		<stop  offset="1" style="stop-color:#E5512C"/>
	</linearGradient>
	<rect x="262.5" y="248.941" fill="url(#SVGID_25_)" width="41.25" height="48.529"/>
	
		<linearGradient id="SVGID_26_" gradientUnits="userSpaceOnUse" x1="-226.3857" y1="414.4483" x2="-225.1337" y2="413.2143" gradientTransform="matrix(41.25 0 0 -48.529 9597.2188 20406.3262)">
		<stop  offset="0" style="stop-color:#FFFFFF"/>
		<stop  offset="1" style="stop-color:#EDB72A"/>
	</linearGradient>
	<rect x="262.5" y="297.471" fill="url(#SVGID_26_)" width="41.25" height="48.529"/>
	
		<linearGradient id="SVGID_27_" gradientUnits="userSpaceOnUse" x1="-226.3857" y1="414.4483" x2="-225.1337" y2="413.2143" gradientTransform="matrix(41.25 0 0 -48.529 9597.2188 20454.8574)">
		<stop  offset="0" style="stop-color:#FFFFFF"/>
		<stop  offset="1" style="stop-color:#EDB72A"/>
	</linearGradient>
	<rect x="262.5" y="346" fill="url(#SVGID_27_)" width="41.25" height="48.529"/>
	
		<linearGradient id="SVGID_28_" gradientUnits="userSpaceOnUse" x1="-226.3848" y1="414.4493" x2="-225.1328" y2="413.2153" gradientTransform="matrix(41.25 0 0 -48.529 9597.2188 20503.3887)">
		<stop  offset="0" style="stop-color:#FFFFFF"/>
		<stop  offset="1" style="stop-color:#EDB72A"/>
	</linearGradient>
	<rect x="262.5" y="394.529" fill="url(#SVGID_28_)" width="41.25" height="48.529"/>
	
		<linearGradient id="SVGID_29_" gradientUnits="userSpaceOnUse" x1="-226.1548" y1="414.084" x2="-225.0159" y2="413.2121" gradientTransform="matrix(41.25 0 0 -48.529 9638.4688 20357.7949)">
		<stop  offset="0" style="stop-color:#EDB72A"/>
		<stop  offset="1" style="stop-color:#E5512C"/>
	</linearGradient>
	<path fill="url(#SVGID_29_)" d="M303.75,248.941H335c5.523,0,10,4.477,10,10v38.529l0,0h-41.25l0,0V248.941L303.75,248.941z"/>
	
		<linearGradient id="SVGID_30_" gradientUnits="userSpaceOnUse" x1="-226.3857" y1="414.4483" x2="-225.1337" y2="413.2143" gradientTransform="matrix(41.25 0 0 -48.529 9638.4688 20406.3262)">
		<stop  offset="0" style="stop-color:#FFFFFF"/>
		<stop  offset="1" style="stop-color:#EDB72A"/>
	</linearGradient>
	<rect x="303.75" y="297.471" fill="url(#SVGID_30_)" width="41.25" height="48.529"/>
	
		<linearGradient id="SVGID_31_" gradientUnits="userSpaceOnUse" x1="-226.3848" y1="414.4493" x2="-225.1328" y2="413.2153" gradientTransform="matrix(41.25 0 0 -48.529 9638.4688 20454.8574)">
		<stop  offset="0" style="stop-color:#FFFFFF"/>
		<stop  offset="1" style="stop-color:#EDB72A"/>
	</linearGradient>
	<rect x="303.75" y="346" fill="url(#SVGID_31_)" width="41.25" height="48.529"/>
	
		<linearGradient id="SVGID_32_" gradientUnits="userSpaceOnUse" x1="-226.3848" y1="414.4493" x2="-225.1328" y2="413.2153" gradientTransform="matrix(41.25 0 0 -48.529 9638.4688 20503.3887)">
		<stop  offset="0" style="stop-color:#FFFFFF"/>
		<stop  offset="1" style="stop-color:#EDB72A"/>
	</linearGradient>
	<path fill="url(#SVGID_32_)" d="M303.75,394.529H345l0,0v38.529c0,5.521-4.477,10-10,10h-31.25l0,0V394.529L303.75,394.529z"/>
	<g enable-background="new    ">
		<path fill="#262727" d="M85.76,273.725H68.357v-1.768H85.76V273.725z"/>
	</g>
	<g enable-background="new    ">
		<path fill="#262727" d="M126.721,281.303h-17.324v-1.768h17.324V281.303z M125.383,267.035h-14.658v-1.758h14.658V267.035z"/>
	</g>
	<g enable-background="new    ">
		<path fill="#262727" d="M168.779,281.498h-17.422v-1.816h17.422V281.498z M167.939,266.859h-15.615v-1.836h15.615V266.859z
			 M167.002,273.9h-13.838v-1.816h13.838V273.9z"/>
	</g>
	<g enable-background="new    ">
		<path fill="#262727" d="M209.057,281.996h-1.816v-1.191h-12.275v1.191h-1.807v-16.934h15.898V281.996z M207.24,279.076V266.82
			h-2.92v6.924c0,0.234,0.107,0.352,0.322,0.352h2.041v1.748h-2.188c-0.795,0-1.314-0.158-1.563-0.474s-0.371-0.754-0.371-1.313
			v-7.236h-2.842v2.822c0,3.274-1.02,5.928-3.057,7.959l-1.484-1.123c0.893-0.833,1.568-1.777,2.031-2.832s0.693-2.39,0.693-4.004
			v-2.822h-2.939v12.256H207.24z"/>
	</g>
	<g enable-background="new    ">
		<path fill="#262727" d="M250.76,281.518h-17.441v-1.719h4.141l1.504-7.275h-3.984v-1.787h4.297l0.82-3.955h-6.035v-1.758h15.957
			v1.758H242l-0.82,3.955h6.797v9.063h2.783V281.518z M246.121,279.799v-7.275h-5.283l-1.436,7.275H246.121z"/>
	</g>
	<g enable-background="new    ">
		<path fill="#262727" d="M281.74,272.856c-1.92,3.997-3.994,7.08-6.221,9.248l-1.24-1.387c1.947-1.797,3.9-4.697,5.859-8.701
			L281.74,272.856z M291.662,270.063h-17.178v-1.719h8.018c-0.307-0.996-0.775-2.132-1.406-3.408l1.982-0.596
			c0.664,1.419,1.178,2.754,1.543,4.004h7.041V270.063z M291.984,280.805l-1.484,1.172c-2.006-3.626-4.047-6.599-6.123-8.916
			l1.543-0.957C287.789,274.161,289.811,277.062,291.984,280.805z"/>
	</g>
	<g enable-background="new    ">
		<path fill="#262727" d="M41.181,317.336H29.844v-1.168h4.666v-9.87h1.212v3.903h4.9v1.143h-4.9v4.824h5.459V317.336z"/>
	</g>
	<g enable-background="new    ">
		<path fill="#262727" d="M41.168,329.83h-5.021v4.843h-1.168v-4.843h-5.097v-1.149h5.097v-2.742h-2.342
			c-0.703,0.88-1.356,1.574-1.961,2.082l-0.882-0.882c1.104-0.859,2.205-2.178,3.301-3.955l1.117,0.444
			c-0.262,0.453-0.519,0.847-0.768,1.181h7.167v1.13h-4.462v2.742h5.021V329.83z"/>
	</g>
	<g enable-background="new    ">
		<path fill="#262727" d="M41.181,355.771h-5.643v2.095c2.052,1.07,3.616,2.055,4.691,2.951l-0.724,0.997
			c-0.995-0.859-2.317-1.743-3.967-2.653v6.462h-1.181v-9.852h-4.475v-1.143h11.299V355.771z"/>
	</g>
	<g enable-background="new    ">
		<path fill="#262727" d="M41.168,377.83h-5.021v4.843h-1.168v-4.843h-5.097v-1.149h5.097v-2.742h-2.342
			c-0.703,0.88-1.356,1.574-1.961,2.082l-0.882-0.882c1.104-0.859,2.205-2.178,3.301-3.955l1.117,0.444
			c-0.262,0.453-0.519,0.847-0.768,1.181h7.167v1.13h-4.462v2.742h5.021V377.83z"/>
	</g>
	<g enable-background="new    ">
		<path fill="#262727" d="M33.38,413.6h-1.079v-0.457h-1.003v0.908h-1.092v-9.973h3.174V413.6z M32.301,408.033v-2.818h-1.003v2.818
			H32.301z M32.301,412.039v-2.863h-1.003v2.863H32.301z M41.295,412.152c-0.051,1.021-0.15,1.643-0.298,1.867
			c-0.148,0.224-0.308,0.366-0.479,0.428c-0.171,0.062-0.583,0.092-1.234,0.092c-0.96,0-1.441-0.349-1.441-1.047v-2.793
			c-0.22,0.825-0.647,1.608-1.282,2.349s-1.36,1.318-2.177,1.733l-0.819-0.928c0.766-0.334,1.456-0.824,2.069-1.473
			c0.614-0.646,0.999-1.33,1.155-2.05h-2.355v-2.895l-0.4,0.286l-0.47-1.117c1.087-0.716,1.972-1.835,2.653-3.358l1.143,0.247
			c-0.063,0.183-0.176,0.426-0.336,0.73h2.704v1.079l-1.016,1.313h2.12v3.714h-1.873v2.876c0,0.156,0.171,0.234,0.514,0.234
			c0.322,0,0.518-0.065,0.587-0.197c0.07-0.131,0.105-0.619,0.105-1.466L41.295,412.152z M38.375,405.304H36.37
			c-0.309,0.47-0.647,0.907-1.016,1.313h1.955C37.686,406.169,38.041,405.732,38.375,405.304z M37.074,407.697h-1.511v1.555h1.416
			C37.042,408.668,37.074,408.149,37.074,407.697z M39.67,409.252v-1.555h-1.428c-0.059,0.766-0.102,1.284-0.127,1.555H39.67z"/>
	</g>
	<g enable-background="new    ">
		<path fill="#262727" d="M41.181,431.336H29.844v-1.168h4.666v-9.87h1.212v3.903h4.9v1.143h-4.9v4.824h5.459V431.336z"/>
	</g>
	<g enable-background="new    ">
		<path fill="#262727" d="M269.34,311.09c0-1.063,0.182-1.868,0.545-2.418s0.891-0.824,1.58-0.824c1.314,0,1.973,1.032,1.973,3.098
			c0,1.011-0.18,1.789-0.539,2.336s-0.881,0.82-1.563,0.82c-0.658,0-1.156-0.258-1.492-0.773S269.34,312.066,269.34,311.09z
			 M270.273,311.055c0,1.542,0.373,2.313,1.121,2.313c0.736,0,1.105-0.786,1.105-2.359c0-1.614-0.361-2.422-1.082-2.422
			C270.654,308.586,270.273,309.409,270.273,311.055z"/>
		<path fill="#262727" d="M274.473,313.07c0.336,0.198,0.701,0.297,1.098,0.297c0.529,0,0.936-0.2,1.219-0.602
			s0.426-0.964,0.426-1.688c-0.008,0-0.014-0.001-0.02-0.004c-0.264,0.474-0.697,0.711-1.305,0.711c-0.514,0-0.934-0.179-1.26-0.535
			s-0.49-0.804-0.49-1.34c0-0.604,0.186-1.099,0.557-1.484s0.855-0.578,1.451-0.578c0.627,0,1.113,0.242,1.459,0.727
			s0.518,1.172,0.518,2.063c0,1.083-0.217,1.932-0.652,2.545s-1.057,0.92-1.867,0.92c-0.436,0-0.813-0.07-1.133-0.211V313.07z
			 M275.055,309.809c0,0.375,0.096,0.674,0.287,0.896s0.457,0.334,0.795,0.334c0.295,0,0.539-0.102,0.736-0.305
			s0.295-0.452,0.295-0.746c0-0.388-0.098-0.719-0.291-0.992s-0.455-0.41-0.783-0.41c-0.305,0-0.555,0.118-0.748,0.355
			S275.055,309.468,275.055,309.809z"/>
		<path fill="#262727" d="M282.531,309.602c0.162,0,0.297,0.052,0.404,0.156s0.162,0.23,0.162,0.379
			c0,0.153-0.055,0.282-0.166,0.387s-0.244,0.156-0.4,0.156c-0.15,0-0.281-0.052-0.393-0.156s-0.166-0.233-0.166-0.387
			c0-0.148,0.055-0.274,0.162-0.379S282.375,309.602,282.531,309.602z M282.531,313.016c0.156,0,0.289,0.052,0.4,0.156
			s0.166,0.233,0.166,0.387s-0.055,0.282-0.162,0.385s-0.242,0.154-0.404,0.154c-0.156,0-0.289-0.052-0.396-0.156
			s-0.162-0.231-0.162-0.383c0-0.153,0.055-0.282,0.166-0.387S282.381,313.016,282.531,313.016z"/>
		<path fill="#262727" d="M286.871,311.09c0-1.063,0.182-1.868,0.545-2.418s0.891-0.824,1.58-0.824c1.314,0,1.973,1.032,1.973,3.098
			c0,1.011-0.18,1.789-0.539,2.336s-0.881,0.82-1.563,0.82c-0.658,0-1.156-0.258-1.492-0.773S286.871,312.066,286.871,311.09z
			 M287.805,311.055c0,1.542,0.373,2.313,1.121,2.313c0.736,0,1.105-0.786,1.105-2.359c0-1.614-0.361-2.422-1.082-2.422
			C288.186,308.586,287.805,309.409,287.805,311.055z"/>
		<path fill="#262727" d="M291.637,311.09c0-1.063,0.182-1.868,0.545-2.418s0.891-0.824,1.58-0.824c1.314,0,1.973,1.032,1.973,3.098
			c0,1.011-0.18,1.789-0.539,2.336s-0.881,0.82-1.563,0.82c-0.658,0-1.156-0.258-1.492-0.773S291.637,312.066,291.637,311.09z
			 M292.57,311.055c0,1.542,0.373,2.313,1.121,2.313c0.736,0,1.105-0.786,1.105-2.359c0-1.614-0.361-2.422-1.082-2.422
			C292.951,308.586,292.57,309.409,292.57,311.055z"/>
	</g>
	<g enable-background="new    ">
		<path fill="#262727" d="M273.297,337h-3.563v-0.766h1.324v-4.371l-1.359,0.367v-0.805l2.277-0.598v5.406h1.32V337z"/>
		<path fill="#262727" d="M278.063,337H274.5v-0.766h1.324v-4.371l-1.359,0.367v-0.805l2.277-0.598v5.406h1.32V337z"/>
		<path fill="#262727" d="M282.531,332.602c0.162,0,0.297,0.052,0.404,0.156s0.162,0.23,0.162,0.379
			c0,0.153-0.055,0.282-0.166,0.387s-0.244,0.156-0.4,0.156c-0.15,0-0.281-0.052-0.393-0.156s-0.166-0.233-0.166-0.387
			c0-0.148,0.055-0.274,0.162-0.379S282.375,332.602,282.531,332.602z M282.531,336.016c0.156,0,0.289,0.052,0.4,0.156
			s0.166,0.233,0.166,0.387s-0.055,0.282-0.162,0.385s-0.242,0.154-0.404,0.154c-0.156,0-0.289-0.052-0.396-0.156
			s-0.162-0.231-0.162-0.383c0-0.153,0.055-0.282,0.166-0.387S282.381,336.016,282.531,336.016z"/>
		<path fill="#262727" d="M286.871,334.09c0-1.063,0.182-1.868,0.545-2.418s0.891-0.824,1.58-0.824c1.314,0,1.973,1.032,1.973,3.098
			c0,1.011-0.18,1.789-0.539,2.336s-0.881,0.82-1.563,0.82c-0.658,0-1.156-0.258-1.492-0.773S286.871,335.066,286.871,334.09z
			 M287.805,334.055c0,1.542,0.373,2.313,1.121,2.313c0.736,0,1.105-0.786,1.105-2.359c0-1.614-0.361-2.422-1.082-2.422
			C288.186,331.586,287.805,332.409,287.805,334.055z"/>
		<path fill="#262727" d="M291.637,334.09c0-1.063,0.182-1.868,0.545-2.418s0.891-0.824,1.58-0.824c1.314,0,1.973,1.032,1.973,3.098
			c0,1.011-0.18,1.789-0.539,2.336s-0.881,0.82-1.563,0.82c-0.658,0-1.156-0.258-1.492-0.773S291.637,335.066,291.637,334.09z
			 M292.57,334.055c0,1.542,0.373,2.313,1.121,2.313c0.736,0,1.105-0.786,1.105-2.359c0-1.614-0.361-2.422-1.082-2.422
			C292.951,331.586,292.57,332.409,292.57,334.055z"/>
	</g>
	<g enable-background="new    ">
		<path fill="#262727" d="M150.297,363h-3.563v-0.766h1.324v-4.371l-1.359,0.367v-0.805l2.277-0.598v5.406h1.32V363z"/>
		<path fill="#262727" d="M155.262,361.508h-0.758V363h-0.871v-1.492h-2.77v-0.594l2.637-3.965h1.004v3.859h0.758V361.508z
			 M153.633,360.809v-2.367c0-0.177,0.005-0.38,0.016-0.609h-0.016c-0.065,0.161-0.142,0.317-0.23,0.469l-1.664,2.508H153.633z"/>
		<path fill="#262727" d="M159.531,358.602c0.162,0,0.296,0.052,0.404,0.156s0.162,0.23,0.162,0.379
			c0,0.153-0.055,0.282-0.166,0.387s-0.244,0.156-0.4,0.156c-0.151,0-0.282-0.052-0.393-0.156s-0.166-0.233-0.166-0.387
			c0-0.148,0.054-0.274,0.162-0.379S159.375,358.602,159.531,358.602z M159.531,362.016c0.156,0,0.29,0.052,0.4,0.156
			s0.166,0.233,0.166,0.387s-0.054,0.282-0.162,0.385s-0.243,0.154-0.404,0.154c-0.156,0-0.289-0.052-0.396-0.156
			s-0.162-0.231-0.162-0.383c0-0.153,0.055-0.282,0.166-0.387S159.38,362.016,159.531,362.016z"/>
		<path fill="#262727" d="M163.871,360.09c0-1.063,0.182-1.868,0.545-2.418s0.89-0.824,1.58-0.824c1.315,0,1.973,1.032,1.973,3.098
			c0,1.011-0.18,1.789-0.539,2.336s-0.88,0.82-1.563,0.82c-0.659,0-1.156-0.258-1.492-0.773S163.871,361.066,163.871,360.09z
			 M164.805,360.055c0,1.542,0.374,2.313,1.121,2.313c0.737,0,1.105-0.786,1.105-2.359c0-1.614-0.361-2.422-1.082-2.422
			C165.186,357.586,164.805,358.409,164.805,360.055z"/>
		<path fill="#262727" d="M168.637,360.09c0-1.063,0.182-1.868,0.545-2.418s0.89-0.824,1.58-0.824c1.315,0,1.973,1.032,1.973,3.098
			c0,1.011-0.18,1.789-0.539,2.336s-0.88,0.82-1.563,0.82c-0.659,0-1.156-0.258-1.492-0.773S168.637,361.066,168.637,360.09z
			 M169.57,360.055c0,1.542,0.374,2.313,1.121,2.313c0.737,0,1.105-0.786,1.105-2.359c0-1.614-0.361-2.422-1.082-2.422
			C169.952,357.586,169.57,358.409,169.57,360.055z"/>
	</g>
	<g enable-background="new    ">
		<path fill="#262727" d="M150.297,385h-3.563v-0.766h1.324v-4.371l-1.359,0.367v-0.805l2.277-0.598v5.406h1.32V385z"/>
		<path fill="#262727" d="M154.816,379.836c-0.307-0.167-0.638-0.25-0.992-0.25c-0.521,0-0.932,0.221-1.232,0.662
			s-0.45,1.011-0.447,1.709h0.02c0.284-0.519,0.732-0.777,1.344-0.777c0.521,0,0.935,0.173,1.242,0.518s0.461,0.796,0.461,1.354
			c0,0.589-0.184,1.077-0.553,1.467s-0.84,0.584-1.416,0.584c-0.654,0-1.155-0.247-1.504-0.74s-0.523-1.173-0.523-2.037
			c0-1.023,0.227-1.858,0.68-2.506s1.083-0.971,1.891-0.971c0.435,0,0.779,0.058,1.031,0.172V379.836z M152.188,383.016
			c0,0.378,0.099,0.697,0.297,0.959s0.456,0.393,0.773,0.393c0.315,0,0.566-0.118,0.752-0.355s0.279-0.53,0.279-0.879
			c0-0.394-0.088-0.696-0.266-0.908s-0.435-0.318-0.773-0.318c-0.302,0-0.555,0.106-0.758,0.32S152.188,382.703,152.188,383.016z"/>
		<path fill="#262727" d="M159.531,380.602c0.162,0,0.296,0.052,0.404,0.156s0.162,0.23,0.162,0.379
			c0,0.153-0.055,0.282-0.166,0.387s-0.244,0.156-0.4,0.156c-0.151,0-0.282-0.052-0.393-0.156s-0.166-0.233-0.166-0.387
			c0-0.148,0.054-0.274,0.162-0.379S159.375,380.602,159.531,380.602z M159.531,384.016c0.156,0,0.29,0.052,0.4,0.156
			s0.166,0.233,0.166,0.387s-0.054,0.282-0.162,0.385s-0.243,0.154-0.404,0.154c-0.156,0-0.289-0.052-0.396-0.156
			s-0.162-0.231-0.162-0.383c0-0.153,0.055-0.282,0.166-0.387S159.38,384.016,159.531,384.016z"/>
		<path fill="#262727" d="M163.871,382.09c0-1.063,0.182-1.868,0.545-2.418s0.89-0.824,1.58-0.824c1.315,0,1.973,1.032,1.973,3.098
			c0,1.011-0.18,1.789-0.539,2.336s-0.88,0.82-1.563,0.82c-0.659,0-1.156-0.258-1.492-0.773S163.871,383.066,163.871,382.09z
			 M164.805,382.055c0,1.542,0.374,2.313,1.121,2.313c0.737,0,1.105-0.786,1.105-2.359c0-1.614-0.361-2.422-1.082-2.422
			C165.186,379.586,164.805,380.409,164.805,382.055z"/>
		<path fill="#262727" d="M168.637,382.09c0-1.063,0.182-1.868,0.545-2.418s0.89-0.824,1.58-0.824c1.315,0,1.973,1.032,1.973,3.098
			c0,1.011-0.18,1.789-0.539,2.336s-0.88,0.82-1.563,0.82c-0.659,0-1.156-0.258-1.492-0.773S168.637,383.066,168.637,382.09z
			 M169.57,382.055c0,1.542,0.374,2.313,1.121,2.313c0.737,0,1.105-0.786,1.105-2.359c0-1.614-0.361-2.422-1.082-2.422
			C169.952,379.586,169.57,380.409,169.57,382.055z"/>
	</g>
	<g enable-background="new    ">
		<path fill="#262727" d="M273.297,363h-3.563v-0.766h1.324v-4.371l-1.359,0.367v-0.805l2.277-0.598v5.406h1.32V363z"/>
		<path fill="#262727" d="M274.344,361.895c0.414,0.315,0.883,0.473,1.406,0.473c0.389,0,0.697-0.095,0.93-0.283
			s0.348-0.444,0.348-0.768c0-0.711-0.518-1.066-1.555-1.066h-0.516v-0.738h0.484c0.924,0,1.387-0.332,1.387-0.996
			c0-0.62-0.354-0.93-1.059-0.93c-0.416,0-0.814,0.141-1.195,0.422v-0.82c0.398-0.227,0.869-0.34,1.414-0.34
			c0.521,0,0.947,0.132,1.279,0.396s0.498,0.62,0.498,1.068c0,0.794-0.404,1.301-1.211,1.52v0.016
			c0.428,0.042,0.77,0.194,1.027,0.459s0.387,0.589,0.387,0.975c0,0.563-0.203,1.007-0.611,1.332s-0.938,0.488-1.592,0.488
			c-0.592,0-1.064-0.105-1.422-0.316V361.895z"/>
		<path fill="#262727" d="M282.531,358.602c0.162,0,0.297,0.052,0.404,0.156s0.162,0.23,0.162,0.379
			c0,0.153-0.055,0.282-0.166,0.387s-0.244,0.156-0.4,0.156c-0.15,0-0.281-0.052-0.393-0.156s-0.166-0.233-0.166-0.387
			c0-0.148,0.055-0.274,0.162-0.379S282.375,358.602,282.531,358.602z M282.531,362.016c0.156,0,0.289,0.052,0.4,0.156
			s0.166,0.233,0.166,0.387s-0.055,0.282-0.162,0.385s-0.242,0.154-0.404,0.154c-0.156,0-0.289-0.052-0.396-0.156
			s-0.162-0.231-0.162-0.383c0-0.153,0.055-0.282,0.166-0.387S282.381,362.016,282.531,362.016z"/>
		<path fill="#262727" d="M286.871,360.09c0-1.063,0.182-1.868,0.545-2.418s0.891-0.824,1.58-0.824c1.314,0,1.973,1.032,1.973,3.098
			c0,1.011-0.18,1.789-0.539,2.336s-0.881,0.82-1.563,0.82c-0.658,0-1.156-0.258-1.492-0.773S286.871,361.066,286.871,360.09z
			 M287.805,360.055c0,1.542,0.373,2.313,1.121,2.313c0.736,0,1.105-0.786,1.105-2.359c0-1.614-0.361-2.422-1.082-2.422
			C288.186,357.586,287.805,358.409,287.805,360.055z"/>
		<path fill="#262727" d="M291.637,360.09c0-1.063,0.182-1.868,0.545-2.418s0.891-0.824,1.58-0.824c1.314,0,1.973,1.032,1.973,3.098
			c0,1.011-0.18,1.789-0.539,2.336s-0.881,0.82-1.563,0.82c-0.658,0-1.156-0.258-1.492-0.773S291.637,361.066,291.637,360.09z
			 M292.57,360.055c0,1.542,0.373,2.313,1.121,2.313c0.736,0,1.105-0.786,1.105-2.359c0-1.614-0.361-2.422-1.082-2.422
			C292.951,357.586,292.57,358.409,292.57,360.055z"/>
	</g>
	<g enable-background="new    ">
		<path fill="#262727" d="M273.297,385h-3.563v-0.766h1.324v-4.371l-1.359,0.367v-0.805l2.277-0.598v5.406h1.32V385z"/>
		<path fill="#262727" d="M274.457,383.973c0.416,0.263,0.844,0.395,1.281,0.395c0.391,0,0.709-0.106,0.953-0.32
			s0.367-0.503,0.367-0.867c0-0.755-0.484-1.133-1.453-1.133c-0.229,0-0.551,0.02-0.965,0.059v-3.156h3.074v0.789h-2.25v1.574
			c0.227-0.013,0.396-0.02,0.512-0.02c0.619,0,1.111,0.16,1.473,0.48s0.543,0.766,0.543,1.336c0,0.606-0.201,1.091-0.602,1.451
			s-0.936,0.541-1.605,0.541c-0.572,0-1.016-0.085-1.328-0.254V383.973z"/>
		<path fill="#262727" d="M282.531,380.602c0.162,0,0.297,0.052,0.404,0.156s0.162,0.23,0.162,0.379
			c0,0.153-0.055,0.282-0.166,0.387s-0.244,0.156-0.4,0.156c-0.15,0-0.281-0.052-0.393-0.156s-0.166-0.233-0.166-0.387
			c0-0.148,0.055-0.274,0.162-0.379S282.375,380.602,282.531,380.602z M282.531,384.016c0.156,0,0.289,0.052,0.4,0.156
			s0.166,0.233,0.166,0.387s-0.055,0.282-0.162,0.385s-0.242,0.154-0.404,0.154c-0.156,0-0.289-0.052-0.396-0.156
			s-0.162-0.231-0.162-0.383c0-0.153,0.055-0.282,0.166-0.387S282.381,384.016,282.531,384.016z"/>
		<path fill="#262727" d="M286.871,382.09c0-1.063,0.182-1.868,0.545-2.418s0.891-0.824,1.58-0.824c1.314,0,1.973,1.032,1.973,3.098
			c0,1.011-0.18,1.789-0.539,2.336s-0.881,0.82-1.563,0.82c-0.658,0-1.156-0.258-1.492-0.773S286.871,383.066,286.871,382.09z
			 M287.805,382.055c0,1.542,0.373,2.313,1.121,2.313c0.736,0,1.105-0.786,1.105-2.359c0-1.614-0.361-2.422-1.082-2.422
			C288.186,379.586,287.805,380.409,287.805,382.055z"/>
		<path fill="#262727" d="M291.637,382.09c0-1.063,0.182-1.868,0.545-2.418s0.891-0.824,1.58-0.824c1.314,0,1.973,1.032,1.973,3.098
			c0,1.011-0.18,1.789-0.539,2.336s-0.881,0.82-1.563,0.82c-0.658,0-1.156-0.258-1.492-0.773S291.637,383.066,291.637,382.09z
			 M292.57,382.055c0,1.542,0.373,2.313,1.121,2.313c0.736,0,1.105-0.786,1.105-2.359c0-1.614-0.361-2.422-1.082-2.422
			C292.951,379.586,292.57,380.409,292.57,382.055z"/>
	</g>
	<g enable-background="new    ">
		<path fill="#262727" d="M150.297,411h-3.563v-0.766h1.324v-4.371l-1.359,0.367v-0.805l2.277-0.598v5.406h1.32V411z"/>
		<path fill="#262727" d="M151.473,410.07c0.336,0.198,0.702,0.297,1.098,0.297c0.529,0,0.935-0.2,1.219-0.602
			s0.426-0.964,0.426-1.688c-0.008,0-0.014-0.001-0.02-0.004c-0.263,0.474-0.698,0.711-1.305,0.711c-0.513,0-0.933-0.179-1.26-0.535
			s-0.49-0.804-0.49-1.34c0-0.604,0.186-1.099,0.557-1.484s0.855-0.578,1.451-0.578c0.627,0,1.114,0.242,1.459,0.727
			s0.518,1.172,0.518,2.063c0,1.083-0.217,1.932-0.652,2.545s-1.057,0.92-1.867,0.92c-0.435,0-0.813-0.07-1.133-0.211V410.07z
			 M152.055,406.809c0,0.375,0.096,0.674,0.287,0.896s0.457,0.334,0.795,0.334c0.294,0,0.54-0.102,0.736-0.305
			s0.295-0.452,0.295-0.746c0-0.388-0.097-0.719-0.291-0.992s-0.455-0.41-0.783-0.41c-0.305,0-0.554,0.118-0.748,0.355
			S152.055,406.468,152.055,406.809z"/>
		<path fill="#262727" d="M159.531,406.602c0.162,0,0.296,0.052,0.404,0.156s0.162,0.23,0.162,0.379
			c0,0.153-0.055,0.282-0.166,0.387s-0.244,0.156-0.4,0.156c-0.151,0-0.282-0.052-0.393-0.156s-0.166-0.233-0.166-0.387
			c0-0.148,0.054-0.274,0.162-0.379S159.375,406.602,159.531,406.602z M159.531,410.016c0.156,0,0.29,0.052,0.4,0.156
			s0.166,0.233,0.166,0.387s-0.054,0.282-0.162,0.385s-0.243,0.154-0.404,0.154c-0.156,0-0.289-0.052-0.396-0.156
			s-0.162-0.231-0.162-0.383c0-0.153,0.055-0.282,0.166-0.387S159.38,410.016,159.531,410.016z"/>
		<path fill="#262727" d="M163.871,408.09c0-1.063,0.182-1.868,0.545-2.418s0.89-0.824,1.58-0.824c1.315,0,1.973,1.032,1.973,3.098
			c0,1.011-0.18,1.789-0.539,2.336s-0.88,0.82-1.563,0.82c-0.659,0-1.156-0.258-1.492-0.773S163.871,409.066,163.871,408.09z
			 M164.805,408.055c0,1.542,0.374,2.313,1.121,2.313c0.737,0,1.105-0.786,1.105-2.359c0-1.614-0.361-2.422-1.082-2.422
			C165.186,405.586,164.805,406.409,164.805,408.055z"/>
		<path fill="#262727" d="M168.637,408.09c0-1.063,0.182-1.868,0.545-2.418s0.89-0.824,1.58-0.824c1.315,0,1.973,1.032,1.973,3.098
			c0,1.011-0.18,1.789-0.539,2.336s-0.88,0.82-1.563,0.82c-0.659,0-1.156-0.258-1.492-0.773S168.637,409.066,168.637,408.09z
			 M169.57,408.055c0,1.542,0.374,2.313,1.121,2.313c0.737,0,1.105-0.786,1.105-2.359c0-1.614-0.361-2.422-1.082-2.422
			C169.952,405.586,169.57,406.409,169.57,408.055z"/>
	</g>
	<g enable-background="new    ">
		<path fill="#262727" d="M150.188,434h-3.762v-0.766l1.754-1.727c0.391-0.383,0.679-0.714,0.865-0.992s0.279-0.582,0.279-0.91
			c0-0.669-0.354-1.004-1.063-1.004c-0.531,0-1.042,0.223-1.531,0.668v-0.883c0.492-0.359,1.057-0.539,1.695-0.539
			c0.555,0,0.997,0.147,1.326,0.443s0.494,0.7,0.494,1.213c0,0.37-0.104,0.737-0.313,1.104s-0.572,0.799-1.09,1.299l-1.344,1.281
			v0.02h2.688V434z"/>
		<path fill="#262727" d="M155.063,434H151.5v-0.766h1.324v-4.371l-1.359,0.367v-0.805l2.277-0.598v5.406h1.32V434z"/>
		<path fill="#262727" d="M159.531,429.602c0.162,0,0.296,0.052,0.404,0.156s0.162,0.23,0.162,0.379
			c0,0.153-0.055,0.282-0.166,0.387s-0.244,0.156-0.4,0.156c-0.151,0-0.282-0.052-0.393-0.156s-0.166-0.233-0.166-0.387
			c0-0.148,0.054-0.274,0.162-0.379S159.375,429.602,159.531,429.602z M159.531,433.016c0.156,0,0.29,0.052,0.4,0.156
			s0.166,0.233,0.166,0.387s-0.054,0.282-0.162,0.385s-0.243,0.154-0.404,0.154c-0.156,0-0.289-0.052-0.396-0.156
			s-0.162-0.231-0.162-0.383c0-0.153,0.055-0.282,0.166-0.387S159.38,433.016,159.531,433.016z"/>
		<path fill="#262727" d="M163.871,431.09c0-1.063,0.182-1.868,0.545-2.418s0.89-0.824,1.58-0.824c1.315,0,1.973,1.032,1.973,3.098
			c0,1.011-0.18,1.789-0.539,2.336s-0.88,0.82-1.563,0.82c-0.659,0-1.156-0.258-1.492-0.773S163.871,432.066,163.871,431.09z
			 M164.805,431.055c0,1.542,0.374,2.313,1.121,2.313c0.737,0,1.105-0.786,1.105-2.359c0-1.614-0.361-2.422-1.082-2.422
			C165.186,428.586,164.805,429.409,164.805,431.055z"/>
		<path fill="#262727" d="M168.637,431.09c0-1.063,0.182-1.868,0.545-2.418s0.89-0.824,1.58-0.824c1.315,0,1.973,1.032,1.973,3.098
			c0,1.011-0.18,1.789-0.539,2.336s-0.88,0.82-1.563,0.82c-0.659,0-1.156-0.258-1.492-0.773S168.637,432.066,168.637,431.09z
			 M169.57,431.055c0,1.542,0.374,2.313,1.121,2.313c0.737,0,1.105-0.786,1.105-2.359c0-1.614-0.361-2.422-1.082-2.422
			C169.952,428.586,169.57,429.409,169.57,431.055z"/>
	</g>
	<g enable-background="new    ">
		<path fill="#262727" d="M232.297,411h-3.563v-0.766h1.324v-4.371l-1.359,0.367v-0.805l2.277-0.598v5.406h1.32V411z"/>
		<path fill="#262727" d="M233.473,410.07c0.336,0.198,0.701,0.297,1.098,0.297c0.529,0,0.936-0.2,1.219-0.602
			s0.426-0.964,0.426-1.688c-0.008,0-0.014-0.001-0.02-0.004c-0.264,0.474-0.697,0.711-1.305,0.711c-0.514,0-0.934-0.179-1.26-0.535
			s-0.49-0.804-0.49-1.34c0-0.604,0.186-1.099,0.557-1.484s0.855-0.578,1.451-0.578c0.627,0,1.113,0.242,1.459,0.727
			s0.518,1.172,0.518,2.063c0,1.083-0.217,1.932-0.652,2.545s-1.057,0.92-1.867,0.92c-0.436,0-0.813-0.07-1.133-0.211V410.07z
			 M234.055,406.809c0,0.375,0.096,0.674,0.287,0.896s0.457,0.334,0.795,0.334c0.295,0,0.539-0.102,0.736-0.305
			s0.295-0.452,0.295-0.746c0-0.388-0.098-0.719-0.291-0.992s-0.455-0.41-0.783-0.41c-0.305,0-0.555,0.118-0.748,0.355
			S234.055,406.468,234.055,406.809z"/>
		<path fill="#262727" d="M241.531,406.602c0.162,0,0.297,0.052,0.404,0.156s0.162,0.23,0.162,0.379
			c0,0.153-0.055,0.282-0.166,0.387s-0.244,0.156-0.4,0.156c-0.15,0-0.281-0.052-0.393-0.156s-0.166-0.233-0.166-0.387
			c0-0.148,0.055-0.274,0.162-0.379S241.375,406.602,241.531,406.602z M241.531,410.016c0.156,0,0.289,0.052,0.4,0.156
			s0.166,0.233,0.166,0.387s-0.055,0.282-0.162,0.385s-0.242,0.154-0.404,0.154c-0.156,0-0.289-0.052-0.396-0.156
			s-0.162-0.231-0.162-0.383c0-0.153,0.055-0.282,0.166-0.387S241.381,410.016,241.531,410.016z"/>
		<path fill="#262727" d="M245.871,408.09c0-1.063,0.182-1.868,0.545-2.418s0.891-0.824,1.58-0.824c1.314,0,1.973,1.032,1.973,3.098
			c0,1.011-0.18,1.789-0.539,2.336s-0.881,0.82-1.563,0.82c-0.658,0-1.156-0.258-1.492-0.773S245.871,409.066,245.871,408.09z
			 M246.805,408.055c0,1.542,0.373,2.313,1.121,2.313c0.736,0,1.105-0.786,1.105-2.359c0-1.614-0.361-2.422-1.082-2.422
			C247.186,405.586,246.805,406.409,246.805,408.055z"/>
		<path fill="#262727" d="M250.637,408.09c0-1.063,0.182-1.868,0.545-2.418s0.891-0.824,1.58-0.824c1.314,0,1.973,1.032,1.973,3.098
			c0,1.011-0.18,1.789-0.539,2.336s-0.881,0.82-1.563,0.82c-0.658,0-1.156-0.258-1.492-0.773S250.637,409.066,250.637,408.09z
			 M251.57,408.055c0,1.542,0.373,2.313,1.121,2.313c0.736,0,1.105-0.786,1.105-2.359c0-1.614-0.361-2.422-1.082-2.422
			C251.951,405.586,251.57,406.409,251.57,408.055z"/>
	</g>
	<g enable-background="new    ">
		<path fill="#262727" d="M232.188,434h-3.762v-0.766l1.754-1.727c0.391-0.383,0.68-0.714,0.865-0.992s0.279-0.582,0.279-0.91
			c0-0.669-0.354-1.004-1.063-1.004c-0.531,0-1.041,0.223-1.531,0.668v-0.883c0.492-0.359,1.057-0.539,1.695-0.539
			c0.555,0,0.996,0.147,1.326,0.443s0.494,0.7,0.494,1.213c0,0.37-0.104,0.737-0.313,1.104s-0.572,0.799-1.09,1.299l-1.344,1.281
			v0.02h2.688V434z"/>
		<path fill="#262727" d="M237.063,434H233.5v-0.766h1.324v-4.371l-1.359,0.367v-0.805l2.277-0.598v5.406h1.32V434z"/>
		<path fill="#262727" d="M241.531,429.602c0.162,0,0.297,0.052,0.404,0.156s0.162,0.23,0.162,0.379
			c0,0.153-0.055,0.282-0.166,0.387s-0.244,0.156-0.4,0.156c-0.15,0-0.281-0.052-0.393-0.156s-0.166-0.233-0.166-0.387
			c0-0.148,0.055-0.274,0.162-0.379S241.375,429.602,241.531,429.602z M241.531,433.016c0.156,0,0.289,0.052,0.4,0.156
			s0.166,0.233,0.166,0.387s-0.055,0.282-0.162,0.385s-0.242,0.154-0.404,0.154c-0.156,0-0.289-0.052-0.396-0.156
			s-0.162-0.231-0.162-0.383c0-0.153,0.055-0.282,0.166-0.387S241.381,433.016,241.531,433.016z"/>
		<path fill="#262727" d="M245.871,431.09c0-1.063,0.182-1.868,0.545-2.418s0.891-0.824,1.58-0.824c1.314,0,1.973,1.032,1.973,3.098
			c0,1.011-0.18,1.789-0.539,2.336s-0.881,0.82-1.563,0.82c-0.658,0-1.156-0.258-1.492-0.773S245.871,432.066,245.871,431.09z
			 M246.805,431.055c0,1.542,0.373,2.313,1.121,2.313c0.736,0,1.105-0.786,1.105-2.359c0-1.614-0.361-2.422-1.082-2.422
			C247.186,428.586,246.805,429.409,246.805,431.055z"/>
		<path fill="#262727" d="M250.637,431.09c0-1.063,0.182-1.868,0.545-2.418s0.891-0.824,1.58-0.824c1.314,0,1.973,1.032,1.973,3.098
			c0,1.011-0.18,1.789-0.539,2.336s-0.881,0.82-1.563,0.82c-0.658,0-1.156-0.258-1.492-0.773S250.637,432.066,250.637,431.09z
			 M251.57,431.055c0,1.542,0.373,2.313,1.121,2.313c0.736,0,1.105-0.786,1.105-2.359c0-1.614-0.361-2.422-1.082-2.422
			C251.951,428.586,251.57,429.409,251.57,431.055z"/>
	</g>
	<g enable-background="new    ">
		<path fill="#262727" d="M273.297,411h-3.563v-0.766h1.324v-4.371l-1.359,0.367v-0.805l2.277-0.598v5.406h1.32V411z"/>
		<path fill="#262727" d="M274.473,410.07c0.336,0.198,0.701,0.297,1.098,0.297c0.529,0,0.936-0.2,1.219-0.602
			s0.426-0.964,0.426-1.688c-0.008,0-0.014-0.001-0.02-0.004c-0.264,0.474-0.697,0.711-1.305,0.711c-0.514,0-0.934-0.179-1.26-0.535
			s-0.49-0.804-0.49-1.34c0-0.604,0.186-1.099,0.557-1.484s0.855-0.578,1.451-0.578c0.627,0,1.113,0.242,1.459,0.727
			s0.518,1.172,0.518,2.063c0,1.083-0.217,1.932-0.652,2.545s-1.057,0.92-1.867,0.92c-0.436,0-0.813-0.07-1.133-0.211V410.07z
			 M275.055,406.809c0,0.375,0.096,0.674,0.287,0.896s0.457,0.334,0.795,0.334c0.295,0,0.539-0.102,0.736-0.305
			s0.295-0.452,0.295-0.746c0-0.388-0.098-0.719-0.291-0.992s-0.455-0.41-0.783-0.41c-0.305,0-0.555,0.118-0.748,0.355
			S275.055,406.468,275.055,406.809z"/>
		<path fill="#262727" d="M282.531,406.602c0.162,0,0.297,0.052,0.404,0.156s0.162,0.23,0.162,0.379
			c0,0.153-0.055,0.282-0.166,0.387s-0.244,0.156-0.4,0.156c-0.15,0-0.281-0.052-0.393-0.156s-0.166-0.233-0.166-0.387
			c0-0.148,0.055-0.274,0.162-0.379S282.375,406.602,282.531,406.602z M282.531,410.016c0.156,0,0.289,0.052,0.4,0.156
			s0.166,0.233,0.166,0.387s-0.055,0.282-0.162,0.385s-0.242,0.154-0.404,0.154c-0.156,0-0.289-0.052-0.396-0.156
			s-0.162-0.231-0.162-0.383c0-0.153,0.055-0.282,0.166-0.387S282.381,410.016,282.531,410.016z"/>
		<path fill="#262727" d="M286.871,408.09c0-1.063,0.182-1.868,0.545-2.418s0.891-0.824,1.58-0.824c1.314,0,1.973,1.032,1.973,3.098
			c0,1.011-0.18,1.789-0.539,2.336s-0.881,0.82-1.563,0.82c-0.658,0-1.156-0.258-1.492-0.773S286.871,409.066,286.871,408.09z
			 M287.805,408.055c0,1.542,0.373,2.313,1.121,2.313c0.736,0,1.105-0.786,1.105-2.359c0-1.614-0.361-2.422-1.082-2.422
			C288.186,405.586,287.805,406.409,287.805,408.055z"/>
		<path fill="#262727" d="M291.637,408.09c0-1.063,0.182-1.868,0.545-2.418s0.891-0.824,1.58-0.824c1.314,0,1.973,1.032,1.973,3.098
			c0,1.011-0.18,1.789-0.539,2.336s-0.881,0.82-1.563,0.82c-0.658,0-1.156-0.258-1.492-0.773S291.637,409.066,291.637,408.09z
			 M292.57,408.055c0,1.542,0.373,2.313,1.121,2.313c0.736,0,1.105-0.786,1.105-2.359c0-1.614-0.361-2.422-1.082-2.422
			C292.951,405.586,292.57,406.409,292.57,408.055z"/>
	</g>
	<g enable-background="new    ">
		<path fill="#262727" d="M273.188,434h-3.762v-0.766l1.754-1.727c0.391-0.383,0.68-0.714,0.865-0.992s0.279-0.582,0.279-0.91
			c0-0.669-0.354-1.004-1.063-1.004c-0.531,0-1.041,0.223-1.531,0.668v-0.883c0.492-0.359,1.057-0.539,1.695-0.539
			c0.555,0,0.996,0.147,1.326,0.443s0.494,0.7,0.494,1.213c0,0.37-0.104,0.737-0.313,1.104s-0.572,0.799-1.09,1.299l-1.344,1.281
			v0.02h2.688V434z"/>
		<path fill="#262727" d="M278.063,434H274.5v-0.766h1.324v-4.371l-1.359,0.367v-0.805l2.277-0.598v5.406h1.32V434z"/>
		<path fill="#262727" d="M282.531,429.602c0.162,0,0.297,0.052,0.404,0.156s0.162,0.23,0.162,0.379
			c0,0.153-0.055,0.282-0.166,0.387s-0.244,0.156-0.4,0.156c-0.15,0-0.281-0.052-0.393-0.156s-0.166-0.233-0.166-0.387
			c0-0.148,0.055-0.274,0.162-0.379S282.375,429.602,282.531,429.602z M282.531,433.016c0.156,0,0.289,0.052,0.4,0.156
			s0.166,0.233,0.166,0.387s-0.055,0.282-0.162,0.385s-0.242,0.154-0.404,0.154c-0.156,0-0.289-0.052-0.396-0.156
			s-0.162-0.231-0.162-0.383c0-0.153,0.055-0.282,0.166-0.387S282.381,433.016,282.531,433.016z"/>
		<path fill="#262727" d="M286.871,431.09c0-1.063,0.182-1.868,0.545-2.418s0.891-0.824,1.58-0.824c1.314,0,1.973,1.032,1.973,3.098
			c0,1.011-0.18,1.789-0.539,2.336s-0.881,0.82-1.563,0.82c-0.658,0-1.156-0.258-1.492-0.773S286.871,432.066,286.871,431.09z
			 M287.805,431.055c0,1.542,0.373,2.313,1.121,2.313c0.736,0,1.105-0.786,1.105-2.359c0-1.614-0.361-2.422-1.082-2.422
			C288.186,428.586,287.805,429.409,287.805,431.055z"/>
		<path fill="#262727" d="M291.637,431.09c0-1.063,0.182-1.868,0.545-2.418s0.891-0.824,1.58-0.824c1.314,0,1.973,1.032,1.973,3.098
			c0,1.011-0.18,1.789-0.539,2.336s-0.881,0.82-1.563,0.82c-0.658,0-1.156-0.258-1.492-0.773S291.637,432.066,291.637,431.09z
			 M292.57,431.055c0,1.542,0.373,2.313,1.121,2.313c0.736,0,1.105-0.786,1.105-2.359c0-1.614-0.361-2.422-1.082-2.422
			C292.951,428.586,292.57,429.409,292.57,431.055z"/>
	</g>
	<g enable-background="new    ">
		<path fill="#262727" d="M283.357,325.408c-0.448-0.023-0.791-0.145-1.029-0.365s-0.357-0.508-0.357-0.865
			c0-0.305,0.144-0.674,0.43-1.109c0.185-0.287,0.277-0.509,0.277-0.668c0-0.375-0.239-0.57-0.719-0.586v-0.672
			c0.427,0.013,0.765,0.129,1.014,0.35s0.373,0.515,0.373,0.885c0,0.305-0.117,0.637-0.352,0.996
			c-0.242,0.373-0.363,0.642-0.363,0.809c0,0.162,0.065,0.293,0.197,0.395s0.308,0.155,0.529,0.16V325.408z"/>
	</g>
	<g enable-background="new    ">
		<path fill="#262727" d="M160.092,373.938c-0.448-0.023-0.791-0.145-1.029-0.365c-0.238-0.22-0.357-0.508-0.357-0.865
			c0-0.305,0.144-0.674,0.43-1.109c0.185-0.286,0.277-0.509,0.277-0.668c0-0.375-0.239-0.57-0.719-0.586v-0.672
			c0.427,0.014,0.765,0.13,1.014,0.35c0.249,0.221,0.373,0.516,0.373,0.885c0,0.305-0.117,0.637-0.352,0.996
			c-0.242,0.373-0.363,0.643-0.363,0.809c0,0.162,0.065,0.293,0.197,0.395s0.308,0.155,0.529,0.16V373.938z"/>
	</g>
	<g enable-background="new    ">
		<path fill="#262727" d="M283.357,373.938c-0.448-0.023-0.791-0.145-1.029-0.365c-0.238-0.22-0.357-0.508-0.357-0.865
			c0-0.305,0.144-0.674,0.43-1.109c0.185-0.286,0.277-0.509,0.277-0.668c0-0.375-0.239-0.57-0.719-0.586v-0.672
			c0.427,0.014,0.765,0.13,1.014,0.35c0.249,0.221,0.373,0.516,0.373,0.885c0,0.305-0.117,0.637-0.352,0.996
			c-0.242,0.373-0.363,0.643-0.363,0.809c0,0.162,0.065,0.293,0.197,0.395s0.308,0.155,0.529,0.16V373.938z"/>
	</g>
	<g enable-background="new    ">
		<path fill="#262727" d="M160.092,422.467c-0.448-0.023-0.791-0.145-1.029-0.365s-0.357-0.508-0.357-0.865
			c0-0.305,0.144-0.674,0.43-1.109c0.185-0.287,0.277-0.51,0.277-0.668c0-0.375-0.239-0.57-0.719-0.586v-0.672
			c0.427,0.014,0.765,0.129,1.014,0.35s0.373,0.516,0.373,0.885c0,0.305-0.117,0.637-0.352,0.996
			c-0.242,0.373-0.363,0.643-0.363,0.809c0,0.162,0.065,0.293,0.197,0.395s0.308,0.154,0.529,0.16V422.467z"/>
	</g>
	<g enable-background="new    ">
		<path fill="#262727" d="M242.592,422.467c-0.448-0.023-0.791-0.145-1.029-0.365s-0.357-0.508-0.357-0.865
			c0-0.305,0.144-0.674,0.43-1.109c0.185-0.287,0.277-0.51,0.277-0.668c0-0.375-0.239-0.57-0.719-0.586v-0.672
			c0.427,0.014,0.765,0.129,1.014,0.35s0.373,0.516,0.373,0.885c0,0.305-0.117,0.637-0.352,0.996
			c-0.242,0.373-0.363,0.643-0.363,0.809c0,0.162,0.065,0.293,0.197,0.395s0.308,0.154,0.529,0.16V422.467z"/>
	</g>
	<g enable-background="new    ">
		<path fill="#262727" d="M283.357,422.467c-0.448-0.023-0.791-0.145-1.029-0.365s-0.357-0.508-0.357-0.865
			c0-0.305,0.144-0.674,0.43-1.109c0.185-0.287,0.277-0.51,0.277-0.668c0-0.375-0.239-0.57-0.719-0.586v-0.672
			c0.427,0.014,0.765,0.129,1.014,0.35s0.373,0.516,0.373,0.885c0,0.305-0.117,0.637-0.352,0.996
			c-0.242,0.373-0.363,0.643-0.363,0.809c0,0.162,0.065,0.293,0.197,0.395s0.308,0.154,0.529,0.16V422.467z"/>
	</g>
	<g enable-background="new    ">
		<path fill="#262727" d="M331.719,281.957h-1.855v-1.338H320.4v1.338h-1.904v-16.914h13.223V281.957z M329.863,271.703v-4.941
			H320.4v4.941H329.863z M329.863,278.881v-5.459H320.4v5.459H329.863z"/>
	</g>
</g>
</svg>
